<svg width="160" height="129" viewBox="0 0 160 129" fill="none" xmlns="http://www.w3.org/2000/svg">
<g opacity="0.4">
<path opacity="0.4" d="M136.397 128.783H26.3057C12.791 117.444 4.87836 100.012 3.63068 82.4841C2.92905 72.6211 4.19178 62.4507 8.65251 53.5644C13.1132 44.678 21.0109 37.1974 30.7233 34.386C48.8733 29.1332 68.1878 40.6245 86.8738 37.7013C98.2334 35.9244 108.583 28.8967 120.081 29.1102C132.271 29.3367 142.928 37.9227 149.063 48.1998C157.674 62.6263 158.888 77.7801 155.527 94.1759C153.353 104.782 145.644 118.258 136.397 128.783Z" fill="#E0E0FF"/>
</g>
<path d="M64.648 113.486H55.6894C55.313 113.486 55.0078 113.182 55.0078 112.808V110.414C55.0078 110.04 55.313 109.736 55.6894 109.736H64.648C65.0244 109.736 65.3295 110.04 65.3295 110.414V112.808C65.3295 113.182 65.0244 113.486 64.648 113.486Z" fill="#E0E0FF"/>
<path d="M76.3589 113.486H67.4003C67.0239 113.486 66.7188 113.182 66.7188 112.808V110.414C66.7188 110.04 67.0239 109.736 67.4003 109.736H76.3589C76.7353 109.736 77.0405 110.04 77.0405 110.414V112.808C77.0405 113.182 76.7353 113.486 76.3589 113.486Z" fill="#E0E0FF"/>
<path d="M70.4214 108.331H61.4628C61.0864 108.331 60.7812 108.028 60.7812 107.654V105.259C60.7812 104.885 61.0864 104.582 61.4628 104.582H70.4214C70.7978 104.582 71.103 104.885 71.103 105.259V107.654C71.103 108.028 70.7978 108.331 70.4214 108.331Z" fill="#E0E0FF"/>
<path d="M120.283 22.3662H37.4727V20.4537C37.4727 19.1657 38.5236 18.1211 39.8195 18.1211H117.936C119.232 18.1211 120.283 19.1657 120.283 20.4537V22.3662Z" fill="white"/>
<path fill-rule="evenodd" clip-rule="evenodd" d="M120.406 22.4886H37.3477V20.4524C37.3477 19.0985 38.4558 17.9961 39.8189 17.9961H117.936C119.298 17.9961 120.407 19.0975 120.407 20.4524V22.4886H120.406ZM37.5956 22.2422H120.158V20.4534C120.158 19.2352 119.161 18.2445 117.936 18.2445H39.8189C38.5933 18.2445 37.5966 19.2352 37.5966 20.4534V22.2422H37.5956Z" fill="#5254CF"/>
<path d="M120.283 22.3652V71.898C120.283 73.186 119.232 74.2306 117.936 74.2306H39.8195C38.5236 74.2306 37.4727 73.186 37.4727 71.898V22.3652H120.283Z" fill="white"/>
<path fill-rule="evenodd" clip-rule="evenodd" d="M117.936 74.354H39.8189C38.4568 74.354 37.3477 73.2526 37.3477 71.8977V22.2422H120.406V71.8977C120.406 73.2516 119.298 74.354 117.935 74.354H117.936ZM37.5966 22.4886V71.8977C37.5966 73.1159 38.5933 74.1066 39.8189 74.1066H117.936C119.161 74.1066 120.158 73.1159 120.158 71.8977V22.4886H37.5956H37.5966Z" fill="#5254CF"/>
<path d="M42.3246 20.2432C42.3246 20.7021 41.9502 21.0742 41.4885 21.0742C41.0267 21.0742 40.6523 20.7021 40.6523 20.2432C40.6523 19.7842 41.0267 19.4121 41.4885 19.4121C41.9502 19.4121 42.3246 19.7842 42.3246 20.2432Z" fill="white"/>
<path fill-rule="evenodd" clip-rule="evenodd" d="M41.4889 21.1987C40.959 21.1987 40.5273 20.7697 40.5273 20.2429C40.5273 19.7161 40.959 19.2871 41.4889 19.2871C42.0189 19.2871 42.4506 19.7161 42.4506 20.2429C42.4506 20.7697 42.0189 21.1987 41.4889 21.1987ZM41.4889 19.5355C41.0965 19.5355 40.7783 19.8528 40.7783 20.2419C40.7783 20.632 41.0975 20.9483 41.4889 20.9483C41.8814 20.9483 42.1996 20.631 42.1996 20.2419C42.1996 19.8518 41.8804 19.5355 41.4889 19.5355Z" fill="#5254CF"/>
<path d="M45.5863 20.2432C45.5863 20.7021 45.2119 21.0742 44.7502 21.0742C44.2885 21.0742 43.9141 20.7021 43.9141 20.2432C43.9141 19.7842 44.2885 19.4121 44.7502 19.4121C45.2119 19.4121 45.5863 19.7842 45.5863 20.2432Z" fill="white"/>
<path fill-rule="evenodd" clip-rule="evenodd" d="M44.7507 21.1987C44.2207 21.1987 43.7891 20.7697 43.7891 20.2429C43.7891 19.7161 44.2207 19.2871 44.7507 19.2871C45.2806 19.2871 45.7123 19.7161 45.7123 20.2429C45.7123 20.7697 45.2806 21.1987 44.7507 21.1987ZM44.7507 19.5355C44.3582 19.5355 44.04 19.8528 44.04 20.2419C44.04 20.632 44.3592 20.9482 44.7507 20.9482C45.1431 20.9482 45.4613 20.631 45.4613 20.2419C45.4613 19.8518 45.1421 19.5355 44.7507 19.5355Z" fill="#5254CF"/>
<path d="M48.8481 20.2432C48.8481 20.7021 48.4737 21.0742 48.0119 21.0742C47.5502 21.0742 47.1758 20.7021 47.1758 20.2432C47.1758 19.7842 47.5502 19.4121 48.0119 19.4121C48.4737 19.4121 48.8481 19.7842 48.8481 20.2432Z" fill="white"/>
<path fill-rule="evenodd" clip-rule="evenodd" d="M48.0124 21.1987C47.4824 21.1987 47.0508 20.7697 47.0508 20.2429C47.0508 19.7161 47.4824 19.2871 48.0124 19.2871C48.5424 19.2871 48.974 19.7161 48.974 20.2429C48.974 20.7697 48.5424 21.1987 48.0124 21.1987ZM48.0124 19.5355C47.6199 19.5355 47.3017 19.8528 47.3017 20.2419C47.3017 20.632 47.6209 20.9482 48.0124 20.9482C48.4049 20.9482 48.723 20.631 48.723 20.2419C48.723 19.8518 48.4038 19.5355 48.0124 19.5355Z" fill="#5254CF"/>
<path opacity="0.4" d="M111.65 27.7656V66.8767H46.1016V27.7656H111.65Z" fill="#E0E0FF"/>
<path d="M90.7919 74.0884H69.3917C68.6007 66.7435 68.3979 60.1588 69.1056 55.781C69.2983 54.5888 69.5573 53.5612 69.8905 52.7261L78.9013 50.9023L89.3786 51.8352C91.1402 56.3646 91.4163 64.5087 90.7909 74.0884H90.7919Z" fill="#FFB147"/>
<path d="M79.6924 61.4197H79.4414V52.9395H79.6924V61.4197Z" fill="#1B1B43"/>
<path opacity="0.2" d="M89.3785 51.8352C83.7544 55.756 76.9961 57.071 69.1055 55.781C69.2982 54.5888 69.5572 53.5612 69.8904 52.7261L78.9012 50.9023L89.3785 51.8352Z" fill="#1B1B43"/>
<path d="M82.8491 18.2305C84.9279 18.7163 85.9277 21.8171 85.8453 27.5308L71.5688 28.1235C70.9164 25.2062 71.9452 22.0296 74.6544 18.5956L82.8491 18.2305Z" fill="#1B1B43"/>
<path d="M86.9496 27.0198H86.6986C86.6986 21.4048 83.7606 18.8258 83.7305 18.7999L83.8941 18.6113C83.9242 18.6373 86.9486 21.2921 86.9486 27.0198H86.9496Z" fill="#1B1B43"/>
<path d="M71.178 47.8594C71.1609 48.445 71.0445 49.0097 70.8467 49.5375C70.3298 50.9293 69.2457 52.0586 67.8475 52.6133C67.5112 52.75 67.1549 52.8508 66.7835 52.9127C66.111 53.0274 65.328 53.0922 64.4076 53.0922C59.7903 53.0922 56.4377 49.6063 56.0412 48.5438C55.7772 47.8335 56.0171 47.605 56.7629 47.8574C57.0349 47.2548 57.4736 47.1959 58.0788 47.6818C58.2615 47.0533 58.6389 47.0323 59.2111 47.619C59.2312 47.2748 59.4038 47.1121 59.73 47.1321C60.0312 47.1521 61.0169 47.7487 61.7295 48.2026C62.0959 48.4341 62.5175 48.5538 62.9441 48.5538C63.1147 48.5538 63.2854 48.5368 63.453 48.4969C64.3293 48.2974 65.0018 47.596 65.1644 46.7181L66.5466 39.2305H69.8189L70.8678 40.5674C71.2793 42.2165 71.2542 45.5927 71.177 47.8584L71.178 47.8594Z" fill="#FFBC96"/>
<path opacity="0.4" d="M70.8479 49.5364C70.331 50.9282 69.2469 52.0576 67.8486 52.6123C67.7332 52.3349 67.668 52.0306 67.668 51.7114C67.668 50.4273 68.7169 49.3848 70.0118 49.3848C70.3059 49.3848 70.5869 49.4396 70.8479 49.5364Z" fill="#FE5B52"/>
<path d="M70.8698 40.5692L64.7539 39.7182L66.5838 31.1192C67.1067 28.6639 69.045 26.7514 71.5193 26.2495L78.2485 24.8867L70.8688 40.5692H70.8698Z" fill="#5254CF"/>
<path d="M80.5938 24.8867L87.323 26.2495C89.7973 26.7504 91.7355 28.6639 92.2585 31.1192L93.0896 37.226L87.1574 38.2596L80.5938 24.8867Z" fill="#5254CF"/>
<path d="M70.2992 35.1408L78.249 24.8887H80.5928L88.5636 33.763L89.3787 51.836C82.4748 54.5377 75.9785 54.835 69.8906 52.7279C70.3253 51.1606 70.6515 47.109 70.8693 40.5712L70.2982 35.1408H70.2992Z" fill="#5254CF"/>
<path d="M100.919 25.1291C100.956 25.7707 99.8952 27.7101 99.0802 29.0999C98.4799 30.1195 98.0965 31.2549 97.956 32.4292C96.905 41.2088 96.2094 48.5547 93.1359 50.6119C92.4232 51.0878 91.5851 51.2833 90.5864 51.1457C89.8807 51.0479 89.3015 50.7665 88.8278 50.3445C86.6697 48.4359 86.1146 44.4063 87.1615 38.2576L91.1766 37.5692C91.7758 32.5439 92.2647 29.1668 92.6441 27.4378C93.0255 25.7098 93.5153 25.3047 94.1126 26.2226C94.3304 25.6819 94.7369 25.5741 95.3342 25.8984C95.7688 25.197 96.2586 25.1152 96.8017 25.6539C97.1279 25.0074 97.7532 25.2509 98.6787 26.3842C99.574 25.9772 100.84 23.7803 100.92 25.1272L100.919 25.1291Z" fill="#FFBC96"/>
<path d="M70.997 40.5758L70.7461 40.5638L71.1416 32.3359L71.3925 32.3479L70.997 40.5758Z" fill="#1B1B43"/>
<path d="M87.0432 38.4057L86.5312 31.8529L86.7812 31.834L87.272 38.1144L91.1526 37.4489L91.1957 37.6944L87.0442 38.4067L87.0432 38.4057Z" fill="#1B1B43"/>
<path d="M90.4208 44.4139L90.1719 44.381L92.0118 30.5801L92.2607 30.613L90.4208 44.4139Z" fill="#D28572"/>
<path opacity="0.4" d="M93.1324 50.6121C92.4197 51.088 91.5816 51.2836 90.5828 51.1459C89.8772 51.0481 89.298 50.7668 88.8242 50.3447C89.2077 49.5795 90.0036 49.0527 90.9221 49.0527C91.9439 49.0527 92.8142 49.7032 93.1334 50.6121H93.1324Z" fill="#FE5B52"/>
<path d="M94.2162 27.7375L93.9844 26.2449L94.2323 26.207L94.4642 27.6996L94.2162 27.7375Z" fill="#D28572"/>
<path d="M95.725 27.4144L95.2422 25.9528L95.4811 25.875L95.9639 27.3366L95.725 27.4144Z" fill="#D28572"/>
<path d="M97.2336 27.1053L96.6875 25.5819L96.9244 25.498L97.4704 27.0215L97.2336 27.1053Z" fill="#D28572"/>
<path d="M84.6218 32.2369H82.007C81.9237 32.2369 81.8555 32.1701 81.8555 32.0863V31.4827C81.8555 31.3999 81.9227 31.332 82.007 31.332H84.6218C84.7052 31.332 84.7734 31.3989 84.7734 31.4827V32.0863C84.7734 32.1691 84.7062 32.2369 84.6218 32.2369Z" fill="#CBCBFF"/>
<path d="M79.2182 29.4211C77.4957 29.4211 76.3022 28.3765 76.2852 28.3605L76.4528 28.175C76.5562 28.2667 79.0074 30.4048 81.9815 28.168L82.1331 28.3665C81.0831 29.1567 80.0834 29.4201 79.2192 29.4201L79.2182 29.4211Z" fill="#1B1B43"/>
<path d="M60.734 48.9417C60.2 48.7352 59.6188 48.2922 59.0547 47.6617L59.2424 47.4961C59.7804 48.0977 60.3275 48.5177 60.8253 48.7103L60.734 48.9427V48.9417Z" fill="#D28572"/>
<path d="M59.2975 49.3041C58.7846 48.9818 58.3288 48.457 57.9062 47.7008L58.1261 47.5801C58.5286 48.2994 58.9552 48.7953 59.432 49.0946L59.2975 49.3051V49.3041Z" fill="#D28572"/>
<path d="M58.287 49.7684C57.6747 49.3155 57.1096 48.6819 56.5625 47.8339L56.7733 47.6992C57.3043 48.5223 57.8483 49.1329 58.4365 49.5679L58.287 49.7684Z" fill="#D28572"/>
<path d="M79.2087 27.8043C77.8014 27.8043 76.6602 26.6699 76.6602 25.2712V20.9961H81.7562V25.2712C81.7562 26.6699 80.615 27.8043 79.2077 27.8043H79.2087Z" fill="#FFBC96"/>
<path d="M76.6602 21.4297C78.2361 24.0616 79.9264 24.2771 81.7623 21.4506L76.6602 21.4297Z" fill="#D28572"/>
<path d="M79.2071 22.5153C77.2548 22.5153 75.6719 20.9419 75.6719 19.0014V13.0742H82.7414V19.0014C82.7414 20.9419 81.1584 22.5153 79.2061 22.5153H79.2071Z" fill="#FFBC96"/>
<path d="M79.1421 19.091C78.7285 18.7029 78.5729 18.3966 78.6673 18.1532C78.7576 17.9197 79.0447 17.8459 79.2143 17.8219L79.2053 17.0557L79.4563 17.0527L79.4683 18.0574L79.3448 18.0604C79.2224 18.0644 78.9524 18.1133 78.9022 18.242C78.8781 18.3038 78.8721 18.4914 79.3157 18.9084L79.1431 19.09L79.1421 19.091Z" fill="#1B1B43"/>
<path d="M78.2262 19.9308C78.1258 19.7742 78.0576 19.6265 78.0234 19.4869C79.233 19.4869 80.1233 19.4629 80.6935 19.416C80.6433 19.5527 80.566 19.6994 80.4626 19.856C79.6566 19.9637 78.7682 19.9528 78.2262 19.9308Z" fill="white"/>
<path d="M80.463 19.8555C80.2451 20.1857 79.8707 20.5778 79.3177 20.5598C78.7455 20.5419 78.4113 20.2176 78.2266 19.9303C78.7686 19.9522 79.6569 19.9622 80.463 19.8555Z" fill="#1B1B43"/>
<path d="M82.7007 16.8049C82.7037 16.9396 82.8262 13.9984 78.2149 13.3749C76.4794 14.3626 75.7105 15.5678 75.9092 16.9915L74.4949 16.7261C73.9489 15.2455 74.1366 11.2857 77.3366 11.5671C77.7963 10.9146 78.4026 10.5814 79.1554 10.5694C84.8959 10.4756 83.9895 16.8029 83.852 16.9845L82.7007 16.8049Z" fill="#1B1B43"/>
<path d="M84.523 18.1664C84.253 18.9805 83.4831 19.4604 82.8036 19.2379C82.124 19.0154 81.7928 18.1744 82.0628 17.3603C82.3328 16.5462 83.1027 16.0663 83.7822 16.2888C84.4618 16.5113 84.793 17.3523 84.523 18.1664Z" fill="#FFBC96"/>
<path d="M83.1122 18.2063L82.8633 18.1753C82.9064 17.8311 83.1554 17.1717 83.7858 17.1348L83.8008 17.3842C83.2186 17.4181 83.1142 18.1993 83.1132 18.2073L83.1122 18.2063Z" fill="#1B1B43"/>
<path d="M74.6082 16.2889C75.2878 16.0664 76.0577 16.5453 76.3277 17.3604C76.5977 18.1745 76.2665 19.0155 75.5869 19.238C74.9074 19.4605 74.1375 18.9816 73.8675 18.1665C73.5975 17.3524 73.9287 16.5113 74.6082 16.2889Z" fill="#FFBC96"/>
<path d="M75.2784 18.2073C75.2744 18.1753 75.17 17.4181 74.5898 17.3842L74.6049 17.1348C75.2353 17.1717 75.4842 17.8321 75.5274 18.1763L75.2784 18.2073Z" fill="#1B1B43"/>
<path d="M81.0304 16.3231C81.0304 16.5475 80.8597 16.7301 80.6499 16.7301C80.4392 16.7301 80.2695 16.5475 80.2695 16.3231C80.2695 16.0986 80.4402 15.916 80.6499 15.916C80.8607 15.916 81.0304 16.0986 81.0304 16.3231Z" fill="#1B1B43"/>
<path d="M81.331 15.4339L80.1556 15.2933C80.0442 15.2803 79.9649 15.1795 79.978 15.0688L79.985 15.0139C79.998 14.9032 80.0994 14.8244 80.2108 14.8373L81.3862 14.978C81.4977 14.991 81.577 15.0917 81.5639 15.2025L81.5569 15.2574C81.5438 15.3681 81.4425 15.4469 81.331 15.4339Z" fill="#1B1B43"/>
<path d="M77.7437 15.916C77.9545 15.916 78.1241 16.0986 78.1241 16.3231C78.1241 16.5475 77.9535 16.7301 77.7437 16.7301C77.5329 16.7301 77.3633 16.5475 77.3633 16.3231C77.3633 16.0986 77.5339 15.916 77.7437 15.916Z" fill="#1B1B43"/>
<path d="M76.8327 15.2574L76.8256 15.2025C76.8126 15.0917 76.8919 14.991 77.0033 14.978L78.1787 14.8373C78.2901 14.8244 78.3915 14.9032 78.4045 15.0139L78.4116 15.0688C78.4246 15.1795 78.3453 15.2803 78.2339 15.2933L77.0585 15.4339C76.9471 15.4469 76.8457 15.3681 76.8327 15.2574Z" fill="#1B1B43"/>
<path opacity="0.4" d="M82.1812 17.9313C82.1812 18.3823 81.8138 18.7474 81.3601 18.7474C80.9064 18.7474 80.5391 18.3823 80.5391 17.9313C80.5391 17.4804 80.9064 17.1152 81.3601 17.1152C81.8138 17.1152 82.1812 17.4804 82.1812 17.9313Z" fill="#FE5B52"/>
<path opacity="0.4" d="M77.032 17.1152C77.4857 17.1152 77.8531 17.4804 77.8531 17.9313C77.8531 18.3823 77.4857 18.7474 77.032 18.7474C76.5783 18.7474 76.2109 18.3823 76.2109 17.9313C76.2109 17.4804 76.5783 17.1152 77.032 17.1152Z" fill="#FE5B52"/>
<path d="M56.0293 43.9819H31.5255C30.8278 43.9819 30.2617 43.4192 30.2617 42.7259V32.7112C30.2617 32.0178 30.8278 31.4551 31.5255 31.4551H56.0293C56.7269 31.4551 57.2931 32.0178 57.2931 32.7112V42.7259C57.2931 43.4192 56.7269 43.9819 56.0293 43.9819Z" fill="white"/>
<path fill-rule="evenodd" clip-rule="evenodd" d="M56.0287 44.1022H31.5248C30.762 44.1022 30.1406 43.4847 30.1406 42.7264V32.7117C30.1406 31.9535 30.762 31.3359 31.5248 31.3359H56.0287C56.7916 31.3359 57.4129 31.9535 57.4129 32.7117V42.7264C57.4129 43.4847 56.7916 44.1022 56.0287 44.1022ZM31.5248 31.5754C30.8944 31.5754 30.3815 32.0852 30.3815 32.7117V42.7264C30.3815 43.353 30.8944 43.8628 31.5248 43.8628H56.0287C56.6591 43.8628 57.172 43.353 57.172 42.7264V32.7117C57.172 32.0852 56.6591 31.5754 56.0287 31.5754H31.5248Z" fill="#5254CF"/>
<path d="M54.2853 34.7885H33.2695V34.5391H54.2853V34.7885Z" fill="#E0E0FF"/>
<path d="M54.2853 37.8432H33.2695V37.5938H54.2853V37.8432Z" fill="#E0E0FF"/>
<path d="M54.2853 40.8998H33.2695V40.6504H54.2853V40.8998Z" fill="#E0E0FF"/>
<path d="M33.6186 40.9197L33.4219 40.765L34.9195 38.8874L37.4982 39.7624L39.7185 37.3669L41.976 39.1737L44.6259 36.2256L47.0289 38.9822L49.176 33.458L51.4033 36.9379L53.993 33.2266L54.1988 33.3682L51.3933 37.3889L49.2292 34.0097L47.1102 39.4601L44.6199 36.6047L42 39.5179L39.7406 37.7081L37.5694 40.0517L35.0038 39.1807L33.6156 40.9197H33.6186Z" fill="#5254CF"/>
<path d="M111.189 9.13803C111.213 9.41838 111.228 9.70172 111.228 9.98806C111.228 15.4005 106.813 19.7883 101.368 19.7883C95.9224 19.7883 91.5078 15.4005 91.5078 9.98806C91.5078 4.9827 95.284 0.857291 100.158 0.263672L101.368 9.98806L111.189 9.13803Z" fill="white"/>
<path fill-rule="evenodd" clip-rule="evenodd" d="M101.368 19.913C95.8626 19.913 91.3828 15.4603 91.3828 9.98806C91.3828 4.98171 95.1489 0.747552 100.144 0.139965L100.268 0.125L101.479 9.85338L111.305 9.00335L111.316 9.12806C111.343 9.43734 111.356 9.71869 111.356 9.98906C111.356 15.4613 106.876 19.914 101.37 19.914L101.368 19.913ZM100.049 0.403353C95.2423 1.05085 91.6338 5.14932 91.6338 9.98806C91.6338 15.3237 96.0011 19.6636 101.368 19.6636C106.736 19.6636 111.103 15.3227 111.103 9.98806C111.103 9.76159 111.094 9.52713 111.074 9.27372L101.258 10.1227L100.049 0.403353Z" fill="#5254CF"/>
<path d="M114.482 2.22461C115.511 3.62835 116.174 5.31343 116.333 7.14217L106.512 7.9922L114.482 2.22461Z" fill="#9192FF"/>
<path d="M101.37 9.98771L100.16 0.263324C100.557 0.215435 100.96 0.1875 101.37 0.1875C104.646 0.1875 107.547 1.7768 109.34 4.22112L101.37 9.98871V9.98771Z" fill="#E0E0FF"/>
<path fill-rule="evenodd" clip-rule="evenodd" d="M101.271 10.2129L100.02 0.154287L100.144 0.139321C100.57 0.087442 100.97 0.0625 101.369 0.0625C104.546 0.0625 107.564 1.58895 109.441 4.147L109.515 4.24777L101.271 10.2129ZM100.3 0.372778L101.468 9.76194L109.164 4.19289C107.33 1.75955 104.426 0.310922 101.37 0.310922C101.02 0.310922 100.669 0.330876 100.3 0.371781V0.372778Z" fill="#5254CF"/>
<path d="M126.115 60.6932H108.104C107.243 60.6932 106.547 59.9998 106.547 59.1458V39.5044C106.547 38.6494 107.243 37.957 108.104 37.957H126.115C126.975 37.957 127.672 38.6504 127.672 39.5044V59.1458C127.672 60.0008 126.974 60.6932 126.115 60.6932Z" fill="white"/>
<path fill-rule="evenodd" clip-rule="evenodd" d="M126.115 60.8134H108.103C107.179 60.8134 106.426 60.0652 106.426 59.1463V39.505C106.426 38.5861 107.179 37.8379 108.103 37.8379H126.115C127.039 37.8379 127.792 38.5861 127.792 39.505V59.1463C127.792 60.0652 127.039 60.8134 126.115 60.8134ZM108.103 38.0773C107.311 38.0773 106.667 38.7178 106.667 39.505V59.1463C106.667 59.9335 107.311 60.574 108.103 60.574H126.115C126.907 60.574 127.551 59.9335 127.551 59.1463V39.505C127.551 38.7178 126.907 38.0773 126.115 38.0773H108.103Z" fill="#5254CF"/>
<path d="M125.264 41.4753H108.953V41.2129H125.264V41.4753Z" fill="#E0E0FF"/>
<path d="M125.264 45.4655H108.953V45.2031H125.264V45.4655Z" fill="#E0E0FF"/>
<path d="M125.264 49.4577H108.953V49.1953H125.264V49.4577Z" fill="#E0E0FF"/>
<path d="M125.264 53.4479H108.953V53.1855H125.264V53.4479Z" fill="#E0E0FF"/>
<path d="M125.264 57.4382H108.953V57.1758H125.264V57.4382Z" fill="#E0E0FF"/>
<path d="M110.342 57.4379H108.953V46.5762H110.342V57.4379Z" fill="#CBCBFF"/>
<path d="M113.362 57.4375H111.973V50.6113H113.362V57.4375Z" fill="#E0E0FF"/>
<path d="M116.381 57.4368H114.992V48.1035H116.381V57.4368Z" fill="#CBCBFF"/>
<path d="M119.405 57.4364H118.016V46.418H119.405V57.4364Z" fill="#E0E0FF"/>
<path d="M122.424 57.4374H121.035V44.3848H122.424V57.4374Z" fill="#CBCBFF"/>
<path d="M125.444 57.4373H124.055V42.2188H125.444V57.4373Z" fill="#E0E0FF"/>
<path d="M67.5865 3.07471V8.0252C67.5865 8.82834 66.932 9.47882 66.124 9.47882H65.4535V12.2224L62.2234 9.47882H53.8219C53.0138 9.47882 52.3594 8.82834 52.3594 8.0252V3.07471C52.3594 2.27158 53.0138 1.62109 53.8219 1.62109H66.125C66.933 1.62109 67.5875 2.27158 67.5875 3.07471H67.5865Z" fill="white"/>
<path fill-rule="evenodd" clip-rule="evenodd" d="M65.5847 12.5066L62.1739 9.60935H53.8205C52.9412 9.60935 52.2266 8.899 52.2266 8.02504V3.07455C52.2266 2.20058 52.9412 1.49023 53.8205 1.49023H66.1237C67.003 1.49023 67.7177 2.20058 67.7177 3.07455V8.02504C67.7177 8.899 67.003 9.60935 66.1237 9.60935H65.5847V12.5066ZM53.8205 1.75262C53.0868 1.75262 52.4906 2.34624 52.4906 3.07455V8.02504C52.4906 8.75434 53.0878 9.34696 53.8205 9.34696H62.2712L65.3207 11.9369V9.34696H66.1237C66.8574 9.34696 67.4537 8.75334 67.4537 8.02504V3.07455C67.4537 2.34525 66.8564 1.75262 66.1237 1.75262H53.8205Z" fill="#5254CF"/>
<path d="M64.0716 3.86661H54.2227V3.61719H64.0716V3.86661Z" fill="#9192FF"/>
<path d="M65.3895 5.5502H54.2227V5.30078H65.3895V5.5502Z" fill="#9192FF"/>
<path d="M62.0651 7.23379H54.2227V6.98438H62.0651V7.23379Z" fill="#9192FF"/>
<path d="M62.8452 128.774H59.332V86.373H62.8452V128.774Z" fill="#B0B0D2"/>
<path d="M98.603 128.774H95.0898V86.373H98.603V128.774Z" fill="#B0B0D2"/>
<path opacity="0.3" d="M62.8452 93.7314H59.332V86.2578H62.8452V93.7314Z" fill="#1B1B43"/>
<path opacity="0.3" d="M98.603 93.7314H95.0898V86.2578H98.603V93.7314Z" fill="#1B1B43"/>
<path d="M118.417 88.4416H39.5156V84.9277H118.417V88.4416Z" fill="#B0B0D2"/>
<path d="M109.137 84.9327H100V83.7285H109.137V84.9327Z" fill="#1B1B43"/>
<path d="M101.353 84.9322H100.001L94.6158 70.81C94.4592 70.399 94.7643 69.959 95.207 69.959C95.47 69.959 95.7049 70.1206 95.7982 70.364L101.353 84.9312V84.9322Z" fill="#1B1B43"/>
<path d="M50.875 83.7266H60.0123V84.9307H50.875V83.7266Z" fill="#1B1B43"/>
<path d="M64.215 70.364C64.3083 70.1196 64.5432 69.959 64.8062 69.959C65.2489 69.959 65.554 70.399 65.3974 70.81L60.0122 84.9322H58.6602L64.215 70.365V70.364Z" fill="#1B1B43"/>
<path d="M34.3003 63.8523L36.6691 61.0938L38.0513 61.7422L38.0062 64.0529L37.954 66.7556L37.8988 69.4703L32.9141 68.6741L34.3013 63.8523H34.3003Z" fill="#D28572"/>
<path d="M38.0029 64.0514L37.9507 66.7541C36.9941 65.7704 36.3156 64.8595 35.9141 64.0234L38.0029 64.0514Z" fill="#925D4F"/>
<path d="M41.4551 60.6816C41.5133 60.7136 43.033 63.0282 42.3505 63.2377C41.8948 63.3774 41.3798 63.4203 40.8047 63.3664L41.4551 60.6816Z" fill="#925D4F"/>
<path d="M41.9591 58.7135L41.3307 64.4651C41.2775 64.953 40.9553 65.371 40.4946 65.5486C40.1734 65.6733 39.815 65.6673 39.4978 65.5337L35.9164 64.0232L35.4336 60.7807L38.3335 57.7617L41.9601 58.7135H41.9591Z" fill="#D28572"/>
<path d="M38.7347 67.3873L38.2749 70.3384L31.625 69.2988L33.3394 65.5156L38.7347 67.3863V67.3873Z" fill="#FED3D1"/>
<path d="M34.4764 66.8468L28.5352 61.6888C31.5756 57.1284 34.7173 54.9944 37.9595 55.2837C40.9477 55.5511 42.2807 56.6944 41.9575 58.7137C41.0852 59.7583 39.6689 60.4447 37.7096 60.773L34.4774 66.8458L34.4764 66.8468Z" fill="#1B1B43"/>
<path d="M36.9119 59.8636C37.4108 59.6082 38.0863 59.9264 38.4216 60.5729C38.7558 61.2194 38.6223 61.9507 38.1235 62.2052C37.6246 62.4606 36.9491 62.1423 36.6138 61.4958C36.2795 60.8493 36.413 60.118 36.9119 59.8636Z" fill="#D28572"/>
<path d="M37.7223 61.5007C37.7022 61.363 37.6018 60.9719 37.387 60.8263C37.3047 60.7704 37.2124 60.7544 37.106 60.7784L37.0508 60.535C37.2274 60.495 37.389 60.524 37.5296 60.6208C37.8789 60.8592 37.9672 61.4398 37.9702 61.4648L37.7223 61.5007Z" fill="#1B1B43"/>
<path opacity="0.3" d="M40.8125 62.2148C40.8125 62.7486 40.3769 63.1816 39.8398 63.1816C39.3028 63.1816 38.8672 62.7486 38.8672 62.2148C38.8672 61.681 39.3028 61.248 39.8398 61.248C40.3769 61.248 40.8125 61.681 40.8125 62.2148Z" fill="#BE443D"/>
<path d="M40.4462 77.781C40.0567 79.2146 39.0439 80.4448 37.6055 81.0364C37.5202 81.0713 37.4349 81.1032 37.3476 81.1362C37.2623 81.1661 37.18 81.198 37.0966 81.2279C34.4146 82.2755 32.3137 84.4704 31.4756 87.219C31.4274 87.3786 31.3882 87.5303 31.3551 87.673C27.6332 88.2137 23.8891 87.4445 20.125 85.3653C22.1998 78.0503 25.5263 72.6529 30.1054 69.173C31.6934 67.9658 33.7792 67.6166 35.6864 68.2182C36.5225 68.4826 37.3024 68.8737 38.005 69.3755C38.7047 69.8793 39.328 70.4909 39.8439 71.1943L39.9664 71.3639L40.5737 75.7686C40.669 76.455 40.6188 77.1384 40.4452 77.782L40.4462 77.781Z" fill="#FE5B52"/>
<path d="M40.4461 77.7814C40.0567 79.2151 39.0439 80.4452 37.6055 81.0368C37.5201 81.0717 37.4348 81.1036 37.3475 81.1366C37.2622 81.1665 37.1799 81.1984 37.0966 81.2284C36.5174 79.8167 35.9904 77.9889 35.5156 75.7441L39.6983 76.2949L40.4461 77.7814Z" fill="#BE443D"/>
<path d="M49.4844 73.0816C51.9336 70.4787 53.5436 69.2735 54.3155 69.465C54.6497 69.5478 54.3155 70.1095 53.3117 71.1491C54.2693 71.1671 55.515 70.7829 57.0497 69.9948C57.3017 69.8661 57.6119 69.9758 57.7203 70.2362C57.7885 70.3998 57.7614 70.5864 57.65 70.7241C57.1632 71.3247 55.7107 72.9389 53.6881 73.6433L52.8299 74.7457L50.6768 75.7634L49.4844 73.0816Z" fill="#D28572"/>
<path d="M52.8316 74.7454L48.0255 83.2606C47.4283 84.3152 46.3061 84.9716 45.0865 84.9716C44.5977 84.9716 44.1209 84.8649 43.6863 84.6673C43.2516 84.4698 42.8602 84.1815 42.54 83.8113L35.5156 75.7431L39.9673 71.3633L44.8436 78.0078L49.486 73.0813L52.8316 74.7444V74.7454Z" fill="#FE5B52"/>
<path d="M46.2108 80.4757C43.3922 76.1019 39.6482 70.9239 37.6406 69.2169L37.8042 69.0273C40.1219 70.9968 44.3126 77.0657 46.4236 80.341L46.2118 80.4757H46.2108Z" fill="#1B1B43"/>
<path d="M45.2107 85.2081C44.6978 85.2081 44.1618 85.0654 43.6257 84.7781C42.088 83.953 35.689 76.1541 35.418 75.8229L35.6127 75.6653C35.6789 75.7461 42.2516 83.7565 43.7452 84.5586C45.4446 85.4705 46.5979 84.6414 47.1339 84.0658C47.9881 83.1489 52.6727 74.7703 52.7198 74.6855L52.9397 74.8063C52.7459 75.1525 48.1929 83.2955 47.3186 84.2354C46.7183 84.8799 45.9906 85.2081 45.2117 85.2081H45.2107Z" fill="#1B1B43"/>
<path d="M38.4949 118.543L39.6743 119.739L39.6703 119.954C39.6242 122.443 40.6309 124.828 42.3925 126.648C43.3913 127.68 43.6954 128.388 43.305 128.773L40.4212 128.785L35.5027 125.334L33.9338 127.548L32.9883 127.415L37.3155 118.933L38.4939 118.543H38.4949Z" fill="#1B1B43"/>
<path d="M40.7398 119.219L42.0768 120.238L42.1029 120.452C42.4081 122.923 43.7421 125.145 45.7426 126.701C46.8768 127.583 47.2783 128.243 46.9461 128.678H43.3185L38.7353 126.359L37.4936 128.771H36.5391L37.4936 121.584L40.7398 119.22V119.219Z" fill="#393A8F"/>
<path d="M40.7422 119.218L41.1025 91.3477L47.1512 94.2389C48.9349 95.092 49.8433 97.0973 49.3013 98.9899L42.5851 122.465L40.7422 119.218Z" fill="#1B1B43"/>
<path d="M31.3543 87.6719L41.1018 91.3483C44.6682 92.6932 46.7941 96.3437 46.1909 100.087L42.5844 122.466L37.3568 122.341C36.9131 113.634 36.09 105.172 37.3568 99.0205H24.6963C20.8529 99.0205 17.9821 95.5056 18.7721 91.7673L20.1251 85.3652L31.3553 87.6729L31.3543 87.6719Z" fill="#5254CF"/>
<path opacity="0.4" d="M41.0795 122.482L40.8306 122.45C40.8577 122.24 43.5799 101.308 42.8391 97.4642C42.0742 93.4934 34.3713 92.3471 30.2338 91.7305C29.8654 91.6756 29.5272 91.6258 29.225 91.5779C28.1882 91.4142 27.4514 90.9693 27.0328 90.2559C26.2087 88.8492 26.9214 86.9197 26.9515 86.8379L27.1864 86.9257C27.1794 86.9446 26.4858 88.8273 27.2496 90.1312C27.628 90.7757 28.3056 91.1798 29.2632 91.3314C29.5643 91.3793 29.9026 91.4292 30.27 91.4841C34.4697 92.1086 42.286 93.2729 43.085 97.4173C43.3992 99.0495 43.1573 103.765 42.3653 111.432C41.7761 117.135 41.0855 122.429 41.0785 122.482H41.0795Z" fill="white"/>
<path d="M23.0013 100.035L22.1351 105.009L17.9915 128.81H16.25L20.3935 105.009L21.2598 100.035H23.0013Z" fill="#B0B0D2"/>
<path d="M34.5443 128.81H32.8028L28.6592 105.009L27.793 100.035H29.5345L30.4007 105.009L34.5443 128.81Z" fill="#B0B0D2"/>
<path opacity="0.3" d="M23.0023 100.035L22.1361 105.009H20.3945L21.2608 100.035H23.0023Z" fill="#1B1B43"/>
<path opacity="0.3" d="M30.4007 105.009H28.6592L27.793 100.035H29.5345L30.4007 105.009Z" fill="#1B1B43"/>
<path d="M33.0901 101.391H16.793V99.0215H33.0901C33.7486 99.0215 34.2816 99.5522 34.2816 100.207C34.2816 100.861 33.7476 101.392 33.0901 101.392V101.391Z" fill="#CBCBFF"/>
<path d="M19.0924 101.391H16.7918L9.02165 82.4615C8.80483 81.9347 9.04172 81.3311 9.55966 81.0887C10.1188 80.8273 10.7843 81.0847 11.0171 81.6544L19.0914 101.392L19.0924 101.391Z" fill="#CBCBFF"/>
<path d="M125.477 63.2152C124.904 63.2442 124.393 63.1783 123.948 63.0207C123.278 62.7833 124.89 60.5495 124.949 60.5195L125.478 63.2152H125.477Z" fill="#D28572"/>
<path d="M133.087 68.8274L127.719 69.4589L127.818 66.7542L127.92 64.0615L128.005 61.7598L129.518 61.1582L131.886 63.9816L133.087 68.8274Z" fill="#FFBC96"/>
<path d="M130.153 64.1024C129.676 64.9225 128.898 65.8064 127.82 66.7552L127.922 64.0625L130.154 64.1024H130.153Z" fill="#D28572"/>
<path d="M128.181 57.753L130.93 60.8777L130.308 64.0793L126.682 65.4251C126.361 65.5449 126.005 65.5339 125.691 65.3972C125.242 65.2007 124.94 64.7717 124.909 64.2838L124.535 58.5411L128.181 57.752V57.753Z" fill="#FFBC96"/>
<path d="M128.732 60.8756C128.139 59.7303 127.532 59.0698 126.914 58.8952C124.534 59.6654 123.083 59.1447 122.559 57.3309C123.9 57.3438 125.144 56.9498 126.294 56.1506C128.017 54.9514 129.816 55.5271 131.06 56.6465C133.772 56.7792 134.059 59.2235 131.921 63.9794C131.384 64.157 130.43 63.295 129.062 61.3954L128.731 60.8766L128.732 60.8756Z" fill="#1B1B43"/>
<path d="M129.732 61.4625C129.372 62.0911 128.689 62.3784 128.209 62.106C127.728 61.8337 127.63 61.1034 127.992 60.4748C128.352 59.8463 129.035 59.5589 129.515 59.8313C129.996 60.1037 130.094 60.834 129.732 61.4625Z" fill="#FFBC96"/>
<path opacity="0.4" d="M127.624 61.9196C127.624 62.4703 127.181 62.9172 126.636 62.9172C126.09 62.9172 125.648 62.4703 125.648 61.9196C125.648 61.3688 126.091 60.9219 126.636 60.9219C127.182 60.9219 127.624 61.3688 127.624 61.9196Z" fill="#FE5B52"/>
<path d="M128.566 61.4079C128.517 61.0846 128.607 60.4212 129.299 60.2246L129.368 60.4641C128.712 60.6496 128.81 61.341 128.815 61.37L128.567 61.4069L128.566 61.4079Z" fill="#1B1B43"/>
<path d="M127.719 69.4603L127.78 66.6798L132.506 65.4746L133.886 68.9246L127.719 69.4603Z" fill="#CBCBFF"/>
<path d="M129.456 79.8989L116.491 83.4736L112.695 81.561C114.104 80.1613 117.264 78.8314 122.179 77.5703C124.354 74.0784 126.081 70.6365 128.452 68.3418L129.456 79.8979V79.8989Z" fill="#1B1B43"/>
<path d="M109.283 120.416L106.326 128.76L97.0742 126.466C98.0338 125.162 99.961 124.697 102.856 125.072L105.165 118.623L109.284 120.416H109.283Z" fill="#1B1B43"/>
<path d="M117.493 99.9348C115.589 107.723 112.817 115.744 109.965 122.465L102.688 120.595L108.071 98.4702C108.886 95.2926 111.282 92.7515 114.419 91.7388L127.783 87.4219L117.494 99.9348H117.493Z" fill="#393A8F"/>
<path d="M122.928 121.049L124.015 128.781H113.895C114.508 127.284 116.264 126.369 119.164 126.037L118.913 121.381L122.928 121.049Z" fill="#1B1B43"/>
<path d="M139.894 85.2188L141.247 91.6209C142.037 95.3592 139.215 99.0825 135.371 99.0825H123.201C123.884 105.298 124.544 113.488 124.1 122.195L117.435 122.319L113.828 99.9405C113.225 96.1972 115.35 92.5467 118.917 91.2018L127.781 87.4226L139.895 85.2188H139.894Z" fill="#5254CF"/>
<path d="M127.782 87.4226L126.642 73.2086C126.489 71.308 127.183 69.4364 128.54 68.0875C128.871 67.7583 129.311 67.5498 129.779 67.5228C137.665 67.0709 139.234 76.8911 140.329 87.2979C136.063 88.1289 131.881 88.1708 127.782 87.4226Z" fill="#1B1B43"/>
<path d="M115.139 84.0857L113.885 84.9587H107.297C107.799 83.2127 109.597 82.0484 112.692 81.4668L115.138 84.0857H115.139Z" fill="#FFBC96"/>
<path d="M134.398 74.1096L129.222 81.4985C127.832 83.5647 125.693 84.8636 123.194 84.9115L113.884 84.9584L112.691 81.4665L123.796 79.097L129.819 69.8066L134.398 74.1096Z" fill="#1B1B43"/>
<path d="M112.721 81.5894L112.668 81.3459L123.703 78.9914C123.997 78.1663 124.29 77.3123 124.572 76.4852C125.731 73.0941 126.826 69.8906 128.184 68.1406L128.383 68.2933C127.051 70.0103 125.962 73.1939 124.809 76.565C124.519 77.4141 124.219 78.293 123.916 79.1391L123.893 79.2049L123.825 79.2199L112.72 81.5894H112.721Z" fill="#5254CF"/>
<path d="M119.348 85.1339C116.766 85.1339 114.085 85.089 113.883 85.085L113.887 84.8356C113.977 84.8376 122.95 84.9883 124.052 84.7448L124.086 84.7379C126.748 84.1492 128.957 82.2965 129.997 79.7824L131.241 76.7754L131.473 76.8702L130.229 79.8772C129.158 82.4661 126.883 84.3737 124.14 84.9813L124.107 84.9883C123.592 85.102 121.504 85.1339 119.348 85.1339Z" fill="#5254CF"/>
<path d="M137.57 100.033H139.312L144.321 128.808H142.579L137.57 100.033Z" fill="#B0B0D2"/>
<path d="M127.769 128.81H126.027L131.036 100.035H132.778L127.769 128.81Z" fill="#B0B0D2"/>
<path opacity="0.3" d="M132.776 100.033L131.909 105.007H130.168L131.034 100.033H132.776Z" fill="#1B1B43"/>
<path opacity="0.3" d="M140.174 105.007H138.433L137.566 100.033H139.308L140.174 105.007Z" fill="#1B1B43"/>
<path d="M126.289 100.205C126.289 99.5503 126.823 99.0195 127.482 99.0195H143.779V101.389H127.482C126.823 101.389 126.289 100.858 126.289 100.204V100.205Z" fill="#CBCBFF"/>
<path d="M149.552 81.6523C149.785 81.0836 150.45 80.8252 151.009 81.0866C151.527 81.329 151.764 81.9326 151.547 82.4594L143.777 101.389H141.477L149.551 81.6513L149.552 81.6523Z" fill="#CBCBFF"/>
<path d="M159.413 128.706L0.589844 128.956V128.707L159.413 128.457V128.706Z" fill="#1B1B43"/>
</svg>
