<svg width="1094" height="83" viewBox="0 0 1094 83" fill="none" xmlns="http://www.w3.org/2000/svg">
<mask id="mask0_170_6349" style="mask-type:alpha" maskUnits="userSpaceOnUse" x="0" y="0" width="1094" height="83">
<path d="M0 10C0 4.47715 4.47715 0 10 0H1084C1089.52 0 1094 4.47715 1094 10V83H0V10Z" fill="#3466C9"/>
</mask>
<g mask="url(#mask0_170_6349)">
<path d="M1058.49 -240.36C1160.79 -198.74 1139.24 -68.9498 1221.74 -95.7798C1304.24 -122.61 1361.22 63.9701 1202.8 131.98C1044.37 199.99 1143.52 -57.6599 1023.74 33.5002C903.966 124.65 873.806 -46.5999 886.236 -125.07C898.666 -203.54 956.176 -281.98 1058.49 -240.37V-240.36Z" fill="#0353A7"/>
<path d="M767.636 40.0597C867.856 -6.38027 948.076 97.9097 984.716 19.2697C1021.37 -59.3603 1196.68 26.2097 1138.38 188.47C1080.08 350.71 959.246 102.48 944.226 252.24C929.206 402.01 783.396 307.27 734.486 244.66C685.576 182.06 667.426 86.4997 767.636 40.0597Z" fill="#0161CD"/>
<path d="M582.696 -89C577.616 -65.2 566.976 -40.36 551.336 -21.67C536.176 -3.56 513.836 11.89 490.816 16.71C464.206 22.27 436.816 18.51 410.696 12.51C380.246 5.51 338.256 8.95 308.206 28.21C279.386 46.68 260.376 71.75 238.126 97.24C205.726 134.33 164.436 166.24 112.626 162.44C71.546 159.44 36.746 134.43 13.126 101.77C-1.81398 81.11 -12.694 57.69 -20.774 33.57C-51.414 -57.87 -36.834 -88.16 -36.834 -88.16L582.696 -89Z" fill="#0161CD"/>
<path d="M-165.544 -197.01C-148.694 -198.95 -106.354 -194.81 -71.5143 -174.25C-36.6743 -153.69 -19.5243 -109.09 -21.0643 -77.3904C-22.6143 -45.6904 -12.1843 -20.9404 9.25574 -10.0204C30.7057 0.909607 44.1857 -6.65041 66.4457 -9.40041C88.6957 -12.1604 143.586 3.04959 151.686 51.5996C159.786 100.16 117.786 146.11 89.5957 160.5C61.3957 174.88 45.8157 194.9 64.4657 216.2C74.1157 227.22 108.246 254.72 90.8857 281.15C7.73575 407.79 -242.184 271.71 -285.644 104.25C-324.904 -47.0404 -256.894 -186.29 -165.544 -197" fill="#2C8CF4"/>
</g>
</svg>
