<?xml version="1.0" encoding="utf-8"?>
<!-- Generator: Adobe Illustrator 16.0.0, SVG Export Plug-In . SVG Version: 6.00 Build 0)  -->
<!DOCTYPE svg PUBLIC "-//W3C//DTD SVG 1.1//EN" "http://www.w3.org/Graphics/SVG/1.1/DTD/svg11.dtd">
<svg version="1.1" id="Layer_1" xmlns="http://www.w3.org/2000/svg" xmlns:xlink="http://www.w3.org/1999/xlink" x="0px" y="0px"
	 width="24px" height="24px" viewBox="0 0 24 24" enable-background="new 0 0 24 24" xml:space="preserve">
<g>
	<path fill-rule="evenodd" clip-rule="evenodd" fill="#CC2027" d="M23.909,12.303c-0.057,1.649-0.396,3.236-1.108,4.729
		c-1.173,2.454-2.957,4.328-5.377,5.577c-1.875,0.966-3.878,1.4-5.981,1.291c-2.926-0.149-5.474-1.224-7.612-3.236
		c-1.873-1.763-3.05-3.916-3.536-6.443c-0.073-0.379-0.109-0.767-0.162-1.149c-0.007-0.05,0.018-0.112-0.048-0.144v-1.814
		c0.075-0.048,0.041-0.125,0.048-0.189c0.085-0.804,0.212-1.6,0.468-2.37c0-0.016-0.002-0.032,0.001-0.046
		c0.585-1.904,1.584-3.562,2.999-4.959c1.86-1.836,4.085-2.958,6.678-3.342c0.263-0.039,0.536-0.021,0.789-0.124h1.815
		c0.287,0.098,0.589,0.086,0.883,0.131c2.157,0.326,4.076,1.184,5.77,2.555c0.417,0.339,0.417,0.341,0.063,0.733
		c-0.26,0.288-0.525,0.57-0.777,0.864c-0.1,0.114-0.166,0.116-0.279,0.017c-0.821-0.709-1.733-1.272-2.738-1.682
		c-1.011-0.414-2.061-0.649-3.153-0.724c-1.89-0.13-3.661,0.266-5.338,1.129C6.335,3.609,5.496,4.29,4.732,5.073
		c-0.973,1-1.68,2.166-2.174,3.465C2.547,8.567,2.53,8.593,2.517,8.62c-0.253,0.789-0.44,1.591-0.526,2.417
		c-0.063,0.596-0.086,1.198-0.028,1.786c0.074,0.767,0.229,1.526,0.47,2.266c0.522,1.601,1.399,2.979,2.608,4.142
		c1.596,1.535,3.494,2.456,5.693,2.732c2.424,0.302,4.682-0.191,6.718-1.537c2.51-1.656,4.021-3.99,4.494-6.969
		c0.205-1.292,0.132-2.579-0.188-3.849C21.735,9.525,21.723,9.47,21.786,9.4c0.456-0.496,0.908-0.996,1.395-1.531
		c0.118,0.376,0.237,0.715,0.329,1.062C23.794,10.036,23.948,11.158,23.909,12.303z"/>
	<path fill-rule="evenodd" clip-rule="evenodd" fill="#CC2027" d="M23.779,4.48c-0.301,0.312-0.59,0.633-0.89,0.944
		c-0.428,0.445-0.818,0.923-1.232,1.38c-0.436,0.482-0.88,0.956-1.321,1.433c-0.853,0.941-1.702,1.884-2.555,2.823
		c-1.056,1.161-2.114,2.318-3.172,3.478c-0.756,0.83-1.515,1.658-2.265,2.495c-0.118,0.131-0.179,0.129-0.304,0.007
		c-2.013-1.923-4.029-3.841-6.051-5.755c-0.142-0.134-0.142-0.207-0.005-0.342c0.337-0.333,0.662-0.677,0.978-1.028
		c0.115-0.127,0.177-0.11,0.291-0.002c1.555,1.483,3.114,2.96,4.666,4.445c0.145,0.14,0.212,0.15,0.354-0.006
		c1.76-1.943,3.528-3.879,5.294-5.816c0.124-0.137,0.23-0.292,0.381-0.405c0.726-0.804,1.452-1.61,2.18-2.412
		c0.755-0.831,1.516-1.657,2.265-2.493c0.118-0.13,0.181-0.107,0.291-0.005c0.361,0.339,0.727,0.674,1.101,1
		C23.9,4.325,23.87,4.386,23.779,4.48z"/>
</g>
</svg>
