<svg width="24" height="24" viewBox="0 0 24 24" fill="none" xmlns="http://www.w3.org/2000/svg"><path d="M5.678 17.823a.443.443 0 0 0 .05.536.463.463 0 0 0 .486.195l2.34-.585.633 2.29c.049.195.195.341.39.341h.049c.146 0 .34-.097.39-.243l1.802-3.119c.39.049.78.049 1.219 0l1.802 3.119c.098.146.244.243.39.243h.049c.195 0 .341-.146.39-.34l.633-2.291 2.34.585c.194.048.39 0 .487-.195a.523.523 0 0 0 .048-.536l-1.608-2.729a7.335 7.335 0 0 0 2.144-5.165c.097-4.044-3.168-7.358-7.212-7.358S5.143 5.885 5.143 9.93c0 1.998.828 3.85 2.144 5.165l-1.609 2.729zM12.5 3.497c3.508 0 6.383 2.875 6.383 6.383 0 1.657-.634 3.167-1.706 4.337-3.898 4.239-11.11 1.51-11.11-4.337.05-3.508 2.875-6.383 6.433-6.383z" fill="#151C2A" fill-opacity=".87"/><path d="M12.5 15.045A5.115 5.115 0 1 0 7.384 9.93c0 2.777 2.29 5.116 5.116 5.116zm-2.388-6.334 1.023-.146a.424.424 0 0 0 .39-.293l.439-.925c.194-.39.78-.39.974 0l.439.925c.097.146.243.293.39.293l1.023.146c.438.049.633.633.292.926l-.73.682c-.147.146-.196.292-.147.487 0 .049.195 1.072.146 1.023.098.439-.39.78-.78.585-.048-.049-.925-.487-.877-.487a.442.442 0 0 0-.487 0c-.049.049-.974.487-.877.487-.39.195-.877-.146-.78-.585 0-.049.195-1.072.147-1.023.048-.195-.05-.341-.146-.487l-.731-.682c-.293-.341-.147-.877.292-.926z" fill="#151C2A" fill-opacity=".87"/></svg>