<?xml version="1.0" encoding="utf-8"?>
<!-- Generator: Adobe Illustrator 21.0.0, SVG Export Plug-In . SVG Version: 6.00 Build 0)  -->
<svg version="1.1" id="Layer_1" xmlns="http://www.w3.org/2000/svg" xmlns:xlink="http://www.w3.org/1999/xlink" x="0px" y="0px"
	 viewBox="0 0 160 129" style="enable-background:new 0 0 160 129;" xml:space="preserve">
<style type="text/css">
	.st0{opacity:0.4;}
	.st1{opacity:0.4;fill:#E0E0FF;enable-background:new    ;}
	.st2{fill:#E0E0FF;}
	.st3{fill:#FFFFFF;}
	.st4{fill:#5254CF;}
	.st5{fill:#FFB147;}
	.st6{fill:#1B1B43;}
	.st7{opacity:0.2;fill:#1B1B43;enable-background:new    ;}
	.st8{fill:#FFBC96;}
	.st9{opacity:0.4;fill:#FE5B52;enable-background:new    ;}
	.st10{fill:#D28572;}
	.st11{fill:#CBCBFF;}
	.st12{fill:#9192FF;}
	.st13{fill:#B0B0D2;}
	.st14{opacity:0.3;fill:#1B1B43;enable-background:new    ;}
	.st15{fill:#925D4F;}
	.st16{fill:#FED3D1;}
	.st17{opacity:0.3;fill:#BE443D;enable-background:new    ;}
	.st18{fill:#FE5B52;}
	.st19{fill:#BE443D;}
	.st20{fill:#393A8F;}
	.st21{opacity:0.4;fill:#FFFFFF;enable-background:new    ;}
	.st22{fill:#A8CCFF;}
	.st23{opacity:0.6;fill:#FFFFFF;}
	.st24{fill:#5C9CF4;}
	.st25{fill:#DAE6FF;}
	.st26{opacity:0.5;fill:#C8DFFD;}
	.st27{opacity:0.5;fill:#7798F8;}
	.st28{opacity:0.3;}
	.st29{fill:#B8D0FC;}
	.st30{fill:#1E3865;}
	.st31{fill:#25468F;}
	.st32{fill:#FF912B;}
	.st33{fill:#FFEBD8;}
	.st34{fill:#448DE8;}
	.st35{fill:#F9D0B3;}
	.st36{fill:#478BE0;}
	.st37{fill:#9CC3F8;}
	.st38{fill:#FC7600;}
	.st39{fill:#F99352;}
	.st40{fill:#FFAE73;}
	.st41{fill:#FDDBBA;}
	.st42{fill:#EB6600;}
	.st43{fill:#0B3563;}
	.st44{fill:#0D458E;}
	.st45{fill:#F1DDCB;}
	.st46{fill:#F9924F;}
	.st47{fill:#F8CAA4;}
	.st48{fill:#D44B40;}
	.st49{fill:#2A3967;}
	.st50{fill:#2D3554;}
</style>
<g class="st0">
	<path class="st1" d="M-163.6,114.9h-110.1c-13.5-11.3-21.4-28.8-22.7-46.3c-0.7-9.9,0.6-20,5-28.9c4.5-8.9,12.4-16.4,22.1-19.2
		c18.1-5.3,37.5,6.2,56.2,3.3c11.4-1.8,21.7-8.8,33.2-8.6c12.2,0.2,22.8,8.8,29,19.1c8.6,14.4,9.8,29.6,6.5,46
		C-146.7,90.9-154.4,104.4-163.6,114.9z"/>
</g>
<path class="st2" d="M-235.4,99.6h-9c-0.4,0-0.7-0.3-0.7-0.7v-2.4c0-0.4,0.3-0.7,0.7-0.7h9c0.4,0,0.7,0.3,0.7,0.7v2.4
	C-234.7,99.3-235,99.6-235.4,99.6z"/>
<path class="st2" d="M-223.7,99.6h-9c-0.4,0-0.7-0.3-0.7-0.7v-2.4c0-0.4,0.3-0.7,0.7-0.7h9c0.4,0,0.7,0.3,0.7,0.7v2.4
	C-223,99.3-223.3,99.6-223.7,99.6z"/>
<path class="st2" d="M-229.6,94.4h-9c-0.4,0-0.7-0.3-0.7-0.7v-2.4c0-0.4,0.3-0.7,0.7-0.7h9c0.4,0,0.7,0.3,0.7,0.7v2.4
	C-228.9,94.1-229.2,94.4-229.6,94.4z"/>
<path class="st3" d="M-179.8,8.5h-82.8V6.6c0-1.3,1.1-2.3,2.3-2.3h78.1c1.3,0,2.3,1,2.3,2.3V8.5z"/>
<path class="st4" d="M-179.6,8.6h-83.1v-2c0-1.4,1.1-2.5,2.5-2.5h78.1c1.4,0,2.5,1.1,2.5,2.5L-179.6,8.6L-179.6,8.6z M-262.4,8.3
	h82.6V6.6c0-1.2-1-2.2-2.2-2.2h-78.1c-1.2,0-2.2,1-2.2,2.2L-262.4,8.3L-262.4,8.3z"/>
<path class="st3" d="M-179.8,8.5V58c0,1.3-1.1,2.3-2.3,2.3h-78.1c-1.3,0-2.3-1-2.3-2.3V8.5H-179.8z"/>
<path class="st4" d="M-182.1,60.5h-78.1c-1.4,0-2.5-1.1-2.5-2.5V8.3h83.1V58C-179.6,59.4-180.7,60.5-182.1,60.5L-182.1,60.5z
	 M-262.4,8.6V58c0,1.2,1,2.2,2.2,2.2h78.1c1.2,0,2.2-1,2.2-2.2V8.6H-262.4L-262.4,8.6z"/>
<path class="st3" d="M-257.7,6.3c0,0.5-0.4,0.8-0.8,0.8c-0.5,0-0.8-0.4-0.8-0.8c0-0.5,0.4-0.8,0.8-0.8
	C-258.1,5.5-257.7,5.9-257.7,6.3z"/>
<path class="st4" d="M-258.5,7.3c-0.5,0-1-0.4-1-1c0-0.5,0.4-1,1-1c0.5,0,1,0.4,1,1C-257.6,6.9-258,7.3-258.5,7.3z M-258.5,5.6
	c-0.4,0-0.7,0.3-0.7,0.7c0,0.4,0.3,0.7,0.7,0.7c0.4,0,0.7-0.3,0.7-0.7C-257.8,6-258.2,5.6-258.5,5.6z"/>
<path class="st3" d="M-254.4,6.3c0,0.5-0.4,0.8-0.8,0.8s-0.8-0.4-0.8-0.8c0-0.5,0.4-0.8,0.8-0.8S-254.4,5.9-254.4,6.3z"/>
<path class="st4" d="M-255.3,7.3c-0.5,0-1-0.4-1-1c0-0.5,0.4-1,1-1c0.5,0,1,0.4,1,1C-254.3,6.9-254.8,7.3-255.3,7.3z M-255.3,5.6
	c-0.4,0-0.7,0.3-0.7,0.7c0,0.4,0.3,0.7,0.7,0.7c0.4,0,0.7-0.3,0.7-0.7C-254.6,6-254.9,5.6-255.3,5.6z"/>
<path class="st3" d="M-251.2,6.3c0,0.5-0.4,0.8-0.8,0.8c-0.5,0-0.8-0.4-0.8-0.8c0-0.5,0.4-0.8,0.8-0.8
	C-251.6,5.5-251.2,5.9-251.2,6.3z"/>
<path class="st4" d="M-252,7.3c-0.5,0-1-0.4-1-1c0-0.5,0.4-1,1-1c0.5,0,1,0.4,1,1C-251.1,6.9-251.5,7.3-252,7.3z M-252,5.6
	c-0.4,0-0.7,0.3-0.7,0.7c0,0.4,0.3,0.7,0.7,0.7c0.4,0,0.7-0.3,0.7-0.7C-251.3,6-251.6,5.6-252,5.6z"/>
<path class="st1" d="M-188.4,13.9V53h-65.5V13.9H-188.4z"/>
<path class="st5" d="M-209.2,60.2h-21.4c-0.8-7.3-1-13.9-0.3-18.3c0.2-1.2,0.5-2.2,0.8-3.1l9-1.8l10.5,0.9
	C-208.9,42.5-208.6,50.6-209.2,60.2L-209.2,60.2z"/>
<path class="st6" d="M-220.3,47.5h-0.3V39h0.3V47.5z"/>
<path class="st7" d="M-210.7,37.9c-5.6,3.9-12.4,5.2-20.3,3.9c0.2-1.2,0.5-2.2,0.8-3.1l9-1.8L-210.7,37.9z"/>
<path class="st6" d="M-217.2,4.3c2.1,0.5,3.1,3.6,3,9.3l-14.3,0.6c-0.7-2.9,0.4-6.1,3.1-9.5L-217.2,4.3z"/>
<path class="st6" d="M-213.1,13.1h-0.3c0-5.6-2.9-8.2-3-8.2l0.2-0.2C-216.1,4.7-213.1,7.4-213.1,13.1L-213.1,13.1z"/>
<path class="st8" d="M-228.9,34c0,0.6-0.1,1.2-0.3,1.7c-0.5,1.4-1.6,2.5-3,3.1c-0.3,0.1-0.7,0.2-1.1,0.3c-0.7,0.1-1.5,0.2-2.4,0.2
	c-4.6,0-8-3.5-8.4-4.5c-0.3-0.7,0-0.9,0.7-0.7c0.3-0.6,0.7-0.7,1.3-0.2c0.2-0.6,0.6-0.6,1.1-0.1c0-0.3,0.2-0.5,0.5-0.5
	c0.3,0,1.3,0.6,2,1.1c0.4,0.2,0.8,0.4,1.2,0.4c0.2,0,0.3,0,0.5-0.1c0.9-0.2,1.5-0.9,1.7-1.8l1.4-7.5h3.3l1,1.3
	C-228.8,28.3-228.8,31.7-228.9,34L-228.9,34z"/>
<path class="st9" d="M-229.2,35.6c-0.5,1.4-1.6,2.5-3,3.1c-0.1-0.3-0.2-0.6-0.2-0.9c0-1.3,1-2.3,2.3-2.3
	C-229.7,35.5-229.4,35.5-229.2,35.6z"/>
<path class="st4" d="M-229.2,26.7l-6.1-0.9l1.8-8.6c0.5-2.5,2.5-4.4,4.9-4.9l6.7-1.4L-229.2,26.7L-229.2,26.7z"/>
<path class="st4" d="M-219.4,11l6.7,1.4c2.5,0.5,4.4,2.4,4.9,4.9l0.8,6.1l-5.9,1L-219.4,11z"/>
<path class="st4" d="M-229.7,21.2l7.9-10.3h2.3l8,8.9l0.8,18.1c-6.9,2.7-13.4,3-19.5,0.9c0.4-1.6,0.8-5.6,1-12.2L-229.7,21.2
	L-229.7,21.2z"/>
<path class="st8" d="M-199.1,11.2c0,0.6-1,2.6-1.8,4c-0.6,1-1,2.2-1.1,3.3c-1.1,8.8-1.7,16.1-4.8,18.2c-0.7,0.5-1.6,0.7-2.5,0.5
	c-0.7-0.1-1.3-0.4-1.8-0.8c-2.2-1.9-2.7-5.9-1.7-12.1l4-0.7c0.6-5,1.1-8.4,1.5-10.1c0.4-1.7,0.9-2.1,1.5-1.2
	c0.2-0.5,0.6-0.6,1.2-0.3c0.4-0.7,0.9-0.8,1.5-0.2c0.3-0.6,1-0.4,1.9,0.7C-200.5,12.1-199.2,9.9-199.1,11.2L-199.1,11.2z"/>
<path class="st6" d="M-229,26.7l-0.3,0l0.4-8.2l0.3,0L-229,26.7z"/>
<path class="st6" d="M-213,24.5l-0.5-6.6l0.3,0l0.5,6.3l3.9-0.7l0,0.2L-213,24.5L-213,24.5z"/>
<path class="st10" d="M-209.6,30.5l-0.2,0l1.8-13.8l0.2,0L-209.6,30.5z"/>
<path class="st9" d="M-206.9,36.7c-0.7,0.5-1.6,0.7-2.5,0.5c-0.7-0.1-1.3-0.4-1.8-0.8c0.4-0.8,1.2-1.3,2.1-1.3
	C-208.1,35.2-207.2,35.8-206.9,36.7L-206.9,36.7z"/>
<path class="st10" d="M-205.8,13.8l-0.2-1.5l0.2,0l0.2,1.5L-205.8,13.8z"/>
<path class="st10" d="M-204.3,13.5l-0.5-1.5l0.2-0.1l0.5,1.5L-204.3,13.5z"/>
<path class="st10" d="M-202.8,13.2l-0.5-1.5l0.2-0.1l0.5,1.5L-202.8,13.2z"/>
<path class="st11" d="M-215.4,18.3h-2.6c-0.1,0-0.2-0.1-0.2-0.2v-0.6c0-0.1,0.1-0.2,0.2-0.2h2.6c0.1,0,0.2,0.1,0.2,0.2v0.6
	C-215.3,18.3-215.3,18.3-215.4,18.3z"/>
<path class="st6" d="M-220.8,15.5c-1.7,0-2.9-1-2.9-1.1l0.2-0.2c0.1,0.1,2.6,2.2,5.5,0l0.2,0.2C-219,15.3-220,15.5-220.8,15.5
	L-220.8,15.5z"/>
<path class="st10" d="M-239.3,35c-0.5-0.2-1.1-0.6-1.7-1.3l0.2-0.2c0.5,0.6,1.1,1,1.6,1.2L-239.3,35L-239.3,35z"/>
<path class="st10" d="M-240.7,35.4c-0.5-0.3-1-0.8-1.4-1.6l0.2-0.1c0.4,0.7,0.8,1.2,1.3,1.5L-240.7,35.4L-240.7,35.4z"/>
<path class="st10" d="M-241.7,35.9c-0.6-0.5-1.2-1.1-1.7-1.9l0.2-0.1c0.5,0.8,1.1,1.4,1.7,1.9L-241.7,35.9z"/>
<path class="st8" d="M-220.8,13.9c-1.4,0-2.5-1.1-2.5-2.5V7.1h5.1v4.3C-218.3,12.8-219.4,13.9-220.8,13.9L-220.8,13.9z"/>
<path class="st10" d="M-223.4,7.5c1.6,2.6,3.3,2.8,5.1,0L-223.4,7.5z"/>
<path class="st8" d="M-220.8,8.6c-2,0-3.5-1.6-3.5-3.5v-5.9h7.1v5.9C-217.3,7-218.9,8.6-220.8,8.6L-220.8,8.6z"/>
<path class="st6" d="M-220.9,5.2c-0.4-0.4-0.6-0.7-0.5-0.9c0.1-0.2,0.4-0.3,0.5-0.3l0-0.8l0.3,0l0,1l-0.1,0c-0.1,0-0.4,0.1-0.4,0.2
	c0,0.1,0,0.2,0.4,0.7L-220.9,5.2L-220.9,5.2z"/>
<path class="st3" d="M-221.8,6c-0.1-0.2-0.2-0.3-0.2-0.4c1.2,0,2.1,0,2.7-0.1c-0.1,0.1-0.1,0.3-0.2,0.4
	C-220.4,6.1-221.3,6.1-221.8,6z"/>
<path class="st6" d="M-219.6,6c-0.2,0.3-0.6,0.7-1.1,0.7c-0.6,0-0.9-0.3-1.1-0.6C-221.3,6.1-220.4,6.1-219.6,6z"/>
<path class="st6" d="M-217.3,2.9c0,0.1,0.1-2.8-4.5-3.4c-1.7,1-2.5,2.2-2.3,3.6l-1.4-0.3c-0.5-1.5-0.4-5.4,2.8-5.2
	c0.5-0.7,1.1-1,1.8-1c5.7-0.1,4.8,6.2,4.7,6.4L-217.3,2.9z"/>
<path class="st8" d="M-215.5,4.3c-0.3,0.8-1,1.3-1.7,1.1c-0.7-0.2-1-1.1-0.7-1.9c0.3-0.8,1-1.3,1.7-1.1
	C-215.6,2.6-215.2,3.5-215.5,4.3z"/>
<path class="st6" d="M-216.9,4.3l-0.2,0c0-0.3,0.3-1,0.9-1l0,0.2C-216.8,3.5-216.9,4.3-216.9,4.3L-216.9,4.3z"/>
<path class="st8" d="M-225.4,2.4c0.7-0.2,1.4,0.3,1.7,1.1c0.3,0.8-0.1,1.7-0.7,1.9c-0.7,0.2-1.4-0.3-1.7-1.1
	C-226.4,3.5-226.1,2.6-225.4,2.4z"/>
<path class="st6" d="M-224.8,4.3c0,0-0.1-0.8-0.7-0.8l0-0.2c0.6,0,0.9,0.7,0.9,1L-224.8,4.3z"/>
<path class="st6" d="M-219,2.4c0,0.2-0.2,0.4-0.4,0.4c-0.2,0-0.4-0.2-0.4-0.4c0-0.2,0.2-0.4,0.4-0.4C-219.2,2-219,2.2-219,2.4z"/>
<path class="st6" d="M-218.7,1.5l-1.2-0.1c-0.1,0-0.2-0.1-0.2-0.2l0-0.1c0-0.1,0.1-0.2,0.2-0.2l1.2,0.1c0.1,0,0.2,0.1,0.2,0.2l0,0.1
	C-218.5,1.5-218.6,1.5-218.7,1.5z"/>
<path class="st6" d="M-222.3,2c0.2,0,0.4,0.2,0.4,0.4c0,0.2-0.2,0.4-0.4,0.4c-0.2,0-0.4-0.2-0.4-0.4C-222.7,2.2-222.5,2-222.3,2z"/>
<path class="st6" d="M-223.2,1.4L-223.2,1.4c0-0.2,0.1-0.3,0.2-0.3l1.2-0.1c0.1,0,0.2,0.1,0.2,0.2l0,0.1c0,0.1-0.1,0.2-0.2,0.2
	l-1.2,0.1C-223.1,1.5-223.2,1.5-223.2,1.4z"/>
<path class="st9" d="M-217.9,4c0,0.5-0.4,0.8-0.8,0.8c-0.5,0-0.8-0.4-0.8-0.8c0-0.5,0.4-0.8,0.8-0.8C-218.2,3.2-217.9,3.6-217.9,4z"
	/>
<path class="st9" d="M-223,3.2c0.5,0,0.8,0.4,0.8,0.8c0,0.5-0.4,0.8-0.8,0.8c-0.5,0-0.8-0.4-0.8-0.8C-223.8,3.6-223.5,3.2-223,3.2z"
	/>
<path class="st3" d="M-244,30.1h-24.5c-0.7,0-1.3-0.6-1.3-1.3v-10c0-0.7,0.6-1.3,1.3-1.3h24.5c0.7,0,1.3,0.6,1.3,1.3v10
	C-242.7,29.5-243.3,30.1-244,30.1z"/>
<path class="st4" d="M-244,30.2h-24.5c-0.8,0-1.4-0.6-1.4-1.4v-10c0-0.8,0.6-1.4,1.4-1.4h24.5c0.8,0,1.4,0.6,1.4,1.4v10
	C-242.6,29.6-243.2,30.2-244,30.2z M-268.5,17.7c-0.6,0-1.1,0.5-1.1,1.1v10c0,0.6,0.5,1.1,1.1,1.1h24.5c0.6,0,1.1-0.5,1.1-1.1v-10
	c0-0.6-0.5-1.1-1.1-1.1H-268.5z"/>
<path class="st2" d="M-245.7,20.9h-21v-0.2h21V20.9z"/>
<path class="st2" d="M-245.7,23.9h-21v-0.2h21V23.9z"/>
<path class="st2" d="M-245.7,27h-21v-0.2h21V27z"/>
<path class="st4" d="M-266.4,27l-0.2-0.2l1.5-1.9l2.6,0.9l2.2-2.4l2.3,1.8l2.6-2.9l2.4,2.8l2.1-5.5l2.2,3.5l2.6-3.7l0.2,0.1l-2.8,4
	l-2.2-3.4l-2.1,5.5l-2.5-2.9l-2.6,2.9l-2.3-1.8l-2.2,2.3l-2.6-0.9L-266.4,27L-266.4,27z"/>
<path class="st3" d="M-188.8-4.8c0,0.3,0,0.6,0,0.9c0,5.4-4.4,9.8-9.9,9.8c-5.4,0-9.9-4.4-9.9-9.8c0-5,3.8-9.1,8.7-9.7l1.2,9.7
	L-188.8-4.8z"/>
<path class="st4" d="M-198.7,6c-5.5,0-10-4.5-10-9.9c0-5,3.8-9.2,8.8-9.8l0.1,0l1.2,9.7l9.8-0.9l0,0.1c0,0.3,0,0.6,0,0.9
	C-188.7,1.6-193.2,6-198.7,6L-198.7,6z M-200-13.5c-4.8,0.6-8.4,4.7-8.4,9.6c0,5.3,4.4,9.7,9.7,9.7c5.4,0,9.7-4.3,9.7-9.7
	c0-0.2,0-0.5,0-0.7l-9.8,0.8L-200-13.5z"/>
<path class="st12" d="M-185.6-11.7c1,1.4,1.7,3.1,1.9,4.9l-9.8,0.9L-185.6-11.7z"/>
<path class="st2" d="M-198.7-3.9l-1.2-9.7c0.4,0,0.8-0.1,1.2-0.1c3.3,0,6.2,1.6,8,4L-198.7-3.9L-198.7-3.9z"/>
<path class="st4" d="M-198.8-3.7l-1.3-10.1l0.1,0c0.4-0.1,0.8-0.1,1.2-0.1c3.2,0,6.2,1.5,8.1,4.1l0.1,0.1L-198.8-3.7z M-199.7-13.5
	l1.2,9.4l7.7-5.6c-1.8-2.4-4.7-3.9-7.8-3.9C-199-13.6-199.4-13.6-199.7-13.5L-199.7-13.5z"/>
<path class="st3" d="M-173.9,46.8h-18c-0.9,0-1.6-0.7-1.6-1.5V25.6c0-0.9,0.7-1.5,1.6-1.5h18c0.9,0,1.6,0.7,1.6,1.5v19.6
	C-172.4,46.1-173.1,46.8-173.9,46.8z"/>
<path class="st4" d="M-173.9,46.9h-18c-0.9,0-1.7-0.7-1.7-1.7V25.6c0-0.9,0.8-1.7,1.7-1.7h18c0.9,0,1.7,0.7,1.7,1.7v19.6
	C-172.2,46.2-173,46.9-173.9,46.9z M-191.9,24.2c-0.8,0-1.4,0.6-1.4,1.4v19.6c0,0.8,0.6,1.4,1.4,1.4h18c0.8,0,1.4-0.6,1.4-1.4V25.6
	c0-0.8-0.6-1.4-1.4-1.4H-191.9z"/>
<path class="st2" d="M-174.8,27.6h-16.3v-0.3h16.3V27.6z"/>
<path class="st2" d="M-174.8,31.6h-16.3v-0.3h16.3V31.6z"/>
<path class="st2" d="M-174.8,35.6h-16.3v-0.3h16.3V35.6z"/>
<path class="st2" d="M-174.8,39.5h-16.3v-0.3h16.3V39.5z"/>
<path class="st2" d="M-174.8,43.5h-16.3v-0.3h16.3V43.5z"/>
<path class="st11" d="M-189.7,43.5h-1.4V32.7h1.4V43.5z"/>
<path class="st2" d="M-186.7,43.5h-1.4v-6.8h1.4V43.5z"/>
<path class="st11" d="M-183.7,43.5h-1.4v-9.3h1.4V43.5z"/>
<path class="st2" d="M-180.6,43.5h-1.4v-11h1.4V43.5z"/>
<path class="st11" d="M-177.6,43.5h-1.4V30.5h1.4V43.5z"/>
<path class="st2" d="M-174.6,43.5h-1.4V28.3h1.4V43.5z"/>
<path class="st3" d="M-232.4-10.8v5c0,0.8-0.7,1.5-1.5,1.5h-0.7v2.7l-3.2-2.7h-8.4c-0.8,0-1.5-0.7-1.5-1.5v-5c0-0.8,0.7-1.5,1.5-1.5
	h12.3C-233.1-12.3-232.4-11.6-232.4-10.8L-232.4-10.8z"/>
<path class="st4" d="M-234.5-1.4l-3.4-2.9h-8.4c-0.9,0-1.6-0.7-1.6-1.6v-5c0-0.9,0.7-1.6,1.6-1.6h12.3c0.9,0,1.6,0.7,1.6,1.6v5
	c0,0.9-0.7,1.6-1.6,1.6h-0.5V-1.4z M-246.2-12.1c-0.7,0-1.3,0.6-1.3,1.3v5c0,0.7,0.6,1.3,1.3,1.3h8.5l3,2.6v-2.6h0.8
	c0.7,0,1.3-0.6,1.3-1.3v-5c0-0.7-0.6-1.3-1.3-1.3H-246.2z"/>
<path class="st12" d="M-236-10h-9.8v-0.2h9.8V-10z"/>
<path class="st12" d="M-234.6-8.3h-11.2v-0.2h11.2V-8.3z"/>
<path class="st12" d="M-238-6.7h-7.8v-0.2h7.8V-6.7z"/>
<path class="st13" d="M-237.2,114.9h-3.5V72.5h3.5V114.9z"/>
<path class="st13" d="M-201.4,114.9h-3.5V72.5h3.5V114.9z"/>
<path class="st14" d="M-237.2,79.8h-3.5v-7.5h3.5V79.8z"/>
<path class="st14" d="M-201.4,79.8h-3.5v-7.5h3.5V79.8z"/>
<path class="st13" d="M-181.6,74.5h-78.9V71h78.9V74.5z"/>
<path class="st6" d="M-190.9,71h-9.1v-1.2h9.1V71z"/>
<path class="st6" d="M-198.7,71h-1.4l-5.4-14.1c-0.2-0.4,0.1-0.9,0.6-0.9c0.3,0,0.5,0.2,0.6,0.4L-198.7,71L-198.7,71z"/>
<path class="st6" d="M-249.2,69.8h9.1V71h-9.1V69.8z"/>
<path class="st6" d="M-235.8,56.5c0.1-0.2,0.3-0.4,0.6-0.4c0.4,0,0.7,0.4,0.6,0.9L-240,71h-1.4L-235.8,56.5L-235.8,56.5z"/>
<path class="st10" d="M-265.7,50l2.4-2.8l1.4,0.6l0,2.3l-0.1,2.7l-0.1,2.7l-5-0.8L-265.7,50L-265.7,50z"/>
<path class="st15" d="M-262,50.2l-0.1,2.7c-1-1-1.6-1.9-2-2.7L-262,50.2z"/>
<path class="st15" d="M-258.6,46.8c0.1,0,1.6,2.3,0.9,2.6c-0.5,0.1-1,0.2-1.5,0.1L-258.6,46.8z"/>
<path class="st10" d="M-258.1,44.8l-0.6,5.8c-0.1,0.5-0.4,0.9-0.8,1.1c-0.3,0.1-0.7,0.1-1,0l-3.6-1.5l-0.5-3.2l2.9-3L-258.1,44.8
	L-258.1,44.8z"/>
<path class="st16" d="M-261.3,53.5l-0.5,3l-6.6-1l1.7-3.8L-261.3,53.5L-261.3,53.5z"/>
<path class="st6" d="M-265.6,52.9l-5.9-5.2c3-4.6,6.2-6.7,9.4-6.4c3,0.3,4.3,1.4,4,3.4c-0.9,1-2.3,1.7-4.2,2.1L-265.6,52.9
	L-265.6,52.9z"/>
<path class="st10" d="M-263.1,46c0.5-0.3,1.2,0.1,1.5,0.7c0.3,0.6,0.2,1.4-0.3,1.6c-0.5,0.3-1.2-0.1-1.5-0.7
	C-263.8,47-263.6,46.2-263.1,46z"/>
<path class="st6" d="M-262.3,47.6c0-0.1-0.1-0.5-0.3-0.7c-0.1-0.1-0.2-0.1-0.3,0l-0.1-0.2c0.2,0,0.3,0,0.5,0.1
	c0.3,0.2,0.4,0.8,0.4,0.8L-262.3,47.6z"/>
<path class="st17" d="M-259.2,48.3c0,0.5-0.4,1-1,1c-0.5,0-1-0.4-1-1c0-0.5,0.4-1,1-1C-259.7,47.4-259.2,47.8-259.2,48.3z"/>
<path class="st18" d="M-259.6,63.9c-0.4,1.4-1.4,2.7-2.8,3.3c-0.1,0-0.2,0.1-0.3,0.1c-0.1,0-0.2,0.1-0.3,0.1c-2.7,1-4.8,3.2-5.6,6
	c0,0.2-0.1,0.3-0.1,0.5c-3.7,0.5-7.5-0.2-11.2-2.3c2.1-7.3,5.4-12.7,10-16.2c1.6-1.2,3.7-1.6,5.6-1c0.8,0.3,1.6,0.7,2.3,1.2
	c0.7,0.5,1.3,1.1,1.8,1.8l0.1,0.2l0.6,4.4C-259.4,62.6-259.4,63.2-259.6,63.9L-259.6,63.9z"/>
<path class="st19" d="M-259.6,63.9c-0.4,1.4-1.4,2.7-2.8,3.3c-0.1,0-0.2,0.1-0.3,0.1c-0.1,0-0.2,0.1-0.3,0.1
	c-0.6-1.4-1.1-3.2-1.6-5.5l4.2,0.6L-259.6,63.9z"/>
<path class="st10" d="M-250.6,59.2c2.4-2.6,4.1-3.8,4.8-3.6c0.3,0.1,0,0.6-1,1.7c1,0,2.2-0.4,3.7-1.2c0.3-0.1,0.6,0,0.7,0.2
	c0.1,0.2,0,0.4-0.1,0.5c-0.5,0.6-1.9,2.2-4,2.9l-0.9,1.1l-2.2,1L-250.6,59.2z"/>
<path class="st18" d="M-247.2,60.8l-4.8,8.5c-0.6,1.1-1.7,1.7-2.9,1.7c-0.5,0-1-0.1-1.4-0.3c-0.4-0.2-0.8-0.5-1.1-0.9l-7-8.1
	l4.5-4.4l4.9,6.6l4.6-4.9L-247.2,60.8L-247.2,60.8z"/>
<path class="st6" d="M-253.8,66.6c-2.8-4.4-6.6-9.6-8.6-11.3l0.2-0.2c2.3,2,6.5,8,8.6,11.3L-253.8,66.6L-253.8,66.6z"/>
<path class="st6" d="M-254.8,71.3c-0.5,0-1-0.1-1.6-0.4c-1.5-0.8-7.9-8.6-8.2-9l0.2-0.2c0.1,0.1,6.6,8.1,8.1,8.9
	c1.7,0.9,2.9,0.1,3.4-0.5c0.9-0.9,5.5-9.3,5.6-9.4l0.2,0.1c-0.2,0.3-4.7,8.5-5.6,9.4C-253.3,71-254,71.3-254.8,71.3L-254.8,71.3z"/>
<path class="st6" d="M-261.5,104.6l1.2,1.2l0,0.2c0,2.5,1,4.9,2.7,6.7c1,1,1.3,1.7,0.9,2.1l-2.9,0l-4.9-3.5l-1.6,2.2l-0.9-0.1
	l4.3-8.5L-261.5,104.6L-261.5,104.6z"/>
<path class="st20" d="M-259.3,105.3l1.3,1l0,0.2c0.3,2.5,1.6,4.7,3.6,6.2c1.1,0.9,1.5,1.5,1.2,2h-3.6l-4.6-2.3l-1.2,2.4h-1l1-7.2
	L-259.3,105.3L-259.3,105.3z"/>
<path class="st6" d="M-259.3,105.3l0.4-27.9l6,2.9c1.8,0.9,2.7,2.9,2.2,4.8l-6.7,23.5L-259.3,105.3z"/>
<path class="st4" d="M-268.7,73.8l9.7,3.7c3.6,1.3,5.7,5,5.1,8.7l-3.6,22.4l-5.2-0.1c-0.4-8.7-1.3-17.2,0-23.3h-12.7
	c-3.8,0-6.7-3.5-5.9-7.3l1.4-6.4L-268.7,73.8L-268.7,73.8z"/>
<path class="st21" d="M-259,108.6l-0.2,0c0-0.2,2.7-21.1,2-25c-0.8-4-8.5-5.1-12.6-5.7c-0.4-0.1-0.7-0.1-1-0.2
	c-1-0.2-1.8-0.6-2.2-1.3c-0.8-1.4-0.1-3.3-0.1-3.4l0.2,0.1c0,0-0.7,1.9,0.1,3.2c0.4,0.6,1.1,1,2,1.2c0.3,0,0.6,0.1,1,0.2
	c4.2,0.6,12,1.8,12.8,5.9c0.3,1.6,0.1,6.3-0.7,14C-258.3,103.2-258.9,108.5-259,108.6L-259,108.6z"/>
<path class="st13" d="M-277,86.1l-0.9,5l-4.1,23.8h-1.7l4.1-23.8l0.9-5H-277z"/>
<path class="st13" d="M-265.5,114.9h-1.7l-4.1-23.8l-0.9-5h1.7l0.9,5L-265.5,114.9z"/>
<path class="st14" d="M-277,86.1l-0.9,5h-1.7l0.9-5H-277z"/>
<path class="st14" d="M-269.6,91.1h-1.7l-0.9-5h1.7L-269.6,91.1z"/>
<path class="st11" d="M-266.9,87.5h-16.3v-2.4h16.3c0.7,0,1.2,0.5,1.2,1.2C-265.8,87-266.3,87.5-266.9,87.5L-266.9,87.5z"/>
<path class="st11" d="M-280.9,87.5h-2.3l-7.8-18.9c-0.2-0.5,0-1.1,0.5-1.4c0.6-0.3,1.2,0,1.5,0.6L-280.9,87.5L-280.9,87.5z"/>
<path class="st10" d="M-174.6,49.3c-0.6,0-1.1,0-1.5-0.2c-0.7-0.2,0.9-2.5,1-2.5L-174.6,49.3L-174.6,49.3z"/>
<path class="st8" d="M-166.9,54.9l-5.4,0.6l0.1-2.7l0.1-2.7l0.1-2.3l1.5-0.6l2.4,2.8L-166.9,54.9z"/>
<path class="st10" d="M-169.9,50.2c-0.5,0.8-1.3,1.7-2.3,2.7l0.1-2.7L-169.9,50.2L-169.9,50.2z"/>
<path class="st8" d="M-171.9,43.9l2.7,3.1l-0.6,3.2l-3.6,1.3c-0.3,0.1-0.7,0.1-1,0c-0.4-0.2-0.8-0.6-0.8-1.1l-0.4-5.7L-171.9,43.9
	L-171.9,43.9z"/>
<path class="st6" d="M-171.3,47c-0.6-1.1-1.2-1.8-1.8-2c-2.4,0.8-3.8,0.2-4.4-1.6c1.3,0,2.6-0.4,3.7-1.2c1.7-1.2,3.5-0.6,4.8,0.5
	c2.7,0.1,3,2.6,0.9,7.3c-0.5,0.2-1.5-0.7-2.9-2.6L-171.3,47L-171.3,47z"/>
<path class="st8" d="M-170.3,47.6c-0.4,0.6-1,0.9-1.5,0.6c-0.5-0.3-0.6-1-0.2-1.6c0.4-0.6,1-0.9,1.5-0.6
	C-170,46.2-169.9,46.9-170.3,47.6z"/>
<path class="st9" d="M-172.4,48c0,0.6-0.4,1-1,1c-0.5,0-1-0.4-1-1c0-0.6,0.4-1,1-1C-172.9,47-172.4,47.5-172.4,48z"/>
<path class="st6" d="M-171.5,47.5c0-0.3,0-1,0.7-1.2l0.1,0.2c-0.7,0.2-0.6,0.9-0.6,0.9L-171.5,47.5L-171.5,47.5z"/>
<path class="st11" d="M-172.3,55.6l0.1-2.8l4.7-1.2l1.4,3.4L-172.3,55.6z"/>
<path class="st6" d="M-170.6,66l-13,3.6l-3.8-1.9c1.4-1.4,4.6-2.7,9.5-4c2.2-3.5,3.9-6.9,6.3-9.2L-170.6,66L-170.6,66z"/>
<path class="st6" d="M-190.8,106.5l-3,8.3l-9.3-2.3c1-1.3,2.9-1.8,5.8-1.4l2.3-6.4L-190.8,106.5L-190.8,106.5z"/>
<path class="st20" d="M-182.5,86c-1.9,7.8-4.7,15.8-7.5,22.5l-7.3-1.9l5.4-22.1c0.8-3.2,3.2-5.7,6.3-6.7l13.4-4.3L-182.5,86
	L-182.5,86z"/>
<path class="st6" d="M-177.1,107.2l1.1,7.7h-10.1c0.6-1.5,2.4-2.4,5.3-2.7l-0.3-4.7L-177.1,107.2z"/>
<path class="st4" d="M-160.1,71.3l1.4,6.4c0.8,3.7-2,7.5-5.9,7.5h-12.2c0.7,6.2,1.3,14.4,0.9,23.1l-6.7,0.1l-3.6-22.4
	c-0.6-3.7,1.5-7.4,5.1-8.7l8.9-3.8L-160.1,71.3L-160.1,71.3z"/>
<path class="st6" d="M-172.3,73.5l-1.1-14.2c-0.2-1.9,0.5-3.8,1.9-5.1c0.3-0.3,0.8-0.5,1.2-0.6c7.9-0.5,9.5,9.4,10.5,19.8
	C-164,74.2-168.2,74.3-172.3,73.5z"/>
<path class="st8" d="M-184.9,70.2l-1.3,0.9h-6.6c0.5-1.7,2.3-2.9,5.4-3.5L-184.9,70.2L-184.9,70.2z"/>
<path class="st6" d="M-165.6,60.2l-5.2,7.4c-1.4,2.1-3.5,3.4-6,3.4l-9.3,0l-1.2-3.5l11.1-2.4l6-9.3L-165.6,60.2z"/>
<path class="st4" d="M-187.3,67.7l-0.1-0.2l11-2.4c0.3-0.8,0.6-1.7,0.9-2.5c1.2-3.4,2.3-6.6,3.6-8.3l0.2,0.2
	c-1.3,1.7-2.4,4.9-3.6,8.3c-0.3,0.8-0.6,1.7-0.9,2.6l0,0.1l-0.1,0L-187.3,67.7L-187.3,67.7z"/>
<path class="st4" d="M-180.7,71.2c-2.6,0-5.3,0-5.5,0l0-0.2c0.1,0,9.1,0.2,10.2-0.1l0,0c2.7-0.6,4.9-2.4,5.9-5l1.2-3l0.2,0.1l-1.2,3
	c-1.1,2.6-3.3,4.5-6.1,5.1l0,0C-176.4,71.2-178.5,71.2-180.7,71.2z"/>
<path class="st13" d="M-162.5,86.1h1.7l5,28.8h-1.7L-162.5,86.1z"/>
<path class="st13" d="M-172.3,114.9h-1.7l5-28.8h1.7L-172.3,114.9z"/>
<path class="st14" d="M-167.3,86.1l-0.9,5h-1.7l0.9-5H-167.3z"/>
<path class="st14" d="M-159.9,91.1h-1.7l-0.9-5h1.7L-159.9,91.1z"/>
<path class="st11" d="M-173.7,86.3c0-0.7,0.5-1.2,1.2-1.2h16.3v2.4h-16.3C-173.2,87.5-173.7,87-173.7,86.3L-173.7,86.3z"/>
<path class="st11" d="M-150.5,67.8c0.2-0.6,0.9-0.8,1.5-0.6c0.5,0.2,0.8,0.8,0.5,1.4l-7.8,18.9h-2.3L-150.5,67.8L-150.5,67.8z"/>
<path class="st6" d="M-140.6,114.8l-158.8,0.3v-0.2l158.8-0.3V114.8z"/>
<g>
	<g>
		<g>
			<path class="st22" d="M42,108.3l-0.3-0.2c-0.4-0.2-0.5-0.6-0.3-1l1.5-2.8c0.2-0.4,0.6-0.5,1-0.3l0.5,0.3c0.1,0,0.1,0.1,0.1,0.2
				c0,0.1-0.1,0.1-0.2,0.1l-0.5-0.3c-0.2-0.1-0.5,0-0.6,0.2l-1.5,2.8c-0.1,0.2,0,0.5,0.2,0.6l0.3,0.2c0.2,0.1,0.5,0,0.6-0.2l1-1.9
				c0-0.1,0.1-0.1,0.2-0.1c0.1,0,0.1,0.1,0.1,0.2l-1,1.9C42.8,108.4,42.4,108.5,42,108.3z"/>
		</g>
		<g>
			<path class="st22" d="M40.6,111.3l-0.6-0.3c-0.6-0.3-0.7-1-0.4-1.6l2.3-4.2c0-0.1,0.1-0.1,0.2-0.1c0.1,0,0.1,0.1,0.1,0.2
				l-2.3,4.2c-0.2,0.5-0.1,1,0.3,1.2l0.6,0.3c0.4,0.2,1,0,1.2-0.4l2.6-4.8c0.2-0.5,0.1-1-0.3-1.2c-0.1,0-0.1-0.1-0.1-0.2
				c0-0.1,0.1-0.1,0.2-0.1c0.6,0.3,0.7,1,0.4,1.6l-2.6,4.8C41.9,111.3,41.1,111.6,40.6,111.3z"/>
		</g>
	</g>
	<g>
		<path class="st23" d="M92.4,92.8H30.5c-5,0-9-4-9-9V33.7c0-5,4-9,9-9h61.9c5,0,9,4,9,9v50.1C101.4,88.7,97.4,92.8,92.4,92.8z"/>
		<path class="st24" d="M101.4,32.2H21.5V32c0-4,3.3-7.3,7.3-7.3h65.2c4,0,7.3,3.3,7.3,7.3V32.2z"/>
		<g>
			<circle class="st25" cx="25.7" cy="28.4" r="0.9"/>
			<circle class="st25" cx="29.5" cy="28.4" r="0.9"/>
			<circle class="st25" cx="33.3" cy="28.4" r="0.9"/>
		</g>
		<rect x="27.9" y="38.2" class="st26" width="22.6" height="22.6"/>
		<path class="st27" d="M74.7,39.9h-18c-0.5,0-0.9-0.4-0.9-0.9l0,0c0-0.5,0.4-0.9,0.9-0.9h18c0.5,0,0.9,0.4,0.9,0.9l0,0
			C75.5,39.5,75.1,39.9,74.7,39.9z"/>
		<path class="st27" d="M96.2,38.8h-18c-0.5,0-0.9-0.4-0.9-0.9l0,0c0-0.5,0.4-0.9,0.9-0.9h18c0.5,0,0.9,0.4,0.9,0.9l0,0
			C97.1,38.4,96.7,38.8,96.2,38.8z"/>
		<g class="st28">
			<path class="st29" d="M78.2,46.5H56.4c-0.3,0-0.6-0.2-0.6-0.6l0,0c0-0.3,0.2-0.6,0.6-0.6h21.9c0.3,0,0.6,0.2,0.6,0.6l0,0
				C78.8,46.3,78.5,46.5,78.2,46.5z"/>
			<path class="st29" d="M86.6,46.5h-5.8c-0.3,0-0.6-0.2-0.6-0.6l0,0c0-0.3,0.2-0.6,0.6-0.6h5.8c0.3,0,0.6,0.2,0.6,0.6l0,0
				C87.1,46.3,86.9,46.5,86.6,46.5z"/>
			<path class="st29" d="M64.6,49.9h-8.3c-0.3,0-0.6-0.2-0.6-0.6l0,0c0-0.3,0.2-0.6,0.6-0.6h8.3c0.3,0,0.6,0.2,0.6,0.6l0,0
				C65.2,49.7,64.9,49.9,64.6,49.9z"/>
			<path class="st29" d="M78,49.9H66.7c-0.3,0-0.6-0.2-0.6-0.6l0,0c0-0.3,0.2-0.6,0.6-0.6H78c0.3,0,0.6,0.2,0.6,0.6l0,0
				C78.5,49.7,78.3,49.9,78,49.9z"/>
			<path class="st29" d="M86.6,49.9h-5.8c-0.3,0-0.6-0.2-0.6-0.6l0,0c0-0.3,0.2-0.6,0.6-0.6h5.8c0.3,0,0.6,0.2,0.6,0.6l0,0
				C87.1,49.7,86.9,49.9,86.6,49.9z"/>
			<path class="st29" d="M67.6,52.9H56.4c-0.3,0-0.6-0.2-0.6-0.6l0,0c0-0.3,0.2-0.6,0.6-0.6h11.2c0.3,0,0.6,0.2,0.6,0.6l0,0
				C68.1,52.7,67.9,52.9,67.6,52.9z"/>
			<path class="st29" d="M88.9,52.9H70.6c-0.3,0-0.6-0.2-0.6-0.6l0,0c0-0.3,0.2-0.6,0.6-0.6h18.3c0.3,0,0.6,0.2,0.6,0.6l0,0
				C89.5,52.7,89.3,52.9,88.9,52.9z"/>
		</g>
		<g class="st28">
			<path class="st29" d="M78.2,57.4H56.4c-0.3,0-0.6-0.2-0.6-0.6l0,0c0-0.3,0.2-0.6,0.6-0.6h21.9c0.3,0,0.6,0.2,0.6,0.6l0,0
				C78.8,57.2,78.5,57.4,78.2,57.4z"/>
			<path class="st29" d="M86.6,57.4h-5.8c-0.3,0-0.6-0.2-0.6-0.6l0,0c0-0.3,0.2-0.6,0.6-0.6h5.8c0.3,0,0.6,0.2,0.6,0.6l0,0
				C87.1,57.2,86.9,57.4,86.6,57.4z"/>
			<path class="st29" d="M64.6,60.9h-8.3c-0.3,0-0.6-0.2-0.6-0.6l0,0c0-0.3,0.2-0.6,0.6-0.6h8.3c0.3,0,0.6,0.2,0.6,0.6l0,0
				C65.2,60.6,64.9,60.9,64.6,60.9z"/>
			<path class="st29" d="M78,60.9H66.7c-0.3,0-0.6-0.2-0.6-0.6l0,0c0-0.3,0.2-0.6,0.6-0.6H78c0.3,0,0.6,0.2,0.6,0.6l0,0
				C78.5,60.6,78.3,60.9,78,60.9z"/>
		</g>
		<g>
			<path class="st29" d="M38,41.6h2.3l6.3,14.5H44l-1.5-3.5h-6.8l-1.5,3.5h-2.6L38,41.6z M41.6,50.4l-2.5-5.7l-2.5,5.7H41.6z"/>
		</g>
		<g>
			<path class="st29" d="M41,66.8h-7c-0.3,0-0.5-0.2-0.5-0.5l0,0c0-0.3,0.2-0.5,0.5-0.5h7c0.3,0,0.5,0.2,0.5,0.5l0,0
				C41.5,66.6,41.3,66.8,41,66.8z"/>
			<path class="st29" d="M38.6,68.7H34c-0.3,0-0.5-0.2-0.5-0.5l0,0c0-0.3,0.2-0.5,0.5-0.5h4.6c0.3,0,0.5,0.2,0.5,0.5l0,0
				C39.2,68.4,38.9,68.7,38.6,68.7z"/>
		</g>
		<g>
			<path class="st29" d="M41,79.4h-7c-0.3,0-0.5-0.2-0.5-0.5l0,0c0-0.3,0.2-0.5,0.5-0.5h7c0.3,0,0.5,0.2,0.5,0.5l0,0
				C41.5,79.2,41.3,79.4,41,79.4z"/>
			<path class="st29" d="M38.6,81.3H34c-0.3,0-0.5-0.2-0.5-0.5l0,0c0-0.3,0.2-0.5,0.5-0.5h4.6c0.3,0,0.5,0.2,0.5,0.5l0,0
				C39.2,81.1,38.9,81.3,38.6,81.3z"/>
		</g>
	</g>
	<g>
		<path class="st30" d="M102.2,30.8c0,0,0.3,3.9-0.6,3.9c-0.9-0.1-2.7-1.8-6.2-1.5s-7.9,1.1-10.6-3.6c-2.6-4.7,3.4-6,3.4-6
			L102.2,30.8L102.2,30.8z"/>
		<polygon class="st31" points="94.6,30.6 112.6,32 113,31.2 95.8,18.5 78.4,16.5 78,17.2 94.6,30.6 		"/>
		<g>
			<path class="st32" d="M106.9,44.1c-0.1-0.4-0.5-0.6-0.9-0.5c-0.4,0.1-0.6,0.5-0.5,0.9c0.1,0.4,0.5,0.6,0.9,0.5
				C106.8,44.8,107,44.5,106.9,44.1L106.9,44.1z"/>
			<path class="st32" d="M106.3,44.3c0.7-0.1,0.9,6.5,0.9,6.5s-0.5,0.2-0.7,0.2c-0.2-0.1-0.3-0.9-0.3-0.9l0,0.9c0,0-0.8,0-1.1-0.2
				C105,50.8,105.1,44.4,106.3,44.3L106.3,44.3z"/>
		</g>
		<polygon class="st32" points="106.5,44.4 106.4,30.1 106.3,30 96.9,23.1 96.6,23.6 105.8,30.4 106.1,44.4 		"/>
	</g>
	<g>
		<g>
			<g>
				<path class="st33" d="M117.2,112h-38V97h38.2c4,0,7.2,3.2,7.2,7.2v0.5C124.5,108.7,121.2,112,117.2,112z"/>
				<path class="st24" d="M158.4,103.2v2.3c0,1.2-0.3,2.3-0.8,3.3c-1.1,2-3,3.3-5.3,3.3H77.9c-0.5,0-0.9-0.4-0.9-1v-0.3
					c0-0.5,0.4-1,0.9-1h45.3c0.2-0.3,0.5-0.7,0.6-1c0.4-0.9,0.7-1.8,0.7-2.9V103c0-0.5-0.1-1-0.2-1.5c-0.2-0.8-0.6-1.6-1.1-2.2H77.9
					c-0.5,0-0.9-0.4-0.9-1v-0.3c0-0.5,0.4-1,0.9-1h74.7c2.6,0,4.9,1.9,5.5,4.5C158.3,102,158.4,102.6,158.4,103.2z"/>
				<path class="st34" d="M158.1,101.5h-33.8c-0.2-0.8-0.6-1.6-1.1-2.2H77.9c-0.5,0-0.9-0.4-0.9-1v-0.3c0-0.5,0.4-1,0.9-1h74.7
					C155.2,97,157.5,98.9,158.1,101.5z"/>
			</g>
			<polygon class="st35" points="79.1,104.5 84.6,104.7 79.1,104.9 			"/>
			<polygon class="st35" points="79.1,106.8 92.2,107.1 79.1,107.2 			"/>
		</g>
		<g>
			<g>
				<g>
					<path class="st32" d="M73.6,123.6h38.5v-11.7H73.3c-3,0-5.5,2.5-5.5,5.5v0.4C67.8,121,70.4,123.6,73.6,123.6z"/>
					<path class="st33" d="M110.5,123.6h43.9v-11.7h-44c-3.1,0-5.6,2.5-5.6,5.6v0.4C104.8,121,107.3,123.6,110.5,123.6z"/>
					<path class="st32" d="M101.9,123.6h53.9c0.5,0,0.8-0.4,0.8-0.8v-0.1c0-0.5-0.4-0.8-0.8-0.8h-53.9c-0.5,0-0.8,0.4-0.8,0.8v0.1
						C101.1,123.2,101.4,123.6,101.9,123.6z"/>
					<path class="st32" d="M101.9,113.7h53.9c0.5,0,0.8-0.4,0.8-0.8v-0.1c0-0.5-0.4-0.8-0.8-0.8h-53.9c-0.5,0-0.8,0.4-0.8,0.8v0.1
						C101.1,113.3,101.4,113.7,101.9,113.7z"/>
				</g>
				<polygon class="st35" points="154.4,117.8 148.4,118 154.4,118.1 				"/>
				<polygon class="st35" points="154.4,115.1 140.1,115.3 154.4,115.4 				"/>
			</g>
			<g>
				<path class="st24" d="M140.2,115.2c0,0,0.6,0.5,0.8,1.3c0,0.1,0.1,0.3,0.1,0.5c0,1.1,0,3.6,0,3.6l1.8-1.2l1.8,1.2v-3.4
					c0-0.6-0.2-1.3-0.4-1.7c-0.1-0.2-0.3-0.3-0.5-0.3H140.2z"/>
				<path class="st36" d="M140.2,115.2c0,0,0.6,0.5,0.8,1.3l3.6,0c0,0-0.1-1.2-0.9-1.4H140.2z"/>
			</g>
		</g>
		<g>
			<g>
				<g>
					<path class="st33" d="M105.2,97h-36V79.9h36.2c4.5,0,8.2,3.7,8.2,8.2v0.5C113.6,93.3,109.8,97,105.2,97z"/>
					<path class="st22" d="M113.6,86.5v3.7c0,1.6-0.7,2.9-1.8,3.7c-0.5,0.4-1.1,0.6-1.8,0.6H68c-0.5,0-0.9,0.5-0.9,1.1V96
						c0,0.6,0.4,1.1,0.9,1.1h72.5c2.1,0,3.9-1.2,5-3.1c0.7-1.2,1.1-2.6,1.1-4.2v-2.9c0-1.1-0.2-2.1-0.6-3c-0.9-2.3-2.9-3.9-5.2-3.9
						H68c-0.5,0-0.9,0.5-0.9,1.1v0.4c0,0.6,0.4,1.1,0.9,1.1h42.1c1,0,1.9,0.5,2.6,1.3C113.2,84.5,113.6,85.5,113.6,86.5z"/>
					<path class="st37" d="M67.1,95.5V96c0,0.6,0.4,1.1,0.9,1.1h72.5c2.1,0,3.9-1.2,5-3.1h-33.8c-0.5,0.4-1.1,0.6-1.8,0.6H68
						C67.5,94.5,67.1,94.9,67.1,95.5z"/>
				</g>
				<polygon class="st35" points="69.2,88.5 74.6,88.7 69.2,88.9 				"/>
				<polygon class="st35" points="69.2,84.5 82,84.8 69.2,85 				"/>
			</g>
			<g>
				<path class="st32" d="M81.9,84.7c0,0-0.8,0.5-1.1,1.4c0,0.2-0.1,0.3-0.1,0.5c0,1.2,0,3.9,0,3.9l-2.5-1.3l-2.5,1.3v-3.6
					c0-0.7,0.2-1.4,0.6-1.8c0.2-0.2,0.4-0.4,0.7-0.4H81.9z"/>
				<path class="st38" d="M81.9,84.7c0,0-0.8,0.5-1.1,1.4l-5,0.1c0,0,0.2-1.3,1.2-1.5H81.9z"/>
			</g>
		</g>
	</g>
	<g id="girl_2_15_">
		<path class="st39" d="M18.2,95.5c0,0,7.8,3.4,9.2,3.3c1.4-0.1,10.2-2.7,10.2-2.7l-0.2,1.5c0,0-6.7,3.9-9.1,4.1
			c-2.3,0.2-10.3-2.1-11-2.6S15.9,96,18.2,95.5z"/>
		<path class="st30" d="M17,83c0,0-2.9-0.5-4.3,0.5c-2.6,1.9-2.7,8.4-3.7,9.4c-1,1-3.3,0.6-3.5,5.6c-0.2,5,0.9,5.5-0.4,7.7
			c-1.4,2.3,0.6,4.5,0.6,4.5s-0.8-1.2-0.5-2.1c0,0,0.3,2,1.6,2.4c1.3,0.5,1.4,0.8,1.6,1.5c0,0,10.7-5.5,10.7-9.4
			c0-3.9,2.1-7.8,1.1-9.5c0,0,0.5,0.7,0.5,1.5c0,0,0.6-1.2-0.5-2.3c-1.1-1.1,1.3-3.4,0.9-6C20.9,85.1,19.6,83.1,17,83z"/>
		<path class="st40" d="M19.1,99.2c-0.7,0.5-1.5,0.9-2.6,1.1c-4,0.9-5.6-2.5-6.2-4.8c0.6-0.3,1.1-0.4,1.4-0.4c0.3,0,0.6-0.1,0.9-0.1
			c0.5-0.3,1.1-1.8,1.3-4l0.2,0.1l3.2,0.9c0,0-0.1,1-0.2,2c-0.1,0.8-0.1,1.5,0.1,1.6c0.2,0.1,0.4,0.1,0.4,0.1s0,0,0,0
			C17.5,95.7,18.4,97.3,19.1,99.2z"/>
		<path class="st39" d="M17.2,92c0,0-0.1,1-0.2,2c-1.8-0.2-2.6-1.9-3-2.8L17.2,92z"/>
		<path class="st40" d="M17.7,92.9c0,0-4.3-0.2-4.1-2.9c0.2-2.7-0.2-4.5,2.5-4.5c2.7,0,3.2,1.1,3.4,2C19.6,88.4,18.8,92.9,17.7,92.9
			z"/>
		<path class="st30" d="M19.5,86c-0.6-0.9-1.1-0.7-1.4-0.5c-2.3-1.5-3.9,0.3-3.9,0.3c-0.4,1.9-1.9,2.9-1.9,2.9s0.7,0.5,2.6,0.2
			c0.6-0.1,1.1-0.5,1.5-0.9c-0.8,1.2-1.9,2-1.9,2c2.2-0.8,3.3-3.8,3.4-4.1c0.2,0.3,0.7,0.8,0.8,1.3c0.2,0.7,0.9,1.8,1.3,1.8
			C20.1,89.1,20.4,87.3,19.5,86z"/>
		<path class="st41" d="M9.1,107.9c-0.4-2-1.7-9.9-0.4-12.4c0.5-0.9,2.2-1,4.2-0.9c0.6,0.4,2.9,1.9,3.9,1.7c0,0,0,0,0.1,0
			c0.4-0.1,0.6-0.4,0.2-0.7c0,0,1-0.1,2.2,0.1c0.7,0.1,2.5,1.1,2.5,1.1s-0.9,1.7-2.3,2.2c0.2,2.1-0.1,3-2.3,7.8
			c-1.8,4,0.2,7.7,0.2,7.7S6.8,123,6.7,118.7C6.7,115.4,9.6,110.5,9.1,107.9z"/>
		<path class="st42" d="M18,123.8c0.6-0.1,1.1-0.4,1.4-0.9c0.1-0.1,0.1-0.2,0.2-0.2c1.2-1.8,1.7-7.5,4.4-13.5
			c0.7-1.5,3.1-1.7,3.7-3.4c0,0,1.6-5.4-3.1-5.5c-4.7-0.2-12.5,14.9-12.6,16.5C11.8,118.3,8.9,124.8,18,123.8z"/>
		<path class="st30" d="M36.5,123.6h-6.6c0,0-0.2-1.1,0.2-1.8c0.4-0.6,0.2-1,0-1.5c0.3,0.1,0.7,0.2,1.1,0.2c0.3,0,0.7-0.2,1-0.3
			c0.3,0.3,1.5,1.7,1.9,2C34.4,122.5,36.4,122.4,36.5,123.6z"/>
		<path class="st38" d="M27.8,101.8c0.4,3,2,12.5,4.7,17.1c0.9,1.5-2.2,2.3-2.3,2.3c-0.4-0.1-1.1-0.8-1.4-1.1
			c-2.2-2-6.8-7.7-6.8-12.3c0-2.2,0-6.5,1.6-7.6C24.6,99.6,27.7,100.7,27.8,101.8z"/>
		<path class="st32" d="M14,123.6c0,0,0.2-0.3,0.7-1c0.5-0.8,1.1-2.3,1.8-4.3c0.7-2.1,1.6-4.6,2.6-7.2c0.3-0.8,0.7-1.6,1.1-2.4
			c0.7-1.5,2.5-1.3,3.1-2.9c0,0,2.5-5.7-2.1-5.9c-4.7-0.2-13.5,15.3-14.1,16.8C6.5,118.4,3.8,125.2,14,123.6z"/>
		<path class="st31" d="M31.6,123.6H25c0,0-0.2-1.1,0.2-1.8c0.4-0.6,0.2-1,0-1.5c0.3,0.1,0.7,0.2,1.1,0.2c0.3,0,0.7-0.2,1-0.3
			c0.3,0.3,1.5,1.7,1.9,2C29.6,122.5,31.5,122.4,31.6,123.6z"/>
		<path class="st38" d="M16.4,118.4c0.7-2.1,1.6-4.6,2.6-7.2c-0.3-2-0.9-3.7-1.9-4.4C17.2,106.8,14.7,114.4,16.4,118.4z"/>
		<path class="st32" d="M23.9,101.6c0.4,3,1,12.7,3.7,17.3c0.9,1.5-2.2,2.3-2.3,2.3c-0.4-0.1-1.1-0.8-1.4-1.1
			c-2.2-2-6.8-7.7-6.8-12.3c0-2.2,2.6-6.3,4.2-7.4C22.4,99.8,23.8,100.4,23.9,101.6z"/>
		<path class="st3" d="M18.5,91.4c0,0-0.4-0.2-1.5-0.1c0,0,0.1,0.4,0.9,0.5C18.4,91.8,18.5,91.4,18.5,91.4z"/>
		<g>
			<g>
				<polygon class="st43" points="38.4,93 37,90.6 34,98.9 35.8,100.8 				"/>
				<polygon class="st44" points="31.2,94.5 28.4,102.4 35.8,100.8 38.4,93 				"/>
				<polygon class="st45" points="28.6,102 28.4,101.8 31,94.3 31.2,94.5 				"/>
				<polygon class="st33" points="31,94.3 38,92.9 38.4,93 31.2,94.5 				"/>
			</g>
			<polygon class="st45" points="38.4,93 36.9,90.7 35.9,93.3 38,92.9 			"/>
		</g>
		<path class="st40" d="M33.3,95.6c-0.2,0-0.8-0.2-1.3-0.4c0.2-0.1,0.3-0.3,0.4-0.4c0.1-0.3,0.2-0.4-0.2-0.3
			c-0.3,0.1-1.4,0.6-1.4,0.6s0,0,0,0c-0.6,0.2-1.2,1-1.2,1s-7.6,2.7-8.5,2.7c-1.4,0.1-10.9-3.4-10.9-3.4c-2.2,0.5-1.7,3.2-1,3.7
			c0.8,0.5,7.6,3,11.6,3c2,0,9.5-4.7,9.5-4.7s0.9-0.4,1.5-0.3c0.7,0.1,2.3,0,2.6-0.6C34.9,96.1,33.7,95.7,33.3,95.6z"/>
		<path class="st41" d="M15.2,97.2c0,0-0.8,2.7-3.7,3.3c0,0-4.8-1.5-2.4-4.7C9,95.8,11.4,94,15.2,97.2z"/>
		<path class="st40" d="M38.2,95.8L38.2,95.8c0-0.1,0-0.1,0-0.2c0,0-0.7-1.1-0.9-1.1c-0.7-0.1-0.7,0.8-0.5,1.3
			c0.1,0.4,0.4,0.8,0.6,1l0,0l0,0.8C38.5,97.1,38.2,95.8,38.2,95.8z"/>
	</g>
	<g>
		<path class="st30" d="M112.2,94c1.3,2.2,2.8,3.1,2.8,3.1l6.6,0C121.7,97.1,111.3,92.3,112.2,94z"/>
		<g>
			<path class="st40" d="M117.2,111.1c0.2,0.2,0.2,0.4,0.1,0.7c0,0,0,0,0,0c-0.2,0.4-0.7,0.9-1.3,1.4c-0.1,0.1-0.1,0.1-0.2,0.2
				c0,0,0,0,0,0c0,0,0,0,0,0c-0.6,0.5-0.4,0.6-1.4,1.7c-1.2,1.2-2,1.2-2.2,1.1c-0.2-0.1,0.2-0.7,0.6-1.4c0,0,0-0.1,0.1-0.1
				c0.1-0.1,0.1-0.2,0.2-0.3c0.5-0.9,0.4-1.3,0.3-2.6c-0.1-1-1.6-5.9-1.6-5.9l2.2-0.4c0,0,0.6,3.8,1.4,4.4c0.4,0.3,0.8,0.3,1.2,0.6
				c0,0,0.1,0,0.1,0.1C116.8,110.8,117,110.9,117.2,111.1z"/>
			<path class="st30" d="M117.2,111.1c0.2,0.2,0.2,0.4,0.1,0.7c0,0,0,0,0,0c-0.2,0.4-0.7,0.9-1.3,1.4c-0.1,0.1-0.1,0.1-0.2,0.2
				c0,0,0,0,0,0c0,0,0,0,0,0c-0.6,0.5-0.4,0.6-1.4,1.7c-1.2,1.2-2,1.2-2.2,1.1c-0.2-0.1,0.2-0.7,0.6-1.4c0.2-0.1,1.3-0.5,2.1-1.5
				c0.7-0.9,1.2-2,1.7-2.7c0,0,0.1,0,0.1,0.1C116.8,110.8,117,110.9,117.2,111.1z"/>
			<path class="st40" d="M99.3,109.6c-0.1,0.7-1.1,0.6-2.2,0.3c-1.1-0.3-0.8,0-2.4-0.1c-1.6-0.2-2-0.8-2.1-1c0-0.2,0.7-0.3,1.6-0.4
				c0.1,0,0.2,0,0.3,0c0.9-0.1,1.6-0.7,2.5-1.2c0.8-0.5,2-2.4,2-2.4l2.1,0.2c0,0-1.1,1.7-1.6,2.4c-0.3,0.4-0.2,1-0.2,1.5
				C99.3,109.1,99.3,109.4,99.3,109.6z"/>
			<path class="st30" d="M97.1,109.9c-1.1-0.3-0.8,0-2.4-0.1c-1.6-0.2-2-0.8-2.1-1c0-0.2,0.7-0.3,1.6-0.4l0,0c0,0,0.9,0.7,2.2,0.7
				c1.1,0,2.2-0.3,2.9-0.2c0,0.2,0,0.5,0,0.7C99.1,110.3,98.2,110.2,97.1,109.9z"/>
			<path class="st30" d="M107.6,96l2,5.4l2.6,7c0,0,0.7,0.1,1.4-0.1c0.6-0.2,1.3-0.6,1.3-0.6s-0.7-7.5-2-11.9
				c-0.3-1.1-0.7-2-1.1-2.5C109.6,90.8,107.6,96,107.6,96z"/>
			<path class="st31" d="M109.6,87.5c1.3-0.4,5,0.2,8.8,0.9l0.8-1.3l8.1-0.6c0,0,2.6,5.9,1.1,9.7c-0.2,0.6-0.8,0.8-1.5,0.8
				c0,0,0,0,0,0c0,0-4.8,0.1-6.4,0.1c-4,0-8.5-2.8-9.1-2.9c-0.9-0.2-1.3,1.7-2.3,3.7c-1,2-9,8.8-9,8.8s-1.2,0-1.7-0.2
				c-0.5-0.2-0.7-0.5-0.7-0.5S106.7,88.5,109.6,87.5z"/>
			<path class="st30" d="M119.3,76c2.9,1.6,8.7,4.9,8.7,4.9c0,0,2.1,0.8,3.4,0c2-1.3,3.2-5-0.5-8.1c-1.8-1.6-3.2-2-3.3-4.4
				c-0.1-1.3-1.9-5.8-5-5.4c-0.3,0-0.5,0.1-0.8,0c-0.4,0-0.9,0-1.6,0.4C118.5,64.4,115,75.4,119.3,76z"/>
			<path class="st40" d="M121.7,74.7c0,0,1.4,0.5,2.4,0.1c0.9-0.4,1.6-1.9,1.6-1.9c-0.4,0-0.9-0.4-1.2-2.7l-0.2,0.1l-2.9,1
				c0,0,0.2,0.9,0.3,1.8C121.8,73.9,121.9,74.6,121.7,74.7z"/>
			<path class="st46" d="M121.4,71.3c0,0,0.1,0.7,0.3,1.6c1.7-0.3,2.4-1.7,2.6-2.6L121.4,71.3z"/>
			<path class="st40" d="M121,72.2c0,0,4-0.5,3.7-3c-0.4-2.5-0.1-4.2-2.7-4c-2.6,0.2-2.9,1.2-3,2.1C118.9,68.2,119.9,72.3,121,72.2z
				"/>
			<path class="st30" d="M119.1,65.9c0,0,2.5,2.2,4.3,2.4c1.7,0.2,2.4-0.4,2.4-0.4s-1-0.9-1.6-2.2c-0.2-0.4-0.6-0.7-1-0.7
				C121.9,64.9,119.6,64.8,119.1,65.9z"/>
			<path class="st30" d="M120.7,65.7c0,0-0.9,0.8-1.1,1.4c-0.3,0.6-0.4,2-0.1,2.6c0,0-1.3-2.6-0.6-3.9
				C119.7,64.6,120.7,65.7,120.7,65.7z"/>
			<path class="st41" d="M118.3,80.6c0.1,8.1,0,6.4,0.9,7.2c0.2,0.2,0.8,0.3,1.6,0.4c2.5,0.2,6.9-0.2,7-0.7c0.6-1.6,0.2-2.1,0.7-4.5
				c0.1-0.3,0.1-0.5,0.2-0.8c0.4-1.7,0.8-2.2-0.6-4.9c-1.3-2.4-2.6-4.4-2.7-4.4c-3.4,2-3.7,0.3-3.7,0.3S118.3,76.6,118.3,80.6z"/>
			<path class="st31" d="M109.5,101.4l2.6,7c0,0,0.7,0.1,1.4-0.1c0.6-0.2,1.3-0.6,1.3-0.6s-0.7-7.5-2-11.9L109.5,101.4z"/>
			<path class="st41" d="M121.7,73.1c0,0-3.5,0.6-3.9,2.1c-0.4,1.5-2.9,10.3-2.9,10.3s1.8,0.3,2.6-0.5c0.8-0.8,2.9-7.6,2.9-7.6
				L121.7,73.1z"/>
			<path class="st47" d="M120.8,88.1c2.5,0.2,6.9-0.2,7-0.7c0.6-1.6,0.2-2.1,0.7-4.5l-1.2-3.4c0,0,0.2,3.8-0.9,4.7
				c-1.1,1-4.6,1.9-5.1,2.7C121,87.4,120.9,87.8,120.8,88.1z"/>
			<path class="st40" d="M123.7,86.6c0,0-2.4-0.6-2.8-0.3c-0.4,0.2-1.4,1-1.5,1.3c-0.1,0.3,0.9-0.2,1.2-0.3c0.2-0.1,0.8,0.1,1,0.2
				c1.2,0.4,1.9,0.2,1.9,0.2L123.7,86.6z"/>
			<path class="st41" d="M125.4,72.8c0,0,3.3,0.2,4.4,1.8c1.6,2.2,4.7,11.8,2.9,13.1c-2.1,1.4-9.4,0.3-9.4,0.3s-0.2-1.1,0.1-1.7
				c0.3-0.5,5.8-1.4,6.1-1.6c0.3-0.3-3.1-5-3.1-5.7C126.4,78.2,125.4,72.8,125.4,72.8z"/>
			<path class="st40" d="M120.7,86.9c0,0-0.5,0.7-0.7,0.7c-0.2,0.1-0.3,0.1-0.3,0.1l0.4-0.6L120.7,86.9z"/>
			<path class="st40" d="M120.8,86.2l-1.5,0.7c0,0,0.1,0.1,0.2,0.1c0.2,0,0.6-0.2,0.6-0.2L120.8,86.2z"/>
		</g>
		<g>
			<g>
				<polygon class="st32" points="120.3,88.7 108.5,88.6 105,79.7 116.8,79.8 				"/>
				<polygon class="st38" points="108.4,88.3 124,88.4 124,88.7 108.5,88.6 				"/>
			</g>
			<path class="st3" d="M111.5,84.2c-0.1-0.3,0.1-0.6,0.4-0.6c0.3,0,0.6,0.3,0.7,0.6c0.1,0.3-0.1,0.6-0.4,0.6
				C111.9,84.8,111.6,84.5,111.5,84.2z"/>
		</g>
	</g>
	<g>
		
			<rect x="62.9" y="102.2" transform="matrix(1.958630e-04 -1 1 1.958630e-04 -53.7087 186.5957)" class="st48" width="7.1" height="35.9"/>
		<path class="st33" d="M48.5,123.7l-5.3-2.3l-3.1-1.3l3.1-1.3l5.2-2.2c0,0,0.7,1.7,0.7,3.4C49.2,122.5,48.5,123.7,48.5,123.7z"/>
		<path class="st33" d="M88.6,119l0,2.3c0,1.4-1.1,2.5-2.5,2.5l-1.7,0l0-7.1l1.8,0C87.5,116.6,88.6,117.7,88.6,119z"/>
		<path class="st31" d="M43.3,118.8c0.1,0.7,0.2,1.8-0.1,2.7l-3.1-1.3L43.3,118.8z"/>
	</g>
	<g>
		<path class="st32" d="M56.2,79.4c0,0,0.6,2.8,2.5,2.8c1.6,0,3.8-3.6,3.8-3.6L56.2,79.4z"/>
		<path class="st31" d="M77.8,120.6l-1.2,0.8c0,0-5.8-6.2-7.2-12.1c-0.2-1.1-0.4-2.1-0.2-3.1c0,0-0.1-0.3-0.2-0.7c0,0,0,0,0-0.1
			c-0.1-0.2-0.1-0.5-0.2-0.7c-0.3-0.9-0.7-2.1-1.1-3.5c-1-3.2-3.3-10.4-4.3-13.4l7.1-2.6c0,0,0.8,1.8,2,6.8c0.2,0.7,0.4,1.4,0.5,2.2
			c0.2,0.9,0.4,1.9,0.5,2.9c0.2,1.8,0.4,3.8,0.4,6c0,0.9,0,1.8-0.1,2.8c0,0.7,0.1,1.6,0.3,2.7C74.8,113.5,77.8,120.6,77.8,120.6z"/>
		<path class="st30" d="M81.5,123.6h-5.7c0,0-0.2-0.9,0.2-1.5c0.3-0.6,0.2-0.9,0-1.3c0.3,0.1,0.6,0.2,1,0.2c0.3,0,0.6-0.1,0.9-0.3
			c0.2,0.3,1.3,1.5,1.6,1.7C79.7,122.6,81.4,122.5,81.5,123.6z"/>
		<path class="st30" d="M73.3,97.2l-4.5,8.3c-0.1-0.2-0.1-0.5-0.2-0.7c-0.3-0.9-0.7-2.1-1.1-3.5c-1-3.2-3.3-10.4-4.3-13.4l7.1-2.6
			c0,0,0.8,1.8,2,6.8c0.2,0.7,0.4,1.4,0.5,2.2C73,95.1,73.2,96.1,73.3,97.2z"/>
		<path class="st30" d="M63.1,121.8c0,0-0.4,1,0,1.8h3.1c0,0,0.1-0.7-1.1-1.6C64.3,121.4,63.1,121.8,63.1,121.8z"/>
		<path class="st49" d="M66.5,58.2c0-0.2,0.1-1.8,2.6-2c0,0-1.3,0.2-1.5,0.7c0,0,0.8-0.7,1.5-0.5c0.7,0.2,1.1,1.4,1.2,1.8
			c0,0.4-0.3,1.7-0.8,1.8c-0.2,0-0.4,0-0.5,0c0.1,0.2,0.2,0.4,0.4,0.6c1.1,2.1,0.1,4.5-0.7,4.3c-0.6-0.1-0.9,0.8-0.9,0.8l-5.4-4.6
			C62.4,61.3,64.3,57.1,66.5,58.2z"/>
		<path class="st40" d="M63.1,72.2c0.6,0.4,1.3,0.8,2.3,1c3.5,0.8,4.8-2.2,5.3-4.2c-0.5-0.3-0.9-0.3-1.2-0.4c-0.3,0-0.5,0-0.7-0.1
			c-0.4-0.3-1-1.5-1.1-3.4l-0.2,0l-2.8,0.8c0,0,0.1,0.9,0.2,1.7c0,0.6,0.1,1.3-0.1,1.4c-0.2,0-0.3,0.1-0.3,0.1s0,0,0,0
			C64.5,69.2,63.7,70.5,63.1,72.2z"/>
		<path class="st39" d="M64.8,65.9c0,0,0.1,0.9,0.2,1.7c1.6-0.2,2.3-1.6,2.6-2.5L64.8,65.9z"/>
		<path class="st40" d="M64.8,67.3c0,0,3.6-0.9,3-3.2c-0.6-2.2-0.6-3.9-2.9-3.4c-2.3,0.5-2.5,1.5-2.5,2.3
			C62.4,63.8,63.8,67.4,64.8,67.3z"/>
		<path class="st49" d="M62.1,61.7c0.4-0.8,0.8-0.8,1.1-0.7c1.7-1.6,3.4-0.4,3.4-0.4c0.7,1.5,2.1,2.1,2.1,2.1s-0.5,0.6-2.2,0.6
			c-0.5,0-1-0.2-1.5-0.5c0.9,0.9,1.9,1.4,1.9,1.4c-2-0.3-3.4-2.6-3.6-2.9c-0.2,0.3-0.5,0.8-0.5,1.3c0,0.6,0.2,1.8-0.1,1.9
			C62.8,64.5,61.6,63,62.1,61.7z"/>
		<path class="st40" d="M63.7,69c0,0,6-1.5,8.7,0.7L71.1,88l-11.8-2.9c0,0,0.3-1.2,2.6-4.2C64.1,77.8,63.1,73.3,63.7,69z"/>
		<path class="st31" d="M67.2,85.9c0,0,0,0.1,0,0.2c0,0.1,0,0.1,0,0.2c-0.1,0.5-0.1,1.4-0.3,2.6c-0.3,3.1-0.8,8.1-1.2,12
			c-0.3,3.1-0.4,5.5-0.4,5.9c0.3,1.2,0,15.3,0,15.3c-1,0.5-2.5,0-2.5,0s-2.7-12.7-2.3-14.4c0.4-1.8-0.3-3.3-0.3-3.3
			c-2.1-9.7-1.9-15-1.4-17.6c0.1-0.7,0.3-1.3,0.4-1.6c0.1-0.3,0.1-0.4,0.1-0.4C64,83.6,67.2,85.9,67.2,85.9z"/>
		<path class="st32" d="M73.2,74.9c-0.3,2.2-1.5,4.9-1.9,6.4c0,0,0.7,5,0,6.4c-0.1,0.2-0.2,0.3-0.3,0.3c-2.5,1.1-12.1,0-12.5-3.1
			c-0.1-1.1,3.7-5.1,3.9-5.6c0.1-0.2,0.2-0.8-0.3-2.2c-0.6,1.9-4.1,1.4-4.1,1.4c0.4-0.7,1.4-5.5,2.6-7.7c0.9-1.6,3.1-1.9,3.1-1.9
			s1,1.5,3.3,1.3c2.3-0.2,2.7-1.6,2.7-1.6s2,0.3,2.7,0.8C72.6,69.5,73.6,72,73.2,74.9z"/>
		<path class="st38" d="M71.3,81.2c0,0,0.7,5,0,6.4c-1.8-0.9-3.2-3.3-2.9-6.1c0.2-2,0.6-2.5,1.7-3.6c0.8-0.8,2.6-0.9,2.5-0.5
			C72.2,78.7,71.6,80.5,71.3,81.2z"/>
		<g>
			<polygon class="st44" points="63.8,75.3 68,81.9 61,81.9 57,75.4 			"/>
			<polygon class="st45" points="67.7,81.6 67.8,81.3 63.9,75.1 63.8,75.3 			"/>
			<polygon class="st33" points="63.9,75.1 57.3,75.3 57,75.4 63.8,75.3 			"/>
			<polygon class="st43" points="57,75.4 53.3,73.4 57.6,80.2 61,81.9 			"/>
		</g>
		<path class="st40" d="M76.6,80c-0.4,0.2-1.4,1.4-1.8,1.5c-1.6,0.5-8.6-0.9-8.6-0.9l0.2-1.2c0,0,6.8,0.2,7.6,0
			c0.1,0,0.9-1.2,1.2-1.4L76.6,80z"/>
		<path class="st40" d="M66.5,79.4c0,0-0.8-0.7-1.4-0.5c-0.6,0.2-1.4,0.9-1.7,1c-0.3,0.2-1.1,0.8-0.7,1.1c0.4,0.4,1.7,0.1,2.2-0.2
			c0.5-0.3,1.3-0.2,1.3-0.2L66.5,79.4z"/>
		<path class="st40" d="M65.3,78.9c0,0-1-0.1-1.3-0.1c-0.3,0-0.2,0.1,0,0.3c0.2,0.2,0.7,0.3,0.7,0.4S65.3,78.9,65.3,78.9z"/>
		<path class="st32" d="M69.8,68.6c0,0,3,0.4,3.8,1.6c1,1.6,3.5,8,3.4,9.6c0,0-1.8,3-7.9,2.5c0,0-0.6-2.2,0.6-3c0,0,3.1-0.6,3.5-0.9
			l-2.6-4.6L69.8,68.6z"/>
		<path class="st40" d="M58,77.8c-0.1-0.4-0.9-0.1-1.2,0.1c-0.1,0.1-0.1,0.1-0.2,0.2c0-0.1,0-0.1,0-0.2c0-0.2-0.2-0.5-0.3-0.3
			C56.2,78,56.2,79,56.2,79c0,0.8,0.5,1.1,0.8,0.9C57.3,79.6,58.1,78.2,58,77.8z"/>
	</g>
	<path class="st50" d="M158.8,124.2H1.9c-0.2,0-0.3-0.1-0.3-0.3v0c0-0.2,0.1-0.3,0.3-0.3h156.8c0.2,0,0.3,0.1,0.3,0.3v0
		C159.1,124.1,158.9,124.2,158.8,124.2z"/>
</g>
</svg>
