<svg width="574" height="416" viewBox="0 0 574 416" fill="none" xmlns="http://www.w3.org/2000/svg">
<path d="M271.545 365.883L276.945 363.448C276.945 363.448 272.63 358.42 271.776 358.581C270.919 358.748 271.545 365.883 271.545 365.883Z" fill="black"/>
<path d="M265.665 335.316C264.782 341.899 263.367 353.951 265.178 363.087C265.723 365.839 271.778 365.814 271.778 365.814C271.778 365.814 269.215 358.654 278.376 367.284C287.929 376.278 303.296 373.262 305.66 371.916C308.059 370.549 310.872 368.459 305.393 363.023C300.69 358.355 292.707 353.78 290.925 349.447C289.16 345.146 288.898 331.628 288.898 331.628L265.665 335.316Z" fill="#031C28"/>
<path d="M296.334 157.523L292.543 343.56L261.695 343.834L254.371 137.945L293.597 131.8L296.334 157.523Z" fill="#2B2B2B"/>
<path d="M253.906 148.201L255.037 144.915L273.954 138.88L276.448 175.583L277.94 343.989L259.658 345.852L253.906 148.201Z" fill="black"/>
<path d="M242.726 366.516L237.26 363.974C237.26 363.974 241.584 358.939 242.438 359.11C243.301 359.285 242.726 366.516 242.726 366.516Z" fill="black"/>
<path d="M248.744 335.996C249.619 342.593 251.01 354.648 249.189 363.777C248.64 366.536 242.593 366.497 242.593 366.497C242.593 366.497 245.165 359.337 235.988 367.953C226.418 376.932 211.062 373.895 208.689 372.539C206.297 371.168 203.488 369.082 208.98 363.645C213.688 358.992 221.676 354.428 223.464 350.098C225.239 345.794 225.52 332.29 225.52 332.29L248.744 335.996Z" fill="#031C28"/>
<path d="M214.906 158.142L219.366 345.439L253.595 345.219L257.949 137.005L218.617 133.676L214.906 158.142Z" fill="black"/>
<path d="M433.099 171.293C432.701 177.342 431.084 219.279 431.084 219.279L425.035 229.358L436.328 236.617L448.02 182.586L433.099 171.293Z" fill="#0B253F"/>
<path d="M398.988 341.051C400.024 347.463 400.187 353.469 402.943 359.832C405.663 366.126 405.382 371.801 398.596 373.678C391.828 375.582 357.556 375.344 357.556 375.344C357.556 375.344 350.656 370.694 368.91 362.612C378.797 358.237 381.987 356.763 378.936 341.603C378.434 339.1 398.988 341.051 398.988 341.051Z" fill="black"/>
<path d="M368.717 247.036C361.917 250.842 361.461 259.742 361.461 259.742C363.252 280.542 375.855 350.801 375.855 350.801L402.921 348.106C402.921 348.106 377.756 300.953 392.037 268.269C405.495 237.455 460.676 231.58 453.666 226.133C448.222 221.896 389.135 235.611 368.717 247.036Z" fill="black"/>
<path d="M505.114 274.787C505.114 275.769 504.228 276.57 503.138 276.57H404.023C402.944 276.57 402.068 275.769 402.068 274.787V260.567C402.068 259.573 402.944 258.783 404.023 258.783H503.138C504.228 258.783 505.114 259.573 505.114 260.567V274.787Z" fill="black"/>
<path d="M409.989 345.629C411.032 352.038 411.192 358.047 413.948 364.413C416.668 370.711 416.383 376.376 409.601 378.266C402.833 380.161 364.784 379.822 364.784 379.822C364.784 379.822 360.205 375.614 378.32 367.205C391.166 361.237 393.918 358.945 389.941 346.184C389.179 343.746 409.989 345.629 409.989 345.629Z" fill="#2B2B2B"/>
<path d="M475.438 257.986C489.526 245.61 450.434 222.201 447.009 222.305C438.831 222.561 373.56 250.395 373.56 250.395C369.323 254.02 370.562 265.594 371.139 269.753C375.977 304.833 385.989 350.729 385.989 350.729L415.023 347.503C415.023 347.503 414.415 298.509 405.339 278.554C404.706 277.158 471.059 261.835 475.438 257.986Z" fill="#2B2B2B"/>
<path d="M450.059 81.9748C450.337 87.5004 459.686 104.629 464.243 111.711C468.801 118.792 468.469 119.746 468.469 119.746L441.788 129.234C441.788 129.234 435.974 117.845 431.592 113.288C427.191 108.727 450.059 81.9748 450.059 81.9748Z" fill="#E8C8BA"/>
<path d="M430.739 111.851C429.515 110.583 430.433 107.589 432.331 103.961L442.609 93.5079L451.767 117.533L445.152 126.302L440.933 127.801C440.933 127.801 435.122 116.418 430.739 111.851Z" fill="#DDAC9E"/>
<path d="M373.141 158.541C374.17 159.345 377.549 161.417 379.471 162.126C381.387 162.827 389.013 164.454 390.028 165.006C391.049 165.547 404.892 171.764 405.665 172.045C406.437 172.333 408.41 161.87 408.41 161.87C408.41 161.87 383.349 148.084 381.725 146.218C380.08 144.371 373.109 143.142 372.176 143.89C371.258 144.641 373.141 158.541 373.141 158.541Z" fill="#F7D8D0"/>
<path d="M359.084 111.959L381.824 103.378L398.126 140.708L376.373 149.787L359.084 111.959Z" fill="#3357BC"/>
<path d="M359.084 111.959L339.35 111.101L355.649 149.292L376.373 149.787L359.084 111.959Z" fill="#4D87DB"/>
<path d="M358.793 111.96L377.962 102.233L392.271 137.704L373.956 145.996L358.793 111.96Z" fill="white"/>
<path d="M360.226 110.822L341.346 107.952L356.509 144.57L374.82 145.709L360.226 110.822Z" fill="#E5E0DA"/>
<path d="M407.01 158.868C400.11 156.55 394.944 153.011 394.143 152.128C393.346 151.234 387.464 143.024 386.132 142.209C384.79 141.383 376.961 138.296 375.904 137.242C374.871 136.196 372.29 132.852 371.428 134.437C370.57 136.032 371.877 140.115 373.109 140.682C374.358 141.226 376.156 143.423 377.595 144.516C378.706 145.37 374.006 153.734 373.71 158.191C373.618 159.48 376.128 160.537 376.491 160.872C378.136 162.385 405.063 170.752 405.063 170.752L407.01 158.868Z" fill="#EDC0B7"/>
<path d="M376.044 159.441L380.081 159.028C380.081 159.028 381.89 159.146 382.709 157.284C383.054 156.522 381.388 155.628 380.227 155.653C379.846 155.664 376.332 155.625 376.332 155.625C376.332 155.625 377.603 155.6 378.682 155.162C380.782 154.318 382.687 153.4 381.957 151.683C381.228 149.978 377.418 151.822 375.862 151.527C377.172 151.167 380.989 149.394 380.373 148.07C379.768 146.76 375.082 147.094 374.687 147.076C374.303 147.073 372.501 146.24 372.501 146.24C372.501 146.24 375.755 145.813 376.286 145.435C376.813 145.068 377.101 144.157 376.482 143.11C375.862 142.053 372.234 141.818 371.458 141.793C370.682 141.782 367.997 140.159 366.961 140.12C365.918 140.091 365.587 143.192 365.43 143.968C365.281 144.748 367.146 145.257 367.129 146.037C367.104 146.799 366.595 148.935 367.349 149.864C368.097 150.786 369.432 152.057 369.432 152.057C369.432 152.057 369.45 153.677 370.048 155.386C370.643 157.099 371.956 156.864 371.939 157.903C371.896 158.946 376.044 159.441 376.044 159.441Z" fill="#F7D8D0"/>
<path d="M512.759 233.676C512.381 243.232 502.662 246.785 494.064 246.458L482.646 246.006C474.069 245.664 467.397 237.646 467.771 228.08L470.007 170.378C470.384 160.808 477.636 153.32 486.245 153.651L497.642 154.1C506.233 154.428 512.912 162.442 512.531 172.026L512.759 233.676Z" fill="#9B8F8E"/>
<path d="M446.076 130.703C436.267 131.835 427.697 163.073 425.625 163.949C422.777 165.142 406.902 155.889 395.89 152.4C391.945 151.136 386.672 176.254 386.672 176.254C386.672 176.254 425.216 197.769 433.073 194.005C446.859 187.405 447.913 183.26 451.566 178.305C455.236 173.356 472.974 127.556 446.076 130.703Z" fill="#0B253F"/>
<path d="M412.473 86.7769C413.9 102.67 424.296 116.954 432.336 116.242C440.364 115.519 452.43 98.5793 451.006 82.679C449.582 66.7893 442.198 56.913 427.341 60.5766C411.123 64.5748 411.059 70.8873 412.473 86.7769Z" fill="#E8C8BA"/>
<path d="M411.303 60.6045C408.565 67.9458 409.807 72.5565 413.567 72.7487C417.323 72.9446 421.001 72.2894 423.7 74.3295C426.238 76.22 430.365 76.4301 432.266 77.7047C434.153 78.9721 430.468 71.4991 430.468 71.4991L433.843 77.2525L433.049 71.5275L434.373 74.4078L440.529 78.4452L442.402 86.4844L446.603 89.2116L447.461 83.1128L451.182 92.7932L460.186 100.676C460.186 100.676 463.653 93.0816 464.383 87.8195C465.259 81.5569 464.536 80.2147 464.202 76.7006C463.792 72.2787 463.653 71.2427 462.963 67.127C462.194 62.6553 457.911 56.3606 454.913 55.5951C451.911 54.8403 450.096 54.2564 448.625 55.0539C447.134 55.855 446.906 52.4585 442.555 51.5257C438.201 50.5715 438.297 49.9236 432.081 50.0625C425.857 50.2013 421.781 52.3161 416.917 54.997C413.717 56.7736 411.303 60.6045 411.303 60.6045Z" fill="#300901"/>
<path d="M432.12 86.9215C432.003 86.0065 431.262 85.3799 430.518 85.3799H430.504L430.429 85.3728L422.953 86.2984C422.169 86.4017 421.564 87.1066 421.557 88.0074L421.575 88.2744L421.945 91.2402H421.956C422.077 92.1694 422.807 92.796 423.579 92.796L423.85 92.7747L431.116 91.8739C431.885 91.7813 432.512 91.055 432.512 90.1685L432.505 89.9976L432.242 87.9184L432.12 86.9215ZM423.982 94.4871L423.579 94.5156C421.881 94.5014 420.468 93.1947 420.243 91.4715L421.091 91.3541L420.243 91.4644L419.866 88.4488L419.852 88.0074C419.841 86.3198 421.037 84.8245 422.739 84.5967L430.102 83.6959L430.504 83.6602C432.202 83.6709 433.609 84.9918 433.822 86.715L433.947 87.7048L434.196 89.7306L434.228 90.1685C434.228 91.8561 433.032 93.3692 431.33 93.5757L423.982 94.4871Z" fill="#5E1C17"/>
<path d="M415.983 88.8523C415.865 87.7628 415.164 87.2252 414.972 87.2252H414.964V87.211L409.863 87.8768C409.727 87.8768 409.229 88.3289 409.229 89.3151L409.25 89.7495L409.642 92.7294H409.635C409.763 93.8438 410.496 94.3814 410.671 94.3565H410.813L415.755 93.7014C415.887 93.7014 416.406 93.2421 416.399 92.2523L416.374 91.8963L415.983 88.8523ZM410.927 96.0655L410.671 96.0762C409.083 95.9907 408.168 94.5381 407.926 92.9502L408.777 92.8363L407.926 92.9466L407.552 89.9381L407.523 89.3151C407.531 87.8981 408.147 86.442 409.645 86.1749L414.715 85.5341L414.9 85.502H414.964C416.552 85.5874 417.46 87.0436 417.688 88.6351L418.073 91.6435L418.112 92.2523C418.108 93.6871 417.478 95.1433 415.972 95.3997L410.927 96.0655Z" fill="#5E1C17"/>
<path d="M432.248 86.5259C432.248 86.5259 453.172 79.245 453.717 79.8289C454.336 80.8471 455.251 81.7764 455.251 81.7764L452.841 81.2495L433.099 89.8477L432.248 86.5259Z" fill="#5E1C17"/>
<path d="M424.715 103.483C426.752 103.483 430.362 105.068 431.363 105.854C432.367 106.656 438.38 110.045 438.569 112.836C438.768 115.627 432.968 120.69 431.576 121.303C430.18 121.89 424.591 119.697 423.797 118.305C422.992 116.906 420.781 111.465 422.586 111.263C424.374 111.063 427.517 111.387 428.311 109.603C429.116 107.806 427.695 107.307 426.905 107.307C426.093 107.307 425.737 107.136 425.128 107.136C424.52 107.136 420.771 109.02 420.098 108.564C416.933 106.385 419.649 104.612 419.649 104.612L424.715 103.483Z" fill="#300901"/>
<path d="M447.629 80.1451C449.16 76.5777 453.667 76.2679 455.02 79.0521C456.348 81.8611 455.846 92.3213 450.648 93.8523C445.479 95.3725 447.629 80.1451 447.629 80.1451Z" fill="#E8C8BA"/>
<path d="M419.691 89.6302L417.291 89.9079L417.441 91.1719L420.008 90.8657L419.691 89.6302Z" fill="#5E1C17"/>
<path d="M466.971 112.429C470.197 117.268 483.907 127.749 484.708 155.979C485.196 172.983 487.937 205.161 487.937 220.488C487.937 235.815 490.355 243.071 487.133 251.135C483.907 259.196 465.76 274.922 465.76 274.922C465.76 274.922 434.914 261.414 427.658 240.451C426.825 238.037 434.113 233.996 435.519 217.469C435.811 214.055 437.937 183.393 436.327 176.939C434.714 170.491 435.857 145.971 438.111 140.492C440.358 135.005 450.034 123.417 453.666 120.996C457.294 118.578 466.971 112.429 466.971 112.429Z" fill="#0B253F"/>
<path d="M469.43 113.118L462.388 103.587C462.388 103.587 446.569 123.293 443.486 125.226C432.282 141.273 430.943 154.068 430.074 156.984C431.833 155.04 441.602 139.859 441.602 139.859L442.777 132.792L448.121 131.051L469.43 113.118Z" fill="#1F4C6B"/>
<path d="M59.002 342.982C59.002 344.064 59.8792 344.943 60.9655 344.943H64.8889C65.9777 344.943 66.8499 344.064 66.8499 342.982V299.781C66.8499 298.688 65.9777 297.808 64.8889 297.808H60.9655C59.8792 297.808 59.002 298.688 59.002 299.781V342.982Z" fill="#BFB8B8"/>
<path d="M7.94141 300.756C7.94141 301.842 8.91194 302.725 10.1192 302.725H125.557C126.757 302.725 127.732 301.842 127.732 300.756V285.048C127.732 283.951 126.757 283.086 125.557 283.086H10.1192C8.91194 283.086 7.94141 283.951 7.94141 285.048V300.756Z" fill="#9B8F8E"/>
<path d="M56.6699 375.391H68.4538V332.45H56.6699V375.391Z" fill="#9B8F8E"/>
<path d="M68.7788 366.752C72.8201 370.077 107.33 396.875 107.33 398.766C107.33 400.671 107.33 414.428 107.33 414.428H100.728V401.137L63.459 379.088V368.183L68.7788 366.752Z" fill="#9B8F8E"/>
<path d="M59.6032 365.566C55.5715 368.891 21.0547 395.682 21.0547 397.58C21.0547 399.485 21.0547 413.238 21.0547 413.238H27.6605V399.951L64.9298 377.899V366.99L59.6032 365.566Z" fill="#9B8F8E"/>
<path d="M60.3349 365.806L9.11523 380.03V394.264H13.703V386.192L56.3004 376.715L60.3349 365.806Z" fill="#9B8F8E"/>
<path d="M66.9375 365.806L118.164 380.03V394.264H113.578V386.192L70.9845 376.715L66.9375 365.806Z" fill="#9B8F8E"/>
<path d="M2.28998 245.799C2.66025 257.217 10.6556 266.129 20.1389 265.698L32.7335 265.128C42.2114 264.697 49.5922 255.095 49.218 243.674L46.9498 174.768C46.5702 163.35 38.5788 154.438 29.098 154.865L16.5034 155.442C7.02412 155.87 -0.359248 165.465 0.013516 176.89L2.28998 245.799Z" fill="#BFB8B8"/>
<path d="M301.691 90.9763C304.902 99.6955 310.869 121.72 318.211 150.166C319.375 154.688 328.422 179.304 320.507 182.747C306.148 188.988 278.291 180.226 278.291 180.226L269.113 156.821L293.432 150.626L277.374 113L301.691 90.9763Z" fill="black"/>
<path d="M249.565 90.2598L231.371 83.2495C231.371 83.2495 236.363 57.4266 236.363 54.8311L248.562 53.8414V53.8378L248.625 53.8414L248.686 53.8378V53.8414L260.644 54.4359C260.644 57.0278 264.936 79.707 264.936 79.707L249.565 90.2598Z" fill="#E8C8BA"/>
<path d="M232.489 77.3867L232.436 77.223C233.455 71.2808 235.456 60.7317 236.206 56.3703C235.653 60.454 233.738 70.7859 232.489 77.3867ZM236.458 54.8251C236.485 54.6293 236.499 54.4939 236.499 54.437L248.176 53.8317V53.8246L248.251 53.8317L248.331 53.8246V53.8317L248.56 53.8424L236.458 54.8251Z" fill="url(#paint0_linear_139_5544)"/>
<path d="M233.356 81.8105C233.306 81.8105 233.255 81.7998 233.198 81.7856C233.139 80.9667 233.098 80.1621 233.068 79.3788C232.978 79.005 232.87 78.6703 232.79 78.2822L232.494 77.385C233.743 70.7842 235.658 60.4523 236.211 56.3686C236.328 55.6886 236.415 55.1616 236.463 54.8234L248.565 53.8407L258.804 54.3997C258.804 55.2506 259.121 58.1095 259.54 61.5666C256.911 65.4651 242.247 79.9307 237.178 79.9307C234.152 79.9307 234.128 81.8105 233.356 81.8105Z" fill="url(#paint1_linear_139_5544)"/>
<path d="M262.947 67.7805C261.378 69.7529 253.118 81.7262 248.393 81.2242C243.67 80.7258 235.87 70.8709 234.311 67.4922C233.013 68.902 228.121 72.6973 228.121 72.6973L248.966 121.281L268.394 74.5415L262.947 67.7805Z" fill="#D8D8D8"/>
<path d="M234.401 67.5524C235.966 70.9418 243.79 79.4652 248.509 79.9707L248.933 121.078L228.211 72.7647C228.211 72.7647 233.109 68.9623 234.401 67.5524Z" fill="white"/>
<path d="M245.537 87.3242H248.986V78.2845H242.146L242.088 82.176L245.537 87.3242Z" fill="#3357BC"/>
<path d="M245.106 85.9475L239.09 142.955L248.609 150.414L248.815 150.211L249.167 85.9903L245.106 85.9475Z" fill="#3357BC"/>
<path d="M251.625 87.3242H248.742V78.2845H255.749L255.696 82.176L251.625 87.3242Z" fill="#4D87DB"/>
<path d="M252.112 85.9475L258.131 142.955L248.607 150.414L248.745 85.9475H252.112Z" fill="#4D87DB"/>
<path d="M244.967 87.2266H252.187V86.575H245.043L244.967 87.2266Z" fill="#4D87DB"/>
<path d="M227.82 36.3903C229.812 51.8313 239.867 65.5386 247.325 65.4567C264.119 65.2644 267.251 56.0325 268.088 36.0592C268.786 19.5073 268.627 4.01284 248.317 4.01284C229.254 4.01284 225.731 20.2158 227.82 36.3903Z" fill="#E8C8BA"/>
<path d="M226.896 32.9293C227.097 17.1358 229.217 4.06949 248.207 4.00897L248.458 65.4528C235.484 65.7198 226.648 53.3442 226.896 32.9293Z" fill="#DDAC9E"/>
<path d="M263.797 34.4806C263.797 34.1282 263.56 33.9679 263.406 33.9679H252.411C252.255 33.9679 252.019 34.1282 252.012 34.4806V38.3115C252.019 38.6498 252.255 38.8206 252.411 38.8206H263.406C263.56 38.8206 263.797 38.6498 263.797 38.3115V34.4806ZM263.406 40.6862L252.411 40.6934C251.08 40.6862 250.156 39.5648 250.156 38.3115V34.4806C250.156 33.231 251.08 32.1094 252.411 32.0916H263.406C264.719 32.1094 265.662 33.231 265.662 34.4806V38.3115C265.662 39.5648 264.719 40.6862 263.406 40.6862Z" fill="#5E1C17"/>
<path d="M244.713 36.3242H251.396V34.131H244.713V36.3242Z" fill="#5E1C17"/>
<path d="M268.567 33.2211L265.041 36.7422L265.12 33.5949L268.567 31.3448V33.2211Z" fill="#5E1C17"/>
<path d="M243.637 34.4637C243.63 34.1291 243.401 33.9653 243.239 33.9653H232.239C232.098 33.9653 231.854 34.1291 231.854 34.4637V38.3089C231.854 38.6471 232.098 38.818 232.239 38.818H243.239C243.401 38.818 243.63 38.6471 243.637 38.3089V34.4637ZM243.239 40.6836H232.239C230.923 40.6836 229.984 39.5621 229.984 38.3089V34.4637C229.984 33.2283 230.923 32.1068 232.239 32.089H243.239C244.555 32.1068 245.49 33.2283 245.49 34.4637V38.3089C245.49 39.5621 244.555 40.6836 243.239 40.6836Z" fill="#300901"/>
<path d="M230.518 33.4382L226.953 31.3448L227.116 33.1321L230.501 36.7422L230.518 33.4382Z" fill="#300901"/>
<path d="M228.876 36.7559C228.876 33.0247 232.273 29.9557 230.91 27.2392C229.552 24.5191 228.253 21.4252 229.207 18.05C231.25 10.908 239.421 7.85325 241.798 7.17323C244.175 6.48609 242.141 2.74422 242.141 2.74422C242.141 2.74422 238.055 1.72957 234.314 4.11142C230.571 6.48614 227.85 8.18792 224.788 14.6534C221.731 21.119 221.389 26.5663 222.069 30.6393C222.749 34.7229 224.1 35.7411 224.1 35.7411H227.51L228.876 36.7559Z" fill="#300901"/>
<path d="M241.112 8.87027C243.836 12.2739 253.588 13.5628 255.41 10.9103C256.598 9.16577 258.886 10.0595 261.19 11.2522C266.382 13.9438 267.952 16.9913 267.952 21.4168C267.952 25.8351 267.311 36.0853 267.311 36.0853L271.725 37.4453C271.725 37.4453 277.167 30.9834 276.153 23.4996C275.132 16.0194 272.8 16.0194 271.771 12.6122C270.749 9.21207 272.405 9.21212 269.005 5.81559C265.608 2.40837 253.019 -0.315266 248.942 0.0300865C244.864 0.368317 241.112 0.36829 240.439 2.40835C239.76 4.45552 241.112 8.87027 241.112 8.87027Z" fill="#5E1C17"/>
<path d="M266.96 35.0337C269.213 33.9087 271.025 31.8794 271.699 35.7138C272.372 39.5518 270.346 45.1843 268.765 46.765C267.188 48.3529 264.928 48.8015 264.928 48.125C264.928 47.4521 266.96 35.0337 266.96 35.0337Z" fill="#E8C8BA"/>
<path d="M228.968 35.0337C226.711 33.9087 224.911 31.8794 224.23 35.7138C223.552 39.5518 225.579 45.1843 227.162 46.765C228.746 48.3529 230.999 48.8015 230.999 48.125C230.999 47.4521 228.968 35.0337 228.968 35.0337Z" fill="#DDAC9E"/>
<path d="M252.082 234.588C252.082 234.588 204.908 235.339 204.908 233.441C204.908 203.702 211.606 175.038 211.816 167.91C212.079 158.433 207.737 131.916 206.375 127.853C205.015 123.787 191.913 114.274 191.913 114.274C191.913 114.274 187.638 86.4931 200.159 84.0436C211.075 81.9146 211.392 79.9528 230.657 71.8175L232.787 78.2866C232.866 78.6746 232.975 79.0093 233.065 79.3832C233.296 85.6386 234.372 93.2577 237.659 99.8335C240.998 106.506 243.444 115.47 246.717 119.159C249.907 124.236 253.764 123.3 253.764 123.3L254.095 143.355L252.082 234.588Z" fill="black"/>
<path d="M246.566 234.881L245.943 121.549C245.943 121.549 258.609 106.777 265.379 78.5264L264.928 71.477C281.829 79.6265 287.328 80.9972 298.082 85.7644C303.476 88.1498 301.464 94.5335 301.464 94.5335C301.464 94.5335 292.12 126.822 290.768 130.884C289.417 134.947 286.095 158.669 286.361 168.146C286.524 173.718 291.905 214.733 291.905 233.966L246.566 234.881Z" fill="#2B2B2B"/>
<path d="M246.792 78.2531L237.998 87.873L232.502 76.1205L230.975 70.9259L234.024 67.5686L246.792 78.2531Z" fill="#D8D8D8"/>
<path d="M251.717 78.4761L259.604 87.6367L266.852 71.6866L262.594 67.0973L251.717 78.4761Z" fill="white"/>
<path d="M233.514 67.1835C233.514 66.6814 224.889 74.8026 224.889 74.8026L223.365 90.71L232.669 89.5244L223.08 98.5462L250.494 126.299C250.494 126.299 237.427 88.9547 234.812 81.6098C231.607 72.6058 233.514 67.1835 233.514 67.1835Z" fill="#2B2B2B"/>
<path d="M264.535 67.1808C264.535 66.6788 273.17 74.8 273.17 74.8L274.683 90.7074L265.376 89.5218L269.892 95.7168L245.594 123.174C245.594 123.174 259.629 87.3144 262.833 80.2116C266.054 73.1195 264.535 67.1808 264.535 67.1808Z" fill="black"/>
<path d="M291.494 193.971L313.477 201.299L313.933 212.895L291.949 207.857L291.494 193.971Z" fill="black"/>
<path d="M255.307 193.971L233.325 201.299L232.867 212.895L254.849 207.857L255.307 193.971Z" fill="#2B2B2B"/>
<path d="M164.476 262.678C174.434 267.157 170.59 285.161 167.699 295.671C166.375 300.488 152.302 371.759 152.127 375.91C151.815 383.283 167.384 397.332 178.055 402.922C171.717 406.522 153.287 398.187 145.995 395.278C140.235 392.967 134.979 395.243 133.917 391.533C131.502 383.12 136.231 380.542 136.755 368.099C137.282 355.652 130.132 317.247 139.71 298.26C145.57 286.65 143.685 269.795 145.244 265.704C146.8 261.613 164.476 262.678 164.476 262.678Z" fill="#DDAC9E"/>
<path d="M133.977 380.621C132.753 384.908 131.529 389.696 133.758 395.222C134.804 397.807 135.174 405.436 135.174 405.436L141.914 405.728L143.363 398.86C143.363 398.86 147.61 401.687 153.023 407.58L180.765 408.801C180.765 408.801 181.764 401.175 172.304 399.733C159.989 397.864 147.994 391.352 144.727 388.358C139.396 383.455 133.977 380.621 133.977 380.621Z" fill="#0B253F"/>
<path d="M157.611 260.75C167.593 270.039 166.994 285.925 159.65 307.807C158.003 312.713 146.738 376.752 146.56 381.053C146.245 388.708 162.411 403.273 173.495 409.059C166.914 412.804 147.783 404.174 140.217 401.158C134.242 398.776 128.792 401.133 127.684 397.285C125.173 388.558 130.076 385.884 130.607 372.968C131.141 360.058 127.385 320.724 137.309 301.007C143.367 288.959 137.693 270.965 139.313 266.721C140.921 262.474 157.611 260.75 157.611 260.75Z" fill="#E8C8BA"/>
<path d="M126.821 387.058C125.639 391.512 124.463 396.521 126.885 402.204C128.022 404.863 128.555 412.778 128.555 412.778L135.554 412.942L136.915 405.789C136.915 405.789 141.179 407.206 146.902 413.205L175.711 413.928C175.711 413.928 176.804 407.448 166.958 406.134C154.141 404.436 141.574 397.91 138.129 394.866C132.5 389.885 126.821 387.058 126.821 387.058Z" fill="#1F4C6B"/>
<path d="M81.6896 97.0868C71.7567 106.468 74.1709 128.827 78.7203 137.735C81.6728 143.495 71.6762 130.287 61.5418 126.758C52.62 123.657 51.5213 122.571 45.8066 121.934C49.0237 117.153 52.8496 92.4655 48.2155 79.595C43.5953 66.7103 81.6896 97.0868 81.6896 97.0868Z" fill="#E8C8BA"/>
<path d="M75.318 110.789C76.1899 105.374 78.1591 100.414 81.6834 97.0854C81.6834 97.0854 76.3708 92.8487 69.9551 88.2132C75.9702 92.2043 81.7347 96.2987 85.0017 98.7375L75.318 110.789Z" fill="url(#paint2_linear_139_5544)"/>
<path d="M63.1677 125.906C63.1577 125.903 63.1496 125.896 63.141 125.889C63.1884 125.828 63.2343 125.767 63.2831 125.707C57.7617 122.268 54.8608 121.26 47.6914 118.782C50.4449 110.882 52.4437 89.8902 48.338 78.451C47.9513 77.3686 48.2728 76.8951 49.128 76.8951C52.0571 76.8951 61.2651 82.442 69.9544 88.2097C76.3701 92.8453 81.6827 97.082 81.6827 97.082C78.1584 100.411 76.1892 105.37 75.3173 110.786L63.1677 125.906Z" fill="url(#paint3_linear_139_5544)"/>
<path d="M46.018 66.2087C44.5561 86.6556 57.3818 107.782 73.6339 108.95C89.8917 110.104 98.1195 94.3565 99.5867 73.9061C101.033 53.47 92.694 41.0444 76.4487 39.8838C60.2008 38.7231 47.4809 45.7654 46.018 66.2087Z" fill="#E8C8BA"/>
<path d="M98.4603 69.5031C99.2571 74.2526 96.6481 77.2859 100.879 89.5939C100.879 92.8445 92.4744 92.0862 90.8847 92.3532C89.3132 92.6202 98.4603 69.5031 98.4603 69.5031Z" fill="#E8C8BA"/>
<path d="M73.2421 108.995C75.0401 109.13 76.7537 109.041 78.3711 108.753C62.5498 101.796 70.7944 61.365 74.8012 54.1945C72.3296 53.1406 80.2139 38.8888 77.1624 38.6645C60.9046 37.5038 47.0863 45.8206 45.6273 66.2675C44.1658 86.7001 56.9883 107.841 73.2421 108.995Z" fill="#DDAC9E"/>
<path d="M64.2971 126.618C68.5652 129.345 78.9261 137.106 78.9261 137.106C83.0649 146.292 93.1897 165.525 94.6651 170.231C96.7333 176.857 92.7337 186.79 90.5252 190.105C88.3139 193.43 85.2819 203.908 85.2819 208.33C85.2819 212.745 84.1736 230.967 84.1736 230.967C84.1736 230.967 45.3452 231.095 39.9994 229.311C36.6908 228.204 35.585 194.523 34.481 176.857C33.3737 159.191 31.5131 138.299 47.1809 118.888C55.1863 121.647 57.9302 122.541 64.2971 126.618Z" fill="#1F4C6B"/>
<path d="M34.481 176.586C35.585 194.256 36.6908 227.933 40.0062 229.04L40.0564 229.055L65.9548 224.344C65.9548 224.344 66.4999 215.518 65.6782 213.026C64.8532 210.545 56.5673 150.087 56.5673 141.802C56.5673 135.689 60.0287 129.893 63.2846 125.71C57.634 122.192 54.7274 121.216 47.1809 118.61C31.5131 138.028 33.3737 158.92 34.481 176.586Z" fill="#0B253F"/>
<path d="M42.8229 220.789C27.504 238.748 38.7759 256.161 42.9037 269.925C49.1439 290.725 141.786 304.453 141.786 304.453L176.888 261.089L86.0361 242.393L83.4008 221.512L42.8229 220.789Z" fill="#1F4C6B"/>
<path d="M34.6449 277.727C49.1699 293.869 136.507 312.141 136.507 312.141L165.184 274.864C156.926 267.979 72.1755 256.742 64.4678 245.609C60.3403 239.642 60.2289 230.182 66.693 221.484L39.6905 220.833C24.3727 238.784 26.3849 268.548 34.6449 277.727Z" fill="#0B253F"/>
<path d="M95.7768 46.4163C88.8591 38.9859 73.7474 33.7416 57.3739 41.4283C50.7734 42.7135 42.2956 49.6562 38.9354 65.7951C34.4309 87.4062 31.1348 108.181 31.1348 108.181C31.1348 108.181 48.8181 111.819 54.0183 113.379C59.221 114.942 84.3183 119.356 89.5128 113.642C79.1003 110.926 76.4593 84.565 80.5049 67.828C92.6491 52.241 98.2259 57.852 98.2259 57.852C98.2259 57.852 102.383 53.512 95.7768 46.4163Z" fill="#5E1C17"/>
<path d="M56.8352 41.4323C50.2305 42.7176 41.7537 49.6638 38.3896 65.7991C33.8865 87.4173 30.5918 108.192 30.5918 108.192C30.5918 108.192 48.1722 112.215 53.4778 113.383C78.0856 118.816 79.4456 117.046 86.3857 115.28L85.7542 114.518C69.1029 97.7243 65.0488 55.3709 76.5141 37.8364C70.5381 37.249 63.8041 38.1604 56.8352 41.4323Z" fill="#300901"/>
<path d="M45.0156 120.789L43.793 108.748L81.3514 126.71L78.9286 137.11L89.5137 138.142L89.7209 160.188C89.7209 160.188 75.2309 134.464 59.3052 125.485C52.7244 121.772 45.0156 120.789 45.0156 120.789Z" fill="#76347F"/>
<path d="M36.4395 226.217H85.6344V220.093H36.4395V226.217Z" fill="#9E5EA5"/>
<path d="M501.749 237.348H51.6211L141.096 184.253H398.511L501.749 237.348Z" fill="#BFB8B8"/>
<path d="M296.812 203.525C296.812 203.903 296.509 204.209 296.137 204.209H228.593C228.217 204.209 227.918 203.903 227.918 203.525V117.035C227.918 116.65 228.217 116.344 228.593 116.344H296.137C296.509 116.344 296.812 116.65 296.812 117.035V203.525Z" fill="white"/>
<path d="M270.181 133.041H235.795V131.275H270.181V133.041Z" fill="#ADADAD"/>
<path d="M270.181 136.008H235.795V134.242H270.181V136.008Z" fill="#ADADAD"/>
<path d="M270.181 139.023H235.795V137.261H270.181V139.023Z" fill="#ADADAD"/>
<path d="M270.181 142.033H235.795V140.264H270.181V142.033Z" fill="#ADADAD"/>
<path d="M270.181 145.109H235.795V143.34H270.181V145.109Z" fill="#ADADAD"/>
<path d="M270.181 153.793H235.795V152.024H270.181V153.793Z" fill="#ADADAD"/>
<path d="M270.181 156.76H235.795V154.994H270.181V156.76Z" fill="#ADADAD"/>
<path d="M270.181 159.77H235.795V158.004H270.181V159.77Z" fill="#ADADAD"/>
<path d="M270.181 162.785H235.795V161.019H270.181V162.785Z" fill="#ADADAD"/>
<path d="M270.181 165.857H235.795V164.091H270.181V165.857Z" fill="#ADADAD"/>
<path d="M275.279 178.148H290.164V176.382H275.279V178.148Z" fill="#ADADAD"/>
<path d="M275.279 181.117H290.164V179.344H275.279V181.117Z" fill="#ADADAD"/>
<path d="M275.279 184.125H290.164V182.356H275.279V184.125Z" fill="#ADADAD"/>
<path d="M275.279 187.141H290.164V185.374H275.279V187.141Z" fill="#ADADAD"/>
<path d="M275.279 190.213H290.164V188.451H275.279V190.213Z" fill="#ADADAD"/>
<path d="M275.279 193.705H290.164V191.943H275.279V193.705Z" fill="#ADADAD"/>
<path d="M275.945 164.354V152.138H275.242V165.059H288.166V164.354H275.945Z" fill="#ADADAD"/>
<path d="M286.595 156.579L284.962 156.739L285.38 157.199L282.16 159.969L280.466 159.168L276.957 162.076V163.123L280.613 160.09L282.32 160.898L285.887 157.758L286.331 158.242L286.595 156.579Z" fill="#E24000"/>
<path d="M276.969 160.819L279.195 156.344L279.383 156.269L281.837 157.192L282.85 156.836L283.776 152.997L283.889 152.887L284.039 152.937L285.44 154.724L287.419 154.026L287.519 154.311L285.434 155.038L285.263 154.995L283.993 153.375L283.127 156.985L283.029 157.095L281.883 157.494H281.783L279.405 156.601L276.974 161.475L276.969 160.819Z" fill="#006E99"/>
<path d="M287.692 154.652L288.035 153.869V153.837L288.008 153.827L287.213 153.73L287.177 153.748L287.17 153.784L287.622 154.66L287.657 154.674L287.692 154.652Z" fill="#006E99"/>
<path d="M286.385 161.174H286.388L286.774 160.451L287.019 160.583L286.76 161.063L286.703 161.167L286.632 161.309H286.626L286.385 161.174ZM283.678 161.986L283.187 161.833L283.079 161.865L282.966 161.904H282.961L282.882 161.637L283.147 161.555L283.19 161.541L283.495 161.637H283.502L283.765 161.722L283.681 161.986H283.678ZM281.807 161.975H281.811V161.968L282.609 161.722L282.694 161.986L282.425 162.068L282.158 162.149L281.893 162.231L281.807 161.975ZM285.854 162.167L285.969 161.957L286.199 161.523L286.253 161.427L286.493 161.558L286.229 162.05L286.098 162.295L285.854 162.167ZM284.749 162.324L283.95 162.071V162.068L284.036 161.808L284.3 161.89L284.568 161.979L284.835 162.06L284.752 162.324H284.749ZM280.739 162.302H280.741L280.88 162.26L281.003 162.221L281.339 162.114L281.538 162.053L281.62 162.32L281.357 162.402L281.083 162.488L280.819 162.57L280.739 162.302ZM285.559 162.58L285.232 162.473L285.023 162.409L285.101 162.142L285.107 162.149V162.142L285.313 162.21L285.367 162.228L285.902 162.395H285.905L285.823 162.662L285.559 162.58ZM279.665 162.637L280.467 162.391L280.549 162.655L280.284 162.733L280.011 162.819L279.747 162.904L279.665 162.637ZM278.592 162.972L278.597 162.968L279.392 162.723L279.395 162.719L279.477 162.983L279.213 163.072L278.942 163.157L278.676 163.239L278.592 162.972ZM277.521 163.307L278.323 163.054V163.057V163.054L278.409 163.321L278.209 163.378L277.869 163.485L277.605 163.566L277.521 163.307Z" fill="#F46300"/>
<path d="M287.385 160.593L287.277 159.789L286.456 160.187L287.385 160.593ZM286.131 160.301L285.898 160.198L287.463 159.433L287.671 160.971L286.131 160.301Z" fill="#F46300"/>
<path d="M275.918 142.991V131.278H275.242V143.664H275.918H287.642V142.991H275.918Z" fill="#ADADAD"/>
<path d="M278.926 142.156H276.895V139.682H278.926V142.156Z" fill="#006E99"/>
<path d="M281.635 142.156H279.602V137.731H281.635V142.156Z" fill="#F46300"/>
<path d="M284.322 142.156H282.287V138.425H284.322V142.156Z" fill="#6B8EA5"/>
<path d="M287.002 142.156H284.969V135.274H287.002V142.156Z" fill="#E24000"/>
<path d="M287.309 131.494L285.544 131.668L285.995 132.163L282.511 135.161L280.682 134.292L276.887 137.439V138.564L280.837 135.289L282.688 136.168L286.545 132.765L287.024 133.295L287.309 131.494Z" fill="#ADADAD"/>
<path d="M235.795 193.637L239.471 186.534L240.778 188.684L242.094 184.875L243.274 189.012L246.686 180.254L249.049 189.012L251.014 186.039L258.233 189.674L260.856 185.708L264.005 184.383L267.942 177.939L270.045 176.953V193.637H235.795Z" fill="#8EAFC1"/>
<path d="M433.897 199.043L426.043 199.035L427.592 215.1L433.327 215.48L433.897 199.043Z" fill="#D8D8D8"/>
<path d="M296.812 174.295V157.593L301.234 160.947L297.332 173.569L296.812 174.295Z" fill="url(#paint4_linear_139_5544)"/>
<path d="M275.648 203.965L242.039 203.851L251.126 193.64H270.039V176.956L267.936 177.943L263.999 184.387L260.85 185.711L258.227 189.677L255.759 188.435L276.566 165.058H288.165V164.353H277.193L278.004 163.441L278.204 163.377L278.404 163.32L278.326 163.078L280.874 160.216L282.316 160.899L285.884 157.759L286.328 158.243L286.592 156.581L284.959 156.741L285.376 157.2L282.157 159.97L281.407 159.618L284.713 155.904H294.576L296.81 157.595V174.297L290.163 183.614V182.357H275.278V184.127H289.796L288.909 185.373H275.278V187.139H287.648L286.714 188.449H275.278V190.211H285.457L284.224 191.942H275.278V193.704H282.967L275.648 203.965ZM275.278 179.342V181.115H290.163V179.342H275.278ZM275.278 176.383V178.149H290.163V176.383H275.278ZM279.39 162.719L279.387 162.722L278.592 162.968L278.588 162.971L278.671 163.238L278.937 163.157L279.208 163.071L279.473 162.982L279.39 162.719ZM280.463 162.391L279.66 162.637L279.742 162.904L280.007 162.818L280.279 162.733L280.545 162.655L280.463 162.391ZM285.096 162.142L285.019 162.409L285.227 162.473L285.554 162.58L285.818 162.662L285.9 162.395H285.897L285.362 162.227L285.308 162.21L285.102 162.142V162.149L285.096 162.142ZM280.734 162.302L280.814 162.569L281.079 162.487L281.353 162.402L281.615 162.32L281.534 162.053L281.335 162.113L280.998 162.22L280.876 162.259L280.736 162.302H280.734ZM284.031 161.807L283.945 162.067V162.071L284.745 162.323H284.747L284.831 162.06L284.564 161.978L284.295 161.889L284.031 161.807ZM286.248 161.426L286.194 161.522L285.964 161.957L285.849 162.167L286.094 162.295L286.224 162.049L286.489 161.558L286.248 161.426ZM281.802 161.975L281.888 162.231L282.154 162.149L282.421 162.067L282.689 161.985L282.604 161.722L281.806 161.967V161.975H281.802ZM283.183 161.832L283.674 161.985H283.677L283.76 161.722L283.497 161.636H283.49L283.186 161.54L283.142 161.554L282.877 161.636L282.956 161.903H282.962L283.074 161.864L283.183 161.832ZM286.714 160.554L286.383 161.173H286.38L286.621 161.309H286.628L286.698 161.166L286.756 161.063L286.97 160.668L287.669 160.971L287.461 159.433L285.896 160.198L286.129 160.301L286.714 160.554Z" fill="url(#paint5_linear_139_5544)"/>
<path d="M275.279 178.15H290.164V176.384H275.279V178.15Z" fill="url(#paint6_linear_139_5544)"/>
<path d="M275.279 181.115H290.164V179.342H275.279V181.115Z" fill="url(#paint7_linear_139_5544)"/>
<path d="M289.798 184.127H275.279V182.357H290.165V183.614L289.798 184.127Z" fill="url(#paint8_linear_139_5544)"/>
<path d="M287.65 187.139H275.279V185.373H288.91L287.65 187.139Z" fill="url(#paint9_linear_139_5544)"/>
<path d="M285.458 190.209H275.279V188.447H286.715L285.458 190.209Z" fill="url(#paint10_linear_139_5544)"/>
<path d="M282.969 193.705H275.279V191.943H284.226L282.969 193.705Z" fill="url(#paint11_linear_139_5544)"/>
<path d="M288.167 165.059H276.568L277.195 164.354H288.167V165.059Z" fill="url(#paint12_linear_139_5544)"/>
<path d="M282.317 160.902L280.875 160.219L281.408 159.621L282.157 159.973L285.377 157.203L284.96 156.744L286.593 156.584L286.328 158.246L285.884 157.762L282.317 160.902Z" fill="url(#paint13_linear_139_5544)"/>
<path d="M278.004 163.439L278.326 163.076L278.404 163.318L278.204 163.375L278.004 163.439ZM278.671 163.236L278.588 162.969L278.592 162.966L279.387 162.72L279.39 162.717L279.473 162.98L279.208 163.069L278.937 163.155L278.671 163.236ZM279.742 162.902L279.66 162.635L280.463 162.389L280.545 162.653L280.279 162.731L280.007 162.816L279.742 162.902ZM285.818 162.66L285.554 162.578L285.227 162.471L285.019 162.407L285.096 162.14L285.102 162.147V162.14L285.308 162.208L285.362 162.225L285.897 162.393H285.9L285.818 162.66ZM280.814 162.567L280.734 162.3H280.736L280.876 162.257L280.998 162.218L281.335 162.111L281.534 162.051L281.615 162.318L281.353 162.4L281.079 162.485L280.814 162.567ZM284.747 162.321H284.745L283.945 162.069V162.065L284.031 161.805L284.295 161.887L284.564 161.976L284.831 162.058L284.747 162.321ZM286.094 162.293L285.849 162.165L285.964 161.955L286.194 161.52L286.248 161.424L286.489 161.556L286.224 162.047L286.094 162.293ZM281.888 162.229L281.802 161.973H281.806V161.965L282.604 161.72L282.689 161.983L282.421 162.065L282.154 162.147L281.888 162.229ZM283.677 161.983H283.674L283.183 161.83L283.074 161.862L282.962 161.901H282.956L282.877 161.634L283.142 161.552L283.186 161.538L283.49 161.634H283.497L283.76 161.72L283.677 161.983ZM286.628 161.307H286.621L286.38 161.171H286.383L286.714 160.552L286.97 160.666L286.756 161.061L286.699 161.164L286.628 161.307Z" fill="url(#paint14_linear_139_5544)"/>
<path d="M287.384 160.596L286.455 160.19L287.276 159.791L287.384 160.596Z" fill="url(#paint15_linear_139_5544)"/>
<path d="M287.668 160.969L286.968 160.666L286.712 160.552L286.127 160.299L285.895 160.196L287.459 159.431L287.668 160.969ZM287.273 159.787L286.452 160.185L287.381 160.591L287.273 159.787Z" fill="url(#paint16_linear_139_5544)"/>
<path d="M270.04 193.639H251.127L255.76 188.434L258.228 189.676L260.851 185.71L264 184.385L267.937 177.941L270.04 176.955V193.639Z" fill="url(#paint17_linear_139_5544)"/>
<path d="M307.387 160.555C307.387 160.555 298.258 154.688 296.3 154.029C294.348 153.381 290.588 153.474 286.353 154.578C283.196 155.404 284.652 157.786 287.849 157.878C290.543 157.967 293.69 157.942 293.69 157.942L296.375 160.093L296.952 160.555C296.952 160.555 288.033 160.577 287.057 160.577C286.073 160.577 281.087 161.937 279.748 162.083C277.858 162.286 276.619 164.554 279.553 164.878C282.488 165.205 288.395 164.774 290.348 164.774C292.31 164.774 292.718 165.116 292.718 165.116C287.254 165.18 280.599 165.39 278.966 166.373C277.338 167.341 277.993 168.979 281.247 168.979C284.514 168.979 293.363 168.701 293.363 168.701L282.756 170.574C282.756 170.574 279.759 173.177 284.652 173.177C294.549 173.177 301.559 174.373 303.186 174.373C309.035 174.373 311.296 169.357 307.387 160.555Z" fill="#E8C8BA"/>
<path d="M306.7 159.177L311.101 160.434C311.101 160.434 317.983 169.897 311.788 179.535C305.593 179.19 304.219 177.812 304.219 177.812C304.219 177.812 308.84 162.912 306.7 159.177Z" fill="white"/>
<path d="M37.4644 220.096H37.2041C37.1998 219.718 37.1874 219.352 37.1667 218.992C37.0902 217.707 36.9969 216.332 36.8926 214.876C37.0706 216.742 37.2596 218.497 37.4644 220.096Z" fill="url(#paint18_linear_139_5544)"/>
<path d="M84.9297 217.582C85.1287 213.676 85.2886 210.009 85.2886 208.332C85.2886 207.129 85.5139 205.473 85.8867 203.636C91.9114 204.12 98.6814 204.605 105.296 205.05L105.534 205.356L84.9297 217.582Z" fill="url(#paint19_linear_139_5544)"/>
<path d="M35.7101 198.666C35.4737 195.091 35.2512 191.261 35.0703 187.184C35.2693 190.872 35.4794 194.778 35.7101 198.666Z" fill="url(#paint20_linear_139_5544)"/>
<path d="M80.6908 220.096H66.1199C66.1687 217.468 66.1185 214.349 65.682 213.025C65.4524 212.334 64.647 207.165 63.6028 199.88C64.7791 200.756 65.8458 201.34 66.7625 201.554C69.4242 202.166 76.8119 202.903 85.8839 203.636C85.5111 205.474 85.2858 207.129 85.2858 208.332C85.2858 210.009 85.1259 213.676 84.9269 217.582L80.6908 220.096ZM37.5011 220.096H37.4651C37.2604 218.497 37.0714 216.742 36.8933 214.876C36.8613 214.438 36.8293 213.993 36.7961 213.541C37.0115 215.916 37.2465 218.13 37.5011 220.096ZM35.874 201.137C35.8185 200.329 35.7626 199.503 35.707 198.666C35.4763 194.778 35.2663 190.873 35.0673 187.184C35.0491 186.743 35.0299 186.301 35.0117 185.853C35.273 190.705 35.5515 195.985 35.874 201.137Z" fill="url(#paint21_linear_139_5544)"/>
<path d="M66.1164 220.096H37.4976C37.243 218.13 37.008 215.916 36.7926 213.541C36.5228 209.888 36.1917 205.744 35.8705 201.137C35.548 195.985 35.2696 190.705 35.0082 185.853C34.7857 180.48 34.6426 174.695 34.6426 168.521C34.6426 167.966 34.7982 167.709 35.0901 167.709C37.9886 167.709 54.2463 192.92 63.5993 199.88C64.6435 207.165 65.4489 212.334 65.6785 213.025C66.115 214.349 66.1652 217.468 66.1164 220.096Z" fill="url(#paint22_linear_139_5544)"/>
<path d="M61.7247 238.27C61.6859 237.963 61.6524 237.654 61.6289 237.344H63.9915L61.7247 238.27ZM62.117 231.113C62.4884 229.5 63.0545 227.859 63.8302 226.218H70.3655L62.117 231.113Z" fill="url(#paint23_linear_139_5544)"/>
<path d="M30.2852 251.113C30.2852 251.113 35.1998 237.306 36.7464 226.22H63.8297C63.0539 227.861 62.4878 229.502 62.1164 231.115L51.6203 237.346H61.6283C61.6518 237.655 61.6853 237.965 61.7241 238.271L30.2852 251.113Z" fill="url(#paint24_linear_139_5544)"/>
<path d="M70.3666 226.219H36.748C37.0539 224.029 37.228 221.946 37.2055 220.095H37.4658H37.5018H66.1206H80.6915L70.3666 226.219Z" fill="url(#paint25_linear_139_5544)"/>
<path d="M63.9917 237.35H51.6211L62.1172 231.119L70.3658 226.224L80.6906 220.1L84.9267 217.586L105.531 205.36L114.425 216.75L63.9917 237.35Z" fill="url(#paint26_linear_139_5544)"/>
<path d="M209.487 184.252H161.605L175.05 179.994L207.203 179.15L209.855 181.941C209.735 182.693 209.613 183.462 209.487 184.252Z" fill="url(#paint27_linear_139_5544)"/>
<path d="M212.047 184.252H209.486C209.612 183.462 209.734 182.693 209.854 181.941L212.047 184.252Z" fill="url(#paint28_linear_139_5544)"/>
<path d="M137.653 228.398L136.248 223.104L172.203 213.609L167.974 208.77L172.136 207.564L169.637 205.239L173.727 204.092L170.787 202.13L172.928 201.497L154.961 191.581L154.744 191.635L153.842 186.711L161.604 184.251H209.486H212.047L220.159 192.795L217.703 196.861L183.767 210.504L137.653 228.398Z" fill="url(#paint29_linear_139_5544)"/>
<path d="M155.019 193.945L147.396 164.658L97.7246 174.919L104.133 203.568L155.019 193.945Z" fill="#5E1C17"/>
<path d="M155.019 193.942L172.206 213.609L122.272 226.797L104.133 203.566L155.019 193.942Z" fill="#300500"/>
<path d="M155.222 194.234L150.254 167.105L104.186 176.878L109.548 202.615L155.222 194.234Z" fill="white"/>
<path d="M154.961 191.58L172.137 207.563L126.436 220.789L109.449 202.475L154.961 191.58Z" fill="#E5E0DA"/>
<path d="M110.779 202.127L154.962 191.585L173.729 204.096L126.413 217.369L110.779 202.127Z" fill="white"/>
<path d="M109.449 202.478L154.961 191.584L172.928 201.499L127.344 215L109.449 202.478Z" fill="#E5E0DA"/>
<path d="M158.644 203.568L158.408 203.454C156.929 202.86 154.194 203.081 152.38 202.383L152.298 202.351C151.283 201.948 150.546 201.069 150.706 199.684C150.191 199.2 148.923 198.089 148.848 198.004L148.297 197.875C147.15 197.37 146.879 195.992 146.514 195.956L146.026 196.088L145.689 195.54C145.934 195.387 146.183 195.301 146.418 195.301C146.531 195.301 146.642 195.323 146.748 195.362C147.629 195.818 147.737 197.028 148.531 197.284L149.056 197.42C149.393 197.648 150.803 198.894 151.262 199.328L151.38 199.435L151.352 199.602C151.2 200.902 151.684 201.4 152.615 201.792C154.197 202.422 156.923 202.205 158.639 202.867L158.947 203.002L158.644 203.568Z" fill="#CEC5BA"/>
<path d="M138.362 210.367C138.245 209.676 138.044 208.996 137.729 208.405L138.214 207.982C138.619 208.683 138.857 209.488 138.988 210.267L138.992 210.271L138.362 210.367ZM133.376 204.041C133.253 203.88 133.174 203.706 133.159 203.499L132.676 203.321C130.916 202.609 131.629 202.303 130.475 201.897C130.217 201.794 129.874 201.684 129.412 201.559L129.573 200.943C130.053 201.075 130.422 201.185 130.707 201.299C132.192 201.929 131.393 202.168 132.909 202.734L133.626 202.987L134.227 203.182L133.773 203.503L133.789 203.521L133.885 203.624L133.376 204.041Z" fill="#CEC5BA"/>
<path d="M151.173 207.338L150.621 207.035L150.79 206.651C151.501 204.831 150.081 203.069 148.249 202.339C147.75 202.147 147.231 202.029 146.74 202.029C146.72 202.029 146.699 202.029 146.678 202.033H146.397L146.354 201.755C146.262 200.246 142.466 199.591 141.08 197.996L141.574 197.597C142.526 198.921 146.209 199.384 146.911 201.403C147.437 201.424 147.972 201.549 148.482 201.755C150.495 202.539 152.263 204.593 151.381 206.882L151.173 207.338Z" fill="#CEC5BA"/>
<path d="M144.714 207.225L144.708 207.221L144.714 207.217V207.225ZM144.714 207.217L144.397 206.662L144.689 206.427L144.418 206.135C144.154 205.939 143.715 205.708 143.234 205.455C142.361 204.996 141.336 204.472 140.761 203.689C140.396 203.849 140.03 203.924 139.678 203.924C139.34 203.924 139.015 203.857 138.71 203.732C138.318 203.572 137.951 203.337 137.611 203.048L136.554 201.436L136.328 201.621C135.581 200.588 135.046 199.506 134.723 199.039L135.251 198.687C135.872 199.652 137.262 202.504 138.942 203.148C139.184 203.241 139.428 203.294 139.679 203.294C140.006 203.294 140.347 203.205 140.72 203.002L140.994 202.845L141.149 203.123C141.813 204.654 145.463 205.042 145.28 206.658L144.714 207.217Z" fill="#CEC5BA"/>
<path d="M120.751 223.25L117.662 216.945L120.619 214.517L125.15 219.405L120.751 223.25Z" fill="url(#paint30_linear_139_5544)"/>
<path d="M125.154 219.408L120.623 214.52L122.182 213.242L126.417 217.368L127.991 216.927L125.154 219.408Z" fill="url(#paint31_linear_139_5544)"/>
<path d="M126.413 217.365L122.178 213.239L123.398 212.235L127.344 214.998L131.649 213.723L127.987 216.924L126.413 217.365Z" fill="url(#paint32_linear_139_5544)"/>
<path d="M127.345 215L123.398 212.237L133.377 204.045C133.684 204.437 134.256 204.725 134.751 205.134C135.152 205.409 135.545 205.686 135.801 205.921L136.062 206.217L136.094 206.256L136.046 206.291L135.496 206.615L136.087 206.854C136.831 207.16 137.36 207.723 137.73 208.41L131.65 213.725L127.345 215ZM138.215 207.986C137.854 207.363 137.36 206.818 136.688 206.448C136.801 205.579 135.862 205.216 135.108 204.607C134.712 204.326 134.311 204.048 134.057 203.813L133.886 203.628L136.329 201.62C136.705 202.137 137.132 202.642 137.613 203.048L139.888 206.523L138.215 207.986Z" fill="url(#paint33_linear_139_5544)"/>
<path d="M137.73 208.408C137.36 207.721 136.832 207.159 136.087 206.852L135.496 206.614L136.046 206.29L136.095 206.254L136.062 206.215L135.801 205.92C135.545 205.685 135.152 205.407 134.751 205.133C134.256 204.723 133.684 204.435 133.377 204.043L133.886 203.627L134.057 203.812C134.312 204.047 134.712 204.325 135.108 204.606C135.862 205.215 136.801 205.578 136.688 206.446C137.36 206.817 137.854 207.361 138.215 207.985L137.73 208.408Z" fill="url(#paint34_linear_139_5544)"/>
<path d="M137.612 203.047C137.131 202.641 136.704 202.135 136.328 201.619L136.555 201.434L137.612 203.047Z" fill="url(#paint35_linear_139_5544)"/>
<path d="M114.337 171.738C113.686 172.632 113.469 173.095 113.421 173.408C113.376 173.654 113.353 174.401 114.084 175.509C114.61 176.296 117.836 181.479 121.267 183.9L121.747 183.537C121.753 183.188 120.864 181.255 120.591 181.237C120.315 181.216 119.84 181.312 119.471 181.12C119.101 180.931 115.764 175.42 115.686 175.085C115.6 174.743 115.953 174.58 116.213 174.466C115.208 173.344 114.337 171.738 114.337 171.738Z" fill="#052C4C"/>
<path d="M139.768 205.533L139.796 206.541L138.842 206.11L139.768 205.533Z" fill="#0B253F"/>
<path d="M139.783 205.555C139.614 204.515 138.258 201.824 137.975 201.311L135.707 202.831C136.235 203.579 138.355 205.769 138.893 206.16C139.413 205.808 139.72 205.601 139.783 205.555Z" fill="white"/>
<path d="M138.012 201.399C137.476 200.078 126.843 182.992 126.843 182.992L123.039 185.495C123.039 185.495 134.771 201.887 135.778 202.895C137.144 202.026 137.782 201.552 138.012 201.399Z" fill="#052C4C"/>
<path d="M116.064 170.806L116.076 170.799V170.795L117.894 169.41C117.787 169.25 116.438 166.893 114.367 168.214L114.356 168.221L114.349 168.224V168.228C112.322 169.613 113.957 171.778 114.065 171.941L116.054 170.813H116.058L116.064 170.806Z" fill="#037F4A"/>
<path d="M124.59 183.719L125.159 183.417L125.088 183.31L126.465 182.342C126.384 182.228 118.163 169.556 117.631 169.037C116.732 169.603 116.105 170.019 115.716 170.293C115.312 170.546 114.685 170.959 113.814 171.561C114.08 172.259 122.529 184.613 122.607 184.73L124.026 184.018L124.099 184.125L124.59 183.719Z" fill="#052C4C"/>
<path d="M123.129 185.695L123.004 185.67L122.371 184.72L122.399 184.588L126.369 181.964L126.497 181.993L127.124 182.94L127.093 183.071L123.129 185.695Z" fill="#037F4A"/>
<path d="M126.848 182.997L125.027 184.197L136.907 202.166C137.522 201.757 137.863 201.507 138.017 201.404C137.482 200.083 126.848 182.997 126.848 182.997Z" fill="#05436D"/>
<path d="M125.086 183.315L126.463 182.346C126.382 182.232 118.135 169.518 117.602 168.999C116.768 169.586 116.295 169.892 115.789 170.238L124.683 183.678L125.157 183.421L125.086 183.315Z" fill="#05436D"/>
<path d="M114.43 168.174L115.787 170.221L117.601 168.967C117.498 168.811 116.122 167.041 114.43 168.174Z" fill="#9E5EA5"/>
<path d="M127.124 182.928L126.499 181.985L126.37 181.96L124.406 183.256L125.135 184.359L127.092 183.06L127.124 182.928Z" fill="#9E5EA5"/>
<path d="M50.5229 131.2C60.297 130.798 65.9006 135.857 65.6307 145.687C65.3608 155.521 64.6669 185.858 67.5932 188.45C70.519 191.053 105.495 199.761 110.641 198.277C115.788 196.803 122.967 188.486 127.277 189.088C131.58 189.686 139.732 194.108 140.664 199.167C141.616 204.222 140.553 207.918 135.488 208.865C130.428 209.798 131.873 207.259 126.876 207.672C121.89 208.068 122.354 208.68 114.997 210.392C107.624 212.116 59.5002 219.119 50.7846 210.788C42.0796 202.449 37.8325 165.045 38.2801 150.387C38.8949 130.186 50.5229 131.2 50.5229 131.2Z" fill="#E8C8BA"/>
<path d="M37.4624 150.182C37.0174 164.84 42.1353 201.988 50.5074 210.654C59.6043 220.067 107.349 211.982 114.711 210.259C122.075 208.543 121.619 207.934 126.609 207.532C131.592 207.126 130.15 209.664 135.215 208.731C139.894 207.852 141.344 205.346 140.764 200.877C134.556 195.224 130.406 195.544 119.1 202.326C106.676 209.785 72.3032 203.783 62.92 199.364C60.2302 198.097 56.8479 192.18 52.9818 173.41C49.6743 157.356 51.8774 135.175 55.8898 128.532C53.702 127.855 52.1373 129.262 49.7077 129.361C49.7077 129.361 38.0769 129.977 37.4624 150.182Z" fill="#DDAC9E"/>
<path d="M66.6544 140.389C67.1966 145.833 68.0828 177.744 68.0828 177.744L38.8964 185.904C38.8964 185.904 31.5408 143.537 39.9104 134.465C47.2575 126.508 56.3501 125.03 61.211 130.25C66.0716 135.462 66.6544 140.389 66.6544 140.389Z" fill="#9E5EA5"/>
<path d="M39.9799 134.393C31.6089 143.465 38.9577 185.836 38.9577 185.836L55.3241 181.264C53.5895 174.621 50.313 160.853 50.1197 150.859C49.8818 138.893 52.1643 130.309 55.4993 127.297C50.7666 126.639 44.9839 128.978 39.9799 134.393Z" fill="#76347F"/>
<path d="M193.06 92.1191C190.306 98.5455 165.414 181.365 165.414 181.365L185.145 199.719C185.145 199.719 203.039 196.048 211.758 173.105L197.877 161.634L212.676 124.468L193.06 92.1191Z" fill="black"/>
<path d="M198.667 171.624C198.667 171.624 210.369 173.411 212.437 174.287C214.502 175.159 217.506 177.947 220.168 181.899C222.16 184.847 219.26 185.744 216.573 183.522C214.315 181.65 211.744 179.364 211.744 179.364L208.015 179.182L207.2 179.15C207.2 179.15 214.469 185.594 215.27 186.303C216.075 187.018 219.175 191.715 220.157 192.797C221.562 194.324 220.941 197.073 218.305 195.225C215.672 193.374 211.146 188.767 209.551 187.36C207.949 185.95 207.376 185.929 207.376 185.929C211.796 189.917 217.081 194.894 217.701 196.863C218.334 198.835 216.625 199.704 213.961 197.35C211.29 194.997 204.254 188.396 204.254 188.396L211.576 197.575C211.576 197.575 212.155 201.858 208.159 198.333C200.065 191.195 193.83 189.233 192.606 187.962C189.872 185.117 189.128 175.992 198.667 171.624Z" fill="#DDAC9E"/>
<path d="M182.85 186.185C183.767 182.974 187.9 170.815 197.761 168.978C201.662 171.047 203.269 171.962 203.269 171.962C203.269 171.962 195.927 174.027 189.272 192.152L182.85 186.185Z" fill="white"/>
<path d="M422.018 209.174H348.152V199.536H422.018V209.174Z" fill="black"/>
<path d="M348.297 208.834L329.826 137.322L339.172 134.915L357.614 206.424L348.297 208.834Z" fill="black"/>
<path d="M390.118 188.955C384.981 187.531 369.671 177.313 366.766 177.566C363.872 177.815 357.218 176.914 357.218 176.914L350.855 183.579C350.855 183.579 351.307 185.324 353.632 184.131C355.954 182.917 358.563 182.191 358.563 182.191C358.563 182.191 352.796 184.782 351.596 185.804C348.491 188.435 349.185 189.909 349.185 189.909C349.185 189.909 350.642 190.304 355.918 187.908C357.303 187.275 359.631 187.673 359.631 187.673L349.089 192.814C349.089 192.814 346.302 194.078 349.363 195.104C352.418 196.129 357.933 193.192 360.408 193.281C362.896 193.352 374.877 199.219 383.55 198.992C390.627 198.803 390.118 188.955 390.118 188.955Z" fill="#F7D8D0"/>
<path d="M456.914 127.342C445.92 129.221 434.605 168.737 426.862 174.099C423.981 176.082 397.98 184.193 385.291 183.748C380.606 183.584 385.968 212.789 385.968 212.789C385.968 212.789 429.945 205.141 438.575 200.424C453.728 192.168 460.809 177.474 465.067 171.97C471.956 163.076 487.045 122.186 456.914 127.342Z" fill="#1F4C6B"/>
<path d="M498.779 121.753C506.498 128.457 507.281 137.557 506.505 141.986C505.48 147.815 507.491 148.918 516.253 144.482C523.965 140.584 525.24 139.053 530.334 137.782C526.838 133.847 521.85 114.843 524.47 102.602C527.098 90.3618 498.779 121.753 498.779 121.753Z" fill="#DDAC9E"/>
<path d="M524.472 85.2663C520.499 66.1545 506.397 60.0558 491.205 63.2173C476.017 66.3753 470.146 80.1252 474.112 99.2334C474.874 102.897 475.881 106.361 477.117 109.562C477.053 111.392 476.853 113.517 476.422 116.116C476.689 117.69 478.883 117.911 481.158 117.754C486.555 126.324 494.267 131.102 503.826 129.115C519.014 125.957 528.442 104.382 524.472 85.2663Z" fill="#E8C8BA"/>
<path d="M524.857 85.2696C520.88 66.1579 506.785 60.0591 491.589 63.2207C488.73 63.8188 497.603 70.7044 495.409 72.0146C500.105 78.2772 513.385 120.958 499.322 129.539C500.892 129.599 502.516 129.467 504.203 129.118C519.395 125.96 528.826 104.385 524.857 85.2696Z" fill="#DDAC9E"/>
<path d="M490.435 85.7789L472.976 82.4678C470.683 78.8968 475.354 63.794 498.731 61.5617C520.139 59.5287 527.163 72.0041 530.229 84.248C533.276 96.4776 524.087 116.369 524.087 116.369C524.087 116.369 505.923 108.697 508.415 104.132C509.942 101.334 511.47 91.6463 507.137 91.9026C505.04 92.0272 503.573 94.7046 503.573 94.7046L490.435 85.7789Z" fill="black"/>
<path d="M470.79 78.3198C469.256 78.3198 462.886 83.8027 467.857 92.0234C475.116 90.8806 494.876 83.8704 494.876 83.8704L486.274 77.7501L470.79 78.3198Z" fill="black"/>
<path d="M542.619 80.1121C542.619 86.955 537.535 92.502 531.262 92.502C524.992 92.502 519.908 86.955 519.908 80.1121C519.908 73.2727 524.992 67.7257 531.262 67.7257C537.535 67.7257 542.619 73.2727 542.619 80.1121Z" fill="black"/>
<path d="M551.089 391.022C551.089 392.272 549.761 393.279 548.12 393.279C546.482 393.279 545.154 392.272 545.154 391.022V299.18C545.154 297.931 546.482 296.923 548.12 296.923C549.761 296.923 551.089 297.931 551.089 299.18V391.022Z" fill="#9B8F8E"/>
<path d="M480.78 391.022C480.78 392.272 479.452 393.279 477.811 393.279C476.17 393.279 474.842 392.272 474.842 391.022V299.18C474.842 297.931 476.17 296.923 477.811 296.923C479.452 296.923 480.78 297.931 480.78 299.18V391.022Z" fill="#9B8F8E"/>
<path d="M565.111 301.925C565.111 302.944 564.199 303.77 563.071 303.77H454.955C453.833 303.77 452.922 302.944 452.922 301.925V287.214C452.922 286.192 453.833 285.381 454.955 285.381H563.071C564.199 285.381 565.111 286.192 565.111 287.214V301.925Z" fill="#9B8F8E"/>
<path d="M570.502 250.547C570.099 261.139 562.566 269.438 553.686 269.093L541.891 268.641C533.019 268.289 526.158 259.434 526.564 248.842L529.046 184.952C529.459 174.371 536.989 166.065 545.864 166.407L557.656 166.87C566.532 167.211 573.396 176.069 572.994 186.658L570.502 250.547Z" fill="#9B8F8E"/>
<path d="M435.666 198.225C430.885 197.748 421.792 198.225 419.88 198.225C417.964 198.225 403.139 196.317 401.227 196.794C399.315 197.275 389.261 201.579 385.918 203.491C385.918 203.491 384.807 208.482 391.177 206.364C401.227 203.014 406.009 206.364 410.79 207.322C415.575 208.269 418.445 207.322 420.36 207.322C422.272 207.322 433.751 207.799 433.751 207.799L435.666 198.225Z" fill="#DDAC9E"/>
<path d="M498.725 149.771C493.943 156.945 483.262 186.581 479.826 189.704C472.022 196.796 431.748 195.714 431.748 195.714V216.552C431.748 216.552 480.581 218.204 493.071 213.059C501.206 209.706 525.605 166.181 521.3 152.303C516.473 136.773 498.725 149.771 498.725 149.771Z" fill="#4D87DB"/>
<path d="M440.053 224.549H367.49V215.082H440.053V224.549Z" fill="black"/>
<path d="M367.604 224.221L349.461 153.962L358.636 151.594L376.776 221.853L367.604 224.221Z" fill="black"/>
<path d="M541.809 165.822C541.101 141.42 530.331 137.785 528.675 137.02L510.703 140.843C505.092 142.88 492.83 189.901 494.778 199.531C493.955 210.604 500.115 232.909 499.94 238.079C504.27 237.57 541.809 270.852 541.809 270.852C541.809 270.852 541.809 245.36 541.293 229.043C540.78 212.73 542.522 190.88 541.809 165.822Z" fill="#3357BC"/>
<path d="M508.797 138.931L498.725 149.772L487.557 184.047L498.569 237.384L511.852 247.908L531.736 147.532L521.223 138.931H508.797Z" fill="#3357BC"/>
<path d="M448.004 202.528C442.898 202.015 433.214 202.528 431.171 202.528C429.138 202.528 413.334 200.488 411.294 200.997C409.257 201.506 398.551 206.095 394.977 208.135C394.977 208.135 393.798 213.462 400.588 211.19C411.294 207.623 416.392 211.19 421.49 212.215C426.589 213.237 429.643 212.215 431.687 212.215C433.724 212.215 445.96 212.725 445.96 212.725L448.004 202.528Z" fill="#E8C8BA"/>
<path d="M444.171 201.065L434.559 201.022L435.018 217.77L443.598 217.506L444.171 201.065Z" fill="white"/>
<path d="M516.825 150.529C511.727 158.173 498.717 190.116 495.057 193.445C486.744 201 441.215 198.729 441.215 198.729L442.386 220.892C442.386 220.892 495.866 223.818 509.174 218.335C517.847 214.764 542.826 168.114 538.24 153.335C533.099 136.779 516.825 150.529 516.825 150.529Z" fill="#4D87DB"/>
<path d="M506.487 136.093L503.845 137.702L500.861 151.238L506.714 146.649L506.487 136.093Z" fill="#D8D8D8"/>
<path d="M506.139 137.928L526.558 127.147L532.062 137.24L505.545 152.5L506.139 137.928Z" fill="white"/>
<path d="M426.439 272.952C417.015 277.035 420.39 294.021 422.971 303.944C424.15 308.487 418.638 375.698 418.752 379.604C418.948 386.536 404.123 399.549 394.012 404.662C399.925 408.126 417.364 400.532 424.26 397.897C429.711 395.8 434.621 398.011 435.671 394.533C438.053 386.65 433.642 384.168 433.31 372.462C432.979 360.749 458.015 324.722 449.253 306.742C443.902 295.745 445.896 279.926 444.486 276.056C443.076 272.19 426.439 272.952 426.439 272.952Z" fill="#DDAC9E"/>
<path d="M435.76 384.267C436.853 388.315 437.939 392.84 435.771 398.006C434.753 400.42 434.301 407.594 434.301 407.594L427.963 407.772L426.692 401.296C426.692 401.296 422.658 403.898 417.489 409.371L391.388 410.15C391.388 410.15 390.548 402.966 399.463 401.734C411.066 400.139 422.438 394.179 425.549 391.398C430.623 386.862 435.76 384.267 435.76 384.267Z" fill="black"/>
<path d="M432.918 271.233C423.412 279.838 423.764 294.784 430.379 315.463C431.86 320.098 423.803 380.467 423.921 384.511C424.113 391.717 408.718 405.204 398.219 410.491C404.357 414.105 422.457 406.243 429.617 403.506C435.267 401.341 440.359 403.634 441.455 400.024C443.93 391.853 439.355 389.275 439.027 377.124C438.699 364.972 460.553 328.038 451.481 309.367C445.941 297.953 451.513 281.102 450.05 277.09C448.59 273.081 432.918 271.233 432.918 271.233Z" fill="#E8C8BA"/>
<path d="M442.405 390.427C443.462 394.628 444.495 399.353 442.145 404.668C441.038 407.15 440.432 414.587 440.432 414.587L433.849 414.644L432.664 407.905C432.664 407.905 428.637 409.176 423.176 414.747L396.078 415.043C396.078 415.043 395.131 408.933 404.413 407.83C416.486 406.406 428.391 400.431 431.67 397.612C437.029 393.005 442.405 390.427 442.405 390.427Z" fill="#2B2B2B"/>
<path d="M541.237 237.04C545.826 245.3 552.715 265.256 546.285 274.434C539.862 283.616 529.765 291.068 490.306 288.319C450.847 285.567 453.14 287.283 453.14 287.283L465.345 335.426L408.633 329.494C408.633 329.494 414.141 270.763 422.397 265.259C430.657 259.755 498.566 237.382 498.566 237.382L541.237 237.04Z" fill="black"/>
<path d="M108.724 414.93H90.9238V251.156H108.724V414.93Z" fill="#9B8F8E"/>
<path d="M469.503 414.93H451.701V251.156H469.503V414.93Z" fill="#9B8F8E"/>
<path d="M501.979 258.912H51.8496V236.888H501.979V258.912Z" fill="#D8D8D8"/>
<defs>
<linearGradient id="paint0_linear_139_5544" x1="241.657" y1="78.8571" x2="251.564" y2="46.3716" gradientUnits="userSpaceOnUse">
<stop stop-color="white"/>
<stop offset="0.67033" stop-color="#C6C0B9"/>
<stop offset="1" stop-color="#C6C0B9"/>
</linearGradient>
<linearGradient id="paint1_linear_139_5544" x1="241.663" y1="78.8555" x2="251.57" y2="46.3699" gradientUnits="userSpaceOnUse">
<stop stop-color="#E8C8BA"/>
<stop offset="0.67033" stop-color="#B49787"/>
<stop offset="1" stop-color="#B49787"/>
</linearGradient>
<linearGradient id="paint2_linear_139_5544" x1="46.629" y1="103.277" x2="85.0013" y2="103.277" gradientUnits="userSpaceOnUse">
<stop stop-color="white"/>
<stop offset="0.642857" stop-color="#C6C0B9"/>
<stop offset="1" stop-color="#C6C0B9"/>
</linearGradient>
<linearGradient id="paint3_linear_139_5544" x1="46.6283" y1="103.273" x2="85.0006" y2="103.273" gradientUnits="userSpaceOnUse">
<stop stop-color="#E8C8BA"/>
<stop offset="0.642857" stop-color="#B49787"/>
<stop offset="1" stop-color="#B49787"/>
</linearGradient>
<linearGradient id="paint4_linear_139_5544" x1="260.532" y1="202.404" x2="290.585" y2="157.436" gradientUnits="userSpaceOnUse">
<stop/>
<stop offset="0.873626"/>
<stop offset="1"/>
</linearGradient>
<linearGradient id="paint5_linear_139_5544" x1="260.53" y1="202.405" x2="290.583" y2="157.438" gradientUnits="userSpaceOnUse">
<stop stop-color="white"/>
<stop offset="0.873626" stop-color="#C6C0B9"/>
<stop offset="1" stop-color="#C6C0B9"/>
</linearGradient>
<linearGradient id="paint6_linear_139_5544" x1="260.531" y1="202.406" x2="290.582" y2="157.439" gradientUnits="userSpaceOnUse">
<stop stop-color="#ADADAD"/>
<stop offset="0.873626" stop-color="#86827E"/>
<stop offset="1" stop-color="#86827E"/>
</linearGradient>
<linearGradient id="paint7_linear_139_5544" x1="260.531" y1="202.406" x2="290.584" y2="157.438" gradientUnits="userSpaceOnUse">
<stop stop-color="#ADADAD"/>
<stop offset="0.873626" stop-color="#86827E"/>
<stop offset="1" stop-color="#86827E"/>
</linearGradient>
<linearGradient id="paint8_linear_139_5544" x1="260.531" y1="202.405" x2="290.584" y2="157.438" gradientUnits="userSpaceOnUse">
<stop stop-color="#ADADAD"/>
<stop offset="0.873626" stop-color="#86827E"/>
<stop offset="1" stop-color="#86827E"/>
</linearGradient>
<linearGradient id="paint9_linear_139_5544" x1="260.531" y1="202.405" x2="290.584" y2="157.438" gradientUnits="userSpaceOnUse">
<stop stop-color="#ADADAD"/>
<stop offset="0.873626" stop-color="#86827E"/>
<stop offset="1" stop-color="#86827E"/>
</linearGradient>
<linearGradient id="paint10_linear_139_5544" x1="260.531" y1="202.403" x2="290.585" y2="157.436" gradientUnits="userSpaceOnUse">
<stop stop-color="#ADADAD"/>
<stop offset="0.873626" stop-color="#86827E"/>
<stop offset="1" stop-color="#86827E"/>
</linearGradient>
<linearGradient id="paint11_linear_139_5544" x1="260.531" y1="202.406" x2="290.584" y2="157.439" gradientUnits="userSpaceOnUse">
<stop stop-color="#ADADAD"/>
<stop offset="0.873626" stop-color="#86827E"/>
<stop offset="1" stop-color="#86827E"/>
</linearGradient>
<linearGradient id="paint12_linear_139_5544" x1="260.532" y1="202.41" x2="290.59" y2="157.441" gradientUnits="userSpaceOnUse">
<stop stop-color="#ADADAD"/>
<stop offset="0.873626" stop-color="#86827E"/>
<stop offset="1" stop-color="#86827E"/>
</linearGradient>
<linearGradient id="paint13_linear_139_5544" x1="260.53" y1="202.408" x2="290.583" y2="157.441" gradientUnits="userSpaceOnUse">
<stop stop-color="#E24000"/>
<stop offset="0.873626" stop-color="#AF3000"/>
<stop offset="1" stop-color="#AF3000"/>
</linearGradient>
<linearGradient id="paint14_linear_139_5544" x1="260.53" y1="202.404" x2="290.583" y2="157.436" gradientUnits="userSpaceOnUse">
<stop stop-color="#F46300"/>
<stop offset="0.873626" stop-color="#BD4B00"/>
<stop offset="1" stop-color="#BD4B00"/>
</linearGradient>
<linearGradient id="paint15_linear_139_5544" x1="260.531" y1="202.408" x2="290.585" y2="157.441" gradientUnits="userSpaceOnUse">
<stop stop-color="white"/>
<stop offset="0.873626" stop-color="#C6C0B9"/>
<stop offset="1" stop-color="#C6C0B9"/>
</linearGradient>
<linearGradient id="paint16_linear_139_5544" x1="260.528" y1="202.402" x2="290.579" y2="157.435" gradientUnits="userSpaceOnUse">
<stop stop-color="#F46300"/>
<stop offset="0.873626" stop-color="#BD4B00"/>
<stop offset="1" stop-color="#BD4B00"/>
</linearGradient>
<linearGradient id="paint17_linear_139_5544" x1="260.53" y1="202.404" x2="290.583" y2="157.437" gradientUnits="userSpaceOnUse">
<stop stop-color="#8EAFC1"/>
<stop offset="0.873626" stop-color="#6E848C"/>
<stop offset="1" stop-color="#6E848C"/>
</linearGradient>
<linearGradient id="paint18_linear_139_5544" x1="46.4056" y1="251.391" x2="98.1858" y2="168.729" gradientUnits="userSpaceOnUse">
<stop stop-color="#BFB8B8"/>
<stop offset="0.642857" stop-color="#948B85"/>
<stop offset="1" stop-color="#948B85"/>
</linearGradient>
<linearGradient id="paint19_linear_139_5544" x1="46.4093" y1="251.391" x2="98.1898" y2="168.728" gradientUnits="userSpaceOnUse">
<stop stop-color="white"/>
<stop offset="0.642857" stop-color="#C6C0B9"/>
<stop offset="1" stop-color="#C6C0B9"/>
</linearGradient>
<linearGradient id="paint20_linear_139_5544" x1="46.4095" y1="251.391" x2="98.19" y2="168.728" gradientUnits="userSpaceOnUse">
<stop stop-color="#BFB8B8"/>
<stop offset="0.642857" stop-color="#948B85"/>
<stop offset="1" stop-color="#948B85"/>
</linearGradient>
<linearGradient id="paint21_linear_139_5544" x1="46.4065" y1="251.391" x2="98.1869" y2="168.728" gradientUnits="userSpaceOnUse">
<stop stop-color="#1F4C6B"/>
<stop offset="0.642857" stop-color="#18394E"/>
<stop offset="1" stop-color="#18394E"/>
</linearGradient>
<linearGradient id="paint22_linear_139_5544" x1="46.403" y1="251.391" x2="98.1833" y2="168.728" gradientUnits="userSpaceOnUse">
<stop stop-color="#0B253F"/>
<stop offset="0.642857" stop-color="#091C2E"/>
<stop offset="1" stop-color="#091C2E"/>
</linearGradient>
<linearGradient id="paint23_linear_139_5544" x1="46.4061" y1="251.389" x2="98.1865" y2="168.727" gradientUnits="userSpaceOnUse">
<stop stop-color="#1F4C6B"/>
<stop offset="0.642857" stop-color="#18394E"/>
<stop offset="1" stop-color="#18394E"/>
</linearGradient>
<linearGradient id="paint24_linear_139_5544" x1="46.4055" y1="251.391" x2="98.1858" y2="168.728" gradientUnits="userSpaceOnUse">
<stop stop-color="#0B253F"/>
<stop offset="0.642857" stop-color="#091C2E"/>
<stop offset="1" stop-color="#091C2E"/>
</linearGradient>
<linearGradient id="paint25_linear_139_5544" x1="46.4072" y1="251.39" x2="98.1879" y2="168.728" gradientUnits="userSpaceOnUse">
<stop stop-color="#9E5EA5"/>
<stop offset="0.642857" stop-color="#7B4778"/>
<stop offset="1" stop-color="#7B4778"/>
</linearGradient>
<linearGradient id="paint26_linear_139_5544" x1="46.4063" y1="251.395" x2="98.1867" y2="168.733" gradientUnits="userSpaceOnUse">
<stop stop-color="#BFB8B8"/>
<stop offset="0.642857" stop-color="#948B85"/>
<stop offset="1" stop-color="#948B85"/>
</linearGradient>
<linearGradient id="paint27_linear_139_5544" x1="128.707" y1="203.773" x2="220.16" y2="203.773" gradientUnits="userSpaceOnUse">
<stop stop-color="white"/>
<stop offset="0.873626" stop-color="#C6C0B9"/>
<stop offset="1" stop-color="#C6C0B9"/>
</linearGradient>
<linearGradient id="paint28_linear_139_5544" x1="128.706" y1="203.773" x2="220.159" y2="203.773" gradientUnits="userSpaceOnUse">
<stop/>
<stop offset="0.873626"/>
<stop offset="1"/>
</linearGradient>
<linearGradient id="paint29_linear_139_5544" x1="128.706" y1="203.772" x2="220.159" y2="203.772" gradientUnits="userSpaceOnUse">
<stop stop-color="#BFB8B8"/>
<stop offset="0.873626" stop-color="#948B85"/>
<stop offset="1" stop-color="#948B85"/>
</linearGradient>
<linearGradient id="paint30_linear_139_5544" x1="126.847" y1="213.79" x2="139.549" y2="200.23" gradientUnits="userSpaceOnUse">
<stop stop-color="#300500"/>
<stop offset="0.203297" stop-color="#300500"/>
<stop offset="1" stop-color="#180200"/>
</linearGradient>
<linearGradient id="paint31_linear_139_5544" x1="126.851" y1="213.794" x2="139.553" y2="200.233" gradientUnits="userSpaceOnUse">
<stop stop-color="#E5E0DA"/>
<stop offset="0.203297" stop-color="#E5E0DA"/>
<stop offset="1" stop-color="#72706D"/>
</linearGradient>
<linearGradient id="paint32_linear_139_5544" x1="126.847" y1="213.791" x2="139.548" y2="200.231" gradientUnits="userSpaceOnUse">
<stop stop-color="white"/>
<stop offset="0.203297" stop-color="white"/>
<stop offset="1" stop-color="#7F7F7F"/>
</linearGradient>
<linearGradient id="paint33_linear_139_5544" x1="126.848" y1="213.793" x2="139.549" y2="200.233" gradientUnits="userSpaceOnUse">
<stop stop-color="#E5E0DA"/>
<stop offset="0.203297" stop-color="#E5E0DA"/>
<stop offset="1" stop-color="#72706D"/>
</linearGradient>
<linearGradient id="paint34_linear_139_5544" x1="126.848" y1="213.791" x2="139.549" y2="200.231" gradientUnits="userSpaceOnUse">
<stop stop-color="#CEC5BA"/>
<stop offset="0.203297" stop-color="#CEC5BA"/>
<stop offset="1" stop-color="#67625D"/>
</linearGradient>
<linearGradient id="paint35_linear_139_5544" x1="126.847" y1="213.792" x2="139.548" y2="200.232" gradientUnits="userSpaceOnUse">
<stop stop-color="#CEC5BA"/>
<stop offset="0.203297" stop-color="#CEC5BA"/>
<stop offset="1" stop-color="#67625D"/>
</linearGradient>
</defs>
</svg>
