<svg width="145" height="96" viewBox="0 0 145 96" fill="none" xmlns="http://www.w3.org/2000/svg">
<path d="M135.683 95.0004L19.1875 95.4458V12.7518H36.2358V25.5342H41.4422V1.89645H58.4904V23.9614H64.2447V20.3921L71.0314 20.4239V14.641H72.3972V13.4974H72.5777V14.641H77.8181V14.6428H78.8661V13.4974H79.0471V14.6428H80.3107V26.1425H88.391V30.3754H92.8822V27.9179H97.0477V18.1606H108.198V18.0425H108.194V16.96H108.198V15.9351H108.194V14.2299H108.198V13.1408H108.194V11.4356H108.198V10.3471H108.194V8.64186H108.198V7.46528H108.194V5.76065H108.198V4.2622H108.194V2.55756H108.198V1.42773H118.091V10.3465L119.025 10.3525V10.3465H119.017V8.64126H119.025V7.46468H119.017V5.76005H119.025V4.58766H119.017V2.88243H119.025V2.87703H127.841V2.88243H129.356C129.434 2.92738 129.513 2.97293 129.591 3.01789V14.3917H134.674L135.683 94.9998V95.0004Z" fill="#DFEBFA"/>
<path d="M19.203 27.8096V35.5601V47.0904V94.8819H10.6406V47.0904V35.5601V27.8096H19.203Z" fill="#DFEBFA"/>
<path d="M58.4903 5.63565H45.8281V1.89551H58.4903V5.63565Z" fill="#EEF6FF"/>
<path d="M58.4903 11.3925H45.8281V7.65234H58.4903V11.3925Z" fill="#EEF6FF"/>
<path d="M58.4903 17.2694H45.8281V13.5293H58.4903V17.2694Z" fill="#EEF6FF"/>
<path d="M58.4903 23.2401H45.8281V19.5H58.4903V23.2401Z" fill="#EEF6FF"/>
<path d="M58.4903 29.0009H45.8281V25.2607H58.4903V29.0009Z" fill="#EEF6FF"/>
<path d="M114.53 3.69842H108.199V1.42676H114.53V3.69842Z" fill="#EEF6FF"/>
<path d="M114.53 7.1945H108.199V4.92285H114.53V7.1945Z" fill="#EEF6FF"/>
<path d="M114.53 10.7629H108.199V8.49121H114.53V10.7629Z" fill="#EEF6FF"/>
<path d="M114.53 14.3888H108.199V12.1172H114.53V14.3888Z" fill="#EEF6FF"/>
<path d="M114.53 17.8879H108.199V15.6162H114.53V17.8879Z" fill="#EEF6FF"/>
<path d="M114.53 21.7404H108.199V19.4688H114.53V21.7404Z" fill="#EEF6FF"/>
<path d="M114.53 25.2365H108.199V22.9648H114.53V25.2365Z" fill="#EEF6FF"/>
<path d="M114.53 28.8058H108.199V26.5342H114.53V28.8058Z" fill="#EEF6FF"/>
<path d="M114.53 32.4308H108.199V30.1592H114.53V32.4308Z" fill="#EEF6FF"/>
<path d="M114.53 35.9299H108.199V33.6582H114.53V35.9299Z" fill="#EEF6FF"/>
<path d="M125.366 5.18962H119.035V2.91797H125.366V5.18962Z" fill="#EEF6FF"/>
<path d="M125.366 8.68571H119.035V6.41406H125.366V8.68571Z" fill="#EEF6FF"/>
<path d="M125.366 12.2541H119.035V9.98242H125.366V12.2541Z" fill="#EEF6FF"/>
<path d="M125.366 15.881H119.035V13.6094H125.366V15.881Z" fill="#EEF6FF"/>
<path d="M125.366 19.3791H119.035V17.1074H125.366V19.3791Z" fill="#EEF6FF"/>
<path d="M125.366 23.0265H119.035V20.7549H125.366V23.0265Z" fill="#EEF6FF"/>
<path d="M125.366 26.5216H119.035V24.25H125.366V26.5216Z" fill="#EEF6FF"/>
<path d="M125.366 30.092H119.035V27.8203H125.366V30.092Z" fill="#EEF6FF"/>
<path d="M125.366 33.7179H119.035V31.4463H125.366V33.7179Z" fill="#EEF6FF"/>
<path d="M125.366 37.217H119.035V34.9453H125.366V37.217Z" fill="#EEF6FF"/>
<path d="M125.366 41.2277H119.035V38.9561H125.366V41.2277Z" fill="#EEF6FF"/>
<path d="M125.366 44.7238H119.035V42.4521H125.366V44.7238Z" fill="#EEF6FF"/>
<path d="M125.366 48.2931H119.035V46.0215H125.366V48.2931Z" fill="#EEF6FF"/>
<path d="M125.366 51.9191H119.035V49.6475H125.366V51.9191Z" fill="#EEF6FF"/>
<path d="M125.366 55.4172H119.035V53.1455H125.366V55.4172Z" fill="#EEF6FF"/>
<path d="M99.4353 18.2428H99.1211V13.6084H99.4353V18.2428Z" fill="#DFEBFA"/>
<path d="M104.903 18.604H104.414V9.62891H104.903V18.604Z" fill="#DFEBFA"/>
<path d="M42.778 1.89663H42.5742V0.244141H42.778V1.89663Z" fill="#DFEBFA"/>
<path d="M47.0944 1.89663H46.8906V0.244141H47.0944V1.89663Z" fill="#DFEBFA"/>
<path d="M56.9851 1.89663H56.7812V0.244141H56.9851V1.89663Z" fill="#DFEBFA"/>
<path d="M109.337 1.42782H109.18V0.152344H109.337V1.42782Z" fill="#DFEBFA"/>
<path d="M116.767 1.42782H116.609V0.152344H116.767V1.42782Z" fill="#DFEBFA"/>
<path d="M53.1178 1.89663H52.9141V0.244141H53.1178V1.89663Z" fill="#DFEBFA"/>
<path d="M46.5039 56.6606C50.7245 49.4489 53.8337 46.2518 55.8317 47.0705C57.8296 47.8893 54.7204 51.0858 46.5039 56.6606Z" fill="#AFCDFB"/>
<path d="M46.332 58.4403C55.7458 50.4776 62.0975 47.4112 65.3878 49.2399C70.3229 51.9832 61.9063 53.8935 58.717 54.346C56.5906 54.6481 52.4621 56.0123 46.332 58.4403Z" fill="#AFCDFB"/>
<path d="M45.1418 56.8552C45.1143 56.5681 45.0785 56.2144 45.0331 55.7955C44.9016 54.5685 44.6686 52.5894 44.4404 51.589C44.0956 50.0762 44.9871 48.6748 46.7323 49.8131C47.8956 50.5725 47.4941 52.735 45.5284 56.3014L45.1412 56.8552H45.1418Z" fill="#AFCDFB"/>
<path d="M11.8534 72.3674C11.9747 70.5488 13.54 69.618 16.5489 69.5736C19.1216 72.1959 20.702 73.4858 21.2893 73.4426C21.8766 73.3995 20.9953 72.0629 18.6443 69.4328C19.7329 69.1019 21.8288 69.3345 24.9315 70.1317C25.4555 73.689 25.9968 75.3744 26.556 75.1874C27.1146 75.0004 26.8028 73.4372 25.6198 70.4979C26.7591 70.6052 27.9553 71.1872 29.2094 72.2433C30.8721 74.0396 30.5107 75.9624 28.1256 78.0111C28.3335 79.2398 28.9537 80.4799 29.9861 81.7296C30.2078 81.9544 30.4485 82.2691 30.709 82.6743L30.2693 82.7624C30.2096 82.6515 30.1474 82.5448 30.0817 82.4441C30.0817 82.4435 30.0811 82.4429 30.0805 82.4423C30.0793 82.4411 30.0787 82.4393 30.0775 82.4381C30.0339 82.3758 29.9712 82.2877 29.8935 82.1804C29.8935 82.1804 29.8935 82.1804 29.8935 82.1798C29.8935 82.1792 29.8929 82.1798 29.8929 82.1792C29.7059 81.9424 29.5762 81.7662 29.4908 81.6367C29.4902 81.6361 29.4902 81.6361 29.4902 81.6355C28.9226 80.8887 28.128 79.9267 27.696 79.7781C27.7193 79.7259 27.7372 79.6522 27.7498 79.5569C27.7324 79.6276 27.7145 79.7007 27.696 79.7781C27.2664 81.5462 23.5591 82.5718 21.3777 82.5616C19.1963 82.5514 19.991 81.7752 20.9272 80.586C21.8634 79.3969 24.2778 79.1757 24.901 78.6578C25.5242 78.14 24.4278 77.9679 23.0524 78.3563C21.677 78.7447 21.2582 80.2869 19.0446 80.9558C17.5688 81.4018 15.9742 80.3205 14.2612 77.712C15.9162 77.884 18.5379 76.4599 18.5379 75.8995C18.5379 75.3391 14.4112 76.2244 13.7342 76.192C13.0573 76.1596 11.6706 75.0927 11.8522 72.3656L11.8534 72.3674Z" fill="#CDE0FB"/>
<path d="M14.8359 20.3464C16.2847 18.3307 18.7654 18.3876 22.278 20.516C23.3666 25.4129 24.2658 28.0496 24.9767 28.4248C25.6871 28.8 25.6298 26.6159 24.8035 21.8712C26.3013 22.277 28.5574 24.0643 31.5728 27.2332C29.6185 31.728 29.0318 34.0691 29.8127 34.2579C30.5936 34.4462 31.3577 32.4125 32.1046 28.1557C33.3449 29.1051 34.3104 30.6449 35.0005 32.7751C35.6308 36.0573 33.8295 38.0196 29.5958 38.6622C28.9523 40.2344 28.7773 42.1176 29.0712 44.3113C29.1656 44.7315 29.2176 45.2703 29.2272 45.9273L28.6554 45.7109C28.6667 45.5395 28.6709 45.371 28.6673 45.2068C28.6679 45.2056 28.6679 45.205 28.6673 45.2038C28.6673 45.2014 28.6673 45.199 28.6673 45.1966C28.6613 45.0929 28.6524 44.9455 28.6398 44.7657V44.7651C28.6398 44.7645 28.6398 44.7645 28.6398 44.7645C28.5938 44.3551 28.5711 44.0572 28.5652 43.8462C28.5652 43.8456 28.5652 43.845 28.5652 43.8444C28.4463 42.5695 28.2192 40.8811 27.8267 40.3968C27.8912 40.353 27.9647 40.2811 28.0477 40.1798C27.9772 40.2487 27.9038 40.3213 27.8267 40.3968C26.0576 42.1308 21.0316 40.6317 18.5151 39.0398C15.9991 37.4478 17.4773 37.1254 19.4161 36.4283C21.3549 35.7312 24.307 37.2243 25.4004 37.0762C26.4937 36.9288 25.3496 35.9356 23.4789 35.389C21.6082 34.8423 20.0141 36.3222 16.9724 35.4927C14.9446 34.9394 13.8781 32.5341 13.7742 28.2761C15.5648 29.6739 19.6222 29.9256 20.0255 29.2771C20.4288 28.6286 15.0187 26.6638 14.2587 26.1364C13.4987 25.6089 12.6629 23.3702 14.8359 20.347V20.3464Z" fill="#AFCDFB"/>
<path d="M129.532 55.9933C128.734 56.1947 123.612 56.1372 123.746 56.8043C123.88 57.4714 127.341 58.5335 129.269 57.9293C127.856 61.4465 126.218 63.1182 124.355 62.9431C121.561 62.6812 120.693 60.9472 118.963 60.8171C117.233 60.6865 115.97 61.1558 116.835 61.6215C117.701 62.0872 120.628 61.7678 122.027 62.9569C123.426 64.1461 124.558 64.8779 121.965 65.4168C119.371 65.955 114.714 65.6296 113.779 63.6288C113.738 63.5413 113.699 63.4586 113.662 63.3789C113.699 63.4892 113.738 63.5725 113.779 63.6288C113.301 63.9099 112.586 65.246 112.089 66.2715C112.089 66.2721 112.089 66.2727 112.088 66.2733C112.018 66.4477 111.906 66.6887 111.74 67.0153C111.74 67.0159 111.74 67.0159 111.74 67.0159V67.0165C111.673 67.1628 111.619 67.2833 111.582 67.3672C111.582 67.369 111.581 67.3714 111.58 67.3732C111.579 67.3738 111.579 67.3744 111.579 67.3756C111.525 67.5116 111.476 67.6531 111.432 67.7993L110.888 67.8005C111.1 67.2557 111.312 66.8229 111.521 66.5023C112.449 64.7653 112.89 63.1409 112.843 61.6281C109.513 59.7652 108.622 57.5643 110.171 55.0253C111.41 53.4657 112.694 52.4851 114.024 52.0824C113.321 55.8657 113.325 57.8011 114.034 57.8886C114.744 57.9761 114.984 55.8405 114.755 51.4806C118.256 49.7837 120.694 49.0009 122.069 49.1322C119.902 52.8286 119.173 54.6321 119.883 54.5416C120.592 54.4511 122.163 52.5355 124.596 48.7942C128.187 48.1205 130.273 48.8511 130.853 50.9855C131.724 54.1874 130.329 55.7913 129.532 55.9933H129.532Z" fill="#AFCDFB"/>
<path d="M66.7683 22.2944C67.7069 20.9884 69.3141 21.0256 71.5893 22.4041C72.2943 25.5766 72.8774 27.2843 73.3375 27.5276C73.7981 27.771 73.7605 26.3558 73.2252 23.2816C74.1955 23.5447 75.6575 24.7027 77.6106 26.7556C76.3446 29.6674 75.9646 31.1844 76.4706 31.3061C76.9767 31.4284 77.4714 30.1103 77.9553 27.3526C78.759 27.9676 79.3845 28.9649 79.8314 30.3453C80.2401 32.4713 79.0726 33.7426 76.3302 34.1592C75.9132 35.1775 75.7997 36.3978 75.9903 37.819C76.0512 38.0911 76.0853 38.4399 76.0912 38.8661L75.7208 38.7258C75.728 38.6149 75.731 38.5058 75.7286 38.3992C75.7286 38.3986 75.7286 38.398 75.7286 38.3974C75.7286 38.3956 75.7286 38.3944 75.7286 38.3926C75.725 38.3254 75.719 38.2301 75.7106 38.1133C75.7106 38.1133 75.7106 38.1133 75.7106 38.1127V38.1121C75.6808 37.8471 75.6664 37.6541 75.6623 37.5169C75.6623 37.5163 75.6623 37.5163 75.6623 37.5157C75.5852 36.6897 75.4382 35.5959 75.1837 35.2824C75.2255 35.2542 75.2733 35.2075 75.3271 35.1421C75.2817 35.1871 75.2339 35.2338 75.1837 35.2824C74.0377 36.4062 70.7815 35.4346 69.1516 34.4037C67.5217 33.3722 68.4794 33.1636 69.7353 32.7117C70.9912 32.2597 72.9037 33.2271 73.6123 33.1318C74.3209 33.0365 73.5795 32.3928 72.3678 32.0385C71.1561 31.6843 70.1231 32.6433 68.1526 32.1057C66.8388 31.7472 66.1481 30.1889 66.0806 27.4305C67.2409 28.3362 69.8692 28.4992 70.1303 28.079C70.3914 27.6589 66.8866 26.3858 66.3943 26.0442C65.9019 25.7025 65.36 24.252 66.7683 22.2938V22.2944Z" fill="#CDE0FB"/>
<path d="M62.1252 86.2508C61.4142 84.0636 62.8105 82.2337 66.3141 80.7611C70.5585 82.6179 73.0147 83.3821 73.6821 83.0543C74.3501 82.7264 72.6903 81.5768 68.7028 79.6067C69.823 78.7046 72.3868 77.9877 76.3952 77.4561C78.6788 81.376 80.1037 83.0938 80.6701 82.6113C81.2371 82.1282 80.1378 80.4446 77.3727 77.5604C78.7576 77.148 80.4323 77.2649 82.3968 77.9098C85.187 79.2285 85.6662 81.6517 83.8343 85.1779C84.6547 86.5193 85.9631 87.6785 87.7585 88.6555C88.1236 88.8143 88.5532 89.069 89.0485 89.4209L88.5753 89.7319C88.4534 89.63 88.3303 89.5347 88.206 89.4478C88.2054 89.4466 88.2048 89.4466 88.2036 89.446C88.2018 89.4448 88.2 89.4436 88.1983 89.4424C88.1182 89.3903 88.0035 89.3166 87.8619 89.2273C87.8619 89.2273 87.8613 89.2273 87.8613 89.2267C87.8613 89.2261 87.8607 89.2267 87.8607 89.2261C87.5309 89.0373 87.2961 88.8916 87.1354 88.7807C87.1348 88.7801 87.1342 88.7801 87.1342 88.7795C86.1191 88.173 84.7365 87.4213 84.1611 87.4513C84.1641 87.3794 84.1504 87.2841 84.1205 87.1672C84.1337 87.2577 84.1474 87.3524 84.1611 87.4513C84.488 89.7253 80.6265 92.6773 78.0663 93.6956C75.5062 94.714 76.0732 93.4289 76.6115 91.5942C77.1498 89.7595 79.8749 88.3594 80.3618 87.4591C80.8488 86.5582 79.4841 86.8747 78.055 87.9794C76.6258 89.084 76.8595 91.0877 74.5801 92.917C73.0607 94.1362 70.6858 93.6231 67.4553 91.3766C69.4747 90.7964 71.8777 87.8907 71.6143 87.2337C71.3508 86.5774 66.9331 89.5629 66.1247 89.8452C65.3163 90.1275 63.1917 89.5323 62.1246 86.2514L62.1252 86.2508Z" fill="#CDE0FB"/>
<path d="M91.3061 50.9C94.0115 48.8321 97.248 49.899 101.016 54.1018C100.498 60.9713 100.631 64.7948 101.415 65.5722C102.2 66.3496 102.993 63.457 103.794 56.8926C105.6 58.0254 107.854 61.2764 110.554 66.6469C106.199 71.7692 104.497 74.6108 105.448 75.1706C106.399 75.7305 108.212 73.3641 110.886 68.071C112.138 69.8146 112.794 72.2241 112.854 75.2989C112.377 79.8632 109.229 81.7201 103.411 80.8695C101.94 82.6773 100.962 85.0814 100.475 88.0807C100.432 88.6704 100.287 89.3993 100.038 90.2666L99.372 89.7535C99.4544 89.5324 99.5273 89.3136 99.5883 89.096C99.5894 89.0948 99.5894 89.0936 99.5894 89.0918C99.5906 89.0888 99.5912 89.0852 99.5918 89.0822C99.6253 88.9438 99.6719 88.7466 99.7275 88.505C99.7275 88.5044 99.7275 88.5044 99.7275 88.5038C99.7281 88.5032 99.7275 88.5032 99.7275 88.5026C99.8302 87.947 99.9187 87.546 99.9945 87.2661C99.9945 87.2655 99.9951 87.2643 99.9951 87.2637C100.346 85.5411 100.719 83.2323 100.396 82.4387C100.498 82.4075 100.624 82.3416 100.773 82.2421C100.653 82.305 100.527 82.3698 100.396 82.4387C97.3818 84.0091 91.3754 80.0274 88.7029 76.9286C86.0304 73.8304 88.1013 73.9988 90.9255 73.8586C93.7498 73.7183 97.0347 76.8621 98.5295 77.106C100.024 77.35 98.9167 75.5872 96.6768 74.1199C94.4369 72.6526 91.7542 73.9593 88.0875 71.6517C85.6433 70.1137 85.1994 66.5264 86.7564 60.891C88.553 63.4438 93.7826 65.399 94.5707 64.7085C95.3582 64.018 89.0321 59.2709 88.2441 58.2735C87.4554 57.2762 87.2475 54.0012 91.3055 50.8988L91.3061 50.9Z" fill="#CDE0FB"/>
<path d="M144.402 95.4458H0.237794C0.106947 95.4458 0 95.3386 0 95.2073C0 95.076 0.106947 94.9688 0.237794 94.9688H144.402C144.533 94.9688 144.64 95.076 144.64 95.2073C144.64 95.3386 144.533 95.4458 144.402 95.4458Z" fill="#2E3552"/>
<path d="M41.5246 28.9441L39.8176 30.1728L38.1016 28.9573C38.4822 28.4203 39.1101 28.0654 39.8176 28.0654C40.5208 28.0654 41.1446 28.4113 41.5246 28.9441Z" fill="#F99746"/>
<path d="M43.948 27.2009L42.869 27.9771C42.1879 27.0229 41.0736 26.4019 39.8171 26.4019C38.5522 26.4019 37.429 27.0319 36.7479 27.9993L35.6641 27.2362C36.5842 25.9272 38.1012 25.0713 39.8171 25.0713C41.5157 25.0713 43.0237 25.9098 43.948 27.2009Z" fill="#F99746"/>
<path d="M48.5548 23.8872L47.48 24.6634C45.7682 22.2719 42.9691 20.7105 39.8156 20.7105C36.6358 20.7105 33.8181 22.2989 32.1112 24.7216L31.0273 23.9585C32.9733 21.19 36.1841 19.3799 39.815 19.3799C43.4148 19.3799 46.6035 21.1588 48.5542 23.8878L48.5548 23.8872Z" fill="#F99746"/>
<path d="M46.0493 25.6575L44.9745 26.4547C43.816 24.8046 41.9363 23.7275 39.8177 23.7275C37.6817 23.7275 35.7889 24.8226 34.634 26.4954L33.5508 25.7073C34.9441 23.6772 37.2348 22.3525 39.8177 22.3525C42.3784 22.3525 44.6518 23.6538 46.0493 25.6569V25.6575Z" fill="#F99746"/>
<path d="M87.8515 93.9064H62.5078V81.0527H87.8515V93.9064Z" fill="#243A75"/>
<path d="M118.298 84.2892H32.0588C31.6507 84.2892 31.3203 83.9572 31.3203 83.5484V33.9977C31.3203 33.5883 31.6513 33.2568 32.0588 33.2568H118.298C118.706 33.2568 119.036 33.5889 119.036 33.9977V83.5484C119.036 83.9578 118.705 84.2892 118.298 84.2892Z" fill="#2F4F9E"/>
<path d="M118.3 81.2546H32.0586V37.2158H118.3V81.2546Z" fill="#AFCDFB"/>
<path d="M96.0113 93.3747V95.2077H54.3477V93.3747C54.3477 92.535 55.0264 91.8535 55.864 91.8535H94.4955C95.3326 91.8535 96.0119 92.5344 96.0119 93.3747H96.0113Z" fill="#2F4F9E"/>
<path d="M105.174 78.6094H45.1797V40.541C45.1797 40.1658 45.4832 39.8613 45.8572 39.8613H104.497C104.871 39.8613 105.174 40.1658 105.174 40.541V78.6094Z" fill="#5F91E6"/>
<path d="M104.47 77.757H45.8828V43.373H104.47V77.757Z" fill="white"/>
<path d="M104.47 75.3324H45.8828V71.5977H104.47V75.3324Z" fill="#2B478B"/>
<path d="M104.47 74.1251H45.8828V72.8047H104.47V74.1251Z" fill="#DFEBFA"/>
<path d="M49.5686 74.1315H45.8828V72.7979H49.5686V74.1315Z" fill="#B5453C"/>
<path d="M51.3623 74.4149H49.2425C48.988 74.4149 48.7812 74.2075 48.7812 73.9522V72.9764C48.7812 72.7211 48.988 72.5137 49.2425 72.5137H51.3623C51.6169 72.5137 51.8236 72.7211 51.8236 72.9764V73.9522C51.8236 74.2075 51.6169 74.4149 51.3623 74.4149Z" fill="#F99746"/>
<path d="M93.3057 52.2262L75.697 58.1744L57.6641 52.1992L75.2728 46.251L93.3057 52.2262Z" fill="#2B478B"/>
<path d="M58.6609 63.2056V67.647H57.043V63.2056C57.043 62.8862 57.2276 62.611 57.4947 62.4786C57.227 62.3461 57.043 62.0704 57.043 61.7515C57.043 61.3673 57.3094 61.0467 57.6667 60.9622V52.1992H58.0372V60.9622C58.3945 61.0461 58.6609 61.3673 58.6609 61.7515C58.6609 62.071 58.4763 62.3461 58.2092 62.4786C58.4769 62.611 58.6609 62.8868 58.6609 63.2056Z" fill="#2B478B"/>
<path d="M86.4536 55.8096V61.5079C86.4536 63.5764 84.7825 65.2528 82.7206 65.2528H68.2486C66.1868 65.2528 64.5156 63.5764 64.5156 61.5079V55.7383L75.6967 59.443L86.4536 55.8096Z" fill="#2B478B"/>
<g opacity="0.9">
<g opacity="0.9">
<path opacity="0.9" fill-rule="evenodd" clip-rule="evenodd" d="M75.1782 68.8201C72.9801 68.8201 70.914 67.9612 69.3594 66.4022C67.8054 64.8432 66.9492 62.7699 66.9492 60.5648C66.9492 58.3597 67.8054 56.2871 69.3594 54.7275C70.9134 53.1685 72.9801 52.3096 75.1782 52.3096C77.3763 52.3096 79.4424 53.1685 80.997 54.7275C82.551 56.2865 83.4072 58.3597 83.4072 60.5648C83.4072 62.7699 82.551 64.8426 80.997 66.4022C79.443 67.9612 77.3763 68.8201 75.1782 68.8201ZM75.1782 53.2482C71.1566 53.2482 67.8849 56.5304 67.8849 60.5648C67.8849 64.5992 71.1566 67.8814 75.1782 67.8814C79.1998 67.8814 82.4715 64.5992 82.4715 60.5648C82.4715 56.5304 79.1998 53.2482 75.1782 53.2482Z" fill="#F99746"/>
</g>
<path opacity="0.9" d="M80.8759 60.6345L72.2031 66.5636V54.7061L80.8759 60.6351V60.6345Z" fill="#F99746"/>
</g>
<path d="M111.128 19.9992C111.283 21.0625 109.288 25.6783 108.765 26.4593C108.416 26.9802 106.688 27.4525 103.582 27.8774L103.344 27.3188C105.463 26.4461 106.713 25.8623 107.094 25.5662C107.664 25.1227 108.011 24.3249 108.406 22.1629C108.706 20.517 109.12 19.3033 109.648 18.5205C110.531 18.798 111.025 19.2907 111.128 19.9992Z" fill="#F4A269"/>
<path d="M98.238 44.3059C98.2798 44.762 97.6471 44.8729 96.9146 44.9094C96.1821 44.946 96.4032 45.0965 95.3994 45.2793C94.3951 45.4615 93.993 45.1864 93.9201 45.0497C93.8555 44.9292 94.3222 44.7398 94.8199 44.5264C94.8826 44.5001 94.9453 44.4725 95.0081 44.4449C95.5679 44.198 95.8822 43.6939 96.3189 43.227C96.5944 42.9321 96.8632 42.3123 97.1249 41.3677L98.4895 41.0752C98.2338 41.9251 98.0623 42.5317 97.9733 42.8943C97.8951 43.2144 98.0104 43.5722 98.1131 43.8449C98.1681 43.993 98.2243 44.1446 98.2386 44.3053L98.238 44.3059Z" fill="#FFB27D"/>
<path d="M96.9147 44.9092C96.1821 44.9458 96.4032 45.0963 95.3994 45.2791C94.3951 45.4613 93.993 45.1862 93.9201 45.0495C93.8555 44.929 94.3222 44.7396 94.8199 44.5262L94.8276 44.5346C95.2985 44.6953 95.8051 44.7013 96.3488 44.5526C97.0132 44.3716 97.6555 43.9736 98.1132 43.8447C98.1682 43.9928 98.2243 44.1444 98.2387 44.3051C98.2805 44.7612 97.6478 44.8721 96.9153 44.9086L96.9147 44.9092Z" fill="#C65447"/>
<path d="M113.226 27.0479C113.882 28.436 113.813 29.8308 113.019 31.2327C111.829 33.3359 103.962 32.3422 103.332 32.3763C102.701 32.4105 102.768 33.6764 102.491 35.0957C102.306 36.0415 100.902 38.3923 98.2793 42.1474C97.7637 42.2853 97.3891 42.3416 97.1555 42.3164C96.9039 42.2889 96.7217 42.2301 96.6094 42.1396C98.4346 33.7465 99.9164 29.19 101.055 28.4696C102.193 27.7491 105.784 27.6173 111.829 28.0734L113.227 27.0479H113.226Z" fill="#EF7E29"/>
<path d="M101.711 45.7678C101.752 46.2239 101.12 46.3348 100.387 46.3713C99.6547 46.4079 99.8758 46.5583 98.8721 46.7412C97.8677 46.9234 97.4656 46.6482 97.3927 46.5116C97.3282 46.3911 97.7948 46.2017 98.2925 45.9883C98.3552 45.962 98.418 45.9344 98.4807 45.9068C99.0406 45.6599 99.3548 45.1558 99.7916 44.6889C100.067 44.394 100.336 43.7742 100.598 42.8296L101.962 42.5371C101.706 43.387 101.535 43.9936 101.446 44.3562C101.368 44.6763 101.483 45.0341 101.586 45.3068C101.641 45.4549 101.697 45.6065 101.711 45.7672L101.711 45.7678Z" fill="#FFB27D"/>
<path d="M100.387 46.3701C99.6547 46.4067 99.8758 46.5572 98.872 46.74C97.8677 46.9222 97.4656 46.6471 97.3927 46.5104C97.3282 46.3899 97.7948 46.2005 98.2925 45.9871L98.3003 45.9955C98.7711 46.1562 99.2777 46.1622 99.8214 46.0135C100.486 45.8325 101.128 45.4345 101.586 45.3057C101.641 45.4537 101.697 45.6053 101.711 45.766C101.753 46.2221 101.12 46.333 100.388 46.3695L100.387 46.3701Z" fill="#C65447"/>
<path d="M115.948 32.4599C114.84 34.6081 106.941 33.9224 106.311 33.9812C105.682 34.0399 105.799 35.3022 105.577 36.7311C105.429 37.6835 104.117 40.087 101.642 43.9422C101.132 44.1005 100.76 44.1712 100.525 44.155C100.273 44.1376 100.089 44.0855 99.9727 43.9998C101.471 35.5419 102.775 30.9309 103.884 30.1667C104.993 29.4025 108.233 28.8924 113.603 28.6377C115.904 29.7543 116.686 31.0286 115.948 32.4605V32.4599Z" fill="#F99746"/>
<path d="M110.732 10.8543C111.089 10.6175 111.533 10.5648 111.846 10.5624C111.788 10.5108 111.707 10.4779 111.6 10.4653C111.727 10.4377 111.94 10.4779 112.235 10.587C114.852 9.36903 115.538 13.3088 115.544 14.2342C115.549 15.1596 115.612 16.2211 117.009 16.9584C118.84 17.9252 119.076 19.4051 117.718 21.3974C117.705 21.4064 117.095 22.2126 115.887 23.8159C115.906 23.0667 112.958 19.0934 111.092 18.0361C110.614 17.4223 110.384 16.2973 110.367 16.2092C110.502 17.104 110.689 17.5991 110.845 17.8742C109.238 16.5778 109.785 11.4824 110.733 10.8555L110.732 10.8543Z" fill="#B5453C"/>
<path d="M111.993 18.8205C110.503 19.0542 110.428 17.7931 111.138 17.4952C111.426 17.3747 111.93 17.2159 112.44 17.1673C112.94 17.12 113.44 17.12 113.94 17.1673C114.045 17.5414 113.482 18.5867 111.993 18.8205Z" fill="#FFB27D"/>
<path d="M111.276 17.0581C111.249 16.6643 111.206 16.2597 111.148 15.8438L113.108 15.3163L113.225 15.2852C113.322 16.8333 113.806 17.5118 113.864 17.7732C113.986 18.3234 112.605 19.1002 111.965 19.129C110.989 19.1721 111.193 18.092 111.202 18.0872C111.312 18.0267 111.31 17.5544 111.276 17.0587V17.0581Z" fill="#FFB27D"/>
<path d="M113.108 15.3164C112.905 15.896 112.385 16.9527 111.276 17.0582C111.249 16.6644 111.206 16.2598 111.148 15.8439L113.108 15.3164Z" fill="#F4A269"/>
<path d="M110.364 15.0754L110.133 14.4724C109.278 12.6983 109.89 11.9898 110.324 11.6517C110.688 11.3682 111.071 11.1926 111.473 11.1255C113.546 10.6849 113.971 12.7546 113.909 13.3246C113.851 13.8569 113.647 14.4443 113.3 15.0856L110.364 15.0748L110.364 15.0754Z" fill="#B5453C"/>
<path d="M109.746 13.1205C109.844 12.5631 110.129 11.9145 111.814 11.8996C113.5 11.8846 113.232 13.0084 113.34 14.6519C113.411 15.7476 112.569 16.3392 110.815 16.4279C110.127 16.4201 109.65 13.6779 109.747 13.1211L109.746 13.1205Z" fill="#FFB27D"/>
<path d="M113.605 11.5598C113.774 12.3378 113.962 13.1224 114.168 13.9129C113.862 14.1323 113.334 14.1719 112.585 14.031C111.836 13.8902 111.178 13.1931 110.613 11.9404C110.935 11.3044 111.932 11.178 113.605 11.5598H113.605Z" fill="#B5453C"/>
<path d="M110.803 12.084C110.463 12.3951 110.259 12.693 110.19 12.9777C110.087 13.4051 110.085 14.27 109.833 14.258C109.414 13.4087 109.39 12.7236 109.764 12.2021C110.16 11.6495 110.506 11.6099 110.803 12.0846V12.084Z" fill="#B5453C"/>
<path d="M109.274 27.2202C109.576 27.0439 109.841 26.8641 109.923 26.6837C109.987 26.5429 109.982 26.2324 109.939 25.8368C109.821 24.7196 109.408 22.9238 109.43 22.3502C109.451 21.8323 109.547 21.185 109.719 20.4082C109.013 20.2722 108.669 20.0606 108.687 19.7747C108.82 19.4372 109.491 18.2001 109.757 17.9142C109.933 17.7236 110.395 17.5839 111.142 17.4958C110.952 18.1977 111.266 18.5483 112.085 18.5483C112.904 18.5483 113.524 18.088 113.944 17.168C114.321 19.0944 114.646 20.8745 114.918 22.5084C114.935 22.6121 114.952 22.714 114.968 22.8159C115.174 24.0764 115.329 25.1793 115.329 25.645C115.329 26.4985 116.032 28.4621 116.368 29.876C116.582 30.7709 116.647 31.4458 116.295 31.4794C115.387 31.5651 112.286 29.6764 111.338 29.1172C110.92 28.8709 110.332 28.7546 109.773 28.6623C109.062 28.5448 108.397 28.4663 108.183 28.2109C107.931 27.9071 108.675 27.5708 109.274 27.2208L109.274 27.2202Z" fill="#1C468A"/>
<path d="M109.92 26.6842C109.984 26.5434 109.979 26.2329 109.936 25.8373C110.386 25.7324 110.997 25.5604 111.583 25.2996C112.328 24.9676 113.091 23.7886 113.872 21.7627L114.966 22.8164C115.173 24.0769 115.327 25.1798 115.327 25.6455C115.327 26.499 116.03 28.4626 116.366 29.8765C116.58 30.7714 116.645 31.4463 116.293 31.4799C115.385 31.5656 112.483 29.5391 111.534 28.9804C111.116 28.7341 108.592 28.3847 109.272 27.2213C109.574 27.045 109.839 26.8652 109.921 26.6848L109.92 26.6842Z" fill="#163560"/>
<path d="M114.278 18.0775C114.902 17.6975 115.515 17.8683 116.118 18.5888C117.022 19.6695 115.475 27.3955 114.135 27.7929C113.143 28.0866 111.214 28.0632 108.348 27.7222L108.431 27.0479C111.482 26.4611 113.071 26.0859 113.198 25.9222C113.388 25.6771 113.803 18.2022 114.279 18.0775H114.278Z" fill="#FFB27D"/>
<path d="M113.945 17.1676C115.225 17.2833 116.051 17.5524 116.423 17.975C116.795 18.3975 117.036 19.1809 117.144 20.3257C116.016 21.2386 114.773 21.5185 113.414 21.1636L113.944 17.167L113.945 17.1676Z" fill="#1C468A"/>
<path d="M105.359 28.083H107.896V28.3839H105.359V28.083Z" fill="#9E332E"/>
<path d="M101.009 28.2448L98.4336 24.6084H103.567C105.105 27.0317 105.882 28.276 105.899 28.3425L101.008 28.2448H101.009Z" fill="#9E332E"/>
<path d="M100.883 28.3829L98.4336 24.6074H103.344C104.887 27.0577 105.667 28.3164 105.683 28.3829H100.883Z" fill="#B5453C"/>
<path d="M101.53 26.2412C101.677 26.2412 101.836 26.3605 101.887 26.5079C101.938 26.6554 101.86 26.7747 101.713 26.7747C101.566 26.7747 101.406 26.6554 101.355 26.5079C101.305 26.3605 101.383 26.2412 101.53 26.2412Z" fill="#9E332E"/>
<path d="M108.588 27.5861C108.419 27.8031 107.483 27.8756 107.049 28.0201C106.617 28.1645 106.232 28.0441 106.136 27.8756C106.04 27.7066 106.977 26.8627 107.146 26.7907C107.258 26.7428 107.811 26.8147 108.804 27.0077C108.772 27.2487 108.7 27.4417 108.588 27.5861Z" fill="#FFB27D"/>
<path d="M13.4991 77.1377C16.7948 78.578 18.7414 79.2853 19.34 79.2589C19.9381 79.2325 22.0806 78.6697 25.7665 77.5692L25.6255 78.5235C22.7809 80.1646 20.8612 81.0319 19.8664 81.1254C18.3978 81.2632 13.3755 79.8031 12.8909 79.4951C12.4064 79.187 12.0897 77.45 13.4991 77.1377Z" fill="#ED985F"/>
<path d="M15.3933 71.6556C15.612 73.335 14.1362 74.7855 14.8156 75.4868C15.2679 75.9537 15.3641 76.4386 15.103 76.9403C15.0791 76.5999 14.9703 76.2762 14.7767 75.9705C15.4298 77.044 14.1004 79.4973 14.0926 81.9739C14.0879 83.6252 11.821 85.6145 7.29281 87.9425C7.16555 87.5104 7.04784 87.294 6.25141 86.9997C5.72086 86.8031 5.38568 86.2859 5.24587 85.4479C5.10248 85.8279 5.19807 86.2805 5.53325 86.8067C4.71531 85.8525 4.59343 84.8989 5.1682 83.9459C6.03035 82.5158 5.30621 82.2484 5.43885 79.0453C5.57089 75.8422 7.0574 76.1066 7.67399 75.4874C8.29059 74.8682 8.37901 70.7127 10.0244 69.5074C10.6297 69.0638 11.5408 68.9577 12.7561 69.1897C14.4368 69.2401 15.2434 70.503 15.3933 71.6562V71.6556Z" fill="#233862"/>
<path d="M14.1018 79.4964C13.6674 79.7985 13.1231 80.0478 12.4396 80.206C9.87763 80.8 8.89598 78.6279 8.52734 77.1366C8.87687 76.9358 9.20547 76.892 9.39547 76.8693C9.58069 76.8471 9.77546 76.8327 9.93678 76.8249C10.2242 76.6037 10.6531 75.6993 10.7481 74.2949L10.8688 74.3273L12.8877 74.8817C12.8262 75.3109 12.7802 75.7287 12.7497 76.1338C12.7144 76.6103 12.7091 77.0653 12.7993 77.1768C12.9044 77.1995 12.9881 77.2187 13.0514 77.2337C13.0514 77.2343 13.052 77.2349 13.0526 77.2355C13.0795 77.2799 13.6656 78.2467 14.1024 79.497L14.1018 79.4964Z" fill="#FFB27D"/>
<path d="M12.8827 74.8826C12.8206 75.3111 12.7752 75.7289 12.7447 76.1347C11.6012 76.0196 11.07 74.9275 10.8633 74.3281L12.8821 74.8826H12.8827Z" fill="#ED985F"/>
<path d="M13.2294 75.4867C11.4197 75.3866 10.5539 74.7716 10.634 73.6418C10.7535 71.9474 10.4834 70.7864 12.2215 70.8109C13.9601 70.8349 14.2511 71.5056 14.3485 72.081C14.4459 72.6564 13.9392 75.4825 13.2294 75.4867Z" fill="#FFB27D"/>
<path d="M14.705 73.0498C14.4445 73.0612 13.9946 72.372 13.8907 71.9302C13.8136 71.6054 13.5107 71.2583 13.3559 71.0971C13.2872 71.2943 12.6049 73.1535 11.1985 73.687C11.6436 73.3447 12.0385 72.9264 12.3826 72.4313C12.0971 72.713 11.7684 72.939 11.4141 73.0037C10.6404 73.1451 10.0961 73.1014 9.78125 72.8736C9.99395 72.0962 10.1893 71.3063 10.3686 70.5043C11.4661 70.0997 12.4896 70.2052 13.439 70.8214C13.6272 70.6811 13.9522 70.5918 14.3346 71.1319C14.7176 71.6713 14.8406 72.3108 14.7056 73.0492L14.705 73.0498Z" fill="#233862"/>
<path d="M7.75176 85.0345C7.5068 83.777 6.70738 78.7536 7.5068 77.137C7.79418 76.5563 8.92042 76.5041 10.1566 76.555C10.5414 76.8044 12.007 77.7454 12.6086 77.6279C12.6152 77.6267 12.6265 77.6237 12.6421 77.6201C12.9253 77.5488 13.0328 77.3492 12.7962 77.1772C12.7956 77.1766 13.4086 77.1179 14.1686 77.2617C14.4548 77.3157 14.9842 77.5434 15.7561 77.9438C15.3671 78.6487 14.8862 79.1222 14.3126 79.3655C14.459 80.6782 14.2415 81.2572 12.884 84.2882C12.1193 85.9965 12.1713 87.6196 13.0388 89.157C8.53804 92.7868 6.27541 93.6781 6.25032 91.8296C6.22224 89.7426 8.06424 86.6414 7.75117 85.0345H7.75176Z" fill="#B5453C"/>
<path d="M9.58765 90.6338C9.66592 89.6323 14.6261 80.0823 17.5812 80.1824C19.5517 80.249 20.1988 81.4148 19.5224 83.6786C19.1102 84.7263 17.5992 84.893 17.178 85.8202C15.4495 89.6275 15.1507 93.2016 14.3824 94.3686C14.3453 94.4249 14.3107 94.4777 14.2778 94.5262C14.0723 94.8343 13.7419 95.0363 13.375 95.0777C7.63331 95.7274 9.51177 91.6042 9.58765 90.6338Z" fill="#DD6D22"/>
<path d="M25.1234 95.0001H20.9166C20.8114 94.5512 20.8514 94.1741 21.0355 93.8691C21.2798 93.4639 21.186 93.2331 21.005 92.8975C21.1956 92.976 21.4423 93.0467 21.7136 93.0311C21.9233 93.0191 22.145 92.9238 22.3391 92.8105C22.5202 93.0173 23.2957 93.899 23.5377 94.0734C23.8125 94.2718 25.0385 94.2011 25.1228 94.9995L25.1234 95.0001Z" fill="#9E332E"/>
<path d="M12.8898 79.4937C15.7565 79.8994 14.7485 85.5444 11.1977 84.4973C8.83055 83.799 7.82919 81.7845 8.19424 78.4531C9.41309 78.8763 10.9779 79.2227 12.8892 79.4937H12.8898Z" fill="#9E332E"/>
<path d="M19.6173 81.1637C19.8706 83.0686 20.86 89.0815 22.6047 92.0155C23.1675 92.9613 21.1875 93.4918 21.1767 93.4888C20.9108 93.4192 20.4687 92.9943 20.265 92.8103C18.8483 91.5294 15.9727 87.9026 15.9727 84.9956C15.9727 83.578 15.9476 80.87 16.9753 80.182C17.608 79.7582 19.5169 80.4079 19.6173 81.1643V81.1637Z" fill="#ED7D2B"/>
<path d="M6.49688 90.634C6.81951 89.6834 12.4358 79.8655 15.3915 79.9656C17.3619 80.0321 17.8112 81.2765 16.7394 83.6985C16.3271 84.7463 15.1692 84.6186 14.748 85.5452C14.512 86.0649 14.2903 86.5858 14.0818 87.1C13.4055 88.7663 12.8642 90.3679 12.4077 91.6697C11.9733 92.9098 11.6154 93.8772 11.2916 94.3687C11.1106 94.6444 10.9678 94.8548 10.8638 94.9999C4.41946 95.9972 6.14317 91.6751 6.49688 90.634Z" fill="#F99746"/>
<path d="M22.0332 95.0001H17.8264C17.7219 94.5512 17.7613 94.1741 17.9453 93.8691C18.1897 93.4639 18.0959 93.2331 17.9149 92.8975C18.1055 92.976 18.3522 93.0467 18.6235 93.0311C18.8332 93.0191 19.0548 92.9238 19.249 92.8105C19.4301 93.0173 20.2056 93.899 20.4476 94.0734C20.7224 94.2718 21.9484 94.2011 22.0327 94.9995L22.0332 95.0001Z" fill="#B5453C"/>
<path d="M12.8865 84.2881C13.527 84.7334 13.9082 85.8381 14.085 87.1004C13.4087 88.7667 12.8674 90.3682 12.4109 91.67C11.6915 89.9696 11.8499 87.5092 12.8865 84.2881Z" fill="#ED7D2B"/>
<path d="M17.1634 81.0293C17.4168 82.9342 17.7734 89.0826 19.5187 92.016C20.0815 92.9618 18.1015 93.4923 18.0907 93.4893C17.8254 93.4198 17.3827 92.9948 17.179 92.8108C15.7624 91.5299 12.8867 87.9031 12.8867 84.9961C12.8867 83.5785 14.5453 80.9844 15.573 80.2963C16.2057 79.8725 17.0637 80.2735 17.164 81.0299L17.1634 81.0293Z" fill="#F99746"/>
<path d="M26.4939 75.4985L24.9189 79.2758C24.8741 79.3831 24.7672 79.4514 24.6513 79.4466L20.3763 79.2734C20.1863 79.2656 20.0603 79.0738 20.1278 78.8952L21.6693 74.832C21.7141 74.7133 21.833 74.6402 21.9585 74.654L26.2663 75.1131C26.4515 75.1329 26.565 75.3259 26.4933 75.4979L26.4939 75.4985Z" fill="#9E332E"/>
<path d="M26.8688 75.5376L25.2939 79.3148C25.2491 79.4221 25.1421 79.4904 25.0262 79.4857L20.7513 79.3124C20.5613 79.3046 20.4353 79.1128 20.5028 78.9342L22.0443 74.8711C22.0891 74.7524 22.208 74.6793 22.3334 74.6931L26.6412 75.1522C26.8264 75.172 26.9399 75.365 26.8682 75.537L26.8688 75.5376Z" fill="#B5453C"/>
<path d="M23.8984 77.3131C23.7538 77.3131 23.6791 77.1957 23.7317 77.0506C23.7843 76.9056 23.9444 76.7881 24.089 76.7881C24.2335 76.7881 24.3082 76.9056 24.2557 77.0506C24.2031 77.1957 24.043 77.3131 23.8984 77.3131Z" fill="#9E332E"/>
<path d="M26.3362 75.6659C26.2651 75.6659 26.2286 75.6084 26.2543 75.5371C26.28 75.4657 26.3589 75.4082 26.43 75.4082C26.5011 75.4082 26.5375 75.4657 26.5118 75.5371C26.4861 75.6084 26.4073 75.6659 26.3362 75.6659Z" fill="#9E332E"/>
<path d="M8.52671 77.1377C12.5071 78.608 14.7966 79.3284 15.3946 79.2985C15.7812 79.2787 17.5808 78.7027 20.794 77.5698L21.2266 78.391C18.0988 80.4073 16.1056 81.4107 15.2459 81.4011C12.6995 81.3717 8.40304 79.8037 7.91849 79.4957C7.43334 79.1876 7.11728 77.4506 8.52671 77.1383V77.1377Z" fill="#FFB27D"/>
<path d="M20.793 77.5692C21.0815 77.1239 21.3695 76.8949 21.6563 76.8818C22.0871 76.862 22.8315 77.1766 23.0861 77.2258C23.3406 77.2749 24.0653 77.5105 23.8496 77.8641C23.6339 78.2178 22.6356 78.2963 22.2048 78.2178C21.9174 78.1656 21.5912 78.2232 21.2255 78.3904L20.793 77.5692Z" fill="#FFB27D"/>
<path d="M21.5391 76.9026C21.9961 76.6922 22.2895 76.5675 22.4203 76.5285C22.6163 76.4698 22.5769 76.5297 22.5183 76.7155C22.4598 76.902 22.1073 77.0794 22.1073 77.1381C22.1073 77.1771 21.9179 77.0986 21.5397 76.9032L21.5391 76.9026Z" fill="#FFB27D"/>
<path d="M25.8084 78.0859C25.7164 78.1183 25.3848 77.7467 25.2868 77.3529C25.1954 76.9854 25.1954 76.4166 25.6262 76.5017C25.7206 76.5203 25.9118 76.7583 26.1998 77.215C26.3014 77.577 25.9005 78.0529 25.8084 78.0859Z" fill="#FFB27D"/>
<path d="M26.2147 77.3525C26.3067 77.865 26.1102 78.2552 25.625 78.5231L26.2147 77.3525Z" fill="#FFB27D"/>
<path d="M13.3251 74.7801C12.9702 74.7615 12.7796 74.6578 12.7539 74.4696C13.2355 74.4306 13.5617 74.445 13.7326 74.5127C13.6621 74.7015 13.5259 74.7909 13.3245 74.7801H13.3251Z" fill="white"/>
<path d="M11.6045 78.2259C11.2484 79.3563 10.4592 80.0504 9.23674 80.3075C7.21788 79.6836 6.71063 78.6814 7.71617 77.3016C8.71037 76.5608 10.0063 76.8689 11.6045 78.2259Z" fill="#B5453C"/>
<path d="M87.8515 85.7048H62.5078V84.2891H87.8515V85.7048Z" fill="#16254A"/>
</svg>
