<svg width="1917" height="343" viewBox="0 0 1917 343" fill="none" xmlns="http://www.w3.org/2000/svg">
<mask id="mask0_320_2477" style="mask-type:alpha" maskUnits="userSpaceOnUse" x="0" y="0" width="1917" height="343">
<path d="M0 343V0H1917V343H0Z" fill="url(#paint0_linear_320_2477)"/>
</mask>
<g mask="url(#mask0_320_2477)">
<path d="M1744.49 -151.36C1846.79 -109.74 1825.24 20.0502 1907.74 -6.77985C1990.24 -33.6098 2047.22 152.97 1888.8 220.98C1730.37 288.99 1829.52 31.3401 1709.74 122.5C1589.97 213.65 1559.81 42.4001 1572.24 -36.0698C1584.67 -114.54 1642.18 -192.98 1744.49 -151.37V-151.36Z" fill="#0353A7"/>
<path d="M1453.64 129.06C1553.86 82.6197 1634.08 186.91 1670.72 108.27C1707.37 29.6397 1882.68 115.21 1824.38 277.47C1766.08 439.71 1645.25 191.48 1630.23 341.24C1615.21 491.01 1469.4 396.27 1420.49 333.66C1371.58 271.06 1353.43 175.5 1453.64 129.06Z" fill="#0161CD"/>
<path d="M765.001 0C759.921 23.8 749.281 48.64 733.641 67.33C718.481 85.44 696.141 100.89 673.121 105.71C646.511 111.27 619.121 107.51 593.001 101.51C562.551 94.51 520.561 97.95 490.511 117.21C461.691 135.68 442.681 160.75 420.431 186.24C388.031 223.33 346.741 255.24 294.931 251.44C253.851 248.44 219.051 223.43 195.431 190.77C180.491 170.11 169.611 146.69 161.531 122.57C130.891 31.13 145.471 0.839996 145.471 0.839996L765.001 0Z" fill="#0161CD"/>
<path d="M1828.65 162.63C1803.45 178 1822.03 244.79 1799.98 251.23C1786.76 255.11 1775.64 232.39 1755.91 217.53C1748.16 211.69 1739.09 207.06 1728.04 205.73C1725.82 205.47 1723.63 205.35 1721.46 205.36C1714.95 205.428 1708.5 206.542 1702.35 208.66C1675.63 217.66 1655.46 242.16 1651.5 246.98C1649.7 249.17 1647.23 252.16 1644.51 255.8C1640.74 260.805 1637.32 266.064 1634.28 271.54C1628.8 281.5 1624.35 293.24 1624.32 305.36V305.61C1624.33 310.42 1625.05 315.31 1626.68 320.15C1630.8 332.42 1639.98 342.18 1651.54 349.42C1657.94 353.42 1665.05 356.66 1672.44 359.12C1685.85 363.59 1700.33 365.77 1714.46 364.69C1748.22 362.11 1758.86 340.96 1792.15 345.7C1812.07 348.54 1837.23 360.26 1839.08 375.78C1841.2 393.51 1810.93 399.48 1799.75 430.9C1792.77 450.52 1795.49 473.72 1804.25 489.09C1827.55 529.97 1906.28 537.69 1956.14 508.63C2005.64 479.77 2016.77 420.43 2018.46 382.15C2018.86 372.93 2018.72 364.93 2018.44 358.88C2018.27 354.857 2017.95 350.841 2017.5 346.84C2013.56 316.17 2001.94 287.81 1986.17 262.91C1946.24 199.85 1879.69 159.01 1843.93 159C1837.86 159 1832.67 160.18 1828.65 162.63Z" fill="url(#paint1_linear_320_2477)"/>
<path d="M16.7604 -108.01C33.6104 -109.95 75.9504 -105.81 110.79 -85.2504C145.63 -64.6904 162.78 -20.0904 161.24 11.6096C159.69 43.3096 170.12 68.0596 191.56 78.9796C213.01 89.9096 226.49 82.3496 248.75 79.5996C271 76.8396 325.89 92.0496 333.99 140.6C342.09 189.16 300.09 235.11 271.9 249.5C243.7 263.88 228.12 283.9 246.77 305.2C256.42 316.22 290.55 343.72 273.19 370.15C190.04 496.79 -59.8796 360.71 -103.34 193.25C-142.6 41.9596 -74.5896 -97.2904 16.7604 -108" fill="#2C8CF4"/>
</g>
<defs>
<linearGradient id="paint0_linear_320_2477" x1="1796.23" y1="132.039" x2="425.76" y2="158.248" gradientUnits="userSpaceOnUse">
<stop stop-color="#0161CD"/>
<stop offset="1" stop-color="#0353A7"/>
</linearGradient>
<linearGradient id="paint1_linear_320_2477" x1="1854.48" y1="300.99" x2="1624.32" y2="196.61" gradientUnits="userSpaceOnUse">
<stop stop-color="#1273EB"/>
<stop offset="1" stop-color="#2C8CF4"/>
</linearGradient>
</defs>
</svg>
