<svg width="606" height="392" viewBox="0 0 606 392" fill="none" xmlns="http://www.w3.org/2000/svg">
<path d="M498.538 73.1172H495.305V61.7544H498.538V73.1172Z" fill="#6A5F50"/>
<path d="M550.171 73.1172H546.938V61.7544H550.171V73.1172Z" fill="#6A5F50"/>
<path d="M488.557 61.875H556.92V56.7166H488.557V61.875Z" fill="#977F71"/>
<path d="M531.076 42.3652L531.126 42.0497C531.147 41.9451 531.171 41.8065 531.194 41.6627C531.23 41.4517 531.399 40.5487 531.399 40.5487C531.502 40.0179 531.613 39.4496 531.738 38.8708C532.092 37.2164 532.465 35.7625 532.843 34.551L532.867 34.4769V34.4612C532.944 34.2189 533.023 33.9826 533.107 33.7499L533.138 33.6602C533.552 32.4826 533.972 31.5813 534.387 30.9807C534.499 30.8221 534.613 30.6739 534.731 30.551C534.824 30.4533 534.918 30.3732 535.011 30.3043C535.713 29.8057 536.561 29.3856 537.54 28.8992L538.289 28.5253L539.404 27.9422V27.9325C541.243 26.9118 543.507 25.3708 545.615 22.4682C545.711 23.9979 545.567 26.7768 543.823 29.5573L543.794 29.6087L543.628 29.8606C543.505 30.0454 543.376 30.2294 543.235 30.4133L543.128 30.5553C542.287 31.6388 541.238 32.6255 540.006 33.491C539.402 33.912 538.798 34.3627 538.164 34.8682C538.164 34.8682 537.797 35.1646 537.637 35.2971C537.388 35.5037 537.204 35.6597 537.029 35.8157C536.175 36.5558 535.371 37.3402 534.643 38.1421C534.559 38.2302 534.476 38.3208 534.395 38.415L534.334 38.4864C534.093 38.7584 533.872 39.0251 533.662 39.2831L533.546 39.4261V39.4348C532.886 40.2672 532.319 41.0979 531.859 41.9076C531.859 41.9076 531.66 42.2711 531.61 42.3652H531.076Z" fill="#479C59"/>
<path d="M545.945 21.0619C543.657 24.6679 541.134 26.4103 538.886 27.6262V27.6288C538.727 27.7116 538.572 27.7936 538.42 27.8729C538.298 27.9365 538.176 28.0036 538.054 28.0647C536.784 28.7071 535.632 29.2283 534.697 29.8925C534.584 29.9771 534.469 30.0747 534.357 30.1941C534.222 30.3344 534.091 30.5018 533.96 30.6875C533.47 31.397 533.022 32.4142 532.62 33.5717V33.5752C532.526 33.8367 532.437 34.1043 532.349 34.3797V34.385V34.3885V34.3972C531.914 35.7927 531.539 37.3311 531.231 38.7632C531.103 39.3629 530.987 39.9504 530.881 40.4987V40.5013C530.81 40.8831 530.74 41.2457 530.683 41.583C530.661 41.7199 530.637 41.8506 530.613 41.9761V41.9822C530.6 42.0738 530.582 42.1653 530.571 42.2533C530.53 42.4782 530.497 42.6882 530.467 42.8809H531.925C532.008 42.7135 532.105 42.5279 532.215 42.3265L532.306 42.1618C532.709 41.4548 533.278 40.5867 534.061 39.6157V39.6096C534.285 39.3324 534.523 39.0457 534.786 38.7537V38.7502C534.862 38.6613 534.941 38.5767 535.023 38.4878C535.681 37.7634 536.458 36.9929 537.372 36.2006C537.543 36.0481 537.722 35.8964 537.908 35.7404C538.097 35.5852 538.285 35.4301 538.481 35.2749L538.484 35.2714C539.047 34.8234 539.65 34.3667 540.302 33.9125C541.728 32.911 542.815 31.8267 543.644 30.7293V30.7267C543.824 30.4922 543.984 30.2577 544.14 30.0198L544.144 30.0172L544.26 29.8315C546.587 26.1209 546.188 22.4443 546.005 21.3722L545.999 21.3329C545.968 21.156 545.945 21.0619 545.945 21.0619ZM545.093 23.9688C544.996 25.4454 544.59 27.3613 543.385 29.2824L543.369 29.3076L543.355 29.3338L543.348 29.346L543.276 29.4549L543.272 29.461L543.112 29.692V29.7025C543.011 29.8472 542.918 29.9762 542.824 30.0991L542.68 30.2882C541.877 31.3115 540.878 32.2459 539.712 33.0653C539.103 33.4898 538.491 33.9465 537.842 34.4634L537.786 34.507L537.785 34.5087C537.605 34.6534 537.428 34.799 537.246 34.9489C537.051 35.111 536.862 35.2714 536.696 35.4205C535.818 36.1805 534.998 36.9799 534.268 37.7844C534.176 37.8829 534.088 37.9779 534.004 38.0764L533.945 38.1444C533.7 38.4215 533.475 38.6944 533.26 38.9576L533.029 39.2487V39.2557C532.597 39.8083 532.205 40.3618 531.854 40.9118L531.896 40.6878L531.902 40.6556C532.005 40.1247 532.117 39.5564 532.241 38.9794C532.593 37.3398 532.961 35.9016 533.334 34.7049L533.371 34.5759C533.443 34.3545 533.515 34.1374 533.592 33.9256L533.653 33.7521V33.7478C534.041 32.6556 534.429 31.8241 534.804 31.2819C534.917 31.1215 535.015 30.9986 535.106 30.9036L535.296 30.7336C535.976 30.2499 536.805 29.8393 537.763 29.3643C538.01 29.2414 538.263 29.1159 538.516 28.9878C538.604 28.9433 538.694 28.8962 538.783 28.8483L538.896 28.789L539.116 28.674L539.362 28.5458L539.918 28.2529V28.2338C541.481 27.343 543.311 26.0747 545.093 23.9688Z" fill="#8FC992"/>
<path d="M532.41 41.9824C532.805 41.3104 533.344 40.5067 534.062 39.6159V39.6098C534.286 39.3326 534.524 39.0458 534.786 38.7538V38.7504C534.863 38.6615 534.941 38.5769 535.023 38.488C534.941 38.5769 534.863 38.6615 534.786 38.7504V38.7538C534.525 39.0458 534.286 39.3326 534.062 39.6098V39.6159C533.344 40.5067 532.805 41.3104 532.41 41.9824Z" fill="#E4C9C1"/>
<path d="M531.855 40.9121L531.897 40.6881L531.903 40.6559C531.907 40.6332 531.911 40.6105 531.916 40.587C533.599 37.6827 536.03 33.3044 537.787 29.3532C538.027 29.2338 538.272 29.1127 538.517 28.988C538.605 28.9436 538.695 28.8965 538.784 28.8486L538.897 28.7893L539.117 28.6742L539.363 28.5461L539.919 28.2532V28.2341C541.482 27.3432 543.312 26.075 545.094 23.9691C545.061 24.4755 544.991 25.0334 544.866 25.6252C544.494 26.3862 544.018 27.0556 543.41 27.5411C540.78 29.6304 538.554 32.0693 536.544 35.5532C535.724 36.2741 534.957 37.0272 534.269 37.7847C534.177 37.8832 534.09 37.9782 534.005 38.0767L533.946 38.1446C533.701 38.4218 533.476 38.6947 533.261 38.9579L533.03 39.249V39.256C532.598 39.8086 532.206 40.3621 531.855 40.9121Z" fill="#3F8B51"/>
<path d="M532.411 41.9824H531.1C531.343 41.571 531.617 41.102 531.915 40.5869C531.911 40.6104 531.907 40.6331 531.902 40.6558L531.897 40.688L531.855 40.912C532.206 40.362 532.598 39.8085 533.029 39.2559V39.2489L533.26 38.9578C533.476 38.6946 533.701 38.4217 533.946 38.1445L534.005 38.0766C534.089 37.9781 534.177 37.8831 534.269 37.7846C534.957 37.0271 535.724 36.274 536.544 35.5532C536.187 36.1738 535.835 36.8266 535.49 37.5161C535.317 37.8639 535.161 38.1873 535.024 38.488C534.942 38.5769 534.863 38.6615 534.787 38.7504V38.7538C534.524 39.0458 534.286 39.3326 534.062 39.6098V39.6159C533.344 40.5067 532.805 41.3104 532.411 41.9824ZM537.787 29.3532C538.01 28.8511 538.222 28.3569 538.421 27.8731C538.573 27.7938 538.728 27.7118 538.887 27.629V27.6264C541.135 26.4105 543.657 24.6681 545.945 21.0621C545.945 21.0621 545.969 21.1562 545.999 21.3331C545.834 22.7278 545.504 24.3142 544.866 25.6251C544.991 25.0333 545.061 24.4754 545.094 23.969C543.312 26.0749 541.482 27.3432 539.919 28.234V28.2531L539.363 28.546L539.117 28.6741L538.897 28.7892L538.784 28.8485C538.695 28.8964 538.605 28.9435 538.517 28.9879C538.272 29.1126 538.027 29.2337 537.787 29.3532Z" fill="#7EB383"/>
<path d="M514.972 42.3652C514.105 39.6649 511.711 31.9866 510.255 25.1485C509.205 20.2342 508.835 16.7162 509.154 14.6905C509.943 9.71954 510.004 4.39554 509.971 1.70303C511.836 4.5873 515.909 11.9283 517.607 23.1742C518.148 26.7515 518.228 34.028 518.228 38.0471C518.228 39.0626 518.222 39.9726 518.216 40.7231C518.212 41.4326 518.204 41.9957 518.197 42.3652H514.972Z" fill="#479C59"/>
<path d="M509.414 0.000347137C509.414 0.000347137 509.429 0.332428 509.442 0.923405C509.49 3.16527 509.515 9.11773 508.643 14.61C508.273 16.9669 508.832 20.9608 509.749 25.2553C511.251 32.3052 513.715 40.1605 514.596 42.8809H518.703C518.704 42.8469 518.724 42.031 518.732 40.727C518.738 39.9748 518.745 39.0639 518.745 38.0467C518.745 33.3921 518.641 26.5593 518.117 23.0963C515.841 8.02642 509.414 0.000347137 509.414 0.000347137ZM510.491 3.54008C512.523 7.05891 515.658 13.7305 517.096 23.2506C517.632 26.7929 517.712 34.0415 517.712 38.0467C517.712 39.0613 517.705 39.9687 517.699 40.7201C517.697 41.1585 517.692 41.5377 517.688 41.848H515.349C514.403 38.8835 512.151 31.5757 510.758 25.0401C509.723 20.1868 509.354 16.7324 509.663 14.7712C510.305 10.7277 510.468 6.46009 510.491 3.54008Z" fill="#8FC992"/>
<path d="M516.912 32.8672C515.385 26.1407 513.759 18.5914 512.692 12.544C512.135 9.37902 511.252 6.0589 510.543 3.6305C512.577 7.17199 515.671 13.8104 517.097 23.2503C517.21 24.0026 517.304 24.9222 517.38 25.942C517.023 27.7969 516.884 29.6691 516.884 31.4638C516.884 31.9371 516.894 32.4061 516.912 32.8672Z" fill="#3F8B51"/>
<path d="M517.381 25.9414C517.305 24.9216 517.211 24.002 517.098 23.2497C515.672 13.8098 512.577 7.1714 510.544 3.62991C509.911 1.45864 509.416 -0.000480652 509.416 -0.000480652C509.416 -0.000480652 515.843 8.0256 518.118 23.0955C517.807 24.0316 517.565 24.9835 517.381 25.9414Z" fill="#7EB383"/>
<path d="M527.172 42.3652C527.421 35.5734 529.159 29.0997 532.341 23.1133L532.401 22.9973C535.206 17.7605 538.44 14.2181 540.126 12.5672L540.321 12.3763C539.938 14.4552 539.36 18.2957 539.502 21.9287C539.549 23.1202 539.025 25.0535 537.945 27.6763C535.774 32.9663 531.895 39.6483 530.273 42.3652H527.172Z" fill="#2D5B3D"/>
<path d="M541.138 10.9395C541.138 10.9395 540.614 11.3631 539.765 12.1972C537.967 13.958 534.707 17.5588 531.884 22.8679V22.8705C529.161 27.9941 526.845 34.6987 526.639 42.8809H530.565L530.665 42.7135C532.258 40.048 536.201 33.2858 538.421 27.8729C539.42 25.448 540.072 23.2976 540.018 21.9082C539.813 16.6967 541.138 10.9395 541.138 10.9395ZM539.54 13.9013C539.204 16.0787 538.872 19.0763 538.986 21.9492C539.015 22.7163 538.776 24.2992 537.465 27.4807C535.379 32.5676 531.684 38.9803 529.979 41.848H527.71C528.026 35.3298 529.735 29.1141 532.796 23.356L532.881 23.1931C535.186 18.902 537.778 15.7684 539.54 13.9013Z" fill="#487A57"/>
<path d="M529.978 41.8477H528.633C528.754 41.553 528.882 41.2357 529.014 40.8975C530.129 38.0612 532.187 33.3936 532.186 27.0759C532.186 26.3193 532.155 25.5392 532.092 24.7355C532.317 24.2727 532.552 23.8124 532.795 23.3557L532.88 23.1927C534.607 19.9772 536.496 17.412 538.075 15.5423C537.001 17.7571 536.023 19.9842 535.642 21.4416C534.625 25.3317 535.002 26.7298 534.357 30.1938C534.034 31.9292 533.059 35.2153 532.166 38.0629C531.307 39.5909 530.536 40.9089 529.978 41.8477Z" fill="#295136"/>
<path d="M530.905 41.9824H528.578C528.596 41.938 528.615 41.8935 528.633 41.8482H529.978C530.536 40.9094 531.307 39.5915 532.166 38.0635C531.683 39.6019 531.224 41.0132 530.905 41.9824ZM532.092 24.736C532.043 24.1276 531.974 23.5062 531.883 22.8707V22.8681C534.707 17.5589 537.966 13.9581 539.764 12.1974C539.222 13.2364 538.635 14.3879 538.076 15.5428C536.496 17.4125 534.607 19.9778 532.881 23.1933L532.795 23.3562C532.552 23.813 532.317 24.2732 532.092 24.736Z" fill="#406C4E"/>
<path d="M518.938 42.3652L518.924 42.3164C518.87 42.1395 518.816 41.9399 518.761 41.7176V41.5476L518.758 41.5354L518.699 41.484C518.645 41.2687 518.58 41.009 518.516 40.7344L518.446 40.4102C517.969 38.2938 517.402 35.0321 517.402 31.4644C517.402 28.4294 517.809 25.6689 518.61 23.2597C518.795 22.6861 519.013 22.1161 519.258 21.5635C519.342 21.3752 519.429 21.1878 519.518 21.0004L520.253 19.5177C520.771 18.4657 521.204 17.5617 521.566 16.7947C521.727 16.4521 521.878 16.1288 522.01 15.8376C522.01 15.8376 522.155 15.5256 522.189 15.4462C522.338 15.1185 522.468 14.823 522.583 14.558C522.774 16.4129 523.109 18.9093 523.636 20.6081C523.71 20.8548 523.792 21.0901 523.876 21.2985C523.924 21.4179 523.972 21.5321 524.025 21.6358C524.091 21.7674 524.146 21.9121 524.199 22.0638C524.645 23.3547 524.609 25.2889 524.083 28.3335L524.076 28.3762V28.4216C523.721 30.4473 523.126 33.0726 522.268 36.3692L521.746 38.3592C521.596 38.9127 521.442 39.481 521.278 40.0676L521.258 40.1365V40.1522C521.093 40.7562 520.917 41.3803 520.736 42.0245L520.64 42.3652H518.938Z" fill="#2D5B3D"/>
<path d="M522.905 12.3314C522.905 12.3314 522.725 13.0017 521.711 15.2444C521.659 15.3664 521.598 15.4911 521.537 15.6244C521.406 15.9138 521.257 16.2346 521.095 16.5754C520.736 17.3399 520.303 18.2411 519.789 19.2862C519.594 19.6759 519.39 20.0908 519.171 20.5292C519.131 20.6085 519.088 20.694 519.048 20.7785C518.957 20.9711 518.868 21.1629 518.783 21.3547C518.53 21.9238 518.308 22.5061 518.116 23.097C517.203 25.848 516.883 28.7444 516.883 31.4648C516.883 35.0412 517.44 38.309 517.937 40.5143C517.961 40.6302 517.985 40.7435 518.01 40.8525C518.077 41.1357 518.144 41.4042 518.204 41.6474L518.235 41.7607V41.7633L518.238 41.7694L518.241 41.7755V41.7816C518.304 42.0379 518.366 42.2662 518.426 42.4676V42.4702L518.46 42.5949C518.488 42.6986 518.519 42.7962 518.542 42.8816H520.877L520.985 42.8965L521.028 42.8816C521.287 41.9586 521.537 41.0747 521.768 40.231L521.772 40.2075C521.942 39.5947 522.104 39.0037 522.259 38.4276V38.4249C522.436 37.7581 522.606 37.1183 522.765 36.503V36.5003C523.644 33.1183 524.233 30.493 524.589 28.4307V28.422C525.17 25.0496 525.122 23.1668 524.684 21.8942C524.623 21.7199 524.559 21.556 524.483 21.4035C524.437 21.3119 524.395 21.2108 524.352 21.1054C524.273 20.9101 524.196 20.6905 524.126 20.456C523.386 18.0703 523.03 13.9797 522.932 12.7158C522.915 12.4726 522.905 12.3314 522.905 12.3314ZM522.286 16.4682C522.486 17.9587 522.765 19.5504 523.137 20.7515C523.216 21.0182 523.303 21.2683 523.392 21.488C523.447 21.6231 523.501 21.7495 523.56 21.8646C523.605 21.9578 523.653 22.0755 523.708 22.2306C524.117 23.4204 524.075 25.3328 523.571 28.2459L523.558 28.3365C523.194 30.418 522.608 33.0042 521.765 36.2397L521.732 36.3705V36.3722C521.609 36.8464 521.48 37.3345 521.346 37.8383L521.261 38.1608L521.242 38.234C521.094 38.7832 520.939 39.3471 520.776 39.9303L520.739 40.0662V40.081C520.582 40.652 520.416 41.2412 520.246 41.8488H519.324L519.274 41.6535V41.338L519.166 41.2334C519.117 41.0399 519.067 40.835 519.017 40.6285L518.944 40.2876C518.474 38.2035 517.915 34.9802 517.915 31.4648C517.915 28.4873 518.312 25.7817 519.099 23.4161C519.28 22.8582 519.492 22.3056 519.727 21.7739C519.809 21.59 519.893 21.4069 519.985 21.2134L520.094 20.9912L520.422 20.3313L520.715 19.743C521.233 18.6909 521.668 17.7844 522.029 17.0173C522.118 16.8273 522.205 16.6434 522.286 16.4682Z" fill="#487A57"/>
<path d="M520.247 41.8477H519.325L519.275 41.6524V41.3368L519.167 41.2323C519.118 41.0388 519.068 40.8339 519.019 40.6274L518.945 40.2865C518.656 39.0026 518.333 37.2855 518.127 35.3339C518.157 34.8048 518.198 34.2696 518.252 33.7326C518.815 28.128 520.816 22.9199 521.806 20.3634C522.061 19.7053 522.271 18.682 522.441 17.527C522.623 18.6828 522.853 19.8317 523.138 20.7504C523.217 21.0171 523.305 21.2672 523.393 21.4869C523.448 21.622 523.502 21.7484 523.561 21.8635C523.606 21.9567 523.654 22.0744 523.709 22.2295C523.84 22.6104 523.925 23.0654 523.963 23.6041C523.329 25.1208 522.769 26.5224 522.342 27.6956C521.895 28.9142 521.569 30.2304 521.328 31.5666V31.5736C521.16 32.5211 521.036 33.4772 520.948 34.4212C520.773 36.2308 520.728 37.9793 520.746 39.4811C520.746 39.665 520.749 39.8472 520.751 40.025L520.74 40.0651V40.0799C520.583 40.6509 520.418 41.2401 520.247 41.8477Z" fill="#295136"/>
<path d="M520.824 41.9824H518.295C518.278 41.917 518.261 41.8499 518.243 41.7811V41.7749L518.241 41.7689L518.237 41.7628V41.7601L518.207 41.6468C518.08 39.9419 517.994 37.7 518.128 35.3344C518.334 37.286 518.657 39.0031 518.947 40.2871L519.02 40.6279C519.07 40.8345 519.119 41.0393 519.168 41.2328L519.276 41.3374V41.6529L519.327 41.8482H520.248C520.419 41.2406 520.584 40.6514 520.741 40.0805V40.0657L520.753 40.0256C520.753 40.0439 520.754 40.0631 520.754 40.0814C520.769 40.7883 520.795 41.4307 520.824 41.9824ZM523.965 23.6046C523.926 23.066 523.841 22.611 523.71 22.2301C523.655 22.0749 523.607 21.9573 523.562 21.864C523.504 21.7489 523.45 21.6225 523.395 21.4874C523.306 21.2678 523.219 21.0176 523.139 20.7509C522.854 19.8322 522.624 18.6834 522.442 17.5276C522.671 15.9769 522.83 14.1883 522.934 12.7152C523.032 13.9791 523.389 18.0697 524.129 20.4554C524.198 20.6899 524.275 20.9095 524.354 21.1048C524.397 21.2103 524.44 21.3114 524.485 21.4029C524.561 21.5554 524.625 21.7193 524.686 21.8936C524.552 22.2039 524.424 22.5116 524.297 22.8158C524.184 23.0817 524.073 23.3449 523.965 23.6046Z" fill="#406C4E"/>
<path d="M521.362 42.3652C521.325 41.7551 521.289 40.9758 521.269 40.0711L521.263 39.4818C521.243 37.7429 521.31 36.0589 521.462 34.4716C521.552 33.5058 521.679 32.5618 521.837 31.6641L521.846 31.6196V31.5743C522.091 30.245 522.425 28.9715 522.827 27.8741C523.286 26.6129 523.939 24.9794 524.77 23.0174C524.913 22.68 525.033 22.3906 525.16 22.0978C525.422 21.478 525.692 20.8522 525.967 20.2237C525.967 20.2237 526.402 19.2274 526.604 18.769L526.68 18.6818L526.681 18.5911C528.231 15.081 529.83 11.6049 530.866 9.37873C530.815 10.348 530.761 11.5299 530.713 12.833C530.711 12.8923 530.557 18.531 531.124 21.4676C531.22 21.9644 531.304 22.456 531.372 22.9406C532.493 30.7758 530.176 36.5871 528.792 40.0598L528.534 40.7091C528.288 41.3402 528.057 41.898 527.857 42.3652H521.362Z" fill="#6CB82F"/>
<path d="M531.532 6.73018C531.532 6.73018 528.791 12.5336 526.165 18.4791L526.161 18.4913C525.937 19.0003 525.713 19.5085 525.492 20.0176C525.218 20.6478 524.947 21.2753 524.685 21.8942C524.551 22.2045 524.423 22.5122 524.295 22.8164C523.524 24.6355 522.841 26.323 522.342 27.6967C521.895 28.9153 521.569 30.2315 521.327 31.5677V31.5747C521.16 32.5222 521.035 33.4783 520.947 34.4223C520.773 36.2319 520.728 37.9804 520.746 39.4822C520.746 39.6862 520.749 39.8876 520.752 40.0819C520.776 41.209 520.828 42.1712 520.878 42.8668V42.8816L520.986 42.8965L521.029 42.8816H528.197C528.425 42.3543 528.708 41.6814 529.014 40.8986C530.363 37.4652 533.095 31.3489 531.883 22.8713V22.8687C531.813 22.3754 531.727 21.8759 531.63 21.3695C531.112 18.6865 531.203 13.5683 531.228 12.8561V12.8526C531.329 10.1174 531.458 7.90603 531.511 7.08059C531.524 6.85221 531.532 6.73018 531.532 6.73018ZM530.228 11.9871C530.216 12.2582 530.206 12.5362 530.195 12.8213C530.194 12.8762 530.032 18.5349 530.616 21.5656C530.71 22.052 530.786 22.5035 530.85 22.9419V22.9454L530.861 23.0178C531.961 30.7118 529.676 36.4428 528.312 39.8666L528.05 40.5238C527.879 40.9658 527.702 41.4034 527.515 41.8488H521.849C521.824 41.3441 521.799 40.7409 521.785 40.0662C521.781 39.8762 521.779 39.6801 521.779 39.4692C521.757 37.7599 521.824 36.0959 521.975 34.5191C522.064 33.5681 522.189 32.6372 522.345 31.7542L522.356 31.6836C522.604 30.3239 522.925 29.1036 523.313 28.0498C523.77 26.7928 524.42 25.1672 525.246 23.2174L525.326 23.0256C525.427 22.7868 525.529 22.5453 525.636 22.2969C525.897 21.6815 526.166 21.0566 526.447 20.4098C526.642 19.9653 526.836 19.5207 527.032 19.0753L527.198 18.9045V18.697C528.253 16.3113 529.326 13.9474 530.228 11.9871Z" fill="#9FD848"/>
<path d="M527.515 41.8477H521.849C521.849 41.8381 521.849 41.8285 521.848 41.8197C523.356 39.7932 526.526 35.1848 527.67 30.8388C529.193 25.051 528.66 21.2437 529.27 16.7504C529.457 15.3627 529.807 13.6918 530.201 12.0453C530.209 12.0252 530.219 12.0051 530.228 11.986C530.216 12.257 530.206 12.5351 530.195 12.8202C530.194 12.8751 530.032 18.5338 530.616 21.5645C530.71 22.0509 530.786 22.5024 530.85 22.9408V22.9443L530.86 23.0166C531.961 30.7107 529.676 36.4417 528.312 39.8655L528.05 40.5227C527.879 40.9647 527.702 41.4022 527.515 41.8477Z" fill="#60A632"/>
<path d="M528.58 41.9824H521.729C521.768 41.9301 521.808 41.8761 521.85 41.8203C521.851 41.829 521.851 41.8386 521.851 41.8482H527.517C527.704 41.4028 527.881 40.9652 528.052 40.5233L528.314 39.866C529.678 36.4422 531.963 30.7112 530.862 23.0172L530.852 22.9448V22.9413C530.788 22.5029 530.712 22.0514 530.618 21.565C530.034 18.5343 530.196 12.8756 530.197 12.8207C530.208 12.5357 530.218 12.2576 530.23 11.9865C530.221 12.0057 530.211 12.0257 530.203 12.0458C530.638 10.2223 531.128 8.42757 531.513 7.08001C531.46 7.90545 531.331 10.1168 531.23 12.8521V12.8555C531.222 13.0796 531.208 13.7394 531.208 14.6215C531.209 16.5461 531.277 19.5288 531.632 21.3689C531.729 21.8753 531.815 22.3748 531.885 22.8681V22.8707C532.095 24.3447 532.187 25.7472 532.187 27.0764C532.188 33.3941 530.13 38.0617 529.015 40.8981C528.863 41.2886 528.716 41.6512 528.58 41.9824Z" fill="#8EC640"/>
<path d="M514.033 42.3789C513.951 42.168 513.857 41.9405 513.748 41.6938L513.649 41.4558C513.176 40.4012 512.6 39.3352 511.935 38.2735V38.1889L511.813 38.0809C511.6 37.7418 511.367 37.3896 511.114 37.0323C510.332 35.9122 509.449 34.8052 508.49 33.7427L507.799 32.9904H507.793C507.654 32.8449 507.214 32.396 507.214 32.396C506.673 31.8547 506.104 31.3169 505.52 30.7965C504.255 29.6703 503.183 28.3829 502.331 26.9683L502.279 26.8776C502.129 26.6231 501.986 26.3703 501.855 26.1167V26.1088L501.685 25.7811C499.908 22.182 499.766 18.5918 499.872 16.5896C501.979 20.2549 504.247 22.1908 506.079 23.4721V23.4756L506.306 23.6325C506.594 23.8268 506.875 24.0151 507.149 24.1903C507.41 24.3594 507.666 24.5216 507.918 24.6811C508.462 25.0245 508.976 25.3496 509.453 25.6878C510.467 26.4095 512.85 28.4152 513.726 31.9236C514.533 35.1574 515.779 39.6018 517.55 42.3789H514.033Z" fill="#6CB82F"/>
<path d="M499.533 14.8722C499.533 14.8722 499.505 15.01 499.472 15.2654C499.289 16.6243 498.891 21.2936 501.218 26.0057C501.255 26.0816 501.294 26.1609 501.336 26.2402L501.34 26.2463C501.488 26.5453 501.656 26.8434 501.832 27.1415V27.145C502.661 28.5405 503.748 29.9133 505.174 31.1842C505.826 31.763 506.432 32.3417 506.993 32.9109V32.9144H506.996C507.194 33.1158 507.38 33.3075 507.569 33.5054V33.5089H507.571C507.754 33.7067 507.931 33.8985 508.105 34.0902C509.126 35.2199 509.979 36.3103 510.691 37.331C510.953 37.7032 511.193 38.0684 511.413 38.4188L511.416 38.4241C512.202 39.6618 512.769 40.7609 513.171 41.657L513.259 41.8671V41.8697C513.43 42.2567 513.567 42.5984 513.676 42.8965H518.544C516.347 40.1186 514.852 34.3125 514.225 31.7996C513.182 27.6296 510.116 25.5298 509.75 25.2683C509.045 24.7689 508.26 24.2973 507.426 23.7578C507.155 23.5843 506.878 23.3978 506.594 23.206V23.2034C504.389 21.692 501.919 19.5329 499.667 15.1346C499.621 15.0492 499.578 14.9603 499.533 14.8722ZM500.375 18.3797C502.165 21.04 504.005 22.6272 505.561 23.7412V23.7543L506.015 24.0611C506.306 24.2581 506.59 24.449 506.865 24.6251C507.129 24.795 507.387 24.9589 507.64 25.1193C508.181 25.4601 508.691 25.7826 509.182 26.1321C510.119 26.7981 512.388 28.7087 513.222 32.0497C513.967 35.0272 515.078 39.022 516.643 41.8644H514.379C514.331 41.7468 514.28 41.6273 514.227 41.507L514.214 41.4766L514.159 41.3432L514.112 41.2334C513.652 40.2083 513.092 39.1624 512.446 38.1242L512.446 37.99L512.225 37.7703C511.999 37.413 511.768 37.0669 511.537 36.74C510.742 35.6008 509.844 34.4755 508.87 33.3973C508.782 33.2988 508.692 33.2012 508.602 33.1018V33.0913L508.328 32.8055L508.021 32.476H508.013L507.804 32.2624L507.732 32.1901L507.726 32.1831C507.63 32.0872 507.535 31.9905 507.438 31.8946L507.425 31.8815C506.919 31.3794 506.394 30.887 505.861 30.4137C504.663 29.345 503.641 28.1265 502.824 26.7876L502.722 26.6159C502.586 26.3875 502.47 26.1809 502.369 25.9909V25.9796L502.253 25.7643L502.187 25.6335L502.182 25.6292L502.143 25.549C500.857 22.9437 500.454 20.3427 500.375 18.3797Z" fill="#9FD848"/>
<path d="M516.644 41.8633H514.379C514.331 41.7456 514.28 41.6262 514.227 41.5059L514.214 41.4754L514.159 41.342L514.112 41.2322C513.652 40.2072 513.092 39.1612 512.447 38.1231L512.446 37.9888L512.225 37.7692C511.999 37.4118 511.768 37.0657 511.537 36.7389C510.742 35.5996 509.844 34.4744 508.87 33.3962C508.782 33.2977 508.692 33.2 508.602 33.1007V33.0902L508.328 32.8043L508.021 32.4748H508.013L507.804 32.2613L507.732 32.1889L507.726 32.1819C507.63 32.0861 507.535 31.9893 507.438 31.8934L507.425 31.8804C506.92 31.3783 506.394 30.8858 505.861 30.4125C504.663 29.3439 503.641 28.1253 502.824 26.7865L502.722 26.6147C502.586 26.3864 502.47 26.1798 502.369 25.9898V25.9785L502.253 25.7631L502.187 25.6324L502.182 25.6281L502.143 25.5479C500.864 22.9565 500.459 20.3685 500.377 18.41C501.286 22.0282 502.853 26.4657 505.333 28.3589C508.094 30.4683 512.49 35.6703 515.491 39.3965C515.844 40.2725 516.229 41.1084 516.644 41.8633Z" fill="#60A632"/>
<path d="M517.542 41.9824H513.308C513.292 41.9449 513.276 41.9074 513.259 41.8691V41.8665L513.17 41.6564C512.769 40.7604 512.201 39.6612 511.416 38.4235L511.412 38.4183C511.193 38.0679 510.953 37.7026 510.691 37.3304C509.979 36.3098 509.125 35.2193 508.105 34.0897C507.931 33.8979 507.754 33.7061 507.571 33.5083H507.568V33.5048C507.379 33.3061 507.194 33.1152 506.996 32.9138H506.993V32.9103C506.432 32.3412 505.826 31.7624 505.174 31.1836C505.052 31.0747 504.932 30.9648 504.814 30.8541C503.563 29.6765 502.59 28.4196 501.833 27.1444V27.1409C501.667 26.862 501.51 26.5822 501.368 26.3015C501.358 26.2832 501.348 26.2641 501.34 26.2458L501.336 26.2396C501.293 26.1603 501.254 26.081 501.218 26.0052C499.668 22.8664 499.327 19.7467 499.326 17.6121C499.325 16.5417 499.411 15.718 499.472 15.2648C499.505 15.0094 499.533 14.8716 499.533 14.8716C499.578 14.9597 499.621 15.0486 499.667 15.134C499.833 16.0423 500.067 17.1789 500.376 18.4105C500.458 20.3691 500.864 22.957 502.142 25.5484L502.182 25.6286L502.187 25.633L502.252 25.7637L502.368 25.979V25.9903C502.469 26.1804 502.585 26.3869 502.721 26.6153L502.823 26.787C503.641 28.1259 504.662 29.3445 505.861 30.4131C506.393 30.8864 506.919 31.3789 507.425 31.8809L507.438 31.894C507.534 31.9899 507.629 32.0866 507.725 32.1825L507.731 32.1895L507.804 32.2618L508.013 32.4754H508.021L508.328 32.8049L508.601 33.0908V33.1012C508.692 33.2006 508.782 33.2982 508.87 33.3967C509.843 34.4749 510.741 35.6002 511.537 36.7394C511.768 37.0663 511.999 37.4124 512.225 37.7698L512.445 37.9894L512.446 38.1237C513.092 39.1618 513.652 40.2077 514.112 41.2328L514.159 41.3426L514.214 41.476L514.227 41.5065C514.279 41.6268 514.331 41.7462 514.379 41.8638H516.643C516.228 41.109 515.844 40.2731 515.491 39.3971C516.294 40.3934 516.997 41.2842 517.542 41.9824Z" fill="#8EC640"/>
<path d="M534.523 43.892C534.523 44.4002 534.504 44.8944 534.467 45.3756C534.389 46.3379 534.236 47.2549 534.01 48.1265C533.874 48.6591 533.712 49.1742 533.523 49.6772C533.2 50.5418 532.807 51.3612 532.347 52.1378C532.259 52.2903 532.168 52.4394 532.073 52.5858C531.714 53.1463 531.324 53.6885 530.898 54.2088C530.334 54.9035 529.712 55.5616 529.043 56.1927C529.043 56.1927 527.474 57.0391 522.685 57.0391C517.897 57.0391 516.325 56.1927 516.325 56.1927C515.688 55.5921 515.094 54.9646 514.553 54.3065C514.126 53.7922 513.729 53.2587 513.373 52.7018C513.251 52.5161 513.135 52.3296 513.023 52.1378C512.56 51.3612 512.166 50.5418 511.844 49.6772C511.658 49.1742 511.494 48.6591 511.36 48.1265C511.125 47.2156 510.968 46.256 510.894 45.2475C510.858 44.7628 510.839 44.2669 510.848 43.7604C510.852 43.1825 510.881 42.5916 510.936 41.9823H534.434C534.495 42.6369 534.523 43.274 534.523 43.892Z" fill="#965055"/>
<path d="M532.35 52.1378C532.262 52.2903 532.17 52.4394 532.075 52.5858C531.716 53.1463 531.326 53.6885 530.9 54.2088C530.336 54.9035 529.715 55.5616 529.045 56.1927C529.045 56.1927 527.476 57.0391 522.688 57.0391C517.9 57.0391 516.327 56.1927 516.327 56.1927C515.69 55.5921 515.096 54.9646 514.555 54.3065C514.129 53.7922 513.731 53.2587 513.376 52.7018C513.254 52.5161 513.138 52.3296 513.025 52.1378H532.35Z" fill="#CD747F"/>
<path d="M532.289 52.2402C532.309 52.2062 532.328 52.1731 532.348 52.1391C532.809 51.3625 533.201 50.5432 533.524 49.6785C533.713 49.1755 533.875 48.6604 534.011 48.1278C534.237 47.2562 534.39 46.3392 534.468 45.3769C534.505 44.8958 534.524 44.4015 534.524 43.8934C534.524 44.4015 534.505 44.8958 534.468 45.3769C534.39 46.3392 534.237 47.2562 534.011 48.1278C533.875 48.6604 533.713 49.1755 533.524 49.6785C533.189 50.5806 532.775 51.434 532.289 52.2402Z" fill="#F0D2CA"/>
<path d="M532.35 52.1387H522.178C525.197 48.721 525.973 44.5554 526.139 41.9832H534.437C534.498 42.6378 534.525 43.2749 534.525 43.8929C534.525 44.4011 534.506 44.8953 534.47 45.3764C534.391 46.3387 534.239 47.2557 534.013 48.1274C533.876 48.6599 533.715 49.1751 533.526 49.678C533.202 50.5427 532.81 51.362 532.35 52.1387Z" fill="#8C4C4F"/>
<path d="M522.687 57.0391C517.899 57.0391 516.326 56.1927 516.326 56.1927C518.875 55.1615 520.77 53.7312 522.177 52.1378H532.349C532.329 52.1718 532.31 52.2049 532.289 52.2389C532.219 52.3557 532.147 52.4717 532.074 52.5858C531.715 53.1463 531.325 53.6885 530.899 54.2088C530.335 54.9035 529.714 55.5616 529.044 56.1927C529.044 56.1927 527.475 57.0391 522.687 57.0391Z" fill="#C26F78"/>
<path d="M75.0566 50.4746C63.6119 50.4746 54.3008 41.1637 54.3008 29.7182C54.3008 18.2743 63.6119 8.96255 75.0566 8.96255C86.5013 8.96255 95.8122 18.2743 95.8122 29.7182C95.8122 41.1637 86.5013 50.4746 75.0566 50.4746Z" fill="white"/>
<path d="M95.8107 29.7183C95.8107 41.1638 86.4998 50.4747 75.0551 50.4747C63.6104 50.4747 54.2992 41.1638 54.2992 29.7183C54.2992 18.2745 63.6104 8.96267 75.0551 8.96267C86.4998 8.96267 95.8107 18.2745 95.8107 29.7183ZM98.5215 29.7183C98.5215 16.7578 88.0156 6.25185 75.0551 6.25185C62.0946 6.25185 51.5879 16.7578 51.5879 29.7183C51.5879 42.6787 62.0946 53.1855 75.0551 53.1855C88.0156 53.1855 98.5215 42.6787 98.5215 29.7183Z" fill="#515156"/>
<path d="M75.0549 47.1169C74.4796 47.1169 74.0098 47.5876 74.0098 48.162V50.3611C74.0098 50.9356 74.4796 51.4062 75.0549 51.4062C75.6293 51.4062 76.1 50.9356 76.1 50.3611V48.162C76.1 47.5876 75.6293 47.1169 75.0549 47.1169Z" fill="#515156"/>
<path d="M75.0549 7.22627C74.4796 7.22627 74.0098 7.6961 74.0098 8.27139V10.4705C74.0098 11.045 74.4796 11.5156 75.0549 11.5156C75.6293 11.5156 76.1 11.045 76.1 10.4705V8.27139C76.1 7.6961 75.6293 7.22627 75.0549 7.22627Z" fill="#515156"/>
<path d="M92.8555 29.3162C92.8555 29.8915 93.3262 30.3613 93.9014 30.3613H96.0997C96.675 30.3613 97.1448 29.8915 97.1448 29.3162C97.1448 28.7418 96.675 28.2711 96.0997 28.2711H93.9014C93.3262 28.2711 92.8555 28.7418 92.8555 29.3162Z" fill="#515156"/>
<path d="M52.9648 29.3162C52.9648 29.8915 53.4357 30.3613 54.0101 30.3613H56.2094C56.7838 30.3613 57.2543 29.8915 57.2543 29.3162C57.2543 28.7418 56.7838 28.2711 56.2094 28.2711H54.0101C53.4357 28.2711 52.9648 28.7418 52.9648 29.3162Z" fill="#515156"/>
<path d="M75.0559 29.0409C74.926 29.0409 74.797 29.0783 74.6846 29.1516L66.0553 34.7972C65.7415 35.0012 65.6535 35.4213 65.8592 35.7351C66.064 36.048 66.4842 36.1352 66.7971 35.9303L74.3778 30.9715V44.7906C74.3778 45.1645 74.6811 45.4688 75.0559 45.4688C75.4299 45.4688 75.7332 45.1645 75.7332 44.7906V29.7181C75.7332 29.4697 75.5972 29.2405 75.3784 29.1228C75.2773 29.0679 75.1666 29.0409 75.0559 29.0409Z" fill="#515156"/>
<path d="M75.056 32.416C73.5681 32.416 72.3574 31.2062 72.3574 29.7174C72.3574 28.2295 73.5681 27.0197 75.056 27.0197C76.5439 27.0197 77.7546 28.2295 77.7546 29.7174C77.7546 31.2062 76.5439 32.416 75.056 32.416Z" fill="#515156"/>
<path d="M169.207 55.3262V26.982H218.505V55.3262H169.207Z" fill="#E1DAC9"/>
<path d="M221.158 24.3307H166.555V57.9805H221.158V24.3307ZM215.852 29.6363V52.6748H171.86V29.6363H215.852Z" fill="white"/>
<path d="M166.554 57.9804V24.3306H221.157V57.9804H166.554ZM224.272 21.2154H163.438V61.0957H224.272V21.2154Z" fill="#977F71"/>
<path d="M203.832 98.1152V73.5096H228.206V98.1152H203.832Z" fill="#E1DAC9"/>
<path d="M230.857 70.8571H201.18V100.768H230.857V70.8571ZM225.553 76.162V95.4628H206.485V76.162H225.553Z" fill="white"/>
<path d="M201.179 100.768V70.8571H230.856V100.768H201.179ZM233.972 67.741H198.062V103.883H233.972V67.741Z" fill="#977F71"/>
<path d="M160.602 98.1152V73.5096H184.974V98.1152H160.602Z" fill="#E1DAC9"/>
<path d="M187.625 70.8571H157.947V100.768H187.625V70.8571ZM182.32 76.162V95.4628H163.252V76.162H182.32Z" fill="white"/>
<path d="M157.948 100.768V70.8571H187.626V100.768H157.948ZM190.742 67.741H154.832V103.883H190.742V67.741Z" fill="#977F71"/>
<path d="M302.663 391.387C135.506 391.387 0 362.607 0 362.607C0 362.607 32.5556 355.692 85.4398 348.64L83.9057 355.012H88.3807L90.423 347.984C93.9819 347.521 97.6306 347.057 101.359 346.595C102.561 347.021 103.915 347.207 105.352 347.207C108.695 347.207 112.488 346.2 115.857 344.864C127.471 343.528 139.754 342.234 152.647 341.029L152.196 350.701C152.872 350.965 153.598 351.151 154.362 351.267L152.886 359.039L191.359 359.028C192.55 355.092 186.132 352.992 180.387 350.653L180.386 350.643L180.358 350.634C177.16 349.329 173.942 347.964 171.561 346.942C172.248 346.567 172.881 346.192 173.447 345.829C173.447 345.829 173.711 343.331 174.142 339.155C197.432 337.272 222.33 335.738 248.403 334.808L248.271 346.965L263.233 347.948C263.233 347.948 264.303 342.31 265.749 334.285C271.389 334.146 277.086 334.037 282.818 333.959L282.63 334.749L285.283 336.151L296.34 342.003C296.34 342.003 297.574 338.866 299.523 333.83C300.572 333.827 301.612 333.826 302.663 333.826C469.819 333.826 605.326 362.607 605.326 362.607C605.326 362.607 469.819 391.387 302.663 391.387Z" fill="#F3F6FA"/>
<path d="M358.649 328.416C339.549 328.416 320.444 327.637 302.37 326.441C305.168 319.137 308.604 310.063 311.918 301.024C327.11 300.167 342.879 299.635 358.649 299.635C385.909 299.635 411.46 301.223 433.423 303.344C432.631 305.205 430.217 310.947 429.912 312.526C429.891 312.636 429.88 312.725 429.88 312.791C429.88 314.008 429.88 316.176 429.88 316.176C429.88 316.176 435.259 317.979 440.975 317.979C444.557 317.979 448.269 317.272 450.877 314.971C450.877 314.971 450.891 314.807 450.891 314.51C450.891 314.001 450.851 313.1 450.634 311.973C450.425 310.855 450.046 309.516 449.365 308.111L450.241 305.139C484.949 309.201 507.253 314.025 507.253 314.025C507.253 314.025 440.721 328.416 358.649 328.416ZM284.915 325.138C278.982 324.648 273.216 324.122 267.648 323.576C268.746 317.258 269.888 310.462 270.865 304.164C272.24 304.033 273.619 303.904 275.017 303.776L273.99 308.347L276.814 308.996L278.048 303.503C282.05 303.146 286.143 302.803 290.301 302.48L284.915 325.138ZM248.55 321.545C216.198 317.842 194.404 314.025 194.404 314.025C194.404 314.025 216.274 310.196 248.715 306.488L248.55 321.545Z" fill="#F0F6FC"/>
<path d="M325.299 312.75H328.187L331.13 173.354H328.241L325.299 312.75Z" fill="#5E5D62"/>
<path d="M273.988 308.348L276.812 308.996L307.289 173.39L304.464 172.742L273.988 308.348Z" fill="#5E5D62"/>
<path d="M385.55 308.348L382.727 308.996L352.25 173.389L355.074 172.742L385.55 308.348Z" fill="#5E5D62"/>
<path d="M262.799 171.66H395.366L397.849 13.6685H265.282L262.799 171.66Z" fill="#91CEBB"/>
<path d="M273.279 161.348H383.962L386.035 18.1304H275.353L273.279 161.348Z" fill="white"/>
<path d="M259.457 175.59H398.911L399.203 171.045H259.534L259.457 175.59Z" fill="#767E81"/>
<path d="M262.172 18.8574H400.961L401.461 9.37216H262.294L262.172 18.8574Z" fill="#767E81"/>
<path d="M273.279 17.1367H389.941L390.359 9.37296H273.381L273.279 17.1367Z" fill="white"/>
<path d="M260.217 171.66H392.784L395.267 13.6685H262.7L260.217 171.66Z" fill="#C2EADD"/>
<path d="M270.693 158.732H381.376L383.45 18.1301H272.767L270.693 158.732Z" fill="white"/>
<path d="M256.877 175.59H396.331L396.622 171.045H256.954L256.877 175.59Z" fill="#9AA2A3"/>
<path d="M259.59 18.8574H398.381L398.879 9.37216H259.712L259.59 18.8574Z" fill="#9AA2A3"/>
<path d="M270.693 17.1367H387.355L387.775 9.37296H270.795L270.693 17.1367Z" fill="white"/>
<path d="M375.979 140.699H282.271V24.7923H284.015V138.956H375.979V140.699Z" fill="#D2D2D4"/>
<path d="M342.047 28.2793H290.031V24.7927H342.047V28.2793Z" fill="#D2D2D4"/>
<path d="M324.813 34.1621H290.031V30.6755H324.813V34.1621Z" fill="#D2D2D4"/>
<path d="M316.039 40.0449H290.031V36.5583H316.039V40.0449Z" fill="#D2D2D4"/>
<path d="M331.818 45.9297H290.031V42.4431H331.818V45.9297Z" fill="#D2D2D4"/>
<path d="M327.741 51.8125H290.031V48.3259H327.741V51.8125Z" fill="#D2D2D4"/>
<path d="M361.326 115.064L367.911 124.17C369.772 122.634 371.212 120.614 372.07 118.312L361.326 115.064Z" fill="#D2D2D4"/>
<path d="M366.871 102.018L360.422 112.969L372.576 116.643C372.814 115.625 372.953 114.572 372.953 113.482C372.953 108.712 370.541 104.508 366.871 102.018Z" fill="#D2D2D4"/>
<path d="M358.778 114.513L346.305 118.747C348.377 123.78 353.326 127.326 359.107 127.326C361.824 127.326 364.351 126.532 366.49 125.179L358.778 114.513Z" fill="#D2D2D4"/>
<path d="M358.522 112.761L365.366 101.143C363.485 100.187 361.364 99.6373 359.11 99.6373C351.463 99.6373 345.264 105.836 345.264 113.483C345.264 114.734 345.445 115.941 345.757 117.094L358.522 112.761Z" fill="#D2D2D4"/>
<path d="M290.758 114.262L300.266 99.9136L321.978 97.011L350.216 80.0375L367.396 57.1298L366.002 56.0838L349.025 78.7196L321.39 95.3305L299.249 98.2906L289.305 113.299L290.758 114.262Z" fill="#D2D2D4"/>
<path d="M291.724 110.868C293.008 111.61 293.449 113.251 292.707 114.535C291.967 115.819 290.325 116.258 289.042 115.517C287.758 114.776 287.318 113.135 288.059 111.851C288.8 110.568 290.441 110.128 291.724 110.868Z" fill="#9AA2A3"/>
<path d="M301.317 97.0093C302.601 97.7502 303.041 99.3915 302.299 100.675C301.558 101.959 299.917 102.399 298.633 101.658C297.35 100.916 296.91 99.2756 297.651 97.9917C298.393 96.7077 300.033 96.2684 301.317 97.0093Z" fill="#9AA2A3"/>
<path d="M323.544 93.6324C324.827 94.3733 325.268 96.0146 324.526 97.2985C323.785 98.5816 322.144 99.0217 320.86 98.2808C319.577 97.5391 319.136 95.8986 319.877 94.6147C320.619 93.3308 322.26 92.8915 323.544 93.6324Z" fill="#9AA2A3"/>
<path d="M350.331 77.398C351.614 78.1389 352.054 79.7802 351.313 81.0641C350.572 82.3472 348.931 82.7874 347.647 82.0465C346.364 81.3047 345.924 79.6643 346.664 78.3803C347.405 77.0964 349.047 76.6571 350.331 77.398Z" fill="#9AA2A3"/>
<path d="M368.03 54.2828C369.314 55.0237 369.753 56.665 369.012 57.9489C368.271 59.2319 366.63 59.6721 365.346 58.9312C364.062 58.1895 363.623 56.5482 364.363 55.2651C365.105 53.9812 366.747 53.541 368.03 54.2828Z" fill="#9AA2A3"/>
<path d="M404.002 297.921L403.565 300.992C403.565 300.992 396.098 304.698 394.88 304.739C393.662 304.781 378.921 301.92 381.026 315.936L417.589 314.689L416.835 297.484L404.002 297.921Z" fill="#3C393D"/>
<path d="M429.879 312.79C429.879 314.008 429.879 316.176 429.879 316.176C429.879 316.176 444.106 320.944 450.876 314.97C450.876 314.97 450.975 313.753 450.633 311.973C450.19 309.594 448.973 306.219 445.732 303.333L444.437 295.732L433.673 298.432V302.757C433.673 302.757 430.276 310.634 429.911 312.525C429.89 312.636 429.879 312.725 429.879 312.79Z" fill="#3C393D"/>
<path d="M441.528 169.3L446.677 298.291L431.501 299.646L418.307 194.741V299.646H401.421L396.951 169.841L441.528 169.3Z" fill="#302F2F"/>
<path d="M429.879 312.79C429.879 314.008 429.879 316.176 429.879 316.176C429.879 316.176 444.106 320.944 450.876 314.97C450.876 314.97 450.975 313.753 450.633 311.973C441.174 317.017 430.542 312.781 429.911 312.525C429.89 312.636 429.879 312.725 429.879 312.79Z" fill="#302F2F"/>
<path d="M417.588 314.689L417.254 311.262L380.828 312.942L381.024 315.936L417.588 314.689Z" fill="#302F2F"/>
<path d="M351.996 145.996C351.996 145.996 381.119 153.04 385.166 150.912C389.214 148.783 399.964 130.832 399.964 130.832L391.857 120.353L378.967 140.451L352.894 139.315L351.996 145.996Z" fill="#F5ACA6"/>
<path d="M352.077 146.088C352.077 146.088 345.756 145.265 342.862 144.391C340.913 143.719 336.533 141.178 335.107 139.708C334.134 139.358 332.645 133.536 332.935 132.557C332.956 131.573 333.848 131.321 334.708 132.659C336.418 135.326 336.932 137.037 336.932 137.037L341.584 140.565C341.584 140.565 338.292 141.54 337.746 140.654C337.199 139.767 336.643 132.737 337.278 131.978C337.912 131.221 339.729 132.245 339.795 133.906C339.795 133.906 339.909 132.289 340.491 132.004C341.073 131.717 341.707 132.092 342.082 134.277C342.082 134.277 342.705 133.058 343.432 133.137C344.916 133.499 344.973 138.125 345.243 138.461C345.512 138.796 351.34 136.696 354.056 141.586C356.771 146.475 352.077 146.088 352.077 146.088Z" fill="#F5ACA6"/>
<path d="M339.795 133.827C339.686 134.745 339.731 135.659 339.79 136.572C339.897 137.477 339.992 138.403 340.352 139.262C340.208 137.439 340.134 135.639 339.795 133.827Z" fill="#E26682"/>
<path d="M342.084 134.198C342.002 134.954 342.078 135.7 342.166 136.444C342.297 137.179 342.438 137.929 342.794 138.605C342.627 137.113 342.471 135.661 342.084 134.198Z" fill="#E26682"/>
<path d="M417.216 107.527C417.216 107.527 390.902 151.144 386.995 152.827C383.088 154.509 351.951 151.264 351.951 151.264L352.893 138.06L378.679 137.473L392.061 104.118C392.061 104.118 405.222 95.1065 417.216 107.527Z" fill="#3B507A"/>
<path d="M378.627 137.475L379.094 136.442L378.68 137.473L378.627 137.475Z" fill="#EFF0F0"/>
<path d="M387.625 149.078C385.249 141.2 382.517 137.672 379.118 137.672C378.922 137.672 378.723 137.684 378.521 137.707L378.627 137.475L378.68 137.473L379.094 136.442L381.591 130.919C380.73 134.365 380.767 135.191 382.441 135.842C387.384 137.765 387.479 143.862 387.625 149.078Z" fill="#364A70"/>
<path d="M450.901 196.959L443.51 197.56L441.166 197.743L421.807 198.711L417.587 186.116L415.234 198.24L390.287 198.031L390.697 189.419L393.425 132.178L391.612 106.43L391.517 105.096L391.342 102.542C391.342 102.542 403.118 93.2333 417.561 90.6096C439.064 92.1611 449.341 102.237 449.341 102.237C449.341 102.237 449.132 104.504 448.713 108.295C447.999 114.841 446.709 125.885 444.931 137.522C444.896 137.8 444.765 138.28 444.739 138.942C444.695 139.727 444.704 140.755 444.747 142.01V142.063C444.782 142.839 444.826 143.693 444.896 144.634C444.896 144.634 444.896 144.669 444.905 144.756C446.248 165.249 450.901 196.959 450.901 196.959Z" fill="#3B507A"/>
<path d="M390.695 189.42L393.424 132.179L391.611 106.431L391.516 105.097L395.101 126.445L395.586 149.952L390.695 189.42Z" fill="#364A70"/>
<path d="M444.746 142.064V142.064V142.013H444.753L444.746 142.064Z" fill="#EACFC6"/>
<path d="M444.715 142.07L444.747 142.012V142.062V142.063L444.715 142.07Z" fill="#364A70"/>
<path d="M471.713 100.826C471.794 100.595 471.65 90.0648 471.65 90.0648L480.485 89.4293L480.72 101.061L471.713 100.826Z" fill="#F5ACA6"/>
<path d="M481.855 90.9285C481.855 90.9285 483.206 88.6161 483.114 86.2731C482.886 84.0975 482.165 82.7386 482.165 82.7386L470.355 80.128C470.355 80.128 469.104 87.4463 469.286 87.6294C469.467 87.8115 473.041 92.9603 473.041 92.9603C473.041 92.9603 478.659 93.7675 481.855 90.9285Z" fill="#EF9A98"/>
<path d="M470.041 83.5215L469.392 86.7309C469.392 86.7309 466.619 86.0031 465.569 84.9797C463.918 83.3733 460.976 84.55 461.217 85.3118C461.458 86.0737 469.691 92.9692 474.551 93.0625C474.551 93.0625 476.283 91.402 475.545 89.0695C474.808 86.7352 470.041 83.5215 470.041 83.5215Z" fill="#EF9A98"/>
<path d="M475.546 89.0691C475.746 89.701 475.768 90.2885 475.682 90.7993C475.468 92.1748 474.549 93.0586 474.549 93.0586C470.603 92.9801 464.425 88.4145 462.121 86.2999C461.708 85.9181 461.412 85.6191 461.283 85.4404L461.213 85.3071C460.974 84.5505 463.92 83.3729 465.571 84.9811C466.625 86.0009 469.394 86.7261 469.394 86.7261L470.045 83.5211C470.045 83.5211 474.809 86.7331 475.546 89.0691Z" fill="#EF9A98"/>
<path d="M475.68 90.8657C476.307 92.847 474.548 93.125 474.548 93.125C470.602 93.0466 464.423 88.4809 462.12 86.3654C461.707 85.9845 461.41 85.6847 461.281 85.506C461.675 85.1625 462.522 84.8949 462.923 84.8043C464.169 84.5201 465.497 85.7736 465.497 85.7736C465.497 85.7736 467.032 86.8152 469.518 87.2458C472.012 87.6737 474.073 88.6134 475.68 90.8657Z" fill="#F5ACA6"/>
<path d="M473.127 78.6247C474.159 78.4643 475.131 78.3771 476.767 79.166C478.205 79.1921 479.262 79.5173 480.207 80.3035C481.238 80.7655 482.011 81.2762 482.289 81.7678C482.972 83.0221 482.454 84.5031 481.799 86.0302L481.806 86.0345L481.76 86.1287C481.701 86.2577 481.641 86.3588 481.581 86.4625C481.279 87.0038 480.709 87.8842 480.117 88.0376C479.255 88.2599 479.052 87.0195 479.024 87.0186C478.996 87.0186 478.39 88.2224 477.591 88.4429C476.791 88.6643 475.977 87.138 475.977 87.138C475.977 87.138 475.622 88.0855 474.839 88.2686C474.057 88.4516 473.552 86.8338 473.387 86.8077" fill="#F5ACA6"/>
<path d="M473.126 81.0128C473.266 81.0233 473.364 80.8951 473.439 80.9021L473.652 80.9204C474.143 75.9093 474.706 69.4531 473.676 69.5603C472.179 69.7154 470.976 75.6696 470.396 79.8178C470.373 79.9808 469.414 86.5722 469.393 86.7299C469.917 86.8877 471.824 87.6225 472.488 86.315C472.927 85.4512 473.108 83.0211 473.126 81.0128Z" fill="#F5ACA6"/>
<path d="M479.023 87.0195C479.049 86.4076 479.161 85.8132 479.268 85.2178C479.4 84.6269 479.525 84.035 479.738 83.4615C479.714 84.0734 479.601 84.6678 479.494 85.2632C479.362 85.8542 479.236 86.4451 479.023 87.0195Z" fill="#E17F80"/>
<path d="M475.977 87.1387C475.991 86.301 476.092 85.4756 476.187 84.6484C476.31 83.8255 476.425 83.001 476.629 82.1886C476.615 83.0263 476.513 83.8517 476.418 84.6789C476.295 85.5017 476.18 86.3263 475.977 87.1387Z" fill="#E17F80"/>
<path d="M475.481 135.943C484.611 134.634 483.763 92.9033 483.763 92.9033L469.033 94.3868L469.279 120.167L475.481 135.943Z" fill="#3B507A"/>
<path d="M475.481 135.944C475.219 136.032 474.827 136.066 474.322 136.04C469.562 135.788 454.874 130.575 445.644 127.132C441.041 125.424 437.799 124.151 437.799 124.151C438.287 106.893 444.145 101.915 444.145 101.915L473.554 117.989L475.481 135.944Z" fill="#3B507A"/>
<path d="M474.322 136.039C469.687 135.793 455.64 130.844 446.383 127.406C446.133 127.313 445.887 127.222 445.644 127.131L444.99 120.349L474.322 136.039Z" fill="#364A70"/>
<path d="M470.89 129.244L467.403 125.538C465.933 123.059 465.238 120.446 466.563 117.775C467.362 116.165 466.922 115.093 463.965 113.127L469.381 115.842C468.235 121.412 470.89 129.244 470.89 129.244Z" fill="#364A70"/>
<path d="M416.562 131.867L416.655 149.952L416.988 168.036L417.238 177.078L417.595 186.119L417.741 177.076L417.78 168.033L417.689 149.947L417.358 131.863L417.108 122.821L416.749 113.781L416.602 122.824" fill="#34436E"/>
<path d="M430.006 91.9531L429.116 95.967C429.116 95.967 428.779 96.9084 428.194 98.4477C426.259 103.494 421.596 114.937 417.088 120.113C412.451 110.397 410.893 102.87 410.372 98.9157C410.106 96.9153 410.501 95.9574 410.501 95.9574C410.501 95.9574 410.267 92.5101 410.267 91.6576C410.267 90.8051 410.236 84.7437 410.236 84.7437L418.303 86.0233L428.22 76.6906C428.22 76.6906 428.142 77.4053 428.084 78.4897C427.986 80.049 427.914 82.3667 428.116 84.4386C428.227 85.5944 428.473 86.8095 428.753 87.913C429.311 90.161 430.006 91.9531 430.006 91.9531Z" fill="#F5ACA6"/>
<path d="M410.236 92.5273V86.7693L410.247 86.771C410.255 88.6163 410.267 91.1301 410.267 91.6566C410.267 91.8396 410.278 92.1438 410.295 92.5081C410.275 92.5143 410.256 92.5204 410.236 92.5273Z" fill="#F1A3AB"/>
<path d="M410.333 93.2441C410.3 93.2206 410.268 93.1971 410.236 93.1744V92.5285C410.256 92.5216 410.275 92.5154 410.295 92.5093C410.305 92.7351 410.318 92.9853 410.333 93.2441Z" fill="#905E7F"/>
<path d="M418.295 96.1719C414.901 96.1719 411.894 94.3658 410.332 93.244C410.318 92.9852 410.305 92.735 410.294 92.5092C410.277 92.1449 410.266 91.8407 410.266 91.6576C410.266 91.1312 410.255 88.6173 410.246 86.7721L418.302 88.0438L428.083 78.4897C428.031 79.3178 427.987 80.3603 427.987 81.4664C427.987 82.4426 428.021 83.4677 428.116 84.4387C428.226 85.5945 428.472 86.8095 428.752 87.913C425.613 94.297 421.754 96.1719 418.295 96.1719Z" fill="#ED8995"/>
<path d="M429.558 98.4215C428.045 102.396 424.83 123.278 421.434 129.487C419.83 132.436 418.128 135.124 416.446 137.053C415.407 134.871 414.549 132.688 413.842 130.551C410.88 121.654 410.724 100.091 410.236 96.3949C415.796 100.513 422.934 100.629 429.5 90.9201L429.558 98.4215Z" fill="white"/>
<path d="M410.811 106.492L410.713 106.11L410.788 106.036C410.796 106.187 410.804 106.34 410.811 106.492Z" fill="#2F4061"/>
<path d="M424.4 109.682L417.78 100.884L411.55 109.351L410.811 106.492C410.803 106.34 410.795 106.187 410.787 106.036L417.78 99.1025L425.399 107.138L424.4 109.682Z" fill="#D3D3D4"/>
<path d="M415.256 101.974C416.482 100.529 418.621 100.594 420.256 101.836L417.773 107.73C416.531 105.962 415.717 104.034 415.256 101.974Z" fill="#E5245A"/>
<path d="M422.734 130.462C421.129 133.411 418.271 136.702 416.589 138.631C415.55 136.448 413.063 132.599 412.355 130.462L416.685 105.933L418.582 105.804L422.734 130.462Z" fill="#E5245A"/>
<path d="M429.62 90.6124L416.684 139.543L431.938 117.977L429.06 109.293L435.504 105.214L432.933 95.3279L429.62 90.6124Z" fill="#34436E"/>
<path d="M410.268 92.1639C410.564 106.856 413.093 123.04 416.484 138.91L402.447 117.904L406.954 109.836L401.6 106.17L406.21 95.9634L410.268 92.1639Z" fill="#34436E"/>
<path d="M407.376 75.4381C407.376 75.4381 404.909 69.1562 400.829 70.543C396.749 71.9289 400.962 82.3616 407.231 80.3176L407.376 75.4381Z" fill="#F5ACA6"/>
<path d="M404.451 71.6155C404.115 82.9564 408.671 91.937 416.322 92.1636C423.972 92.3902 431.822 83.7767 432.158 72.4357C432.493 61.0947 426.564 51.7176 418.912 51.4918C413.749 51.3384 408.021 55.5903 405.455 61.7275C404.218 64.685 404.56 67.9275 404.451 71.6155Z" fill="#F5ACA6"/>
<path d="M425.369 62.7489C425.369 62.7489 417.269 67.3573 415.07 65.6323C412.87 63.9073 413.454 61.3682 413.454 61.3682C413.454 61.3682 402.892 67.0862 399.497 63.4906C396.101 59.896 402.666 57.6698 402.666 57.6698C402.666 57.6698 399.191 56.1854 400.27 51.1456C401.499 45.0876 410.287 45.7945 413.2 46.7359C413.2 46.7359 413.003 43.0366 416.335 41.5914C419.665 40.1454 428.842 46.9991 430.657 52.5132C430.657 52.5132 434.076 50.8884 435.597 53.8982C437.118 56.908 434.764 59.8524 434.764 59.8524C434.764 59.8524 436.415 60.6412 436.446 61.9618C436.507 64.4355 434.052 66.4246 434.052 72.0266C434.052 72.0266 430.675 73.6218 430.731 78.3086C430.731 78.3086 428.374 70.4019 430.633 65.6305C430.633 65.6305 425.532 66.2232 425.369 62.7489Z" fill="#3C393D"/>
<path d="M430.881 79.6371C435.126 80.7371 438.122 76.3754 438.432 73.0056C438.585 71.3077 438.054 69.8651 436.663 69.4807C433.725 68.6858 431.839 71.6485 430.98 73.4607C430.614 74.2207 430.881 79.6371 430.881 79.6371Z" fill="#F5ACA6"/>
<path d="M435.669 72.4398C432.791 72.6655 431.383 75.3999 431.324 75.5167C431.265 75.6361 431.313 75.7808 431.432 75.84L431.562 75.8653C431.641 75.8575 431.716 75.8113 431.756 75.7337C431.764 75.7172 432.29 74.6965 433.319 73.8867C434.37 74.4428 434.015 76.1643 434.011 76.1826C433.983 76.3125 434.065 76.4406 434.194 76.4702L434.268 76.4746C434.371 76.465 434.458 76.3918 434.481 76.2872C434.501 76.2027 434.873 74.3914 433.747 73.5869C434.272 73.2539 434.899 72.9933 435.63 72.9261L435.704 72.92C435.825 72.9305 435.936 72.7945 435.927 72.662C435.917 72.5295 435.801 72.4293 435.669 72.4398Z" fill="#D5587B"/>
<path d="M402.666 64.1619L404.585 76.127L405.128 62.5493L402.666 64.1619Z" fill="#3C393D"/>
<path d="M424.485 77.313C424.511 77.5448 425.102 77.6686 425.804 77.5893C426.507 77.51 427.056 77.2589 427.031 77.0271C427.004 76.7961 426.413 76.6723 425.71 76.7508C425.007 76.8301 424.458 77.082 424.485 77.313Z" fill="#D5587B"/>
<path d="M424.324 78.691C424.364 78.4618 424.961 78.3738 425.658 78.4941C426.355 78.6143 426.888 78.8976 426.849 79.1269C426.808 79.357 426.211 79.4459 425.514 79.3247C424.818 79.2044 424.285 78.9212 424.324 78.691Z" fill="#D5587B"/>
<path d="M406.555 78.1662C406.529 77.9352 405.938 77.8114 405.236 77.8899C404.533 77.9683 403.984 78.2202 404.011 78.4521C404.036 78.6831 404.628 78.8068 405.33 78.7284C406.033 78.6491 406.581 78.398 406.555 78.1662Z" fill="#D5587B"/>
<path d="M406.717 76.7863C406.678 77.0155 406.081 77.1036 405.384 76.9833C404.687 76.863 404.154 76.5797 404.193 76.3505C404.233 76.1204 404.83 76.0323 405.527 76.1526C406.224 76.2729 406.757 76.5562 406.717 76.7863Z" fill="#D5587B"/>
<path d="M414.243 81.3848L414.154 81.3839C413.791 81.3647 412.929 81.0832 412.767 78.9093C412.502 75.3513 413.015 73.3622 413.037 73.2793C413.07 73.1512 413.201 73.0736 413.33 73.1085C413.458 73.1425 413.535 73.2741 413.502 73.4031C413.497 73.4223 412.99 75.4053 413.248 78.8736C413.357 80.3388 413.801 80.8818 414.181 80.9027C414.737 80.9402 415.543 79.9631 415.843 78.3419C415.868 78.2111 415.995 78.1248 416.124 78.1483C416.255 78.1727 416.342 78.2992 416.317 78.4299C416.001 80.1366 415.138 81.3551 414.243 81.3848Z" fill="#D5587B"/>
<path d="M415.039 85.2547C418.703 85.3636 420.989 82.6162 421.085 82.4994C421.169 82.3957 421.154 82.2449 421.051 82.1603C420.949 82.0758 420.796 82.0906 420.712 82.1943C420.69 82.2205 418.474 84.8746 415.054 84.7726C411.642 84.6715 410.082 81.9302 410.068 81.9023C410.002 81.7864 409.855 81.7445 409.739 81.809C409.623 81.8735 409.581 82.02 409.646 82.1368C409.714 82.2597 411.357 85.1457 415.039 85.2547Z" fill="#D5587B"/>
<path d="M408.032 69.6575C408.819 69.4003 409.708 69.5215 410.673 70.0192C411.01 70.1926 411.422 70.0593 411.596 69.7228C411.768 69.3864 411.637 68.9723 411.299 68.7998C409.989 68.1269 408.741 67.9796 407.59 68.3596C405.779 68.9602 404.859 71.4931 405.199 71.6596C405.267 71.6936 406.782 70.0654 408.032 69.6575Z" fill="#292526"/>
<path d="M425.092 72.3943C425.451 72.2731 424.863 69.6425 423.145 68.8135C422.054 68.2879 420.798 68.2749 419.411 68.7735C419.054 68.9016 418.87 69.2947 418.998 69.6503C419.126 70.0068 419.52 70.1916 419.875 70.0635C420.901 69.693 421.802 69.6887 422.55 70.0487C423.738 70.6213 425.02 72.4195 425.092 72.3943Z" fill="#292526"/>
<path d="M410.84 74.94C410.84 76.4933 410.476 77.752 410.027 77.752C409.578 77.752 409.215 76.4933 409.215 74.94C409.215 73.3868 409.578 72.1281 410.027 72.1281C410.476 72.1281 410.84 73.3868 410.84 74.94Z" fill="#292526"/>
<path d="M421.107 74.94C421.107 76.4933 420.744 77.752 420.294 77.752C419.846 77.752 419.482 76.4933 419.482 74.94C419.482 73.3868 419.846 72.1281 420.294 72.1281C420.744 72.1281 421.107 73.3868 421.107 74.94Z" fill="#292526"/>
<path d="M331.641 218.387H274.613C272.645 218.387 271.189 216.557 271.627 214.64L281.997 169.31C282.315 167.917 283.555 166.057 284.983 166.057L340.979 165.268C345.048 165.268 345.436 168.758 344.997 170.676L334.628 216.005C334.309 217.399 333.07 218.387 331.641 218.387Z" fill="#5E5D62"/>
<path d="M329.901 216.643H272.873C270.906 216.643 269.448 214.813 269.887 212.895L280.257 167.566C280.575 166.173 281.815 165.184 283.243 165.184H340.271C342.239 165.184 343.696 167.014 343.257 168.931L332.888 214.261C332.569 215.654 331.33 216.643 329.901 216.643Z" fill="#7C7A80"/>
<path d="M330.818 212.893H272.27L282.723 167.197H341.272L330.818 212.893Z" fill="#D2D2D4"/>
<path d="M336.21 217.342H271.549V213.103L335.715 212.893C336.031 212.891 336.287 213.151 336.281 213.467L336.21 217.342Z" fill="#898A8A"/>
<path d="M319.026 199.451H278.721L285.347 170.487H325.653L319.026 199.451Z" fill="white"/>
<path d="M333.58 188.818H323.631L327.824 170.489H337.772L333.58 188.818Z" fill="white"/>
<path d="M331.145 199.457H321.197L323.294 190.286H333.243L331.145 199.457Z" fill="white"/>
<path d="M316.807 208.314H276.693L278.258 201.476H318.372L316.807 208.314Z" fill="white"/>
<path d="M88.3793 355.012H83.9043L115.169 225.167H126.111L88.3793 355.012Z" fill="#855434"/>
<path d="M552.398 355.012H556.873L525.608 225.167H514.666L552.398 355.012Z" fill="#855434"/>
<path d="M110.954 217.277H529.823C533.107 217.277 535.769 219.044 535.769 221.222C535.769 223.401 533.107 225.168 529.823 225.168H110.954C107.67 225.168 105.008 223.401 105.008 221.222C105.008 219.044 107.67 217.277 110.954 217.277Z" fill="#C0945C"/>
<path d="M444.076 241.645L455.019 257.897L458.946 263.719L462.012 265.173L514.311 290.045L524.954 288.262L523.888 286.231L523.476 285.448L521.415 281.521L516.432 272.014L504.934 251.998C504.934 251.998 453.499 235.175 444.076 241.645Z" fill="#34436E"/>
<path d="M462.579 262.658L462.015 265.174L447.466 314.557L444.836 314.268L437.432 313.465C437.432 313.465 440.347 249.279 444.076 241.647L456.062 255.253L462.579 262.658Z" fill="#34436E"/>
<path d="M447.468 314.557L444.838 314.268L455.02 257.899L455.539 255.049L459.006 260.468L462.014 265.174L462.015 265.175L447.468 314.557Z" fill="#2E3B61"/>
<path d="M523.477 285.449L521.416 281.522L526.908 283.727L523.477 285.449Z" fill="#E1C6BF"/>
<path d="M514.311 290.045L462.014 265.174L462.014 265.173L462.579 262.657L456.066 255.257L521.415 281.521L523.476 285.448L514.311 290.045Z" fill="#2E3B61"/>
<path d="M462.013 265.172L459.003 260.466L455.537 255.043L456.059 255.253L456.065 255.256L462.578 262.656L462.013 265.172Z" fill="#2E3B61"/>
<path d="M462.016 265.176L462.014 265.174L459.006 260.468L462.017 265.174" fill="#283456"/>
<path d="M437.498 313.123C437.498 313.123 436.813 323.167 436.383 324.482C435.951 325.797 427.75 331.884 424.877 334.042C422.004 336.202 417.629 336.222 416.868 337.688C416.107 339.154 417.94 341.142 423.124 341.146C428.309 341.153 432.094 336.82 436.091 336.495C440.087 336.17 447.269 336.532 448.019 333.916C448.768 331.3 445.853 324.708 445.853 324.708L447.463 314.559L437.498 313.123Z" fill="#F5ACA6"/>
<path d="M448.667 334.49L446.29 344.787L444.525 344.446L445.85 333.944L448.667 334.49Z" fill="#EAE9E9"/>
<path d="M415.065 340.489C419.207 343.302 429.224 344.811 433.736 341.972C439.794 338.16 442.498 337.569 448.651 334.46C449.3 330.723 448.937 328.457 446.436 326.134C446.436 326.134 438.65 333.019 433.829 332.155C430.671 331.447 429.58 330.332 429.58 330.332C429.58 330.332 413.556 336.957 415.065 340.489Z" fill="#EAE9E9"/>
<path d="M456.846 270.683C453.125 287.568 467.442 341.773 467.442 341.773L478.812 340.491L481.67 274.458C481.67 274.458 460.03 256.226 456.846 270.683Z" fill="#34436E"/>
<path d="M467.442 341.773C467.442 341.773 469.315 351.665 469.231 353.046C469.144 354.427 462.746 362.387 460.512 365.201C458.277 368.016 454.049 369.14 453.682 370.75C453.317 372.361 455.59 373.822 460.609 372.519C465.627 371.215 468.196 366.066 471.982 364.743C475.766 363.42 482.808 361.956 482.871 359.236C482.935 356.515 479.765 350.05 479.765 350.05L478.812 340.491L467.442 341.773Z" fill="#F5ACA6"/>
<path d="M483.642 359.628L483.943 370.192L482.149 370.307L480.779 359.81L483.642 359.628Z" fill="#EAE9E9"/>
<path d="M452.644 373.914C457.363 375.591 467.436 374.521 471.085 370.635C475.984 365.417 478.452 364.162 483.622 359.601C484.516 355.645 482.771 351.665 479.765 350.048C479.765 350.048 473.579 360.731 468.695 361.113C465.463 361.225 464.124 360.423 464.124 360.423C464.124 360.423 450.292 370.877 452.644 373.914Z" fill="#EAE9E9"/>
<path d="M502.575 167.901C502.906 167.991 503.249 168.034 503.61 168.053C508.213 167.852 513.17 165.994 517.242 164.007C522.286 161.543 525.976 158.879 525.976 158.879C532.225 151.362 531.271 141.426 531.271 141.426C529.31 125.92 517.058 125.403 517.058 125.403L517.057 125.411C511.499 124.517 502.529 127.715 498.023 133.845C496.284 136.211 491.919 165.582 502.575 167.901Z" fill="#F5ACA6"/>
<path d="M503.608 168.053C503.247 168.034 502.903 167.991 502.572 167.901C508.859 165.638 513.623 160.236 513.623 160.236L517.239 164.007C513.168 165.994 508.211 167.852 503.608 168.053Z" fill="#ED8995"/>
<path d="M497.37 151.699C497.357 151.434 496.696 151.252 495.893 151.292C495.09 151.332 494.449 151.58 494.463 151.844C494.476 152.108 495.138 152.29 495.941 152.25C496.743 152.21 497.384 151.963 497.37 151.699Z" fill="#E26682"/>
<path d="M497.65 150.144C497.589 150.402 496.905 150.46 496.122 150.274C495.341 150.089 494.757 149.73 494.817 149.472C494.879 149.215 495.562 149.157 496.344 149.342C497.127 149.527 497.711 149.886 497.65 150.144Z" fill="#E26682"/>
<path d="M511.426 174.398C511.426 174.398 505.612 186.878 514.343 186.2C523.084 185.522 528.846 171.88 528.846 171.88L526.644 158.026C526.644 158.026 511.738 158.733 511.74 160.234L511.426 174.398Z" fill="#F5ACA6"/>
<path d="M546.126 218.847C546.092 219.701 546.066 220.19 546.066 220.19C542.658 234.005 546.056 259.457 546.056 259.457C545.133 260.494 506.772 261.645 496.504 249.302C496.243 248.997 495.999 248.666 495.781 248.344C495.781 248.265 499.789 242.478 502.221 233.97V233.962C503.477 229.568 504.314 224.443 503.948 219.005C499.789 216.494 497.001 213.208 495.188 209.599C488.502 196.333 494.953 178.682 494.953 178.682C494.953 178.682 500.191 172.406 510.11 170.192C515.942 169.434 525.512 168.466 529.513 169.12C550.72 172.572 543.643 195.758 543.643 195.758C543.643 195.758 546.388 212.336 546.126 218.847Z" fill="#E5245A"/>
<path d="M506.393 132.401C506.393 132.401 509.121 115.225 528.252 122.312C536.085 126.201 540.729 133.991 538.459 149.66C536.188 165.329 543.539 167.755 546.862 173.861C550.188 179.969 541.599 189.696 533.236 182.083C523.384 187.472 513.743 177.37 513.743 177.37C513.743 177.37 513.604 178.664 516.182 184.64C516.182 184.64 499.159 183.891 506.794 167.377C510.28 155.05 507.346 141.003 507.346 141.003L506.393 132.401Z" fill="#3C393D"/>
<path d="M522.09 143.086C522.09 143.086 516.771 142.116 515.972 134.073C515.972 134.073 514.481 149.947 506.444 148.091C506.444 148.091 503.142 142.922 503.953 135.222C503.953 135.222 500.325 144.447 490.941 141.319C490.941 141.319 494.027 140.999 495.463 134.989C496.902 128.979 498.767 123.515 505.713 120.234C519.188 113.867 525.223 122.293 525.223 122.293L522.09 143.086Z" fill="#3C393D"/>
<path d="M506.398 147.694L507.042 153.596C511.343 154.944 514.176 149.656 514.352 145.566C514.438 143.504 513.849 141.75 512.439 141.279C509.459 140.304 507.685 143.896 506.895 146.095C506.559 147.017 506.398 147.694 506.398 147.694Z" fill="#F5ACA6"/>
<path d="M511.022 144.179C508.017 145.994 507.976 149.737 507.977 149.897C507.976 150.058 508.106 150.189 508.269 150.189L508.425 150.146C508.507 150.094 508.562 150.002 508.562 149.897C508.562 149.875 508.579 148.477 509.256 147.035C510.701 147.067 511.256 149.133 511.261 149.155C511.301 149.312 511.46 149.407 511.617 149.367L511.7 149.332C511.806 149.267 511.861 149.139 511.83 149.013C511.805 148.911 511.221 146.737 509.558 146.477C509.948 145.827 510.487 145.203 511.246 144.729L511.325 144.682C511.46 144.627 511.508 144.42 511.425 144.28C511.342 144.142 511.162 144.096 511.022 144.179Z" fill="#E26682"/>
<path d="M509.462 153.26C509.462 154.241 508.857 155.037 508.11 155.037C507.364 155.037 506.758 154.241 506.758 153.26C506.758 152.278 507.364 151.483 508.11 151.483C508.857 151.483 509.462 152.278 509.462 153.26Z" fill="white"/>
<path d="M455.465 186.708C455.465 186.708 458.653 183.431 463.611 183.964C463.611 183.964 467.712 192.165 473.483 202.636C475.864 206.994 478.549 211.736 481.345 216.45C481.734 217.085 482.126 217.739 482.508 218.386C484.77 222.129 483.314 232.241 480.447 234.106C479.306 234.848 476.757 234.519 473.946 231.871C467.793 225.653 460.764 204.404 455.465 186.708Z" fill="#F5ACA6"/>
<path d="M453.23 167.806C452.947 171.077 452.577 174.598 453.284 180.12L466.824 183.061L453.23 167.806Z" fill="#EF9A98"/>
<path d="M488.494 192.181L489.871 197.138L464.415 198.775L450.412 161.013L481.549 159.01L492.829 192.538L488.494 192.181Z" fill="white"/>
<path d="M481.189 166.016L463.81 167.134C463.669 167.143 463.515 167.044 463.468 166.913C463.423 166.782 463.499 166.668 463.642 166.658L481.02 165.541C481.161 165.531 481.315 165.631 481.361 165.761C481.407 165.892 481.33 166.006 481.189 166.016Z" fill="#D1D3D3"/>
<path d="M481.695 167.441L464.316 168.558C464.174 168.568 464.021 168.468 463.974 168.337C463.929 168.207 464.006 168.093 464.147 168.083L481.526 166.965C481.667 166.956 481.821 167.055 481.867 167.186C481.913 167.317 481.836 167.432 481.695 167.441Z" fill="#D1D3D3"/>
<path d="M482.205 168.867L464.825 169.986C464.684 169.995 464.53 169.895 464.484 169.764C464.438 169.634 464.515 169.519 464.657 169.51L482.035 168.392C482.177 168.383 482.33 168.483 482.376 168.613C482.423 168.744 482.346 168.859 482.205 168.867Z" fill="#D1D3D3"/>
<path d="M473.844 170.864L465.328 171.412C465.187 171.42 465.034 171.321 464.988 171.19C464.941 171.059 465.019 170.945 465.16 170.937L473.675 170.388C473.816 170.379 473.97 170.479 474.017 170.61C474.063 170.74 473.986 170.855 473.844 170.864Z" fill="#D1D3D3"/>
<path d="M462.655 171.868L457.766 172.183C457.601 172.193 457.424 172.078 457.369 171.925L455.684 167.172C455.63 167.018 455.719 166.887 455.884 166.876L460.773 166.562C460.938 166.55 461.115 166.665 461.17 166.818L461.427 167.543C461.48 167.696 461.391 167.828 461.226 167.839C461.061 167.849 460.884 167.734 460.829 167.582L460.67 167.134L456.379 167.41L457.869 171.61L462.16 171.334L461.496 169.46C461.441 169.307 461.531 169.175 461.695 169.164C461.861 169.154 462.039 169.269 462.092 169.422L462.855 171.573C462.91 171.725 462.82 171.858 462.655 171.868Z" fill="#D1D3D3"/>
<path d="M459.731 171.038L459.7 171.039C459.615 171.037 459.527 171.003 459.456 170.946L457.645 169.501C457.502 169.386 457.465 169.211 457.562 169.108C457.659 169.007 457.854 169.018 457.999 169.133L459.533 170.357L461.808 167.582C461.897 167.473 462.089 167.474 462.238 167.582C462.387 167.69 462.436 167.866 462.347 167.974L459.903 170.958L459.731 171.038Z" fill="#40BB6A"/>
<path d="M483.768 173.282L466.389 174.4C466.248 174.409 466.095 174.309 466.049 174.178C466.002 174.048 466.08 173.934 466.221 173.924L483.6 172.807C483.741 172.797 483.895 172.897 483.941 173.027C483.987 173.158 483.91 173.273 483.768 173.282Z" fill="#D1D3D3"/>
<path d="M484.275 174.707L466.895 175.826C466.754 175.834 466.601 175.735 466.554 175.604C466.508 175.473 466.586 175.359 466.727 175.35L484.106 174.232C484.247 174.224 484.4 174.322 484.447 174.454C484.494 174.584 484.416 174.699 484.275 174.707Z" fill="#D1D3D3"/>
<path d="M484.78 176.135L467.4 177.253C467.26 177.262 467.106 177.163 467.06 177.032C467.014 176.901 467.092 176.787 467.232 176.778L484.611 175.66C484.752 175.65 484.905 175.751 484.952 175.881C484.999 176.012 484.921 176.126 484.78 176.135Z" fill="#D1D3D3"/>
<path d="M476.423 178.131L467.907 178.679C467.766 178.689 467.612 178.588 467.566 178.458C467.52 178.327 467.597 178.213 467.739 178.203L476.254 177.656C476.395 177.647 476.548 177.746 476.595 177.877C476.642 178.008 476.563 178.122 476.423 178.131Z" fill="#D1D3D3"/>
<path d="M465.231 179.132L460.343 179.447C460.178 179.457 460 179.342 459.945 179.189L458.26 174.436C458.205 174.282 458.295 174.15 458.46 174.139L463.349 173.825C463.514 173.814 463.692 173.93 463.746 174.083L464.003 174.807C464.057 174.959 463.967 175.092 463.802 175.102C463.637 175.113 463.46 174.998 463.405 174.845L463.247 174.397L458.956 174.673L460.446 178.874L464.737 178.598L464.072 176.724C464.017 176.571 464.107 176.439 464.272 176.428C464.438 176.418 464.615 176.533 464.669 176.685L465.431 178.836C465.486 178.989 465.396 179.121 465.231 179.132Z" fill="#D1D3D3"/>
<path d="M462.308 178.305H462.278C462.195 178.303 462.105 178.269 462.034 178.211L460.223 176.766C460.08 176.651 460.043 176.477 460.14 176.375C460.237 176.274 460.432 176.283 460.577 176.398L462.111 177.624L464.386 174.849C464.474 174.739 464.667 174.739 464.816 174.849C464.966 174.957 465.015 175.132 464.926 175.241L462.481 178.224L462.308 178.305Z" fill="#40BB6A"/>
<path d="M486.345 180.549L468.966 181.667C468.825 181.676 468.671 181.577 468.624 181.446C468.579 181.315 468.657 181.201 468.797 181.192L486.177 180.074C486.317 180.064 486.47 180.164 486.517 180.295C486.564 180.425 486.486 180.54 486.345 180.549Z" fill="#D1D3D3"/>
<path d="M486.851 181.975L469.471 183.093C469.33 183.103 469.177 183.002 469.131 182.872C469.084 182.742 469.162 182.627 469.303 182.618L486.682 181.5C486.823 181.49 486.977 181.59 487.023 181.721C487.07 181.852 486.992 181.966 486.851 181.975Z" fill="#D1D3D3"/>
<path d="M487.356 183.399L469.977 184.517C469.836 184.526 469.682 184.427 469.637 184.297V184.296C469.59 184.165 469.667 184.051 469.809 184.042L487.187 182.924C487.329 182.915 487.482 183.014 487.528 183.145C487.575 183.276 487.498 183.39 487.356 183.399Z" fill="#D1D3D3"/>
<path d="M478.999 185.397L470.483 185.945C470.341 185.954 470.188 185.854 470.143 185.723C470.096 185.593 470.173 185.478 470.314 185.47L478.829 184.921C478.972 184.913 479.124 185.012 479.171 185.143C479.217 185.273 479.14 185.388 478.999 185.397Z" fill="#D1D3D3"/>
<path d="M467.807 186.4L462.919 186.714C462.754 186.725 462.577 186.61 462.522 186.457L460.836 181.703C460.782 181.55 460.872 181.418 461.037 181.408L465.926 181.093C466.09 181.082 466.267 181.198 466.322 181.35L466.579 182.074C466.632 182.228 466.544 182.36 466.378 182.371C466.213 182.38 466.036 182.266 465.981 182.113L465.823 181.666L461.532 181.941L463.021 186.142L467.313 185.865L466.648 183.992C466.593 183.839 466.683 183.706 466.848 183.696C467.013 183.685 467.191 183.8 467.244 183.954L468.007 186.104C468.062 186.257 467.972 186.389 467.807 186.4Z" fill="#D1D3D3"/>
<path d="M464.885 185.57H464.854C464.771 185.569 464.682 185.535 464.61 185.477L462.799 184.032C462.656 183.918 462.619 183.742 462.716 183.64C462.813 183.539 463.008 183.549 463.153 183.665L464.688 184.89L466.962 182.114C467.051 182.005 467.243 182.005 467.392 182.114C467.542 182.222 467.59 182.398 467.501 182.506L465.057 185.489L464.885 185.57Z" fill="#40BB6A"/>
<path d="M488.921 187.813L471.542 188.931C471.4 188.94 471.247 188.841 471.201 188.71C471.155 188.579 471.232 188.465 471.373 188.456L488.752 187.338C488.894 187.329 489.047 187.428 489.093 187.559C489.14 187.69 489.063 187.804 488.921 187.813Z" fill="#D1D3D3"/>
<path d="M489.427 189.238L472.047 190.357C471.906 190.366 471.752 190.267 471.707 190.135C471.66 190.006 471.738 189.89 471.879 189.881L489.258 188.763C489.399 188.755 489.552 188.854 489.599 188.985C489.646 189.115 489.568 189.23 489.427 189.238Z" fill="#D1D3D3"/>
<path d="M489.933 190.667L472.553 191.785C472.412 191.794 472.258 191.694 472.213 191.564C472.166 191.433 472.244 191.319 472.384 191.309L489.763 190.191C489.904 190.182 490.058 190.282 490.105 190.413C490.151 190.543 490.073 190.657 489.933 190.667Z" fill="#D1D3D3"/>
<path d="M481.575 192.664L473.059 193.212C472.918 193.22 472.765 193.121 472.718 192.991C472.672 192.859 472.75 192.746 472.891 192.737L481.406 192.189C481.547 192.18 481.701 192.279 481.747 192.41C481.794 192.54 481.716 192.655 481.575 192.664Z" fill="#D1D3D3"/>
<path d="M470.383 193.664L465.495 193.98C465.33 193.989 465.152 193.874 465.098 193.722L463.413 188.968C463.358 188.815 463.447 188.683 463.612 188.672L468.501 188.358C468.666 188.347 468.844 188.462 468.898 188.615L469.155 189.339C469.209 189.493 469.119 189.624 468.955 189.636C468.79 189.646 468.612 189.531 468.557 189.378L468.399 188.93L464.108 189.206L465.598 193.406L469.889 193.131L469.224 191.257C469.17 191.104 469.26 190.971 469.424 190.961C469.59 190.95 469.767 191.066 469.821 191.219L470.584 193.369C470.639 193.521 470.548 193.654 470.383 193.664Z" fill="#D1D3D3"/>
<path d="M467.461 192.836H467.431C467.348 192.834 467.258 192.8 467.186 192.744L465.376 191.297C465.232 191.183 465.195 191.007 465.292 190.905C465.39 190.805 465.585 190.815 465.73 190.93L467.265 192.155L469.538 189.38C469.627 189.271 469.82 189.271 469.969 189.38C470.119 189.488 470.167 189.663 470.078 189.771L467.634 192.755L467.461 192.836Z" fill="#40BB6A"/>
<path d="M489.87 197.137L492.829 192.537L488.494 192.18L489.87 197.137Z" fill="#BABCBC"/>
<path d="M456.129 187.187C456.129 187.187 449.387 181.463 449.534 176.997C449.792 175.258 454.017 173.566 455.874 172.407C457.645 172.504 456.97 176.231 454.354 177.328C454.354 177.328 460.955 178.962 458.859 186.883C457.534 191.52 456.129 187.187 456.129 187.187Z" fill="#F5ACA6"/>
<path d="M508.609 191.311C508.445 192.053 507.983 193.203 507.285 194.658L507.25 194.711C504.487 200.42 498.115 210.724 492.231 219.361L492.223 219.369C487.246 226.691 482.608 232.81 480.83 233.935C480.665 234.03 480.534 234.083 480.447 234.1C479.48 234.292 478.312 233.263 477.265 231.511L477.23 231.442C474.712 227.179 472.916 218.803 476.237 213.338L494.951 178.681C494.951 178.681 509.979 184.966 508.609 191.311Z" fill="#E5245A"/>
<path d="M480.213 234.123C479.296 234.123 478.23 233.123 477.267 231.512L477.232 231.442L507.253 194.711C505.208 198.937 501.186 205.678 496.849 212.398C495.791 214.038 494.713 215.676 493.642 217.276C493.17 217.979 492.701 218.675 492.233 219.361L492.226 219.37C490.828 221.425 489.458 223.385 488.171 225.167C484.871 229.733 482.112 233.126 480.832 233.935C480.668 234.031 480.536 234.083 480.45 234.1C480.372 234.115 480.294 234.123 480.213 234.123Z" fill="#C9224F"/>
<path d="M521.922 364.967H531.238V289.924H521.922V364.967Z" fill="#2E2E2B"/>
<path d="M492.498 282.537V282.401L473.412 282.537C473.412 288.48 476.384 291.773 482.647 291.773C488.913 291.773 546.256 291.773 558.303 291.773C566.668 291.773 570.152 287.359 572.066 282.537H492.498Z" fill="#66686D"/>
<path d="M548.423 365.408C548.423 365.408 547.019 359.322 539.372 359.322C531.727 359.322 518.464 359.322 514.251 359.322C510.038 359.322 505.981 361.664 504.732 365.408H548.423Z" fill="#2E2E2B"/>
<path d="M563.363 282.535C563.363 282.535 560.472 273.54 544.73 273.54C528.988 273.54 497.408 273.54 488.734 273.54C480.06 273.54 475.982 277 473.412 282.535H563.363Z" fill="#515156"/>
<path d="M572.065 282.535C572.065 282.535 593.782 206.903 596.674 196.303C599.565 185.701 598.409 175.076 581.704 175.076C564.998 175.076 546.336 175.076 537.341 175.076C528.346 175.076 521.279 179.091 518.387 189.694C515.495 200.295 495.256 282.535 495.256 282.535H572.065Z" fill="#66686D"/>
<path d="M572.065 282.535C572.065 282.535 593.958 206.257 596.564 196.701C599.17 187.146 596.476 181.404 581.42 181.404C566.363 181.404 550.658 181.404 542.55 181.404C534.442 181.404 528.073 185.024 525.466 194.579C522.861 204.135 503.951 282.535 503.951 282.535H572.065Z" fill="#7A7E81"/>
<path d="M105.618 330.434C105.618 330.434 104.664 341.12 104.508 342.621C104.351 344.121 102.158 352.666 103.587 354.183C105.017 355.701 113.431 357.251 116.233 355.988C119.035 354.726 122.616 351.241 121.712 349.528C120.808 347.814 115.211 342.414 114.504 340.961C113.796 339.509 114.986 327.446 114.986 327.446L105.618 330.434Z" fill="#F5ACA6"/>
<path d="M140.228 354.691L101.756 354.701L103.395 346.064C103.395 346.064 108.392 346.984 111.666 345.453C114.942 344.328 116.642 340.962 116.642 340.962C116.642 340.962 122.973 343.745 129.227 346.297L129.256 346.304V346.314C135.001 348.654 141.418 350.754 140.228 354.691Z" fill="#3C393D"/>
<path d="M101.751 357.688L140.341 357.676L140.339 354.187L101.75 354.198L101.751 357.688Z" fill="#3C393D"/>
<path d="M58.3721 244.454C61.8853 258.065 103.707 277.414 103.707 277.414L101.068 346.487C107.12 348.878 117.337 344.815 122.317 341.616C122.317 341.616 130.546 275.871 128.543 271.391C127.323 266.473 99.0104 247.633 96.9664 245.848L88.7433 240.671L63.0725 224.516C63.0725 224.516 57.0793 239.497 58.3721 244.454Z" fill="#302F2F"/>
<path d="M191.36 359.028L152.887 359.039L154.527 350.402C154.527 350.402 159.523 351.322 162.798 349.79C166.074 348.665 167.774 345.3 167.774 345.3C167.774 345.3 174.104 348.082 180.359 350.634L180.387 350.643L180.388 350.653C186.133 352.992 192.551 355.091 191.36 359.028Z" fill="#3C393D"/>
<path d="M152.882 362.025L191.472 362.014L191.471 358.525L152.881 358.536L152.882 362.025Z" fill="#3C393D"/>
<path d="M173.448 345.829C170.449 347.754 165.551 349.994 160.8 350.944C159.38 351.232 157.968 351.407 156.625 351.415C155.021 351.432 153.513 351.214 152.197 350.7L156.024 268.496L156.094 266.945L162.518 263.353L180.351 253.381L180.778 253.146C182.783 257.626 173.448 345.829 173.448 345.829Z" fill="#302F2F"/>
<path d="M156.023 268.496L123.53 265.705C121.417 263.858 118.817 261.791 116.076 259.706L116.094 259.641L162.516 263.353L156.092 266.945L156.023 268.496Z" fill="#EACFC6"/>
<path d="M116.075 259.707C116.043 259.683 116.011 259.658 115.979 259.633L116.094 259.643L116.075 259.707Z" fill="#7B4C30"/>
<path d="M123.531 265.707L96.7611 263.408L93.5273 257.838L115.981 259.633C116.013 259.659 116.045 259.683 116.078 259.707C118.818 261.792 121.418 263.86 123.531 265.707Z" fill="#2C2B2B"/>
<path d="M156.444 351.416C154.908 351.416 153.464 351.195 152.197 350.7L156.024 268.496L156.094 266.945L162.518 263.353L164.392 263.501L160.8 350.944C159.38 351.232 157.968 351.407 156.625 351.415C156.564 351.415 156.504 351.416 156.444 351.416Z" fill="#2C2B2B"/>
<path d="M180.778 254.044L164.391 263.502L162.613 264.53L157.296 268.609L156.024 268.496L96.7606 263.406L93.3525 263.109L75.0566 256.833L83.0583 259.388L83.8167 258.83L87.6519 256.023L96.9088 249.224L117.445 237.64C117.445 237.64 170.537 239.34 180.351 253.382C180.508 253.6 180.648 253.818 180.778 254.044Z" fill="#302F2F"/>
<path d="M123.939 150.249C123.939 150.249 117.645 150.653 111.465 149.871C107.842 149.425 104.262 148.566 101.996 146.996C97.0597 143.57 92.3389 137.455 92.3389 137.455C86.0805 129.068 88.2692 122.066 88.2692 122.066C91.2389 105.6 104.365 105.737 104.365 105.737V105.746C122.012 104.035 125.257 118.85 125.257 118.85C125.257 118.85 126.462 149.476 123.939 150.249Z" fill="#D68176"/>
<path d="M119.908 150.354C118.647 150.354 117.172 150.325 115.603 150.238C114.388 149.414 113.118 148.689 111.822 148.145L113.175 141.553C113.175 141.553 115.433 148.052 123.942 150.25C123.942 150.25 122.317 150.354 119.908 150.354Z" fill="#CA6C63"/>
<path d="M114.974 128.556L114.333 134.457C109.145 135.711 105.587 130.343 105.279 126.239C105.126 124.169 105.799 122.425 107.5 121.984C111.091 121.077 113.327 124.718 114.335 126.941C114.765 127.873 114.974 128.556 114.974 128.556Z" fill="#D68176"/>
<path d="M112.818 134.643C108.461 134.643 105.556 129.93 105.279 126.238C105.265 126.053 105.258 125.869 105.258 125.689C105.255 123.866 105.953 122.385 107.5 121.984C107.885 121.887 108.255 121.842 108.608 121.842C111.557 121.842 113.435 124.957 114.335 126.941C114.341 126.953 114.344 126.959 114.342 126.959C114.315 126.959 112.128 123.086 109.95 122.726C109.767 122.696 109.541 122.678 109.295 122.678C108.239 122.678 106.807 123.011 106.724 124.138C106.026 133.577 114.333 134.457 114.333 134.457C113.81 134.583 113.304 134.643 112.818 134.643Z" fill="#CA6C63"/>
<path d="M108.65 125.604C112.146 125.936 113.805 129.292 113.874 129.436C113.944 129.581 113.883 129.756 113.737 129.826L113.578 129.854C113.481 129.844 113.391 129.785 113.346 129.69C113.336 129.67 112.715 128.418 111.479 127.412C110.191 128.067 110.588 130.17 110.592 130.191C110.624 130.35 110.522 130.504 110.363 130.537L110.273 130.541C110.149 130.528 110.044 130.437 110.018 130.309C109.997 130.206 109.579 127.994 110.966 127.039C110.332 126.623 109.577 126.293 108.687 126.197L108.596 126.188C108.451 126.198 108.317 126.031 108.331 125.869C108.346 125.709 108.488 125.589 108.65 125.604Z" fill="#CA5D57"/>
<path d="M123.815 131.727C123.844 131.445 124.562 131.288 125.417 131.376C126.274 131.465 126.944 131.765 126.915 132.047C126.886 132.329 126.169 132.485 125.313 132.397C124.457 132.309 123.786 132.009 123.815 131.727Z" fill="#CA5D57"/>
<path d="M123.604 130.051C123.655 130.331 124.383 130.431 125.229 130.278C126.076 130.124 126.72 129.772 126.67 129.493C126.619 129.214 125.892 129.113 125.045 129.268C124.199 129.422 123.554 129.772 123.604 130.051Z" fill="#CA5D57"/>
<path d="M110.312 154.883C110.312 154.883 113.338 168.51 104.042 167.294C94.7359 166.077 85.9785 150.7 85.9785 150.7C85.9785 150.7 89.8251 143.803 91.8255 138.231C93.8259 132.659 111.552 148.034 111.552 148.034L110.312 154.883Z" fill="#D68176"/>
<path d="M154.826 142.658C154.826 142.658 154.053 144.925 152.786 148.493C152.14 150.332 151.359 152.506 150.486 154.899C145.129 169.567 136.347 192.185 133.064 192.185C125.802 192.219 118.799 183.32 118.799 183.32C123.576 175.235 132.569 159.408 138.529 148.753C139.696 146.672 140.737 144.782 141.619 143.196C142.694 141.247 143.517 139.736 143.988 138.846L152.728 141.919L154.826 142.658Z" fill="#CD7A75"/>
<path d="M116.136 167.013L118.797 189.604C118.797 189.604 95.9353 192.893 88.175 192.049C80.4156 191.205 76.6074 176.582 76.6074 176.582C76.6074 176.582 83.8159 166.78 116.136 167.013Z" fill="#CA5D57"/>
<path d="M161.222 129.552L161.223 129.56C160.541 131.531 159.556 133.78 159.063 135.71C158.134 139.311 153.942 143.544 153.942 143.544C153.552 143.713 152.833 143.868 151.937 143.991C148.728 144.442 143.245 144.452 142.763 142.842C140.799 140.95 139.94 136.23 139.157 132.195C138.589 129.271 137.795 126.789 137.927 125.602C138.123 123.851 139.229 124.59 139.997 125.243C140.775 125.903 142.735 130.34 142.735 130.34C142.735 130.34 141.24 120.322 141.669 117.297C142.097 114.273 143.885 115.355 144.126 116.267C144.366 117.179 145.817 127.828 145.895 127.154C145.965 126.491 146.872 117.638 147.128 115.188C147.384 112.737 148.88 110.71 149.679 111.51C150.489 112.309 150.353 116.635 150.252 118.745C150.149 120.848 150.347 125.903 150.57 127.358C150.698 127.279 151.561 120.229 152.201 117.081C152.842 113.935 153.885 113.038 154.81 114.756C155.746 116.482 154.529 124.813 154.483 126.245C154.418 128.319 154.29 133.068 154.29 133.068C156.756 126.776 161.014 123.424 161.808 125.411C162.175 126.329 161.81 127.831 161.222 129.552Z" fill="#CD7A75"/>
<path d="M152.786 148.493C152.14 150.331 151.359 152.506 150.486 154.898C148.579 151.851 145.599 150.34 143.181 149.575C141.552 149.072 139.957 148.828 138.529 148.752C139.696 146.671 140.738 144.781 141.619 143.195C142.493 143.329 143.366 143.522 144.213 143.757C147.631 144.705 150.527 146.318 152.786 148.493Z" fill="#66686D"/>
<path d="M146.241 146.492C145.42 148.799 142.983 150.427 140.799 150.129C138.614 149.832 137.508 147.721 138.33 145.415C139.151 143.109 141.588 141.48 143.773 141.778C145.957 142.076 147.062 144.187 146.241 146.492Z" fill="#7A7E81"/>
<path d="M144.599 146.024C143.998 147.713 142.214 148.905 140.615 148.687C139.016 148.469 138.207 146.924 138.808 145.236C139.409 143.548 141.193 142.356 142.792 142.573C144.391 142.791 145.2 144.337 144.599 146.024Z" fill="#D2D2D4"/>
<path d="M120.364 237.642C120.326 237.693 118.974 240.132 117.382 241.524C105.566 251.862 66.8009 244.807 66.0086 243.823C66.0086 243.823 71.0798 216.803 68.2121 201.847C68.2121 201.847 68.2121 201.324 68.2269 200.406C68.3106 193.429 60.4048 174.091 60.0235 172.749C60.0092 172.679 66.1054 146.385 88.6766 143.703C92.986 143.192 103.413 144.813 111.55 148.035C118.9 150.967 125.546 159.9 125.546 159.9C125.546 159.9 124.92 183.697 119.299 196.748C118.795 206.229 119.595 235.278 120.364 237.642Z" fill="white"/>
<path d="M202.138 202.199C199.116 201.293 196.525 200.377 196.525 200.377L192.773 203.088C192.773 203.088 197.078 202.371 198.099 202.495C199.123 202.627 204.886 206.569 205.084 207.533C205.278 208.489 203.385 209.263 202.054 208.297C202.191 208.423 203.207 209.417 203.084 210.012C202.945 210.638 202.264 210.892 200.348 209.826C200.348 209.826 200.903 211.07 200.394 211.581C199.754 212.075 198.357 211.385 197.166 210.696C196.131 210.096 195.253 209.497 195.162 209.674L195.134 209.718L195.129 209.728C193.489 212.869 189.677 214.723 188.67 215.097C188.525 215.146 188.438 215.166 188.42 215.164L187.081 211.443L184.355 203.829C185.938 202.284 193.729 197.913 194.603 197.372C195.472 196.841 201.996 199.224 202.572 200.051C203.144 200.889 205.249 202.539 202.138 202.199Z" fill="#D68176"/>
<path d="M188.727 215.236C181.932 217.535 175.587 219.655 169.862 221.566C153.781 226.931 142.566 230.616 139.966 231.645C139.65 231.769 139.454 231.843 139.391 231.881L139.359 231.893C138.371 231.306 137.117 229.71 135.73 227.384C135.678 227.308 135.638 227.237 135.594 227.158C134.481 225.268 133.286 222.936 132.061 220.284C130.25 216.374 128.383 211.792 126.647 206.97C123.613 198.566 120.961 189.506 119.692 182.151C118.767 176.903 118.565 172.535 119.409 169.909C119.655 165.382 130.277 161.429 140.308 183.773C143.797 193.828 150.494 209.844 150.494 209.844C163.66 207.273 178.492 205.249 184.356 203.827L187.25 211.383L188.671 215.094L188.727 215.236Z" fill="#D68176"/>
<path d="M144.603 193.771L123.75 202.861C123.75 202.861 113.981 181.932 112.542 174.26C111.103 166.588 123.996 158.708 123.996 158.708C123.996 158.708 135.466 162.769 144.603 193.771Z" fill="white"/>
<path d="M135.729 227.385C135.677 227.308 135.637 227.237 135.593 227.158C135.201 226.524 134.817 225.859 134.441 225.167H134.477C134.856 225.875 135.229 226.54 135.593 227.158C135.637 227.237 135.677 227.308 135.729 227.385Z" fill="#F0BDB3"/>
<path d="M134.476 225.168H134.44C133.614 223.65 132.825 222.004 132.059 220.285C132.884 222.07 133.694 223.711 134.476 225.168Z" fill="#B57E4C"/>
<path d="M188.669 215.096L187.248 211.384C193.717 211.335 194.935 209.598 195.109 209.598C195.135 209.598 195.138 209.635 195.133 209.717L195.128 209.727C193.487 212.868 189.676 214.722 188.669 215.096Z" fill="#CA6C63"/>
<path d="M126.645 206.971C126.027 205.455 125.413 203.927 124.809 202.402L125.025 202.307C125.548 203.874 126.091 205.433 126.645 206.971Z" fill="#F0BDB3"/>
<path d="M139.391 231.883C138.078 230.741 136.869 229.199 135.73 227.386C135.679 227.309 135.639 227.239 135.594 227.159C135.231 226.541 134.858 225.876 134.479 225.169C133.697 223.711 132.887 222.071 132.062 220.286C130.165 216.021 128.415 211.306 126.648 206.971C126.093 205.434 125.55 203.874 125.027 202.307L127.387 201.279L129.691 200.274C135.819 211.993 141.895 224.228 141.895 224.228C154.388 221.782 184.552 212.244 187.082 211.442C187.19 211.406 187.251 211.384 187.251 211.384L188.671 215.096L188.728 215.238C181.791 217.268 175.473 219.439 169.863 221.568C165.954 222.872 162.333 224.076 159.052 225.169C148.839 228.567 141.935 230.868 139.966 231.647C139.651 231.77 139.455 231.844 139.391 231.883Z" fill="#CA6C63"/>
<path d="M123.634 202.861C123.382 202.225 123.128 201.59 122.873 200.958C123.342 201.987 123.651 202.653 123.729 202.819L123.634 202.861Z" fill="#DCC1B9"/>
<path d="M123.732 202.822C123.655 202.656 123.345 201.99 122.876 200.96C119.731 193.156 116.458 185.655 115.982 179.936C115.994 179.735 116.053 179.639 116.155 179.639C116.502 179.639 117.345 180.749 118.52 182.616C120.925 186.452 124.731 193.496 128.518 200.737L123.732 202.822Z" fill="#E1E2E2"/>
<path d="M88.5913 358.729H79.2168V279.179H88.5913V358.729Z" fill="#2E2E2B"/>
<path d="M118.194 271.746V271.609L137.398 271.746C137.398 277.726 134.408 281.039 128.104 281.039C121.801 281.039 64.1029 281.039 51.9814 281.039C43.5649 281.039 40.0592 276.598 38.1328 271.746H118.194Z" fill="#66686D"/>
<path d="M61.9238 361.66C61.9238 361.66 63.3371 355.536 71.0303 355.536C78.7234 355.536 92.0683 355.536 96.3071 355.536C100.547 355.536 104.629 357.891 105.885 361.66H61.9238Z" fill="#2E2E2B"/>
<path d="M46.8926 271.744C46.8926 271.744 49.8019 262.694 65.6403 262.694C81.4799 262.694 113.256 262.694 121.983 262.694C130.711 262.694 134.815 266.175 137.4 271.744H46.8926Z" fill="#515156"/>
<path d="M38.1347 271.744C38.1347 271.744 16.284 195.645 13.3745 184.978C10.4654 174.311 11.6292 163.62 28.4377 163.62C45.2461 163.62 64.0238 163.62 73.0749 163.62C82.1252 163.62 89.2369 167.661 92.1456 178.328C95.0551 188.995 115.419 271.744 115.419 271.744H38.1347Z" fill="#66686D"/>
<path d="M38.1327 271.744C38.1327 271.744 16.1046 194.993 13.4825 185.379C10.8608 175.765 13.5711 169.988 28.721 169.988C43.8709 169.988 59.6732 169.988 67.8308 169.988C75.9886 169.988 82.3978 173.63 85.0205 183.244C87.6424 192.859 106.669 271.744 106.669 271.744H38.1327Z" fill="#7A7E81"/>
<path d="M250.801 340.976C250.801 340.976 249.869 351.426 249.715 352.893C249.562 354.362 247.417 362.718 248.815 364.203C250.212 365.688 258.444 367.202 261.182 365.967C263.924 364.732 267.425 361.326 266.542 359.65C265.658 357.973 260.184 352.692 259.491 351.271C258.799 349.851 259.964 338.053 259.964 338.053L250.801 340.976Z" fill="#F5ACA6"/>
<path d="M284.651 364.697L247.023 364.709L248.627 356.261C248.627 356.261 253.513 357.161 256.716 355.664C259.92 354.563 261.582 351.272 261.582 351.272C261.582 351.272 267.775 353.994 273.891 356.488L273.919 356.497V356.507C279.538 358.795 285.814 360.848 284.651 364.697Z" fill="white"/>
<path d="M247.022 367.627L284.764 367.616L284.763 364.204L247.021 364.215L247.022 367.627Z" fill="#EAE9E9"/>
<path d="M204.595 253.254C208.031 266.985 248.932 286.505 248.932 286.505L248.271 346.965L263.233 347.947C263.233 347.947 275.183 284.948 273.223 280.429C272.03 275.468 244.34 256.461 242.341 254.66L234.298 249.439L209.193 233.14C209.193 233.14 203.331 248.254 204.595 253.254Z" fill="#34436E"/>
<path d="M324.309 262.022L306.543 272.275L300.171 275.943L296.619 275.902L235.992 275.237L218.1 275.045L228.737 267.244L229.485 266.699L233.23 263.954L242.288 257.304L262.31 243.767C262.31 243.767 318.423 251.604 324.309 262.022Z" fill="#3B507A"/>
<path d="M324.306 262.022C324.306 270.913 296.339 342.002 296.339 342.002L285.282 336.15L282.629 334.748L296.616 275.901L297.237 273.272L306.775 269.309L324.306 262.022Z" fill="#3B507A"/>
<path d="M269.308 275.604L235.989 275.238L269.308 275.604ZM229.482 266.7L227.047 263.501L233.227 263.955L229.482 266.7Z" fill="#303E65"/>
<path d="M296.616 275.902L284.279 275.767L281.317 275.735L269.308 275.603L235.989 275.238L229.482 266.7L233.227 263.955L306.775 269.311L297.237 273.273L296.616 275.902Z" fill="#364A70"/>
<path d="M288.069 337.471L285.282 336.152L282.629 334.751L296.616 275.903L297.237 273.274L306.775 269.312L307.364 269.354L306.54 272.276L288.069 337.471Z" fill="#364A70"/>
<path d="M294.117 340.824C294.117 340.824 293.641 342.036 293.442 343.47C293.242 344.906 298.157 354.401 299.865 357.755C301.574 361.107 305.68 363.139 305.721 364.866C305.762 366.596 303.124 367.622 298.246 365.243C293.367 362.863 291.8 357.047 288.19 354.903C284.581 352.76 277.659 349.796 278.158 346.991C278.658 344.186 284.43 339.327 284.43 339.327L285.581 336.096L294.117 340.824Z" fill="#F5ACA6"/>
<path d="M306.425 367.615L274.643 347.474L280.521 341.199C280.521 341.199 284.164 344.575 287.672 345.027C290.967 345.812 294.133 343.923 294.133 343.923C294.133 343.923 297.905 349.536 301.735 354.92L301.753 354.942L301.749 354.949C305.269 359.892 309.47 364.987 306.425 367.615Z" fill="white"/>
<path d="M273.074 349.937L304.954 370.139L306.781 367.257L274.9 347.055L273.074 349.937Z" fill="#EAE9E9"/>
<path d="M262.386 162.204C262.033 162.279 261.672 162.305 261.295 162.305C256.492 161.843 251.412 159.626 247.265 157.326C242.127 154.471 238.415 151.482 238.415 151.482C232.295 143.279 233.84 132.944 233.84 132.944C236.745 116.841 249.583 116.975 249.583 116.975V116.984C255.443 116.353 264.645 120.19 269.019 126.849C270.706 129.418 273.654 160.365 262.386 162.204Z" fill="#F5ACA6"/>
<path d="M261.298 162.305C259.214 162.104 257.08 161.574 254.991 160.85C254.847 160.789 254.704 160.73 254.561 160.673C254.515 160.664 254.469 160.656 254.422 160.647C251.896 159.726 249.453 158.537 247.268 157.326L249.806 154.943C250.434 154.75 251.078 154.49 251.736 154.15C253.086 155.697 257.157 160.004 262.389 162.204C262.036 162.279 261.675 162.305 261.298 162.305Z" fill="#ED8995"/>
<path d="M235.063 119.1C237.764 116.537 241.171 116.916 241.171 116.916C246.873 107.542 261.099 112.995 265.249 114.422C269.398 115.848 273.073 111.581 273.073 111.581C274.442 113.539 275.646 124.653 270.01 128.816C269.65 129.218 264.427 127.695 264.427 127.695C265.699 129.374 263.857 144.115 263.167 144.541C262.411 143.432 258.602 144.562 259.762 146.108C248.649 163.175 238.412 151.479 238.412 151.479C232.295 143.278 224.946 128.703 235.063 119.1Z" fill="#5A3317"/>
<path d="M261.931 139.699L263.285 145.344C258.924 148.208 253.877 144.441 252.239 140.763C251.416 138.907 251.462 137.08 252.881 136.114C255.889 134.093 259.148 136.709 260.809 138.422C261.512 139.138 261.931 139.699 261.931 139.699Z" fill="#F5ACA6"/>
<path d="M252.243 140.764C251.896 139.981 251.703 139.203 251.703 138.493C251.702 137.519 252.064 136.673 252.885 136.114C253.659 135.594 254.451 135.381 255.226 135.381C257.465 135.381 259.579 137.151 260.813 138.422C260.813 138.422 258.784 136.938 256.346 136.938C255.945 136.938 255.535 136.977 255.12 137.071C252.176 137.73 252.243 140.764 252.243 140.764Z" fill="#ED8995"/>
<path d="M255.137 139.067C258.466 138.22 261.1 140.763 261.21 140.872C261.324 140.983 261.325 141.164 261.214 141.277L261.077 141.355C260.984 141.377 260.882 141.353 260.808 141.28C260.794 141.266 259.809 140.317 258.339 139.799C257.369 140.827 258.427 142.632 258.439 142.651C258.52 142.786 258.478 142.962 258.342 143.045L258.261 143.078C258.143 143.107 258.015 143.058 257.949 142.949C257.895 142.861 256.781 140.961 257.744 139.625C257.023 139.45 256.217 139.397 255.367 139.601L255.281 139.623C255.15 139.679 254.971 139.57 254.931 139.417C254.892 139.264 254.984 139.107 255.137 139.067Z" fill="#E26682"/>
<path d="M268.718 145.551C268.746 145.275 269.448 145.121 270.285 145.208C271.122 145.294 271.777 145.588 271.749 145.863C271.721 146.139 271.019 146.293 270.181 146.207C269.344 146.119 268.688 145.826 268.718 145.551Z" fill="#E26682"/>
<path d="M268.511 143.91C268.56 144.183 269.272 144.281 270.1 144.131C270.928 143.98 271.559 143.637 271.509 143.364C271.459 143.091 270.748 142.993 269.92 143.144C269.092 143.294 268.461 143.638 268.511 143.91Z" fill="#E26682"/>
<path d="M255.391 165.04C255.391 165.04 258.35 178.367 249.258 177.179C240.157 175.987 231.592 160.949 231.592 160.949C231.592 160.949 237.317 156.648 239.273 151.198C241.23 145.748 256.603 158.342 256.603 158.342L255.391 165.04Z" fill="#F5ACA6"/>
<path d="M260.122 230.516C259.998 231.331 265.261 243.059 265.246 243.169C264.999 243.501 264.722 243.832 264.432 244.137C253.022 256.472 212.976 253.156 212.064 252.024C212.064 252.024 217.024 225.598 214.219 210.97C214.219 210.97 214.219 210.458 214.234 209.561C214.316 202.736 214.607 173.604 214.234 172.292L214.219 172.195C214.219 172.195 219.339 160.68 234.338 158.487C238.538 157.872 248.513 159.556 254.56 160.673C261.749 163.541 270.491 171.679 270.491 171.679C270.491 171.679 269.681 193.219 264.184 205.983C263.81 207.53 262.442 211.494 262.098 213.207C261.379 216.73 260.716 220.487 260.15 224.024C260.053 224.632 259.971 225.226 259.873 225.805C259.694 227.034 260.136 230.406 260.122 230.516Z" fill="#F14625"/>
<path d="M315.34 211.455C316.715 210.136 318.501 208.485 319.356 207.958C320.851 207.035 323.701 204.861 324.457 204.407C325.214 203.956 330.807 206.084 331.296 206.81C331.783 207.537 333.579 208.978 330.899 208.654C328.304 207.837 326.083 207.021 326.083 207.021L322.816 209.318C322.816 209.318 326.533 208.745 327.412 208.867C328.292 208.988 333.223 212.454 333.379 213.287C333.537 214.119 331.879 214.763 330.75 213.9C330.75 213.9 331.753 214.858 331.627 215.4C331.5 215.941 330.911 216.155 329.269 215.211C329.269 215.211 329.736 216.288 329.291 216.725C328.25 217.51 325.172 215.026 324.804 215.021C324.638 215.019 324.082 215.891 323.088 216.764C321.889 217.815 320.055 218.865 317.494 218.39C317.32 218.358 317.169 218.313 317.01 218.272L315.34 211.455Z" fill="#EF9796"/>
<path d="M319.192 219.75C313.313 221.655 307.818 223.409 302.86 224.991C288.943 229.435 279.235 232.487 276.98 233.347C276.706 233.452 276.539 233.514 276.478 233.543L276.455 233.551C273.903 231.983 269.468 222.58 265.772 211.916C263.249 204.64 261.063 196.796 260.053 190.435C259.314 185.901 259.183 182.132 259.938 179.877C260.207 175.98 264.88 158.821 273.276 178.204C276.173 186.912 286.297 214.665 286.297 214.665C297.672 212.602 310.484 211.02 315.553 209.861L317.963 216.406L319.192 219.75Z" fill="#F14625"/>
<path d="M274.526 205.365L256.092 206.49C256.092 206.49 253.848 186.51 254.793 179.78C255.737 173.052 270.491 171.678 270.491 171.678C270.491 171.678 275.602 177.252 274.526 205.365Z" fill="#F14625"/>
<path d="M302.305 225.168C302.489 225.109 302.673 225.05 302.86 224.991C302.673 225.05 302.489 225.109 302.305 225.168ZM319.192 219.75L318.736 218.508C318.754 218.508 318.773 218.508 318.791 218.508L319.192 219.75Z" fill="#A77F51"/>
<path d="M318.737 218.508L317.965 216.405L318.103 216.37L318.792 218.508C318.774 218.508 318.755 218.508 318.737 218.508Z" fill="#CD8382"/>
<path d="M265.773 211.916C265.118 210.336 264.479 208.736 263.863 207.14C263.921 206.946 263.974 206.763 264.022 206.593C264.578 208.381 265.166 210.165 265.773 211.916Z" fill="#DCC1B9"/>
<path d="M263.863 207.139C263.722 206.773 263.582 206.406 263.443 206.041L263.844 206.017C263.904 206.209 263.962 206.4 264.022 206.591C263.974 206.761 263.921 206.944 263.863 207.139Z" fill="#D54021"/>
<path d="M276.481 233.543C273.396 228.874 269.049 219.823 265.775 211.916C265.167 210.165 264.58 208.38 264.024 206.593C263.963 206.401 263.905 206.21 263.846 206.018L268.256 205.749C273.482 216.052 278.728 226.969 278.728 226.969C290.001 224.914 312.627 217.661 317.966 216.406L318.738 218.508L319.194 219.75C313.196 221.42 307.725 223.219 302.862 224.991C302.676 225.051 302.492 225.109 302.307 225.168C299.768 225.979 297.371 226.742 295.139 227.453C294.032 227.806 292.966 228.146 291.941 228.472C283.962 231.014 278.586 232.735 276.982 233.347C276.709 233.452 276.542 233.514 276.481 233.543Z" fill="#D54021"/>
<path d="M263.445 206.043C260.917 199.376 258.845 192.851 257.898 188.097C257.911 187.926 257.962 187.844 258.048 187.844C258.346 187.844 259.059 188.809 260.056 190.435C262.04 193.697 265.144 199.615 268.256 205.749L263.846 206.019L263.445 206.043Z" fill="#D54021"/>
<path d="M237.791 369.279H228.037V286.505H237.792L237.791 369.279Z" fill="#2E2E2B"/>
<path d="M268.595 278.769V278.627L288.578 278.769C288.578 284.992 285.466 288.439 278.907 288.439C272.349 288.439 212.312 288.439 199.699 288.439C190.942 288.439 187.294 283.818 185.289 278.769H268.595Z" fill="#66686D"/>
<path d="M210.043 369.607C210.043 369.607 211.513 363.236 219.519 363.236C227.524 363.236 241.41 363.236 245.82 363.236C250.232 363.236 254.479 365.687 255.786 369.607H210.043Z" fill="#2E2E2B"/>
<path d="M194.404 278.77C194.404 278.77 197.432 269.351 213.913 269.351C230.393 269.351 263.458 269.351 272.539 269.351C281.62 269.351 285.889 272.974 288.58 278.77H194.404Z" fill="#515156"/>
<path d="M185.29 278.77C185.29 278.77 162.553 199.585 159.526 188.486C156.499 177.387 157.71 166.263 175.2 166.263C192.69 166.263 212.228 166.263 221.646 166.263C231.063 166.263 238.463 170.467 241.49 181.566C244.517 192.666 265.707 278.77 265.707 278.77H185.29Z" fill="#66686D"/>
<path d="M185.29 278.77C185.29 278.77 162.37 198.908 159.641 188.903C156.913 178.899 159.733 172.889 175.497 172.889C191.261 172.889 207.705 172.889 216.193 172.889C224.68 172.889 231.35 176.678 234.078 186.682C236.806 196.687 256.604 278.77 256.604 278.77H185.29Z" fill="#7A7E81"/>
</svg>
