<svg width="35" height="30" viewBox="0 0 35 30" fill="none" xmlns="http://www.w3.org/2000/svg">
<path fill-rule="evenodd" clip-rule="evenodd" d="M17.0416 19.2277C16.8705 19.2275 16.7033 19.1765 16.5611 19.0814C16.419 18.9862 16.3082 18.851 16.2429 18.6928C16.1775 18.5347 16.1605 18.3608 16.194 18.193C16.2274 18.0252 16.3099 17.8711 16.4309 17.7502C16.5519 17.6292 16.7061 17.5469 16.8739 17.5135C17.0417 17.4801 17.2156 17.4973 17.3737 17.5627C17.5318 17.6282 17.6669 17.739 17.762 17.8812C17.8571 18.0234 17.9079 18.1907 17.908 18.3618C17.9077 18.5914 17.8163 18.8115 17.6538 18.9739C17.4914 19.1362 17.2712 19.2275 17.0416 19.2277ZM17.0416 16.4318C16.6598 16.4319 16.2866 16.5453 15.9693 16.7575C15.6519 16.9697 15.4046 17.2713 15.2586 17.624C15.1126 17.9768 15.0744 18.3649 15.149 18.7394C15.2236 19.1138 15.4075 19.4577 15.6775 19.7276C15.9475 19.9975 16.2915 20.1813 16.666 20.2557C17.0404 20.3302 17.4285 20.2919 17.7813 20.1458C18.134 19.9996 18.4354 19.7522 18.6475 19.4347C18.8596 19.1173 18.9728 18.7441 18.9728 18.3623C18.9722 17.8504 18.7685 17.3596 18.4064 16.9977C18.0444 16.6357 17.5535 16.4322 17.0416 16.4318ZM20.516 18.6379V18.0867L20.1009 18.012C20.0021 17.9943 19.9103 17.949 19.8362 17.8814C19.762 17.8137 19.7085 17.7265 19.6819 17.6297C19.6221 17.4149 19.5361 17.2082 19.426 17.0143C19.3766 16.927 19.3528 16.8274 19.3574 16.7271C19.3621 16.6268 19.3949 16.5299 19.4522 16.4474L19.6933 16.1008L19.3033 15.7108L18.9572 15.9514C18.8748 16.0089 18.7778 16.0419 18.6775 16.0465C18.5772 16.0512 18.4776 16.0273 18.3903 15.9776C18.196 15.8678 17.989 15.7822 17.774 15.7227C17.6774 15.6957 17.5903 15.6421 17.5227 15.5679C17.4552 15.4937 17.4099 15.402 17.3921 15.3033L17.3174 14.8886H16.7663L16.6916 15.3033C16.6738 15.402 16.6285 15.4937 16.5609 15.5679C16.4934 15.642 16.4063 15.6957 16.3097 15.7227C16.0945 15.7823 15.8874 15.8679 15.693 15.9776C15.6057 16.0273 15.5062 16.0512 15.406 16.0465C15.3057 16.0419 15.2088 16.0089 15.1265 15.9514L14.7804 15.7108L14.3904 16.1008L14.6315 16.447C14.6888 16.5295 14.7217 16.6266 14.7262 16.7269C14.7307 16.8273 14.7068 16.927 14.6572 17.0143C14.5472 17.208 14.4614 17.4145 14.4015 17.629C14.375 17.7258 14.3215 17.8132 14.2474 17.8808C14.1732 17.9485 14.0814 17.9937 13.9825 18.0113L13.5674 18.086V18.6372L13.9825 18.7114C14.0813 18.7292 14.173 18.7745 14.2472 18.8421C14.3213 18.9098 14.3748 18.997 14.4015 19.0937C14.4614 19.3087 14.5471 19.5157 14.6569 19.71C14.7065 19.7972 14.7305 19.8967 14.7259 19.997C14.7214 20.0972 14.6886 20.1941 14.6313 20.2765L14.3901 20.6236L14.7801 21.0126L15.1263 20.772C15.2087 20.7148 15.3055 20.682 15.4057 20.6774C15.5059 20.6728 15.6054 20.6965 15.6927 20.7459C15.8872 20.8557 16.0943 20.9416 16.3095 21.0017C16.406 21.0285 16.4931 21.0819 16.5606 21.156C16.6282 21.23 16.6735 21.3216 16.6914 21.4202L16.766 21.8358H17.3172L17.3918 21.4202C17.4096 21.3216 17.4549 21.23 17.5225 21.1559C17.59 21.0819 17.6771 21.0284 17.7737 21.0017C17.9889 20.9422 18.196 20.8563 18.39 20.7459C18.4774 20.6965 18.577 20.6728 18.6772 20.6774C18.7775 20.682 18.8744 20.7148 18.9569 20.772L19.3031 21.0126L19.693 20.6236L19.4519 20.2765C19.3946 20.1941 19.3618 20.0972 19.3572 19.997C19.3525 19.8968 19.3763 19.7973 19.4258 19.71C19.5359 19.5158 19.6218 19.3088 19.6816 19.0937C19.7084 18.997 19.762 18.9099 19.8361 18.8422C19.9102 18.7746 20.0019 18.7292 20.1006 18.7114L20.5158 18.6372L20.516 18.6379ZM20.9435 17.0814L20.6021 17.0201C20.5736 16.9434 20.5422 16.8683 20.508 16.7946L20.7063 16.5093C20.8102 16.3601 20.8583 16.1792 20.8421 15.9981C20.826 15.817 20.7465 15.6475 20.6178 15.5191L19.8849 14.7863C19.7566 14.6578 19.5871 14.5785 19.4061 14.5624C19.2252 14.5463 19.0443 14.5944 18.8953 14.6983L18.61 14.8957C18.5358 14.8624 18.4606 14.831 18.3841 14.802L18.3228 14.4606C18.2906 14.2817 18.1965 14.1198 18.0569 14.0033C17.9174 13.8868 17.7413 13.8231 17.5595 13.8233H16.5237C16.342 13.8233 16.166 13.8871 16.0265 14.0037C15.8871 14.1203 15.7931 14.2822 15.7609 14.4611L15.7001 14.802C15.6235 14.831 15.5479 14.8624 15.4732 14.8957L15.1893 14.6983C15.0402 14.5943 14.8592 14.5461 14.678 14.5622C14.4969 14.5783 14.3272 14.6576 14.1988 14.7863L13.4659 15.5188C13.3372 15.6471 13.2578 15.8167 13.2416 15.9978C13.2254 16.1788 13.2735 16.3598 13.3774 16.5089L13.5757 16.7942C13.5415 16.868 13.5106 16.9431 13.4816 17.0197L13.1402 17.081C12.9613 17.1132 12.7994 17.2072 12.6828 17.3466C12.5662 17.4861 12.5024 17.6621 12.5024 17.8438V18.8805C12.5022 19.0622 12.5661 19.2382 12.6827 19.3775C12.7993 19.5168 12.9613 19.6106 13.1402 19.6424L13.4816 19.7042C13.5106 19.7803 13.5415 19.8554 13.5757 19.9301L13.3779 20.215C13.2738 20.364 13.2255 20.545 13.2416 20.7261C13.2577 20.9072 13.3371 21.0768 13.4659 21.2051L14.1988 21.9379C14.3271 22.0667 14.4966 22.1461 14.6777 22.1623C14.8588 22.1785 15.0397 22.1303 15.1888 22.0264L15.4732 21.8281C15.5479 21.8618 15.6235 21.8932 15.7001 21.9217L15.7609 22.2632C15.7931 22.4421 15.8871 22.604 16.0265 22.7206C16.166 22.8371 16.342 22.901 16.5237 22.9009H17.5595C17.7413 22.901 17.9174 22.8373 18.0569 22.7207C18.1965 22.6041 18.2906 22.4422 18.3228 22.2632L18.3841 21.9217C18.4606 21.8932 18.5358 21.8618 18.61 21.8281L18.8953 22.0264C19.0444 22.1303 19.2253 22.1785 19.4062 22.1623C19.5872 22.1461 19.7567 22.0667 19.8849 21.9379L20.6178 21.2051C20.7465 21.0768 20.826 20.9072 20.8421 20.7261C20.8583 20.5451 20.8102 20.3641 20.7063 20.215L20.508 19.9301C20.5422 19.8554 20.5736 19.7801 20.6021 19.7042L20.9435 19.6424C21.1224 19.6106 21.2844 19.5168 21.401 19.3775C21.5176 19.2382 21.5815 19.0622 21.5813 18.8805V17.8438C21.5813 17.6621 21.5175 17.4861 21.4009 17.3466C21.2843 17.2072 21.1224 17.1132 20.9435 17.081V17.0814ZM24.1222 22.6611V13.8825C24.1221 13.7243 24.0592 13.5727 23.9474 13.4608C23.8356 13.349 23.6839 13.2862 23.5258 13.2861H10.5582C10.4 13.2862 10.2484 13.349 10.1366 13.4608C10.0247 13.5727 9.96186 13.7243 9.96178 13.8825V22.6608C9.96195 22.8189 10.0248 22.9705 10.1367 23.0823C10.2485 23.1941 10.4001 23.2569 10.5582 23.2571H15.1434C15.237 23.2572 15.3288 23.2819 15.4099 23.3286C15.4909 23.3753 15.5582 23.4425 15.6052 23.5234L17.0418 26.0131L18.4797 23.5234C18.5266 23.4425 18.5939 23.3754 18.6748 23.3286C18.7558 23.2819 18.8476 23.2572 18.9411 23.2571H23.5263C23.6844 23.2569 23.836 23.1941 23.9478 23.0823C24.0597 22.9705 24.1225 22.8189 24.1227 22.6608L24.1222 22.6611ZM23.5258 12.2212H10.5582C10.1176 12.2215 9.6952 12.3966 9.38363 12.7081C9.07206 13.0196 8.89679 13.4419 8.89627 13.8825V22.6608C8.89687 23.1013 9.07213 23.5236 9.38362 23.835C9.69511 24.1465 10.1174 24.3218 10.5579 24.3223H14.8355L16.5803 27.3446C16.6271 27.4256 16.6944 27.4928 16.7754 27.5396C16.8564 27.5863 16.9483 27.6109 17.0418 27.6109C17.1354 27.6109 17.2273 27.5863 17.3083 27.5396C17.3893 27.4928 17.4566 27.4256 17.5034 27.3446L19.2475 24.3223H23.5255C23.966 24.3218 24.3883 24.1465 24.6998 23.835C25.0113 23.5236 25.1866 23.1013 25.1872 22.6608V13.8825C25.1867 13.4419 25.0115 13.0195 24.7 12.708C24.3885 12.3965 23.9661 12.2213 23.5255 12.2208L23.5258 12.2212ZM2.86859 4.10548H4.62721V4.89059C4.6256 5.1861 4.68241 5.47902 4.79439 5.75251C4.90636 6.02599 5.07128 6.27464 5.27968 6.48418C5.48807 6.69371 5.73582 6.85998 6.00869 6.97344C6.28156 7.08691 6.57416 7.14532 6.86968 7.14532C7.1652 7.14532 7.45781 7.08691 7.73067 6.97344C8.00354 6.85998 8.2513 6.69371 8.45969 6.48418C8.66808 6.27464 8.83301 6.02599 8.94498 5.75251C9.05695 5.47902 9.11377 5.1861 9.11216 4.89059V4.10548H14.7989V4.89059C14.7973 5.18614 14.8541 5.47909 14.9661 5.75261C15.0781 6.02612 15.243 6.27481 15.4514 6.48436C15.6598 6.69392 15.9076 6.86022 16.1805 6.97369C16.4534 7.08717 16.7461 7.14558 17.0416 7.14558C17.3372 7.14558 17.6298 7.08717 17.9027 6.97369C18.1756 6.86022 18.4234 6.69392 18.6318 6.48436C18.8402 6.27481 19.0052 6.02612 19.1172 5.75261C19.2291 5.47909 19.286 5.18614 19.2844 4.89059V4.10548H24.9715V4.89059C24.9715 5.48527 25.2078 6.05559 25.6283 6.47609C26.0488 6.8966 26.6191 7.13283 27.2138 7.13283C27.8085 7.13283 28.3788 6.8966 28.7993 6.47609C29.2198 6.05559 29.456 5.48527 29.456 4.89059V4.10548H31.2151C31.6932 4.10599 32.1516 4.29614 32.4897 4.63421C32.8277 4.97228 33.0179 5.43066 33.0184 5.90876V9.8316H1.0653V5.90876C1.06581 5.43066 1.25597 4.97228 1.59404 4.63421C1.93211 4.29614 2.39048 4.10599 2.86859 4.10548ZM5.69244 2.25486V4.89039C5.69128 5.04573 5.72086 5.19977 5.7795 5.34362C5.83814 5.48748 5.92467 5.61831 6.0341 5.72856C6.14353 5.83882 6.27371 5.92633 6.41712 5.98605C6.56053 6.04577 6.71434 6.07652 6.86968 6.07652C7.02503 6.07652 7.17884 6.04577 7.32225 5.98605C7.46566 5.92633 7.59583 5.83882 7.70526 5.72856C7.8147 5.61831 7.90123 5.48748 7.95986 5.34362C8.0185 5.19977 8.04809 5.04573 8.04692 4.89039V2.25506C8.04809 2.09972 8.0185 1.94568 7.95986 1.80183C7.90123 1.65797 7.8147 1.52714 7.70526 1.41689C7.59583 1.30663 7.46566 1.21912 7.32225 1.1594C7.17884 1.09968 7.02503 1.06893 6.86968 1.06893C6.71434 1.06893 6.56053 1.09968 6.41712 1.1594C6.27371 1.21912 6.14353 1.30663 6.0341 1.41689C5.92467 1.52714 5.83814 1.65797 5.7795 1.80183C5.72086 1.94568 5.69128 2.09972 5.69244 2.25506V2.25486ZM15.8642 2.25486V4.89039C15.8642 5.20275 15.9883 5.50231 16.2091 5.72318C16.43 5.94405 16.7296 6.06813 17.0419 6.06813C17.3543 6.06813 17.6538 5.94405 17.8747 5.72318C18.0956 5.50231 18.2197 5.20275 18.2197 4.89039V2.25506C18.2197 1.9427 18.0956 1.64314 17.8747 1.42227C17.6538 1.2014 17.3543 1.07732 17.0419 1.07732C16.7296 1.07732 16.43 1.2014 16.2091 1.42227C15.9883 1.64314 15.8642 1.9427 15.8642 2.25506V2.25486ZM26.0368 2.25486V4.89039C26.0357 5.04573 26.0653 5.19977 26.1239 5.34362C26.1825 5.48748 26.2691 5.61831 26.3785 5.72856C26.4879 5.83882 26.6181 5.92633 26.7615 5.98605C26.9049 6.04577 27.0587 6.07652 27.2141 6.07652C27.3694 6.07652 27.5232 6.04577 27.6667 5.98605C27.8101 5.92633 27.9402 5.83882 28.0497 5.72856C28.1591 5.61831 28.2456 5.48748 28.3043 5.34362C28.3629 5.19977 28.3925 5.04573 28.3913 4.89039V2.25506C28.3925 2.09972 28.3629 1.94568 28.3043 1.80183C28.2456 1.65797 28.1591 1.52714 28.0497 1.41689C27.9402 1.30663 27.8101 1.21912 27.6667 1.1594C27.5232 1.09968 27.3694 1.06893 27.2141 1.06893C27.0587 1.06893 26.9049 1.09968 26.7615 1.1594C26.6181 1.21912 26.4879 1.30663 26.3785 1.41689C26.2691 1.52714 26.1825 1.65797 26.1239 1.80183C26.0653 1.94568 26.0357 2.09972 26.0368 2.25506V2.25486ZM31.2152 28.9346C31.6933 28.934 32.1516 28.7438 32.4896 28.4057C32.8277 28.0677 33.0179 27.6094 33.0185 27.1313V10.8969H1.06537V27.1315C1.06597 27.6096 1.25615 28.0679 1.5942 28.4059C1.93225 28.744 2.39058 28.9342 2.86866 28.9348L31.2152 28.9346ZM2.86866 29.9997H31.2151C31.9756 29.9988 32.7047 29.6963 33.2425 29.1585C33.7803 28.6208 34.0828 27.8917 34.0836 27.1311V5.90876C34.0828 5.14825 33.7803 4.41913 33.2425 3.88136C32.7047 3.3436 31.9756 3.0411 31.2151 3.04024H29.456V2.25473C29.456 1.66005 29.2198 1.08972 28.7993 0.669222C28.3788 0.24872 27.8085 0.0124843 27.2138 0.0124843C26.6191 0.0124843 26.0488 0.24872 25.6283 0.669222C25.2078 1.08972 24.9715 1.66005 24.9715 2.25473V3.04024H19.2844V2.25473C19.2811 1.66203 19.0434 1.09471 18.6232 0.67675C18.2029 0.258788 17.6343 0.0241706 17.0416 0.0241706C16.4489 0.0241706 15.8803 0.258788 15.4601 0.67675C15.0398 1.09471 14.8021 1.66203 14.7989 2.25473V3.04024H9.11216V2.25473C9.11377 1.95921 9.05695 1.66629 8.94498 1.39281C8.83301 1.11933 8.66808 0.870673 8.45969 0.661141C8.2513 0.451609 8.00354 0.285333 7.73067 0.171872C7.45781 0.0584098 7.1652 0 6.86968 0C6.57416 0 6.28156 0.0584098 6.00869 0.171872C5.73582 0.285333 5.48807 0.451609 5.27968 0.661141C5.07128 0.870673 4.90636 1.11933 4.79439 1.39281C4.68241 1.66629 4.6256 1.95921 4.62721 2.25473V3.04024H2.86859C2.10807 3.0411 1.37894 3.3436 0.841167 3.88136C0.303391 4.41912 0.000880947 5.14824 0 5.90876V27.1315C0.000880947 27.892 0.303391 28.6211 0.841167 29.1589C1.37894 29.6966 2.10807 29.9991 2.86859 30L2.86866 29.9997Z" fill="url(#paint0_linear_188_3614)"/>
<defs>
<linearGradient id="paint0_linear_188_3614" x1="17.0418" y1="30.0001" x2="17.0418" y2="0.012351" gradientUnits="userSpaceOnUse">
<stop stop-color="#6C54A3"/>
<stop offset="1" stop-color="#00B1D2"/>
</linearGradient>
</defs>
</svg>
