<svg width="716" height="600" viewBox="0 0 716 600" fill="none" xmlns="http://www.w3.org/2000/svg">
<path d="M715.75 580.287C715.75 580.287 555.526 600.001 357.875 600.001C160.226 600.001 0 580.287 0 580.287C0 580.287 160.226 544.044 357.875 544.044C555.526 544.044 715.75 580.287 715.75 580.287Z" fill="#EFF1F3"/>
<path d="M173.895 425.215H143.049V324.829H173.895V425.215Z" fill="#464648"/>
<path d="M155.398 543.52H164.82V436.322H155.398V543.52Z" fill="#B5B4B2"/>
<path d="M164.82 514.138L155.398 504.97V436.322H164.82V514.138Z" fill="#989998"/>
<path d="M167.706 475.16H152.381C148.161 475.16 144.74 471.739 144.74 467.519V436.322H175.349V467.519C175.349 471.739 171.928 475.16 167.706 475.16Z" fill="#464648"/>
<path d="M153.012 553.11L153.242 549.108L113.379 557.737L113.377 559.227L153.012 553.11Z" fill="#5E6061"/>
<path d="M126.935 562.292C126.928 566.784 123.409 570.421 119.076 570.414C114.739 570.409 111.229 566.761 111.236 562.266C111.243 557.779 114.765 554.139 119.101 554.146C123.435 554.153 126.942 557.802 126.935 562.292Z" fill="#2E2D2D"/>
<path d="M164.577 553.006L164.361 549.004L204.194 557.756L204.192 559.246L164.577 553.006Z" fill="#5E6061"/>
<path d="M190.01 562.266C190.003 566.761 193.512 570.409 197.844 570.414C202.18 570.421 205.704 566.784 205.711 562.292C205.717 557.802 202.206 554.153 197.869 554.146C193.538 554.139 190.017 557.779 190.01 562.266Z" fill="#2E2D2D"/>
<path d="M176.742 556.896H143.498L150.063 536.62H170.177L176.742 556.896Z" fill="#7E8081"/>
<path d="M155.814 547.642L164.536 547.656L162.67 558.483L157.643 558.474L155.814 547.642Z" fill="#5E6061"/>
<path d="M167.999 563.9C167.992 568.392 164.469 572.029 160.137 572.022C155.798 572.018 152.294 568.369 152.301 563.875C152.308 559.385 155.824 555.748 160.16 555.752C164.495 555.759 168.006 559.408 167.999 563.9Z" fill="#2E2D2D"/>
<path d="M179.97 452.615H140.27V448.2H179.97V452.615Z" fill="#7E8081"/>
<path d="M92.6194 434.388L92.6191 434.391H224.324V434.388C223.609 426.784 214.087 424.418 202.584 424.418H114.361C102.857 424.418 93.3359 426.784 92.6194 434.388Z" fill="#B87D1C"/>
<path d="M99.6407 449.461H217.304C221.905 449.461 225.635 445.596 225.635 440.825V435.131C225.635 431.436 222.639 428.441 218.944 428.441H97.9995C94.3042 428.441 91.3086 431.436 91.3086 435.131V440.825C91.3086 445.596 95.039 449.461 99.6407 449.461Z" fill="#F9B948"/>
<path d="M186.884 374.027H136.371C114.066 374.027 95.8184 355.779 95.8184 333.476V296.244C95.8184 273.941 114.066 255.693 136.371 255.693H186.884C209.187 255.693 227.435 273.941 227.435 296.244V333.476C227.435 355.779 209.187 374.027 186.884 374.027Z" fill="#F9B948"/>
<path d="M180.575 374.027H130.062C107.758 374.027 89.5098 355.779 89.5098 333.476V296.244C89.5098 273.941 107.758 255.693 130.062 255.693H180.575C202.878 255.693 221.126 273.941 221.126 296.244V333.476C221.126 355.779 202.878 374.027 180.575 374.027Z" fill="#E09822"/>
<path d="M197.706 286.105H110.074C109.294 286.105 108.656 285.466 108.656 284.688C108.656 283.907 109.294 283.27 110.074 283.27H197.706C198.485 283.27 199.124 283.907 199.124 284.688C199.124 285.466 198.485 286.105 197.706 286.105Z" fill="#B87D1C"/>
<path d="M197.706 309.816H110.074C109.294 309.816 108.656 309.177 108.656 308.399C108.656 307.618 109.294 306.981 110.074 306.981H197.706C198.485 306.981 199.124 307.618 199.124 308.399C199.124 309.177 198.485 309.816 197.706 309.816Z" fill="#B87D1C"/>
<path d="M197.706 333.527H110.074C109.294 333.527 108.656 332.891 108.656 332.11C108.656 331.331 109.294 330.692 110.074 330.692H197.706C198.485 330.692 199.124 331.331 199.124 332.11C199.124 332.891 198.485 333.527 197.706 333.527Z" fill="#B87D1C"/>
<path d="M484.949 425.215H454.1V324.829H484.949V425.215Z" fill="#464648"/>
<path d="M466.453 543.519H475.874V436.321H466.453V543.519Z" fill="#B5B4B2"/>
<path d="M475.874 514.137L466.453 504.969V436.321H475.874V514.137Z" fill="#989998"/>
<path d="M478.761 475.16H463.433C459.215 475.16 455.793 471.739 455.793 467.519V436.322H486.402V467.519C486.402 471.739 482.98 475.16 478.761 475.16Z" fill="#464648"/>
<path d="M464.064 553.111L464.295 549.109L424.433 557.738L424.43 559.228L464.064 553.111Z" fill="#5E6061"/>
<path d="M437.991 562.291C437.985 566.784 434.464 570.421 430.132 570.414C425.793 570.409 422.282 566.761 422.289 562.266C422.296 557.778 425.819 554.139 430.155 554.146C434.488 554.153 437.998 557.802 437.991 562.291Z" fill="#2E2D2D"/>
<path d="M475.632 553.006L475.418 549.004L515.252 557.756L515.248 559.246L475.632 553.006Z" fill="#5E6061"/>
<path d="M501.064 562.266C501.061 566.761 504.566 570.409 508.901 570.414C513.236 570.421 516.756 566.784 516.764 562.292C516.771 557.802 513.263 554.153 508.924 554.146C504.592 554.14 501.072 557.779 501.064 562.266Z" fill="#2E2D2D"/>
<path d="M487.794 556.896H454.549L461.116 536.62H481.231L487.794 556.896Z" fill="#7E8081"/>
<path d="M466.867 547.642L475.591 547.656L473.721 558.483L468.697 558.474L466.867 547.642Z" fill="#5E6061"/>
<path d="M479.053 563.901C479.046 568.393 475.526 572.03 471.191 572.023C466.855 572.019 463.346 568.37 463.354 563.875C463.361 559.386 466.88 555.749 471.216 555.753C475.548 555.76 479.06 559.409 479.053 563.901Z" fill="#2E2D2D"/>
<path d="M491.023 452.615H451.324V448.2H491.023V452.615Z" fill="#7E8081"/>
<path d="M403.674 434.388V434.391H535.376V434.388C534.659 426.784 525.139 424.419 513.637 424.419H425.413C413.911 424.419 404.387 426.784 403.674 434.388Z" fill="#B87D1C"/>
<path d="M410.695 449.461H528.356C532.956 449.461 536.688 445.596 536.688 440.825V435.131C536.688 431.436 533.691 428.441 529.999 428.441H409.052C405.36 428.441 402.363 431.436 402.363 435.131V440.825C402.363 445.596 406.095 449.461 410.695 449.461Z" fill="#F9B948"/>
<path d="M497.939 374.025H447.423C425.123 374.025 406.873 355.778 406.873 333.475V296.242C406.873 273.939 425.123 255.692 447.423 255.692H497.939C520.239 255.692 538.489 273.939 538.489 296.242V333.475C538.489 355.778 520.239 374.025 497.939 374.025Z" fill="#F9B948"/>
<path d="M491.63 374.025H441.114C418.812 374.025 400.564 355.778 400.564 333.475V296.242C400.564 273.939 418.812 255.692 441.114 255.692H491.63C513.932 255.692 532.18 273.939 532.18 296.242V333.475C532.18 355.778 513.932 374.025 491.63 374.025Z" fill="#E09822"/>
<path d="M508.764 286.104H421.129C420.353 286.104 419.713 285.464 419.713 284.686C419.713 283.905 420.353 283.268 421.129 283.268H508.764C509.54 283.268 510.18 283.905 510.18 284.686C510.18 285.464 509.54 286.104 508.764 286.104Z" fill="#B87D1C"/>
<path d="M508.764 309.816H421.129C420.353 309.816 419.713 309.177 419.713 308.399C419.713 307.618 420.353 306.981 421.129 306.981H508.764C509.54 306.981 510.18 307.618 510.18 308.399C510.18 309.177 509.54 309.816 508.764 309.816Z" fill="#B87D1C"/>
<path d="M508.764 333.525H421.129C420.353 333.525 419.713 332.889 419.713 332.108C419.713 331.33 420.353 330.691 421.129 330.691H508.764C509.54 330.691 510.18 331.33 510.18 332.108C510.18 332.889 509.54 333.525 508.764 333.525Z" fill="#B87D1C"/>
<path d="M498.65 431.713C498.65 431.713 514.874 431.334 514.874 412.849C514.874 394.367 498.65 371.185 498.65 371.185H420.4C420.4 371.185 406.098 394.046 402.28 403.705C398.461 413.363 394.467 431.713 418.977 431.713C443.486 431.713 498.65 431.713 498.65 431.713Z" fill="#1E1C26"/>
<path d="M382.643 544.13C382.643 544.13 385.355 536.626 387.859 531.344H401.577C406.421 540.393 406.018 559.038 406.421 569.233L357.052 568.869C352.095 564.046 382.643 544.13 382.643 544.13Z" fill="#B1B1B0"/>
<path d="M401.7 558.45C402.704 557.425 403.869 547.725 405.302 547.713C406.802 547.704 407.222 550.367 407.222 550.367C407.727 551.78 407.222 579.601 407.222 579.601C389.43 579.601 371.607 579.601 353.815 579.601C344.804 579.601 342.964 574.128 342.02 571.615C341.398 569.974 341.338 568.138 341.799 566.447C355.874 559.614 369.397 551.636 382.184 542.621C385.111 543.4 386.898 546.405 387.618 549.345C388.338 552.285 388.309 555.385 389.2 558.276C389.512 559.287 400.989 559.173 401.7 558.45Z" fill="#1B1918"/>
<path d="M483.097 401.022C454.776 399.302 427.796 394.842 399.424 394.57C390.86 394.489 384.01 396.009 380.121 399.504C376.227 403 374.88 423.274 387.816 433.148H485.069L483.097 401.022Z" fill="#1E1C26"/>
<path d="M481.883 577.426C484.123 572.455 486.123 567.8 487.853 562.529L487.039 532.318C487.01 530.112 484.941 528.351 482.792 528.388L469.385 528.553C467.47 528.585 461.785 554.416 461.785 554.416L450.258 571.497C449.167 572.926 448.145 575.692 447.572 577.426H481.883Z" fill="#B1B1B0"/>
<path d="M448.816 561.104L455.2 555.677L456.727 551.081C464.231 549.307 479.447 552.415 479.447 552.415L480.853 558.943C481.312 558.861 485.012 558.436 485.431 558.229C488.526 556.719 486.954 544.393 487.571 544.393C487.718 544.393 489.675 544.723 490.097 547.711C491.462 557.407 491.374 579.601 491.374 579.601H444.998C444.972 579.41 444.95 579.22 444.939 579.026C444.719 575.311 447.259 563.144 448.816 561.104Z" fill="#1B1918"/>
<path d="M439.23 238.221H473.792V197.111H439.23V238.221Z" fill="#D16652"/>
<path d="M473.792 197.111V209.754C465.195 216.709 453.577 221.404 439.23 222.395V197.111H473.792Z" fill="#80372A"/>
<path d="M515.407 237.009C519.657 239.206 527.167 243.958 528.147 247.079C529.128 250.2 556.285 323.224 558.078 328.574C561.667 339.299 530.247 348.806 527.569 341.876C524.895 334.948 495.514 280.7 495.514 280.7L501.871 236.519C501.871 236.519 510.92 234.694 515.407 237.009Z" fill="#262335"/>
<path d="M432.317 387.688C431.297 387.688 430.609 387.685 430.337 387.683C425.189 387.618 409.872 383.169 407.652 379.704C413.357 350.211 404.965 284.615 404.965 284.615C402.901 280.743 398.04 251.808 399.798 239.872L437.706 223.936L455.259 229.191H458.801L476.358 223.936L514.262 239.872C516.02 251.808 513.639 280.743 511.576 284.615C511.576 284.615 498.173 349.433 503.913 378.635L503.936 378.766C502.797 380.488 494.271 384.903 490.117 385.559C476.767 387.664 434.125 387.688 432.317 387.688Z" fill="#D3D8EC"/>
<path d="M463.7 245.401L470.323 238.978L466.384 228.217L457.031 227.383L447.674 228.217L443.739 238.978L450.362 245.401L439.982 346.327L457.031 366.26L474.08 346.327L463.7 245.401Z" fill="#8796CE"/>
<path d="M475.257 215.257L457.033 227.383L463.703 228.749L469.05 256.422L486.83 228.436L475.257 215.257Z" fill="#EBEEF6"/>
<path d="M438.805 215.254L457.028 227.384L450.357 228.747L445.012 256.422L427.229 228.435L438.805 215.254Z" fill="#EBEEF6"/>
<path d="M409.53 232.662C404.908 233.897 396.559 236.939 394.933 239.777C393.308 242.614 369.816 290.053 360.472 306.564C352.148 322.767 382.736 326.414 386.642 322.621C390.552 318.827 415.734 283.673 415.734 283.673L422.856 235.074C422.856 235.074 414.405 231.359 409.53 232.662Z" fill="#262335"/>
<path d="M518.77 239.24L483.967 225.175L470.106 307.679L462.916 392.804C489.278 396.506 514.183 405.786 516.063 403.906C519.147 400.822 507.867 369.15 507.293 364.737C501.251 318.056 513.17 285.464 513.17 285.464C513.17 285.464 520.827 250.551 518.77 239.24Z" fill="#262335"/>
<path d="M441.563 303.125C439.984 281.433 430.096 225.175 430.096 225.175L396.242 238.515C394.187 249.827 400.889 285.463 400.889 285.463C400.889 285.463 407.044 322.359 405.657 362.762C405.327 366.775 385.845 391.774 387.789 394.565C389.736 397.356 421.916 397.3 436.819 395.755C436.819 395.755 443.146 324.818 441.563 303.125Z" fill="#262335"/>
<path d="M396.277 331.165C396.277 331.165 400.153 328.656 402.394 328.574C403.965 328.521 407.045 331.181 407.045 331.181L404.504 332.078L396.277 331.165Z" fill="#D16652"/>
<path d="M404.966 331.404L395.765 346.757C395.765 346.757 388.447 349.84 385.323 347.27C382.201 344.7 380.917 340.484 381.661 338.523C382.402 336.563 391.026 332.415 395.51 330.87C399.992 329.325 404.966 331.404 404.966 331.404Z" fill="#D16652"/>
<path d="M404.092 331.184C404.092 331.184 409.169 330.227 412.492 331.823C415.813 333.42 424.941 344.277 426.062 345.497C427.323 346.866 423.613 348.112 422.184 347.424C419.307 346.046 411.473 336.248 409.625 335.665C407.776 335.081 400.805 336.132 400.805 336.132L404.092 331.184Z" fill="#D16652"/>
<path d="M400.258 334.888C400.258 334.888 405.336 333.93 408.659 335.524C411.978 337.121 419.814 346.784 421.423 348.501C423.033 350.219 418.757 351.12 417.19 350.249C414.404 348.706 407.063 340.73 405.216 340.147C403.369 339.563 396.971 339.835 396.971 339.835L400.258 334.888Z" fill="#D16652"/>
<path d="M395.116 340.259C395.116 340.259 399.892 338.516 403.06 339.357C406.232 340.201 413.83 347.452 415.386 348.702C416.941 349.952 412.924 351.505 411.423 351.003C408.762 350.113 401.662 344.279 399.908 344.082C398.15 343.884 392.117 345.246 392.117 345.246L395.116 340.259Z" fill="#D16652"/>
<path d="M390.439 343.109C390.439 343.109 394.901 340.99 397.467 342.315C399.364 343.295 406.55 348.317 407.927 349.424C409.302 350.527 408.045 352.505 406.718 352.061C404.364 351.273 397.546 347.037 395.994 346.862C394.439 346.688 387.785 347.523 387.785 347.523L390.439 343.109Z" fill="#D16652"/>
<path d="M401.664 327.265L377.171 345.031C377.171 345.031 362.615 327.281 359.667 319.3C356.244 310.042 361.171 301.764 370.544 300.017C377.695 298.685 382.84 301.59 386.275 305.811C395.851 317.596 401.664 327.265 401.664 327.265Z" fill="#262335"/>
<path d="M465.934 329.94C465.934 329.94 462.061 327.432 459.819 327.353C458.248 327.298 455.166 329.959 455.166 329.959L457.71 330.855L465.934 329.94Z" fill="#D16652"/>
<path d="M457.248 330.181L466.45 345.531C466.45 345.531 473.765 348.615 476.89 346.047C480.015 343.477 481.296 339.261 480.557 337.3C479.81 335.338 471.188 331.192 466.703 329.647C462.221 328.099 457.248 330.181 457.248 330.181Z" fill="#D16652"/>
<path d="M458.122 329.964C458.122 329.964 453.042 329.006 449.719 330.602C446.4 332.197 437.272 343.057 436.149 344.274C434.89 345.643 438.597 346.891 440.03 346.204C442.903 344.823 450.741 335.027 452.589 334.444C454.433 333.861 461.407 334.911 461.407 334.911L458.122 329.964Z" fill="#D16652"/>
<path d="M461.956 333.663C461.956 333.663 456.877 332.705 453.556 334.302C450.232 335.899 442.401 345.561 440.789 347.277C439.182 348.994 443.454 349.898 445.023 349.027C447.81 347.481 455.15 339.505 456.999 338.922C458.842 338.339 465.241 338.611 465.241 338.611L461.956 333.663Z" fill="#D16652"/>
<path d="M467.096 339.034C467.096 339.034 462.32 337.294 459.152 338.135C455.98 338.978 448.383 346.229 446.829 347.479C445.272 348.73 449.29 350.282 450.787 349.78C453.453 348.888 460.547 343.057 462.306 342.859C464.062 342.662 470.098 344.024 470.098 344.024L467.096 339.034Z" fill="#D16652"/>
<path d="M471.775 341.887C471.775 341.887 467.309 339.767 464.745 341.089C462.848 342.07 455.661 347.092 454.284 348.198C452.908 349.305 454.167 351.282 455.494 350.839C457.851 350.05 464.667 345.814 466.222 345.64C467.773 345.465 474.425 346.297 474.425 346.297L471.775 341.887Z" fill="#D16652"/>
<path d="M470.639 326.266L473.526 351.232C473.526 351.232 541.894 349.949 549.765 346.726C558.9 342.987 561.664 333.759 556.615 325.671C552.759 319.503 547.14 317.677 541.705 318.004C526.553 318.915 470.639 326.266 470.639 326.266Z" fill="#262335"/>
<path d="M375.965 539.006C375.965 539.006 369.228 445.025 371.15 413.956C373.177 381.144 416.016 388.395 416.016 412.908C416.016 438.474 416.016 539.006 416.016 539.006H375.965Z" fill="#1E1C26"/>
<path d="M456.18 539.445L454.535 417.505C460.138 375.13 497.707 382.427 499.998 411.356C502.289 440.284 494.552 539.445 494.552 539.445H456.18Z" fill="#1E1C26"/>
<path d="M465.109 202.04C466.634 202.734 468.437 202.673 470.031 202.174C471.624 201.675 473.044 200.776 474.395 199.825C477.965 197.322 481.437 194.008 481.878 189.752C482.026 188.328 481.777 186.793 480.819 185.687C479.678 184.372 477.694 183.924 475.971 184.292C474.254 184.661 472.773 185.734 471.609 187.006L465.109 202.04Z" fill="#D16652"/>
<path d="M426.307 195.976C424.642 196.176 422.944 195.564 421.577 194.602C420.213 193.64 419.137 192.348 418.139 191.033C415.502 187.562 413.206 183.342 414.086 179.158C414.377 177.758 415.083 176.368 416.336 175.609C417.822 174.706 419.847 174.882 421.374 175.759C422.902 176.636 423.981 178.108 424.701 179.672L426.307 195.976Z" fill="#D16652"/>
<path d="M471.133 205.071C474.429 192.059 479.074 184.896 482.394 177.601C484.806 172.121 487.872 162.597 482.57 152.949C477.403 142.98 461.712 135.32 445.952 137.24C430.086 139.148 420.266 146.716 420.525 157.12C420.511 163.319 420.069 171.836 420.106 178.24C420.135 183.564 417.741 188.53 418.872 193.891C421.087 203.156 432.523 220.587 443.412 222.291C452.312 223.681 469.386 210.702 471.133 205.071Z" fill="#D16652"/>
<path d="M445.113 192.332C444.899 192.332 444.655 192.176 444.488 191.836C444.39 191.629 444.336 191.364 444.342 191.068C444.356 190.776 444.437 190.46 444.59 190.165C444.753 189.869 444.974 189.631 445.209 189.462C445.446 189.299 445.694 189.197 445.922 189.173C445.976 189.166 446.024 189.163 446.071 189.163C446.442 189.163 446.673 189.346 446.73 189.57C446.795 189.835 446.696 190.104 446.612 190.355C446.52 190.613 446.425 190.851 446.285 191.099C446.153 191.35 446.007 191.564 445.847 191.782C445.681 191.989 445.511 192.223 445.256 192.305C445.212 192.322 445.164 192.332 445.113 192.332Z" fill="#E49E8A"/>
<path d="M443.376 191.564C443.363 191.378 443.353 191.208 443.346 191.06C443.343 190.911 443.339 190.782 443.343 190.65C443.346 190.518 443.359 190.366 443.393 190.2C443.424 190.031 443.471 189.848 443.529 189.659C443.637 189.287 443.755 188.901 443.789 188.566C443.823 188.231 443.772 187.941 443.61 187.744C443.444 187.548 443.261 187.524 443.038 187.629C442.815 187.741 442.548 187.981 442.257 188.35C441.969 188.719 441.644 189.236 441.479 189.896C441.397 190.221 441.367 190.579 441.391 190.917C441.411 191.263 441.485 191.594 441.58 191.915C441.675 192.233 441.797 192.524 441.932 192.795C442.064 193.066 442.216 193.309 442.361 193.526C442.659 193.962 442.947 194.311 443.194 194.571C443.688 195.095 444.002 195.308 444.232 195.034C444.452 194.781 444.489 194.432 444.263 193.881C444.154 193.603 443.982 193.279 443.792 192.89C443.698 192.697 443.606 192.487 443.529 192.264C443.454 192.047 443.4 191.807 443.376 191.564Z" fill="#80372A"/>
<path d="M454.944 177.471C456.466 177.359 458.009 177.534 459.475 177.962C460.945 178.39 462.341 179.077 463.579 179.996C464.81 180.922 464.003 182.192 462.713 181.659C461.429 181.119 460.145 180.659 458.837 180.273C457.529 179.891 456.199 179.582 454.831 179.344C453.463 179.098 453.425 177.59 454.944 177.471Z" fill="#1B1918"/>
<path d="M436.793 174.509C435.361 173.97 433.839 173.696 432.308 173.689C430.779 173.683 429.244 173.944 427.793 174.472C426.348 175.007 426.759 176.452 428.147 176.311C429.532 176.158 430.896 176.084 432.261 176.087C433.625 176.091 434.987 176.174 436.364 176.338C437.746 176.492 438.214 175.054 436.793 174.509Z" fill="#1B1918"/>
<path d="M433.622 185.538L434.154 182.024C434.409 180.334 433.234 178.743 431.543 178.488C429.853 178.235 428.262 179.408 428.007 181.098L427.478 184.612C427.223 186.302 433.37 187.229 433.622 185.538Z" fill="#1B1918"/>
<path d="M454.735 188.835L455.304 185.329C455.576 183.641 457.181 182.486 458.869 182.755C460.554 183.03 461.712 184.635 461.44 186.32L460.872 189.829C460.6 191.514 454.463 190.524 454.735 188.835Z" fill="#1B1918"/>
<path d="M437.859 198.597C441.539 200.552 445.81 200.576 449.603 198.765C450.689 198.25 451.73 197.59 452.709 196.786C453.125 196.442 452.791 195.57 452.376 195.913C449.06 198.641 445.03 199.662 441.237 198.83C440.161 198.593 439.117 198.195 438.113 197.662C437.667 197.421 437.416 198.363 437.859 198.597Z" fill="#1B1918"/>
<path d="M488.311 177.948C488.883 177.185 489.309 176.279 489.54 175.229C489.624 174.848 489.672 174.477 489.694 174.114C490.321 173.56 490.751 172.779 490.765 171.909C490.776 170.966 490.413 170.093 489.808 169.469C490.461 168.541 490.897 167.448 490.993 166.248C491.11 164.817 490.758 163.496 490.09 162.374C490.366 161.937 490.531 161.434 490.538 160.899C490.56 159.512 489.775 158.272 488.571 157.784C489.048 156.129 488.938 154.401 487.823 152.794C487.606 152.482 487.368 152.196 487.115 151.932C487.834 151.176 488.23 150.072 487.973 149.044C487.57 147.39 486.11 146.337 484.459 146.575C484.363 146.212 484.235 145.856 484.077 145.511C484.583 145.188 485.093 144.869 485.6 144.546C486.931 143.703 487.772 141.989 486.913 140.478C486.161 139.16 484.275 138.262 482.844 139.164C482.022 139.685 481.197 140.206 480.375 140.727C480.364 140.606 480.346 140.485 480.316 140.36C480.28 140.224 480.236 140.092 480.184 139.96C480.349 139.781 480.518 139.601 480.698 139.425C481.824 138.317 482.066 136.335 480.881 135.15C479.759 134.028 477.818 133.778 476.611 134.967C476.552 135.029 476.493 135.095 476.435 135.154C476.427 135.033 476.427 134.908 476.416 134.783C476.369 134.299 476.152 133.855 475.829 133.485C475.969 132.597 475.76 131.661 475.099 131.001C473.951 129.853 472.065 129.662 470.825 130.817C470.697 130.938 470.568 131.063 470.432 131.184C470.337 130.575 470.084 129.996 469.695 129.57C468.532 128.301 466.833 128.403 465.531 129.313C465.538 128.029 464.691 126.789 463.436 126.385C462.665 126.136 461.869 126.235 461.19 126.576C461.301 125.248 460.317 123.88 459.077 123.476C457.415 122.94 455.9 123.913 455.273 125.428C455.1 125.835 454.931 126.246 454.759 126.657C454.744 126.547 454.737 126.437 454.719 126.33C454.502 124.76 452.657 123.597 451.145 123.982C449.784 124.327 448.944 125.369 448.797 126.642C448.735 126.411 448.669 126.176 448.603 125.941C448.17 124.371 446.698 123.249 445.029 123.597C444.556 123.692 444.112 123.924 443.73 124.239C442.919 123.025 441.151 122.467 439.845 123.212C438.407 124.03 437.776 125.762 438.531 127.281C438.612 127.442 438.693 127.603 438.774 127.761C438.451 127.901 438.161 128.088 437.922 128.334C437.878 128.378 437.842 128.429 437.798 128.473C437.915 127.079 437.233 125.615 435.765 125.208C434.286 124.8 432.353 125.516 431.957 127.16C431.872 127.523 431.814 127.893 431.77 128.264C431.278 127.765 430.621 127.438 429.873 127.427C428.281 127.409 426.721 128.59 426.685 130.278C426.67 130.99 426.736 131.676 426.835 132.351C426.457 132.696 426.149 133.136 425.973 133.687C425.826 134.152 425.804 134.655 425.881 135.147C425.026 134.853 424.175 134.556 423.32 134.259C420.741 133.364 419.024 135.895 419.394 138.016C417.857 137.587 416.008 138.46 415.56 140.103C415.469 140.441 415.439 140.782 415.45 141.12C414.585 141.23 413.777 141.688 413.245 142.367C412.148 141.325 410.219 141.211 409.118 142.312C407.955 143.479 407.797 145.328 408.934 146.586C409.301 146.994 409.69 147.375 410.097 147.727C408.993 147.683 407.837 148.215 407.28 149.195C406.795 150.053 406.707 151 406.961 151.848C406.208 152.255 405.585 152.959 405.335 153.737C404.767 155.516 405.787 157.043 407.324 157.736C407.449 157.791 407.57 157.861 407.698 157.923C406.733 159.912 406.608 162.113 407.254 164.061C406.381 164.487 405.717 165.342 405.662 166.644C405.467 171.344 409.239 175.728 413.931 175.692C413.403 177.145 413.631 178.763 415.025 179.669C416.305 180.505 418.576 180.245 419.317 178.685C420.224 176.778 420.851 174.84 421.119 172.771C423.115 171.927 424.718 170.372 425.224 167.906C425.613 166.009 425.14 164.391 424.204 163.038C425.184 161.735 425.687 160.051 425.602 158.33C426.971 157.582 428.06 156.404 428.515 154.684C428.695 154.023 428.739 153.348 428.684 152.684C430.122 151.976 431.351 150.842 432.181 149.448C435.27 150.648 438.876 149.727 440.777 147.001C443.092 147.955 445.557 148.109 447.63 147.126C449.938 149.022 453.46 149.004 456.678 148.223C458.193 150.068 460.53 151.205 462.676 151.055C463.205 153.143 464.966 154.702 467.141 155.685C466.712 159.097 468.737 162.297 471.911 163.874C471.669 165.551 472.058 167.268 473.045 168.721C471.339 169.495 470.066 171.028 469.699 173.101C469.42 174.683 469.776 176.176 470.528 177.46C469.317 179.405 469.178 181.951 470.517 184.016C470.165 186.83 472.234 189.267 474.578 189.894C475.217 190.984 476.589 191.681 477.829 191.365C479.359 190.976 480.324 189.641 480.203 188.1C483.417 187.568 486.579 186.009 487.397 182.516C487.562 182.409 487.72 182.292 487.849 182.156C488.414 181.58 488.847 180.817 488.861 179.984C488.872 179.305 488.722 178.513 488.311 177.948Z" fill="#271B1A"/>
<path d="M249.303 115.832L285.114 123.713L294.485 81.1161L258.675 73.2354L249.303 115.832Z" fill="#F0A68B"/>
<path d="M294.488 81.1175L291.607 94.2158C281.112 99.465 268.007 101.683 252.912 99.4369L258.677 73.2367L294.488 81.1175Z" fill="#D16652"/>
<path d="M334.3 137.335C337.538 141.241 342.892 149.004 342.551 152.457C342.214 155.909 335.337 248.134 334.861 254.1C333.909 266.059 299.525 246 299.79 238.12C300.055 230.244 296.729 171.718 296.729 171.718L321.293 131.231C321.293 131.231 330.882 133.211 334.3 137.335Z" fill="#262335"/>
<path d="M284.566 243.434C283.227 304.922 285.862 411.17 283.368 427.173C280.849 443.355 247.431 416.634 246.349 400.315C245.962 394.452 247.503 388.613 247.515 382.74C247.527 377.547 245.25 372.559 245.164 367.349C244.419 321.864 235.455 315.478 228.954 287.425L218.43 243.434H284.566Z" fill="#211F2D"/>
<path d="M185.777 582.963C192.888 579.566 199.156 575.978 200.918 572.324L201.703 540.005C201.977 537.602 202.498 534.669 200.151 534.344L189.477 532.87C187.383 532.58 185.429 533.893 184.875 535.968C183.686 540.421 179.507 555.16 179.507 555.16C172.561 562.008 165.614 568.857 158.67 575.706C156.551 577.795 154.297 579.928 154.09 582.963C154.083 583.061 185.777 582.963 185.777 582.963Z" fill="#B1B1B0"/>
<path d="M201.497 548.546C200.823 548.443 203.235 565.817 195.317 567.11C194.808 567.191 194.297 567.23 193.783 567.24L193.156 559.903C193.156 559.903 181.908 554.709 173.479 555.367L171.531 559.368L147.571 572.555C145.589 574.509 142.593 577.463 142.315 581.539C142.275 582.113 142.531 582.766 143 583.461H203.556C203.556 583.461 202.168 548.648 201.497 548.546Z" fill="#1B1918"/>
<path d="M306.609 582.848C306.609 582.848 305.155 577.733 303.544 575.623L287.713 554.879C287.713 554.879 285.719 541.458 285.182 537.414C284.93 535.529 283.375 534.119 281.523 534.089L272.081 533.928C270.003 533.891 268.288 535.597 268.262 537.728L267.182 566.949C269.021 572.541 271.167 577.416 273.595 582.764L306.609 582.848Z" fill="#B1B1B0"/>
<path d="M305.121 574.356L294.412 560.324L292.932 555.876C285.677 554.163 275.32 557.168 275.32 557.168L273.957 563.482C273.511 563.403 273.069 563.298 272.636 563.161C265.893 560.96 268.057 549.408 267.46 549.408C266.863 549.406 259.799 583.461 259.799 583.461H308.636C308.659 583.277 308.682 583.092 308.69 582.906C308.904 579.313 306.626 576.329 305.121 574.356Z" fill="#1B1918"/>
<path d="M194.6 242.77C177.757 303.602 183.421 407.803 185.966 423.806C188.541 439.988 222.694 413.267 223.798 396.948C224.193 391.082 222.62 385.247 222.607 379.371C222.595 374.18 223.805 369.055 225.008 363.98C231.651 335.928 245.683 307.879 252.329 279.828V240.066L194.6 242.77Z" fill="#211F2D"/>
<path d="M179.835 544.468C179.416 521.23 179.814 497.988 180.209 474.751C180.406 463.076 180.606 451.4 180.804 439.724C181.085 423.275 182.047 406.615 188.103 391.098C189.909 386.468 219.012 374.516 222.605 379.373C222.605 379.373 225.029 402.262 226.546 412.627C227.543 419.448 226.188 426.352 224.836 433.124C217.49 469.927 213.651 507.665 206.302 544.468H179.835Z" fill="#211F2D"/>
<path d="M289.953 546.341C290.362 523.104 289.39 501.354 289.002 478.116C288.81 466.441 288.615 454.765 288.42 443.09C288.147 426.641 287.206 409.98 281.281 394.463C279.511 389.835 251.029 377.882 247.514 382.738C247.514 382.738 245.145 405.628 243.661 415.992C242.681 422.813 244.009 429.718 245.333 436.49C252.52 473.292 255.947 509.636 263.135 546.438L289.953 546.341Z" fill="#211F2D"/>
<path d="M208.061 269.13C207.001 268.896 206.29 268.736 206.007 268.669C200.689 267.43 185.832 259.326 184.324 255.231C196.96 225.972 197.415 206.765 197.856 188.186C198.105 177.734 200.652 155.527 200.652 155.527C199.397 151.048 203.527 120.52 208.068 108.555L250.979 100.688L267.971 110.135L271.639 110.943L291.027 109.5L326.672 134.656C325.77 147.42 316.704 176.862 313.684 180.403C313.684 180.403 306.038 202.029 301.305 211.592C293.298 227.773 285.017 244.505 284.306 276.075L284.302 276.212C282.729 277.738 272.892 280.37 268.432 280.1C254.122 279.238 209.934 269.541 208.061 269.13Z" fill="#D3D8EC"/>
<path d="M273.022 128.855L281.346 123.709L279.719 111.66L270.218 108.667L260.333 107.394L253.801 117.648L259.198 125.814L225.434 228.017L238.551 252.561L260.762 235.794L273.022 128.855Z" fill="#8796CE"/>
<path d="M291.866 100.252L270.217 108.663L276.819 111.599L276.047 141.492L300.856 116.546L291.866 100.252Z" fill="#EBEEF6"/>
<path d="M254.096 91.9421L270.218 108.665L262.996 108.556L251.144 136.014L239.102 102.959L254.096 91.9421Z" fill="#EBEEF6"/>
<path d="M200.359 107.328C195.78 109.515 187.663 114.31 186.522 117.587C185.381 120.865 161.118 190.113 154.588 209.151C149.059 227.669 184.639 235.725 187.979 231.006C191.316 226.294 220.029 154.308 220.029 154.308L214.728 107.248C214.728 107.248 205.192 105.018 200.359 107.328Z" fill="#262335"/>
<path d="M331.486 135.03L298.631 112.518L268.747 195.569L243.961 301.53C255.722 314.004 281.946 316.369 285.521 313.438C289.099 310.507 289.772 285.701 290.184 280.999C294.566 231.25 315.143 181.648 315.143 181.648C315.143 181.648 331.035 147.218 331.486 135.03Z" fill="#262335"/>
<path d="M236.632 187.74L242.814 100.233L204.695 106.337C199.985 117.591 198.804 156.044 198.804 156.044C198.804 156.044 199.834 209.518 181.523 255.446C180.268 259.531 169.696 284.441 171.077 287.774C172.455 291.111 201.121 304.393 215.17 298.971L236.632 187.74Z" fill="#262335"/>
<path d="M323.563 258.055C324.44 255.77 321.546 231.192 312.863 225.868C304.178 220.548 216.816 191.567 216.816 191.567C216.816 191.567 210.483 198.307 210.744 204.677C210.744 204.677 271.864 241.53 280.006 246.136C288.143 250.741 322.689 260.345 323.563 258.055Z" fill="#F0A68B"/>
<path d="M220.385 193.602C220.385 193.602 207.907 182.395 206.88 181.542L197.178 207.732L214.989 205.784L220.385 193.602Z" fill="#F0A68B"/>
<path d="M231.725 191.16L220.174 216.395C220.174 216.395 275.805 248.003 299.186 258.532C322.563 269.06 334.936 262.122 334.696 253.289C334.456 244.46 330.103 230.497 315.733 223.442C301.367 216.384 231.725 191.16 231.725 191.16Z" fill="#262335"/>
<path d="M164.651 224.092C165.269 221.722 178.888 196.392 189.047 197.105C199.206 197.818 296.304 234.714 296.304 234.714C296.304 234.714 288.794 247.525 284.801 248.205C284.801 248.205 234.079 239.045 215.698 237.302C206.387 236.421 164.035 226.466 164.651 224.092Z" fill="#F0A68B"/>
<path d="M277.525 244.869C282.313 249.03 288.367 251.147 293.874 254.1C296.12 255.303 298.859 256.487 300.912 255.195C302.066 254.47 302.691 253.118 303.261 251.839C305.088 247.714 302.704 240.699 304.826 235.248C306.317 231.422 306.892 227.069 304.808 226.858C299.319 226.3 290.174 228.988 283.926 230.582C283.03 230.81 282.218 231.291 281.565 231.974C279.031 234.647 273.462 241.341 277.525 244.869Z" fill="#F0A68B"/>
<path d="M301.35 239.833C307.006 241.22 310.916 241.809 315.648 241.741C318.612 241.697 322.24 239.936 331.832 236.729C335.398 235.54 331.626 232.265 327.941 233.06C322.43 234.246 323.417 234.297 316.793 234.941C311.415 235.464 307.217 232.355 302.097 232.007C298.648 231.771 297.975 239.006 301.35 239.833Z" fill="#F0A68B"/>
<path d="M301.854 245.308C309.974 246.511 312.543 247.969 317.929 247.771C322.021 247.622 324.271 246.435 331.002 245.441C335.623 244.757 334.034 240.117 329.424 240.799C322.531 241.817 320.093 241.613 320.093 241.613C313.181 241.999 306.752 238.928 299.921 238.48C295.322 238.184 297.279 244.63 301.854 245.308Z" fill="#F0A68B"/>
<path d="M298.477 249.253C304.98 252.041 311.324 254.013 314.666 254.189C316.217 254.27 327.175 252.252 330.317 251.066C333.465 249.882 331.76 247.105 328.812 247.445C326.559 247.705 319.062 248.437 314.193 248.199C307.279 247.864 297.458 242.293 297.458 242.293C292.933 241.534 294.216 247.429 298.477 249.253Z" fill="#F0A68B"/>
<path d="M296.512 255.364C302.299 257.644 304.51 257.721 307.123 258.372C308.333 258.675 312.933 258.865 315.704 259.382C317.196 259.661 321.485 259.801 321.485 259.801C322.79 259.023 322.324 256.94 320.787 256.674C318.994 256.366 315.625 255.894 311.815 254.958C306.414 253.629 301.919 249.983 296.768 247.956C293.304 246.59 293.04 253.998 296.512 255.364Z" fill="#F0A68B"/>
<path d="M288.424 230.697C288.424 230.697 295.026 226.19 300.644 225.243C306.261 224.301 312.041 223.72 314.329 223.993C318.262 224.471 315.57 229.727 310.272 230.449C305.799 231.057 303.287 234.266 303.287 234.266L288.424 230.697Z" fill="#F0A68B"/>
<path d="M271.455 250.141L283.227 224.028C283.227 224.028 196.406 194.714 189.018 192.108C181.632 189.5 166.869 196.671 163.05 206.34C159.232 216.01 158.733 224.422 168.56 228.917C178.392 233.412 271.455 250.141 271.455 250.141Z" fill="#262335"/>
<path d="M312.882 80.8424C314.12 67.3528 317.623 59.481 319.788 51.6829C321.332 45.844 322.888 35.8656 316.087 27.0782C309.363 17.9494 292.518 12.7855 277.108 17.1773C261.589 21.5729 252.988 30.6629 254.885 40.9945C255.842 47.1786 256.746 55.7371 257.789 62.1192C258.654 67.4227 257.048 72.7494 259.016 77.9133C262.686 86.8054 278.884 100.326 290.008 100.307C299.098 100.295 312.025 86.7317 312.882 80.8424Z" fill="#F0A68B"/>
<path d="M289.054 67.4961C288.979 67.4961 288.908 67.4783 288.847 67.4462C288.605 67.3215 288.47 67.0612 288.338 66.8295C288.209 66.5872 288.099 66.3555 288.006 66.081C287.906 65.8137 287.846 65.5606 287.792 65.2897C287.75 65.026 287.693 64.7408 287.799 64.4878C287.874 64.306 288.074 64.1705 288.363 64.1705C288.455 64.1705 288.555 64.1848 288.666 64.2168C288.887 64.2739 289.122 64.4129 289.336 64.6161C289.542 64.8192 289.724 65.0937 289.838 65.4109C289.949 65.7281 289.977 66.0561 289.949 66.3519C289.91 66.6442 289.817 66.9008 289.681 67.0933C289.489 67.3749 289.257 67.4961 289.054 67.4961Z" fill="#F6CBB9"/>
<path d="M290.828 66.9972C290.871 66.8114 290.91 66.6471 290.939 66.5007C290.964 66.3507 290.989 66.2221 291.007 66.09C291.024 65.9578 291.032 65.8042 291.024 65.6328C291.021 65.4613 290.999 65.2684 290.974 65.0756C290.924 64.6827 290.864 64.2827 290.885 63.9434C290.899 63.6041 290.996 63.3219 291.189 63.154C291.382 62.9826 291.571 62.9861 291.774 63.1254C291.978 63.2683 292.21 63.5505 292.442 63.9648C292.675 64.3755 292.917 64.9434 292.982 65.6256C293.014 65.9614 292.985 66.3257 292.91 66.6614C292.835 67.0007 292.714 67.3186 292.567 67.6258C292.425 67.9294 292.257 68.2008 292.082 68.4473C291.903 68.6973 291.717 68.9187 291.539 69.1116C291.178 69.5009 290.835 69.801 290.549 70.026C289.974 70.4724 289.628 70.6331 289.439 70.326C289.264 70.0367 289.278 69.6831 289.589 69.1688C289.739 68.9116 289.964 68.6151 290.21 68.2544C290.335 68.0758 290.46 67.8829 290.571 67.6722C290.678 67.4651 290.771 67.2365 290.828 66.9972Z" fill="#D16652"/>
<path d="M299.361 53.1426C300.862 52.7936 302.425 52.7246 303.955 52.9209C305.485 53.1171 306.99 53.5824 308.368 54.302C309.741 55.0326 309.138 56.4246 307.764 56.0975C306.401 55.7595 305.046 55.5051 303.683 55.327C302.32 55.1489 300.946 55.0508 299.543 55.029C298.14 54.9999 297.863 53.4988 299.361 53.1426Z" fill="#1B1918"/>
<path d="M280.796 53.0423C279.288 52.7334 277.725 52.7007 276.202 52.9333C274.675 53.1659 273.185 53.6675 271.818 54.4235C270.466 55.1832 271.102 56.5608 272.462 56.2009C273.821 55.8302 275.169 55.5431 276.529 55.3322C277.888 55.1214 279.259 54.9906 280.658 54.936C282.061 54.8706 282.301 53.3658 280.796 53.0423Z" fill="#1B1918"/>
<path d="M279.375 64.5391L279.35 60.9538C279.339 59.2278 277.916 57.8261 276.193 57.8369C274.467 57.8514 273.065 59.2711 273.076 60.9971L273.101 64.5824C273.112 66.3084 279.389 66.2651 279.375 64.5391Z" fill="#1B1918"/>
<path d="M300.936 64.5092L300.95 60.9236C300.957 59.1975 302.373 57.7922 304.099 57.7994C305.826 57.8066 307.231 59.2227 307.224 60.9488L307.209 64.5344C307.202 66.2605 300.928 66.2353 300.936 64.5092Z" fill="#1B1918"/>
<path d="M283.438 78.22C288.799 80.4543 295.17 79.4702 299.694 75.8772C300.395 75.3204 299.404 74.3468 298.714 74.8966C294.557 78.199 288.68 78.9134 283.806 76.8823C283.459 76.7352 283.049 77.0398 282.955 77.369C282.843 77.7647 283.095 78.0764 283.438 78.22Z" fill="#A12C35"/>
<path d="M306.795 47.7782C303.277 47.1561 299.976 45.3215 298.185 42.4844C295.78 38.6844 298.098 33.3905 294.642 32.3523C289.164 30.7039 278.281 35.8274 273.414 33.0339C272.385 32.4435 271.523 31.6351 270.883 30.7039C269.719 32.3563 268.004 33.8264 266.345 35.126C263.352 37.4679 260.056 40.1663 259.861 43.7167C259.74 45.9 260.848 47.9645 261.45 50.0805C262.596 54.0984 259.396 66.1324 259.396 66.1324C258.204 64.4999 254.825 58.4016 253.963 55.8141C252.964 52.8185 253.44 49.5732 252.694 46.5182C251.894 43.2372 249.719 40.309 249.045 37.0043C248.276 33.2399 249.689 29.1942 252.617 26.4125C252.387 24.5819 252.317 22.7393 252.524 20.9007C252.963 16.9898 254.792 13.055 258.257 10.63C261.332 8.47837 265.81 7.80477 269.273 9.28674C275.336 4.04834 282.464 -0.714577 290.617 0.0898056C297.955 0.818901 303.693 5.91861 310.453 8.56951C314.407 10.1228 318.726 10.8321 322.725 12.2982C326.723 13.7643 330.602 16.2488 331.953 19.9181C332.635 21.7685 332.389 23.9122 331.422 25.6478C332.579 26.472 333.467 27.6686 333.788 28.9485C334.485 31.7857 333.197 34.7021 331.664 37.2658C330.134 39.8255 323.513 43.257 322.998 46.1259C322.411 49.3632 314.352 69.1875 314.352 69.1875L315.683 48.0675C315.683 48.0675 310.992 48.5192 306.795 47.7782Z" fill="#271B1A"/>
<path d="M265.909 75.6477C264.278 76.107 262.487 75.7634 260.976 75.022C259.464 74.277 258.187 73.163 256.983 72.0056C253.812 68.9567 250.858 65.1157 251.076 60.8045C251.15 59.3614 251.636 57.8641 252.761 56.9129C254.104 55.7772 256.151 55.6361 257.807 56.2691C259.467 56.902 260.777 58.2005 261.742 59.6472L265.909 75.6477Z" fill="#F0A68B"/>
<path d="M441.628 350.359H306.557C305.454 350.359 304.802 349.242 305.103 347.875C305.404 346.509 306.554 345.391 307.66 345.391H442.731C443.83 345.391 444.487 346.509 444.186 347.875C443.881 349.242 442.731 350.359 441.628 350.359Z" fill="#DDDAE3"/>
<path d="M279.183 350.146H383.279C385.867 350.146 388.197 347.764 387.547 345.78L359.562 260.425C359.076 258.957 357.576 258.037 355.659 258.037H255.448C251.563 258.037 248.073 261.609 249.048 264.586L276.58 348.552C276.899 349.533 277.902 350.146 279.183 350.146Z" fill="#DDDAE3"/>
<path d="M275.503 350.334H379.813C382.404 350.334 384.739 347.947 384.087 345.958L356.045 260.432C355.562 258.96 354.057 258.037 352.135 258.037H251.723C247.832 258.037 246.17 261.295 247.147 264.278L272.894 348.737C273.22 349.718 274.221 350.334 275.503 350.334Z" fill="#646278"/>
<path d="M145.273 359.863H570.03V350.332H145.273V359.863Z" fill="#A39EB3"/>
<path d="M170.547 359.864H544.752V365.525H170.547V359.864Z" fill="#646278"/>
<path d="M183.514 363.708V587.09H233.542V431.714H485.165V587.09H535.195V363.708H183.514Z" fill="#646278"/>
<path d="M619.82 60.6922C619.82 87.1893 598.343 108.666 571.846 108.666C545.354 108.666 523.877 87.1893 523.877 60.6922C523.877 34.1997 545.354 12.723 571.846 12.723C598.343 12.723 619.82 34.1997 619.82 60.6922Z" fill="#D3D8EC"/>
<path d="M571.845 13.7281C545.946 13.7281 524.879 34.8003 524.879 60.6991C524.879 86.5934 545.946 107.661 571.845 107.661C597.744 107.661 618.807 86.5934 618.807 60.6991C618.807 34.8003 597.744 13.7281 571.845 13.7281ZM571.845 112.416C543.325 112.416 520.119 89.2151 520.119 60.6991C520.119 32.1741 543.325 8.96872 571.845 8.96872C600.366 8.96872 623.571 32.1741 623.571 60.6991C623.571 89.2151 600.366 112.416 571.845 112.416Z" fill="#262335"/>
<path d="M573.736 20.8037C573.736 21.8476 572.892 22.6953 571.848 22.6953C570.804 22.6953 569.961 21.8476 569.961 20.8037C569.961 19.7639 570.804 18.9162 571.848 18.9162C572.892 18.9162 573.736 19.7639 573.736 20.8037Z" fill="#262335"/>
<path d="M573.736 101.611C573.736 102.655 572.892 103.498 571.848 103.498C570.804 103.498 569.961 102.655 569.961 101.611C569.961 100.567 570.804 99.7232 571.848 99.7232C572.892 99.7232 573.736 100.567 573.736 101.611Z" fill="#262335"/>
<path d="M614.327 58.5559C614.327 59.6002 613.482 60.4453 612.442 60.4453C611.398 60.4453 610.553 59.6002 610.553 58.5559C610.553 57.5116 611.398 56.6665 612.442 56.6665C613.482 56.6665 614.327 57.5116 614.327 58.5559Z" fill="#262335"/>
<path d="M532.325 60.6976C532.325 61.7408 531.482 62.584 530.439 62.584C529.396 62.584 528.553 61.7408 528.553 60.6976C528.553 59.6505 529.396 58.8034 530.439 58.8034C531.482 58.8034 532.325 59.6505 532.325 60.6976Z" fill="#262335"/>
<path d="M578.148 62.2279C578.148 65.2623 575.69 67.7168 572.655 67.7168C569.625 67.7168 567.162 65.2623 567.162 62.2279C567.162 59.1934 569.625 56.7347 572.655 56.7347C575.69 56.7347 578.148 59.1934 578.148 62.2279Z" fill="#262335"/>
<path d="M572.577 60.5558C572.949 61.415 572.473 62.4494 571.518 62.8582C570.559 63.2753 569.483 62.9124 569.111 62.049L561.057 43.4007C560.686 42.5414 561.166 41.5112 562.121 41.0983C563.076 40.6854 564.152 41.0441 564.528 41.9033L572.577 60.5558Z" fill="#262335"/>
<path d="M575.157 62.8399C574.449 63.2596 573.461 62.8923 572.954 62.0267C572.442 61.1612 572.608 60.1251 573.316 59.7054L602.947 42.3019C603.651 41.8866 604.639 42.2495 605.146 43.1151C605.658 43.985 605.496 45.0211 604.783 45.4408L575.157 62.8399Z" fill="#262335"/>
</svg>
